<?xml version="1.0" encoding="UTF-8" standalone="no"?>
<!DOCTYPE svg PUBLIC "-//W3C//DTD SVG 1.1//EN"
 "http://www.w3.org/Graphics/SVG/1.1/DTD/svg11.dtd">
<!-- Generated by graphviz version 7.0.5 (20221223.1930)
 -->
<!-- Title: Veery.UI.FileExplorerController Pages: 1 -->
<svg width="582pt" height="104pt"
 viewBox="0.00 0.00 582.00 104.00" xmlns="http://www.w3.org/2000/svg" xmlns:xlink="http://www.w3.org/1999/xlink">
<g id="graph0" class="graph" transform="scale(1 1) rotate(0) translate(4 100)">
<title>Veery.UI.FileExplorerController</title>
<!-- Node1 -->
<g id="node1" class="node">
<title>Node1</title>
<g id="a_node1"><a xlink:title="The FileExplorerController is used to control ONE file explorer and its elements (FileExplorerElement...">
<polygon fill="#999999" stroke="#666666" points="315,-19 167,-19 167,0 315,0 315,-19"/>
<text text-anchor="middle" x="241" y="-7" font-family="Helvetica,sans-Serif" font-size="10.00">Veery.UI.FileExplorerController</text>
</a>
</g>
</g>
<!-- Node2 -->
<g id="node2" class="node">
<title>Node2</title>
<g id="a_node2"><a xlink:title=" ">
<polygon fill="white" stroke="#666666" points="84,-96 0,-96 0,-77 84,-77 84,-96"/>
<text text-anchor="middle" x="42" y="-84" font-family="Helvetica,sans-Serif" font-size="10.00">MonoBehaviour</text>
</a>
</g>
</g>
<!-- Node2&#45;&gt;Node1 -->
<g id="edge1" class="edge">
<title>Node2&#45;&gt;Node1</title>
<path fill="none" stroke="#63b8ff" d="M63.75,-70.52C80.19,-59.81 103.68,-45.79 126,-37 145.35,-29.38 167.43,-23.64 187.04,-19.48"/>
<polygon fill="#63b8ff" stroke="#63b8ff" points="62.13,-67.39 55.75,-75.85 66.01,-73.22 62.13,-67.39"/>
</g>
<!-- Node3 -->
<g id="node3" class="node">
<title>Node3</title>
<g id="a_node3"><a xlink:title=" ">
<polygon fill="white" stroke="#666666" points="147.5,-96 102.5,-96 102.5,-77 147.5,-77 147.5,-96"/>
<text text-anchor="middle" x="125" y="-84" font-family="Helvetica,sans-Serif" font-size="10.00">Button</text>
</a>
</g>
</g>
<!-- Node3&#45;&gt;Node1 -->
<g id="edge2" class="edge">
<title>Node3&#45;&gt;Node1</title>
<path fill="none" stroke="#9a32cd" stroke-dasharray="5,2" d="M128.4,-65.68C131.07,-55.79 135.77,-44.39 144,-37 152.89,-29.01 163.97,-23.39 175.43,-19.46"/>
<polygon fill="#9a32cd" stroke="#9a32cd" points="125.05,-64.63 126.37,-75.14 131.89,-66.1 125.05,-64.63"/>
<text text-anchor="middle" x="190.5" y="-45.5" font-family="Helvetica,sans-Serif" font-size="10.00"> _explorerBackButton</text>
</g>
<!-- Node4 -->
<g id="node4" class="node">
<title>Node4</title>
<g id="a_node4"><a xlink:title=" ">
<polygon fill="white" stroke="#666666" points="291,-96 191,-96 191,-77 291,-77 291,-96"/>
<text text-anchor="middle" x="241" y="-84" font-family="Helvetica,sans-Serif" font-size="10.00">TextMeshProUGUI</text>
</a>
</g>
</g>
<!-- Node4&#45;&gt;Node1 -->
<g id="edge3" class="edge">
<title>Node4&#45;&gt;Node1</title>
<path fill="none" stroke="#9a32cd" stroke-dasharray="5,2" d="M241,-65.42C241,-50.43 241,-30.66 241,-19.39"/>
<polygon fill="#9a32cd" stroke="#9a32cd" points="237.5,-65.09 241,-75.09 244.5,-65.09 237.5,-65.09"/>
<text text-anchor="middle" x="300.5" y="-45.5" font-family="Helvetica,sans-Serif" font-size="10.00"> _explorerCurrentFolderText</text>
</g>
<!-- Node5 -->
<g id="node5" class="node">
<title>Node5</title>
<g id="a_node5"><a xlink:title=" ">
<polygon fill="white" stroke="#666666" points="418.5,-96 347.5,-96 347.5,-77 418.5,-77 418.5,-96"/>
<text text-anchor="middle" x="383" y="-84" font-family="Helvetica,sans-Serif" font-size="10.00">DirectoryInfo</text>
</a>
</g>
</g>
<!-- Node5&#45;&gt;Node1 -->
<g id="edge4" class="edge">
<title>Node5&#45;&gt;Node1</title>
<path fill="none" stroke="#9a32cd" stroke-dasharray="5,2" d="M378.57,-65.8C375.32,-55.77 369.89,-44.2 361,-37 347.99,-26.45 331.67,-19.88 315.3,-15.84"/>
<polygon fill="#9a32cd" stroke="#9a32cd" points="375.17,-66.66 381.13,-75.42 381.93,-64.85 375.17,-66.66"/>
<text text-anchor="middle" x="407.5" y="-45.5" font-family="Helvetica,sans-Serif" font-size="10.00"> _currentFolder</text>
</g>
<!-- Node6 -->
<g id="node6" class="node">
<title>Node6</title>
<g id="a_node6"><a xlink:title=" ">
<polygon fill="white" stroke="#666666" points="507.5,-96 436.5,-96 436.5,-77 507.5,-77 507.5,-96"/>
<text text-anchor="middle" x="472" y="-84" font-family="Helvetica,sans-Serif" font-size="10.00">GameObject</text>
</a>
</g>
</g>
<!-- Node6&#45;&gt;Node1 -->
<g id="edge5" class="edge">
<title>Node6&#45;&gt;Node1</title>
<path fill="none" stroke="#9a32cd" stroke-dasharray="5,2" d="M465.6,-66.05C461.18,-55.74 454.22,-43.82 444,-37 423.27,-23.16 364.32,-16.53 315.26,-13.37"/>
<polygon fill="#9a32cd" stroke="#9a32cd" points="462.25,-67.09 469.02,-75.23 468.81,-64.64 462.25,-67.09"/>
<text text-anchor="middle" x="518" y="-51" font-family="Helvetica,sans-Serif" font-size="10.00"> _explorerElementPrefab</text>
<text text-anchor="middle" x="518" y="-40" font-family="Helvetica,sans-Serif" font-size="10.00">_explorerListContainerGO</text>
</g>
</g>
</svg>
