<?xml version="1.0" encoding="UTF-8" standalone="no"?>
<!DOCTYPE svg PUBLIC "-//W3C//DTD SVG 1.1//EN"
 "http://www.w3.org/Graphics/SVG/1.1/DTD/svg11.dtd">
<!-- Generated by graphviz version 7.0.5 (20221223.1930)
 -->
<!-- Title: Veery.UI.Selection.SelectionProperties Pages: 1 -->
<svg width="768pt" height="324pt"
 viewBox="0.00 0.00 768.00 323.59" xmlns="http://www.w3.org/2000/svg" xmlns:xlink="http://www.w3.org/1999/xlink">
<g id="graph0" class="graph" transform="scale(1 1) rotate(0) translate(4 319.59)">
<title>Veery.UI.Selection.SelectionProperties</title>
<!-- Node1 -->
<g id="node1" class="node">
<title>Node1</title>
<g id="a_node1"><a xlink:title=" ">
<polygon fill="#999999" stroke="#666666" points="760,-123.09 620,-123.09 620,-93.09 760,-93.09 760,-123.09"/>
<text text-anchor="start" x="628" y="-111.09" font-family="Helvetica,sans-Serif" font-size="10.00">Veery.UI.Selection.Selection</text>
<text text-anchor="middle" x="690" y="-100.09" font-family="Helvetica,sans-Serif" font-size="10.00">Properties</text>
</a>
</g>
</g>
<!-- Node2 -->
<g id="node2" class="node">
<title>Node2</title>
<g id="a_node2"><a xlink:title=" ">
<polygon fill="white" stroke="#666666" points="125,-315.59 41,-315.59 41,-296.59 125,-296.59 125,-315.59"/>
<text text-anchor="middle" x="83" y="-303.59" font-family="Helvetica,sans-Serif" font-size="10.00">MonoBehaviour</text>
</a>
</g>
</g>
<!-- Node2&#45;&gt;Node1 -->
<g id="edge1" class="edge">
<title>Node2&#45;&gt;Node1</title>
<path fill="none" stroke="#63b8ff" d="M136.48,-311.13C181.99,-314.26 249.41,-315.87 307,-305.09 445,-279.24 483.56,-267.48 602,-192.09 632.29,-172.81 660.93,-141.81 676.61,-123.34"/>
<polygon fill="#63b8ff" stroke="#63b8ff" points="136.85,-307.65 126.62,-310.4 136.33,-314.63 136.85,-307.65"/>
</g>
<!-- Node7 -->
<g id="node7" class="node">
<title>Node7</title>
<g id="a_node7"><a xlink:href="class_veery_1_1_interaction_1_1_distance_select_interactor.html" target="_top" xlink:title="An interactor that selects interactables based on their distance from the interactor&#39;s pointer.">
<polygon fill="white" stroke="#666666" points="460,-210.09 330,-210.09 330,-180.09 460,-180.09 460,-210.09"/>
<text text-anchor="start" x="338" y="-198.09" font-family="Helvetica,sans-Serif" font-size="10.00">Veery.Interaction.Distance</text>
<text text-anchor="middle" x="395" y="-187.09" font-family="Helvetica,sans-Serif" font-size="10.00">SelectInteractor</text>
</a>
</g>
</g>
<!-- Node2&#45;&gt;Node7 -->
<g id="edge12" class="edge">
<title>Node2&#45;&gt;Node7</title>
<path fill="none" stroke="#9a32cd" stroke-dasharray="5,2" d="M136.2,-293.82C151.58,-290.27 168.45,-286.45 184,-283.09 238.52,-271.28 255.92,-280.51 307,-258.09 333.98,-246.24 360.8,-225.02 377.37,-210.51"/>
<polygon fill="#9a32cd" stroke="#9a32cd" points="135.73,-290.33 126.78,-296 137.31,-297.15 135.73,-290.33"/>
<text text-anchor="middle" x="245.5" y="-297.09" font-family="Helvetica,sans-Serif" font-size="10.00"> _canvasInteractor</text>
<text text-anchor="middle" x="245.5" y="-286.09" font-family="Helvetica,sans-Serif" font-size="10.00">_selector</text>
</g>
<!-- Node3 -->
<g id="node3" class="node">
<title>Node3</title>
<g id="a_node3"><a xlink:href="struct_veery_1_1_u_i_1_1_selection_1_1_selection_properties_1_1_selection_prefab.html" target="_top" xlink:title=" ">
<polygon fill="white" stroke="#666666" points="465,-63.09 325,-63.09 325,-33.09 465,-33.09 465,-63.09"/>
<text text-anchor="start" x="333" y="-51.09" font-family="Helvetica,sans-Serif" font-size="10.00">Veery.UI.Selection.Selection</text>
<text text-anchor="middle" x="395" y="-40.09" font-family="Helvetica,sans-Serif" font-size="10.00">Properties.SelectionPrefab</text>
</a>
</g>
</g>
<!-- Node3&#45;&gt;Node1 -->
<g id="edge2" class="edge">
<title>Node3&#45;&gt;Node1</title>
<path fill="none" stroke="#9a32cd" stroke-dasharray="5,2" d="M476.6,-64.59C521.42,-73.77 576.65,-85.08 619.55,-93.87"/>
<polygon fill="#9a32cd" stroke="#9a32cd" points="477.42,-61.19 466.92,-62.61 476.01,-68.04 477.42,-61.19"/>
<text text-anchor="middle" x="542.5" y="-91.09" font-family="Helvetica,sans-Serif" font-size="10.00"> _PropertyPrefabs</text>
</g>
<!-- Node4 -->
<g id="node4" class="node">
<title>Node4</title>
<g id="a_node4"><a xlink:title=" ">
<polygon fill="white" stroke="#666666" points="103.5,-72.59 62.5,-72.59 62.5,-53.59 103.5,-53.59 103.5,-72.59"/>
<text text-anchor="middle" x="83" y="-60.59" font-family="Helvetica,sans-Serif" font-size="10.00">string</text>
</a>
</g>
</g>
<!-- Node4&#45;&gt;Node3 -->
<g id="edge3" class="edge">
<title>Node4&#45;&gt;Node3</title>
<path fill="none" stroke="#9a32cd" stroke-dasharray="5,2" d="M115.19,-57.62C134.86,-54.45 160.83,-50.76 184,-49.09 230.91,-45.71 283.87,-45.48 324.87,-46.09"/>
<polygon fill="#9a32cd" stroke="#9a32cd" points="114.62,-54.17 105.33,-59.26 115.77,-61.07 114.62,-54.17"/>
<text text-anchor="middle" x="245.5" y="-52.09" font-family="Helvetica,sans-Serif" font-size="10.00"> _interfaceName</text>
</g>
<!-- Node6 -->
<g id="node6" class="node">
<title>Node6</title>
<g id="a_node6"><a xlink:href="struct_veery_1_1_u_i_1_1_selection_1_1_selection_properties_1_1_parameter_prefab.html" target="_top" xlink:title=" ">
<polygon fill="white" stroke="#666666" points="465,-123.09 325,-123.09 325,-93.09 465,-93.09 465,-123.09"/>
<text text-anchor="start" x="333" y="-111.09" font-family="Helvetica,sans-Serif" font-size="10.00">Veery.UI.Selection.Selection</text>
<text text-anchor="middle" x="395" y="-100.09" font-family="Helvetica,sans-Serif" font-size="10.00">Properties.ParameterPrefab</text>
</a>
</g>
</g>
<!-- Node4&#45;&gt;Node6 -->
<g id="edge6" class="edge">
<title>Node4&#45;&gt;Node6</title>
<path fill="none" stroke="#9a32cd" stroke-dasharray="5,2" d="M114.96,-68.28C130.63,-71.5 149.72,-76.32 166,-83.09 174.66,-86.68 175.06,-91.25 184,-94.09 229.45,-108.52 283.13,-111.88 324.84,-111.7"/>
<polygon fill="#9a32cd" stroke="#9a32cd" points="115.72,-64.86 105.24,-66.42 114.4,-71.74 115.72,-64.86"/>
<text text-anchor="middle" x="245.5" y="-114.09" font-family="Helvetica,sans-Serif" font-size="10.00"> _typeName</text>
</g>
<!-- Node5 -->
<g id="node5" class="node">
<title>Node5</title>
<g id="a_node5"><a xlink:title=" ">
<polygon fill="white" stroke="#666666" points="118.5,-23.59 47.5,-23.59 47.5,-4.59 118.5,-4.59 118.5,-23.59"/>
<text text-anchor="middle" x="83" y="-11.59" font-family="Helvetica,sans-Serif" font-size="10.00">GameObject</text>
</a>
</g>
</g>
<!-- Node5&#45;&gt;Node1 -->
<g id="edge8" class="edge">
<title>Node5&#45;&gt;Node1</title>
<path fill="none" stroke="#9a32cd" stroke-dasharray="5,2" d="M130.13,-8.76C202.24,-1.59 345.76,7.99 465,-13.09 541.12,-26.54 622.88,-69.31 663.31,-92.6"/>
<polygon fill="#9a32cd" stroke="#9a32cd" points="129.86,-5.26 120.27,-9.77 130.57,-12.23 129.86,-5.26"/>
<text text-anchor="middle" x="395" y="-16.09" font-family="Helvetica,sans-Serif" font-size="10.00"> _contentGO</text>
</g>
<!-- Node5&#45;&gt;Node3 -->
<g id="edge4" class="edge">
<title>Node5&#45;&gt;Node3</title>
<path fill="none" stroke="#9a32cd" stroke-dasharray="5,2" d="M130.41,-15.63C175.64,-17.55 246.3,-21.67 307,-30.09 312.81,-30.89 318.8,-31.85 324.81,-32.91"/>
<polygon fill="#9a32cd" stroke="#9a32cd" points="130.56,-12.13 120.43,-15.22 130.28,-19.12 130.56,-12.13"/>
<text text-anchor="middle" x="245.5" y="-33.09" font-family="Helvetica,sans-Serif" font-size="10.00"> _prefab</text>
</g>
<!-- Node5&#45;&gt;Node6 -->
<g id="edge7" class="edge">
<title>Node5&#45;&gt;Node6</title>
<path fill="none" stroke="#9a32cd" stroke-dasharray="5,2" d="M128.57,-27.87C141.07,-32.54 154.41,-38.32 166,-45.09 175,-50.33 174.54,-55.73 184,-60.09 234.36,-83.3 253.07,-68.17 307,-81.09 320.53,-84.33 335.04,-88.53 348.26,-92.65"/>
<polygon fill="#9a32cd" stroke="#9a32cd" points="129.89,-24.62 119.29,-24.56 127.53,-31.21 129.89,-24.62"/>
<text text-anchor="middle" x="245.5" y="-84.09" font-family="Helvetica,sans-Serif" font-size="10.00"> _prefab</text>
</g>
<!-- Node6&#45;&gt;Node1 -->
<g id="edge5" class="edge">
<title>Node6&#45;&gt;Node1</title>
<path fill="none" stroke="#9a32cd" stroke-dasharray="5,2" d="M476.88,-108.09C521.66,-108.09 576.74,-108.09 619.55,-108.09"/>
<polygon fill="#9a32cd" stroke="#9a32cd" points="476.95,-104.59 466.95,-108.09 476.95,-111.59 476.95,-104.59"/>
<text text-anchor="middle" x="542.5" y="-111.09" font-family="Helvetica,sans-Serif" font-size="10.00"> _ParameterPrefabs</text>
</g>
<!-- Node7&#45;&gt;Node1 -->
<g id="edge9" class="edge">
<title>Node7&#45;&gt;Node1</title>
<path fill="none" stroke="#9a32cd" stroke-dasharray="5,2" d="M459.03,-176.37C512.13,-160.6 587.2,-138.31 636.95,-123.54"/>
<polygon fill="#9a32cd" stroke="#9a32cd" points="458.09,-173 449.5,-179.2 460.08,-179.71 458.09,-173"/>
<text text-anchor="middle" x="542.5" y="-180.09" font-family="Helvetica,sans-Serif" font-size="10.00"> _distanceSelectInteractor1</text>
<text text-anchor="middle" x="542.5" y="-169.09" font-family="Helvetica,sans-Serif" font-size="10.00">_distanceSelectInteractor2</text>
</g>
<!-- Node8 -->
<g id="node8" class="node">
<title>Node8</title>
<g id="a_node8"><a xlink:href="class_pointer_interactor.html" target="_top" xlink:title=" ">
<polygon fill="white" stroke="#666666" points="155,-132.59 11,-132.59 11,-91.59 155,-91.59 155,-132.59"/>
<text text-anchor="start" x="19" y="-120.59" font-family="Helvetica,sans-Serif" font-size="10.00">PointerInteractor&lt;</text>
<text text-anchor="start" x="19" y="-109.59" font-family="Helvetica,sans-Serif" font-size="10.00"> DistanceSelectInteractor,</text>
<text text-anchor="middle" x="83" y="-98.59" font-family="Helvetica,sans-Serif" font-size="10.00"> DistanceSelectInteractable &gt;</text>
</a>
</g>
</g>
<!-- Node8&#45;&gt;Node7 -->
<g id="edge10" class="edge">
<title>Node8&#45;&gt;Node7</title>
<path fill="none" stroke="#63b8ff" d="M165.97,-134.03C219.56,-148.38 288.25,-166.77 336.17,-179.6"/>
<polygon fill="#63b8ff" stroke="#63b8ff" points="167.15,-130.73 156.58,-131.52 165.34,-137.49 167.15,-130.73"/>
</g>
<!-- Node9 -->
<g id="node9" class="node">
<title>Node9</title>
<g id="a_node9"><a xlink:href="class_i_distance_interactor.html" target="_top" xlink:title=" ">
<polygon fill="white" stroke="#666666" points="132.5,-265.59 33.5,-265.59 33.5,-246.59 132.5,-246.59 132.5,-265.59"/>
<text text-anchor="middle" x="83" y="-253.59" font-family="Helvetica,sans-Serif" font-size="10.00">IDistanceInteractor</text>
</a>
</g>
</g>
<!-- Node9&#45;&gt;Node7 -->
<g id="edge11" class="edge">
<title>Node9&#45;&gt;Node7</title>
<path fill="none" stroke="#63b8ff" d="M144.12,-255.87C189.56,-254.41 253.11,-249.56 307,-235.09 327.87,-229.48 349.98,-219.25 366.69,-210.54"/>
<polygon fill="#63b8ff" stroke="#63b8ff" points="144.09,-252.37 134.19,-256.14 144.28,-259.37 144.09,-252.37"/>
</g>
<!-- Node10 -->
<g id="node10" class="node">
<title>Node10</title>
<g id="a_node10"><a xlink:title=" ">
<polygon fill="white" stroke="#666666" points="113.5,-228.59 52.5,-228.59 52.5,-209.59 113.5,-209.59 113.5,-228.59"/>
<text text-anchor="middle" x="83" y="-216.59" font-family="Helvetica,sans-Serif" font-size="10.00">Transform</text>
</a>
</g>
</g>
<!-- Node10&#45;&gt;Node7 -->
<g id="edge13" class="edge">
<title>Node10&#45;&gt;Node7</title>
<path fill="none" stroke="#9a32cd" stroke-dasharray="5,2" d="M124.89,-215.92C177.15,-211.88 268.21,-204.83 329.77,-200.06"/>
<polygon fill="#9a32cd" stroke="#9a32cd" points="124.93,-212.41 115.23,-216.67 125.47,-219.39 124.93,-212.41"/>
<text text-anchor="middle" x="245.5" y="-225.09" font-family="Helvetica,sans-Serif" font-size="10.00"> _selectCenter</text>
<text text-anchor="middle" x="245.5" y="-214.09" font-family="Helvetica,sans-Serif" font-size="10.00">_selectTarget</text>
</g>
<!-- Node11 -->
<g id="node11" class="node">
<title>Node11</title>
<g id="a_node11"><a xlink:title=" ">
<polygon fill="white" stroke="#666666" points="166,-191.59 0,-191.59 0,-150.59 166,-150.59 166,-191.59"/>
<text text-anchor="start" x="8" y="-179.59" font-family="Helvetica,sans-Serif" font-size="10.00">DistantCandidateComputer</text>
<text text-anchor="start" x="8" y="-168.59" font-family="Helvetica,sans-Serif" font-size="10.00">&lt; Veery.Interaction.DistanceSelect</text>
<text text-anchor="middle" x="83" y="-157.59" font-family="Helvetica,sans-Serif" font-size="10.00">Interactable &gt;</text>
</a>
</g>
</g>
<!-- Node11&#45;&gt;Node7 -->
<g id="edge14" class="edge">
<title>Node11&#45;&gt;Node7</title>
<path fill="none" stroke="#9a32cd" stroke-dasharray="5,2" d="M177.69,-177.39C217.56,-180.18 264.57,-183.61 307,-187.09 314.41,-187.69 322.17,-188.36 329.87,-189.04"/>
<polygon fill="#9a32cd" stroke="#9a32cd" points="178.1,-173.91 167.88,-176.71 177.61,-180.89 178.1,-173.91"/>
<text text-anchor="middle" x="245.5" y="-190.09" font-family="Helvetica,sans-Serif" font-size="10.00"> _distantCandidateComputer</text>
</g>
</g>
</svg>
