<?xml version="1.0" encoding="UTF-8" standalone="no"?>
<!DOCTYPE svg PUBLIC "-//W3C//DTD SVG 1.1//EN"
 "http://www.w3.org/Graphics/SVG/1.1/DTD/svg11.dtd">
<!-- Generated by graphviz version 7.0.5 (20221223.1930)
 -->
<!-- Title: Veery.Interaction.AdvancedControllerSelector Pages: 1 -->
<svg width="439pt" height="223pt"
 viewBox="0.00 0.00 439.00 223.00" xmlns="http://www.w3.org/2000/svg" xmlns:xlink="http://www.w3.org/1999/xlink">
<g id="graph0" class="graph" transform="scale(1 1) rotate(0) translate(4 219)">
<title>Veery.Interaction.AdvancedControllerSelector</title>
<!-- Node1 -->
<g id="node1" class="node">
<title>Node1</title>
<g id="a_node1"><a xlink:title="A selector that allows for advanced selection logic based on controller input.">
<polygon fill="#999999" stroke="#666666" points="431,-141.5 296,-141.5 296,-111.5 431,-111.5 431,-141.5"/>
<text text-anchor="start" x="304" y="-129.5" font-family="Helvetica,sans-Serif" font-size="10.00">Veery.Interaction.Advanced</text>
<text text-anchor="middle" x="363.5" y="-118.5" font-family="Helvetica,sans-Serif" font-size="10.00">ControllerSelector</text>
</a>
</g>
</g>
<!-- Node2 -->
<g id="node2" class="node">
<title>Node2</title>
<g id="a_node2"><a xlink:title=" ">
<polygon fill="white" stroke="#666666" points="119.5,-215 35.5,-215 35.5,-196 119.5,-196 119.5,-215"/>
<text text-anchor="middle" x="77.5" y="-203" font-family="Helvetica,sans-Serif" font-size="10.00">MonoBehaviour</text>
</a>
</g>
</g>
<!-- Node2&#45;&gt;Node1 -->
<g id="edge1" class="edge">
<title>Node2&#45;&gt;Node1</title>
<path fill="none" stroke="#63b8ff" d="M131.26,-212.46C172.6,-215.81 230.83,-215.77 278,-197.5 308.02,-185.88 335.03,-158.93 350.05,-141.78"/>
<polygon fill="#63b8ff" stroke="#63b8ff" points="131.59,-208.98 121.31,-211.56 130.95,-215.95 131.59,-208.98"/>
</g>
<!-- Node2&#45;&gt;Node1 -->
<g id="edge3" class="edge">
<title>Node2&#45;&gt;Node1</title>
<path fill="none" stroke="#9a32cd" stroke-dasharray="5,2" d="M130.97,-193.95C180.45,-182.92 250.93,-166.78 278,-158.5 293.6,-153.73 310.47,-147.55 325.01,-141.9"/>
<polygon fill="#9a32cd" stroke="#9a32cd" points="130.3,-190.52 121.3,-196.11 131.82,-197.35 130.3,-190.52"/>
<text text-anchor="middle" x="225.5" y="-185.5" font-family="Helvetica,sans-Serif" font-size="10.00"> _controller</text>
</g>
<!-- Node3 -->
<g id="node3" class="node">
<title>Node3</title>
<g id="a_node3"><a xlink:href="class_i_selector.html" target="_top" xlink:title=" ">
<polygon fill="white" stroke="#666666" points="105.5,-173 49.5,-173 49.5,-154 105.5,-154 105.5,-173"/>
<text text-anchor="middle" x="77.5" y="-161" font-family="Helvetica,sans-Serif" font-size="10.00">ISelector</text>
</a>
</g>
</g>
<!-- Node3&#45;&gt;Node1 -->
<g id="edge2" class="edge">
<title>Node3&#45;&gt;Node1</title>
<path fill="none" stroke="#63b8ff" d="M117.36,-158.82C157.59,-153.93 222.22,-145.95 278,-138.5 283.73,-137.73 289.67,-136.92 295.63,-136.1"/>
<polygon fill="#63b8ff" stroke="#63b8ff" points="116.96,-155.34 107.45,-160.02 117.8,-162.29 116.96,-155.34"/>
</g>
<!-- Node4 -->
<g id="node4" class="node">
<title>Node4</title>
<g id="a_node4"><a xlink:title=" ">
<polygon fill="white" stroke="#666666" points="135,-136 20,-136 20,-117 135,-117 135,-136"/>
<text text-anchor="middle" x="77.5" y="-124" font-family="Helvetica,sans-Serif" font-size="10.00">ControllerButtonUsage</text>
</a>
</g>
</g>
<!-- Node4&#45;&gt;Node1 -->
<g id="edge4" class="edge">
<title>Node4&#45;&gt;Node1</title>
<path fill="none" stroke="#9a32cd" stroke-dasharray="5,2" d="M146.74,-126.5C191.86,-126.5 250.73,-126.5 295.58,-126.5"/>
<polygon fill="#9a32cd" stroke="#9a32cd" points="146.8,-123 136.8,-126.5 146.8,-130 146.8,-123"/>
<text text-anchor="middle" x="225.5" y="-129.5" font-family="Helvetica,sans-Serif" font-size="10.00"> _controllerButtonUsage</text>
</g>
<!-- Node5 -->
<g id="node5" class="node">
<title>Node5</title>
<g id="a_node5"><a xlink:title=" ">
<polygon fill="white" stroke="#666666" points="146.5,-99 8.5,-99 8.5,-80 146.5,-80 146.5,-99"/>
<text text-anchor="middle" x="77.5" y="-87" font-family="Helvetica,sans-Serif" font-size="10.00">ControllerSelectorHoldLogic</text>
</a>
</g>
</g>
<!-- Node5&#45;&gt;Node1 -->
<g id="edge5" class="edge">
<title>Node5&#45;&gt;Node1</title>
<path fill="none" stroke="#9a32cd" stroke-dasharray="5,2" d="M158.08,-97.06C194.67,-100.85 238.62,-105.84 278,-111.5 283.75,-112.33 289.71,-113.25 295.68,-114.22"/>
<polygon fill="#9a32cd" stroke="#9a32cd" points="158.78,-93.62 148.47,-96.08 158.06,-100.58 158.78,-93.62"/>
<text text-anchor="middle" x="225.5" y="-114.5" font-family="Helvetica,sans-Serif" font-size="10.00"> _controllerHoldLogic</text>
</g>
<!-- Node6 -->
<g id="node6" class="node">
<title>Node6</title>
<g id="a_node6"><a xlink:title=" ">
<polygon fill="white" stroke="#666666" points="155,-62 0,-62 0,-43 155,-43 155,-62"/>
<text text-anchor="middle" x="77.5" y="-50" font-family="Helvetica,sans-Serif" font-size="10.00">ControllerSelectorLogicOperator</text>
</a>
</g>
</g>
<!-- Node6&#45;&gt;Node1 -->
<g id="edge6" class="edge">
<title>Node6&#45;&gt;Node1</title>
<path fill="none" stroke="#9a32cd" stroke-dasharray="5,2" d="M166.38,-60.07C201.66,-64.67 242.34,-71.98 278,-83.5 298.99,-90.28 321.16,-101.74 337.52,-111.13"/>
<polygon fill="#9a32cd" stroke="#9a32cd" points="166.99,-56.62 156.63,-58.86 166.12,-63.57 166.99,-56.62"/>
<text text-anchor="middle" x="225.5" y="-86.5" font-family="Helvetica,sans-Serif" font-size="10.00"> _requireButtonUsages</text>
</g>
<!-- Node7 -->
<g id="node7" class="node">
<title>Node7</title>
<g id="a_node7"><a xlink:title=" ">
<polygon fill="white" stroke="#666666" points="95,-19 60,-19 60,0 95,0 95,-19"/>
<text text-anchor="middle" x="77.5" y="-7" font-family="Helvetica,sans-Serif" font-size="10.00">bool</text>
</a>
</g>
</g>
<!-- Node7&#45;&gt;Node1 -->
<g id="edge7" class="edge">
<title>Node7&#45;&gt;Node1</title>
<path fill="none" stroke="#9a32cd" stroke-dasharray="5,2" d="M106.73,-7.15C147.07,-5.05 222.48,-5.86 278,-34.5 312.31,-52.2 339.76,-89.76 353.3,-111.01"/>
<polygon fill="#9a32cd" stroke="#9a32cd" points="106.66,-3.65 96.9,-7.77 107.11,-10.63 106.66,-3.65"/>
<text text-anchor="middle" x="225.5" y="-48.5" font-family="Helvetica,sans-Serif" font-size="10.00"> _prevPressed</text>
<text text-anchor="middle" x="225.5" y="-37.5" font-family="Helvetica,sans-Serif" font-size="10.00">_selected</text>
</g>
</g>
</svg>
