<?xml version="1.0" encoding="UTF-8" standalone="no"?>
<!DOCTYPE svg PUBLIC "-//W3C//DTD SVG 1.1//EN"
 "http://www.w3.org/Graphics/SVG/1.1/DTD/svg11.dtd">
<!-- Generated by graphviz version 7.0.5 (20221223.1930)
 -->
<!-- Title: EVA.Interaction.Grabbable.EndTransform Pages: 1 -->
<svg width="479pt" height="124pt"
 viewBox="0.00 0.00 479.00 124.00" xmlns="http://www.w3.org/2000/svg" xmlns:xlink="http://www.w3.org/1999/xlink">
<g id="graph0" class="graph" transform="scale(1 1) rotate(0) translate(4 120)">
<title>EVA.Interaction.Grabbable.EndTransform</title>
<!-- Node1 -->
<g id="node1" class="node">
<title>Node1</title>
<g id="a_node1"><a xlink:title=" ">
<polygon fill="#999999" stroke="#666666" points="471,-73 338,-73 338,-43 471,-43 471,-73"/>
<text text-anchor="start" x="346" y="-61" font-family="Helvetica,sans-Serif" font-size="10.00">EVA.Interaction.Grabbable.</text>
<text text-anchor="middle" x="404.5" y="-50" font-family="Helvetica,sans-Serif" font-size="10.00">EndTransform</text>
</a>
</g>
</g>
<!-- Node2 -->
<g id="node2" class="node">
<title>Node2</title>
<g id="a_node2"><a xlink:href="class_e_v_a_1_1_interaction_1_1_grabbable.html#a326ba9edfb242e5ba85415ed7cfbe443" target="_top" xlink:title=" ">
<polygon fill="white" stroke="#666666" points="302,-116 169,-116 169,-86 302,-86 302,-116"/>
<text text-anchor="start" x="177" y="-104" font-family="Helvetica,sans-Serif" font-size="10.00">EVA.Interaction.Grabbable.</text>
<text text-anchor="middle" x="235.5" y="-93" font-family="Helvetica,sans-Serif" font-size="10.00">BeginTransform</text>
</a>
</g>
</g>
<!-- Node1&#45;&gt;Node2 -->
<g id="edge1" class="edge">
<title>Node1&#45;&gt;Node2</title>
<path fill="none" stroke="#63b8ff" d="M332.73,-76.22C320.65,-79.33 308.22,-82.53 296.46,-85.56"/>
<polygon fill="#63b8ff" stroke="#63b8ff" points="333.4,-79.66 342.22,-73.78 331.66,-72.88 333.4,-79.66"/>
</g>
<!-- Node3 -->
<g id="node3" class="node">
<title>Node3</title>
<g id="a_node3"><a xlink:href="class_e_v_a_1_1_interaction_1_1_grabbable.html#aeb6b0265bdda7b2133cfc88779cb1879" target="_top" xlink:title=" ">
<polygon fill="white" stroke="#666666" points="133,-94 0,-94 0,-64 133,-64 133,-94"/>
<text text-anchor="start" x="8" y="-82" font-family="Helvetica,sans-Serif" font-size="10.00">EVA.Interaction.Grabbable.</text>
<text text-anchor="middle" x="66.5" y="-71" font-family="Helvetica,sans-Serif" font-size="10.00">ProcessPointerEvent</text>
</a>
</g>
</g>
<!-- Node1&#45;&gt;Node3 -->
<g id="edge4" class="edge">
<title>Node1&#45;&gt;Node3</title>
<path fill="none" stroke="#63b8ff" d="M326.14,-62.83C267.8,-66.48 188.65,-71.43 133.33,-74.89"/>
<polygon fill="#63b8ff" stroke="#63b8ff" points="326.25,-66.34 336.01,-62.22 325.81,-59.35 326.25,-66.34"/>
</g>
<!-- Node4 -->
<g id="node4" class="node">
<title>Node4</title>
<g id="a_node4"><a xlink:href="class_e_v_a_1_1_interaction_1_1_grabbable.html#a32787cfe12e230ddf13439d68855e3db" target="_top" xlink:title=" ">
<polygon fill="white" stroke="#666666" points="302,-30 169,-30 169,0 302,0 302,-30"/>
<text text-anchor="start" x="177" y="-18" font-family="Helvetica,sans-Serif" font-size="10.00">EVA.Interaction.Grabbable.</text>
<text text-anchor="middle" x="235.5" y="-7" font-family="Helvetica,sans-Serif" font-size="10.00">OnDisable</text>
</a>
</g>
</g>
<!-- Node1&#45;&gt;Node4 -->
<g id="edge3" class="edge">
<title>Node1&#45;&gt;Node4</title>
<path fill="none" stroke="#63b8ff" d="M332.73,-39.78C320.65,-36.67 308.22,-33.47 296.46,-30.44"/>
<polygon fill="#63b8ff" stroke="#63b8ff" points="331.66,-43.12 342.22,-42.22 333.4,-36.34 331.66,-43.12"/>
</g>
<!-- Node2&#45;&gt;Node3 -->
<g id="edge2" class="edge">
<title>Node2&#45;&gt;Node3</title>
<path fill="none" stroke="#63b8ff" d="M157.62,-90.87C149.52,-89.81 141.34,-88.73 133.38,-87.68"/>
<polygon fill="#63b8ff" stroke="#63b8ff" points="157.1,-94.33 167.48,-92.17 158.02,-87.39 157.1,-94.33"/>
</g>
</g>
</svg>
