<?xml version="1.0" encoding="UTF-8" standalone="no"?>
<!DOCTYPE svg PUBLIC "-//W3C//DTD SVG 1.1//EN"
 "http://www.w3.org/Graphics/SVG/1.1/DTD/svg11.dtd">
<!-- Generated by graphviz version 7.0.5 (20221223.1930)
 -->
<!-- Title: Veery.UI.CollapseButton Pages: 1 -->
<svg width="499pt" height="104pt"
 viewBox="0.00 0.00 499.00 104.00" xmlns="http://www.w3.org/2000/svg" xmlns:xlink="http://www.w3.org/1999/xlink">
<g id="graph0" class="graph" transform="scale(1 1) rotate(0) translate(4 100)">
<title>Veery.UI.CollapseButton</title>
<!-- Node1 -->
<g id="node1" class="node">
<title>Node1</title>
<g id="a_node1"><a xlink:title="Represents a button that can collapse or open a list of Collapsable components.">
<polygon fill="#999999" stroke="#666666" points="267,-19 145,-19 145,0 267,0 267,-19"/>
<text text-anchor="middle" x="206" y="-7" font-family="Helvetica,sans-Serif" font-size="10.00">Veery.UI.CollapseButton</text>
</a>
</g>
</g>
<!-- Node2 -->
<g id="node2" class="node">
<title>Node2</title>
<g id="a_node2"><a xlink:title=" ">
<polygon fill="white" stroke="#666666" points="84,-96 0,-96 0,-77 84,-77 84,-96"/>
<text text-anchor="middle" x="42" y="-84" font-family="Helvetica,sans-Serif" font-size="10.00">MonoBehaviour</text>
</a>
</g>
</g>
<!-- Node2&#45;&gt;Node1 -->
<g id="edge1" class="edge">
<title>Node2&#45;&gt;Node1</title>
<path fill="none" stroke="#63b8ff" d="M65.19,-70.63C81.92,-60.31 105.3,-46.72 127,-37 142.32,-30.14 159.97,-24.06 174.7,-19.45"/>
<polygon fill="#63b8ff" stroke="#63b8ff" points="63.6,-67.49 56.98,-75.77 67.31,-73.43 63.6,-67.49"/>
</g>
<!-- Node3 -->
<g id="node3" class="node">
<title>Node3</title>
<g id="a_node3"><a xlink:title=" ">
<polygon fill="white" stroke="#666666" points="146,-96 102,-96 102,-77 146,-77 146,-96"/>
<text text-anchor="middle" x="124" y="-84" font-family="Helvetica,sans-Serif" font-size="10.00">Image</text>
</a>
</g>
</g>
<!-- Node3&#45;&gt;Node1 -->
<g id="edge2" class="edge">
<title>Node3&#45;&gt;Node1</title>
<path fill="none" stroke="#9a32cd" stroke-dasharray="5,2" d="M127.91,-65.78C130.7,-56.08 135.36,-44.83 143,-37 150.71,-29.1 161.13,-23.44 171.27,-19.44"/>
<polygon fill="#9a32cd" stroke="#9a32cd" points="124.53,-64.85 125.63,-75.38 131.34,-66.46 124.53,-64.85"/>
<text text-anchor="middle" x="172.5" y="-45.5" font-family="Helvetica,sans-Serif" font-size="10.00"> _notchImage</text>
</g>
<!-- Node4 -->
<g id="node4" class="node">
<title>Node4</title>
<g id="a_node4"><a xlink:title=" ">
<polygon fill="white" stroke="#666666" points="227,-96 185,-96 185,-77 227,-77 227,-96"/>
<text text-anchor="middle" x="206" y="-84" font-family="Helvetica,sans-Serif" font-size="10.00">Sprite</text>
</a>
</g>
</g>
<!-- Node4&#45;&gt;Node1 -->
<g id="edge3" class="edge">
<title>Node4&#45;&gt;Node1</title>
<path fill="none" stroke="#9a32cd" stroke-dasharray="5,2" d="M206,-65.42C206,-50.43 206,-30.66 206,-19.39"/>
<polygon fill="#9a32cd" stroke="#9a32cd" points="202.5,-65.09 206,-75.09 209.5,-65.09 202.5,-65.09"/>
<text text-anchor="middle" x="256" y="-51" font-family="Helvetica,sans-Serif" font-size="10.00"> _notchCollapsedSprite</text>
<text text-anchor="middle" x="256" y="-40" font-family="Helvetica,sans-Serif" font-size="10.00">_notchOpenedSprite</text>
</g>
<!-- Node5 -->
<g id="node5" class="node">
<title>Node5</title>
<g id="a_node5"><a xlink:title=" ">
<polygon fill="white" stroke="#666666" points="399,-96 259,-96 259,-77 399,-77 399,-96"/>
<text text-anchor="middle" x="329" y="-84" font-family="Helvetica,sans-Serif" font-size="10.00">List&lt; Veery.UI.Collapsable &gt;</text>
</a>
</g>
</g>
<!-- Node5&#45;&gt;Node1 -->
<g id="edge4" class="edge">
<title>Node5&#45;&gt;Node1</title>
<path fill="none" stroke="#9a32cd" stroke-dasharray="5,2" d="M324.34,-65.59C321.05,-55.68 315.64,-44.29 307,-37 295.78,-27.53 281.54,-21.4 267.33,-17.45"/>
<polygon fill="#9a32cd" stroke="#9a32cd" points="320.93,-66.41 326.97,-75.11 327.68,-64.54 320.93,-66.41"/>
<text text-anchor="middle" x="352" y="-45.5" font-family="Helvetica,sans-Serif" font-size="10.00"> _collapsables</text>
</g>
<!-- Node6 -->
<g id="node6" class="node">
<title>Node6</title>
<g id="a_node6"><a xlink:title=" ">
<polygon fill="white" stroke="#666666" points="491,-96 417,-96 417,-77 491,-77 491,-96"/>
<text text-anchor="middle" x="454" y="-84" font-family="Helvetica,sans-Serif" font-size="10.00">EventSystem</text>
</a>
</g>
</g>
<!-- Node6&#45;&gt;Node1 -->
<g id="edge5" class="edge">
<title>Node6&#45;&gt;Node1</title>
<path fill="none" stroke="#9a32cd" stroke-dasharray="5,2" d="M436.67,-69.32C423.92,-58.37 405.63,-44.57 387,-37 349.05,-21.58 303.38,-14.97 267.42,-12.21"/>
<polygon fill="#9a32cd" stroke="#9a32cd" points="433.98,-71.61 443.78,-75.65 438.64,-66.38 433.98,-71.61"/>
<text text-anchor="middle" x="455.5" y="-45.5" font-family="Helvetica,sans-Serif" font-size="10.00"> _eventSystem</text>
</g>
</g>
</svg>
