<?xml version="1.0" encoding="UTF-8" standalone="no"?>
<!DOCTYPE svg PUBLIC "-//W3C//DTD SVG 1.1//EN"
 "http://www.w3.org/Graphics/SVG/1.1/DTD/svg11.dtd">
<!-- Generated by graphviz version 7.0.5 (20221223.1930)
 -->
<!-- Title: EVA.Interaction.DistanceSelectInteractor Pages: 1 -->
<svg width="453pt" height="223pt"
 viewBox="0.00 0.00 453.00 223.00" xmlns="http://www.w3.org/2000/svg" xmlns:xlink="http://www.w3.org/1999/xlink">
<g id="graph0" class="graph" transform="scale(1 1) rotate(0) translate(4 219)">
<title>EVA.Interaction.DistanceSelectInteractor</title>
<!-- Node1 -->
<g id="node1" class="node">
<title>Node1</title>
<g id="a_node1"><a xlink:title=" ">
<polygon fill="#999999" stroke="#666666" points="445,-128.5 320,-128.5 320,-98.5 445,-98.5 445,-128.5"/>
<text text-anchor="start" x="328" y="-116.5" font-family="Helvetica,sans-Serif" font-size="10.00">EVA.Interaction.Distance</text>
<text text-anchor="middle" x="382.5" y="-105.5" font-family="Helvetica,sans-Serif" font-size="10.00">SelectInteractor</text>
</a>
</g>
</g>
<!-- Node2 -->
<g id="node2" class="node">
<title>Node2</title>
<g id="a_node2"><a xlink:href="class_pointer_interactor.html" target="_top" xlink:title=" ">
<polygon fill="white" stroke="#666666" points="152.5,-215 8.5,-215 8.5,-174 152.5,-174 152.5,-215"/>
<text text-anchor="start" x="16.5" y="-203" font-family="Helvetica,sans-Serif" font-size="10.00">PointerInteractor&lt;</text>
<text text-anchor="start" x="16.5" y="-192" font-family="Helvetica,sans-Serif" font-size="10.00"> DistanceSelectInteractor,</text>
<text text-anchor="middle" x="80.5" y="-181" font-family="Helvetica,sans-Serif" font-size="10.00"> DistanceSelectInteractable &gt;</text>
</a>
</g>
</g>
<!-- Node2&#45;&gt;Node1 -->
<g id="edge1" class="edge">
<title>Node2&#45;&gt;Node1</title>
<path fill="none" stroke="#63b8ff" d="M164.09,-180.16C205.89,-171.99 257.14,-160.57 302,-146.5 317.4,-141.67 333.96,-135.04 347.95,-128.99"/>
<polygon fill="#63b8ff" stroke="#63b8ff" points="163.49,-176.72 154.33,-182.04 164.82,-183.59 163.49,-176.72"/>
</g>
<!-- Node3 -->
<g id="node3" class="node">
<title>Node3</title>
<g id="a_node3"><a xlink:href="class_i_distance_interactor.html" target="_top" xlink:title=" ">
<polygon fill="white" stroke="#666666" points="130,-156 31,-156 31,-137 130,-137 130,-156"/>
<text text-anchor="middle" x="80.5" y="-144" font-family="Helvetica,sans-Serif" font-size="10.00">IDistanceInteractor</text>
</a>
</g>
</g>
<!-- Node3&#45;&gt;Node1 -->
<g id="edge2" class="edge">
<title>Node3&#45;&gt;Node1</title>
<path fill="none" stroke="#63b8ff" d="M141.68,-142.21C186.08,-138.76 247.92,-133.37 302,-126.5 307.69,-125.78 313.59,-124.95 319.5,-124.08"/>
<polygon fill="#63b8ff" stroke="#63b8ff" points="141.43,-138.72 131.73,-142.97 141.96,-145.7 141.43,-138.72"/>
</g>
<!-- Node4 -->
<g id="node4" class="node">
<title>Node4</title>
<g id="a_node4"><a xlink:title=" ">
<polygon fill="white" stroke="#666666" points="122.5,-119 38.5,-119 38.5,-100 122.5,-100 122.5,-119"/>
<text text-anchor="middle" x="80.5" y="-107" font-family="Helvetica,sans-Serif" font-size="10.00">MonoBehaviour</text>
</a>
</g>
</g>
<!-- Node4&#45;&gt;Node1 -->
<g id="edge3" class="edge">
<title>Node4&#45;&gt;Node1</title>
<path fill="none" stroke="#9a32cd" stroke-dasharray="5,2" d="M134.16,-110.2C185.95,-110.89 264.98,-111.95 319.71,-112.68"/>
<polygon fill="#9a32cd" stroke="#9a32cd" points="134.46,-106.71 124.41,-110.07 134.36,-113.71 134.46,-106.71"/>
<text text-anchor="middle" x="240.5" y="-114.5" font-family="Helvetica,sans-Serif" font-size="10.00"> _selector</text>
</g>
<!-- Node5 -->
<g id="node5" class="node">
<title>Node5</title>
<g id="a_node5"><a xlink:title=" ">
<polygon fill="white" stroke="#666666" points="111,-78 50,-78 50,-59 111,-59 111,-78"/>
<text text-anchor="middle" x="80.5" y="-66" font-family="Helvetica,sans-Serif" font-size="10.00">Transform</text>
</a>
</g>
</g>
<!-- Node5&#45;&gt;Node1 -->
<g id="edge4" class="edge">
<title>Node5&#45;&gt;Node1</title>
<path fill="none" stroke="#9a32cd" stroke-dasharray="5,2" d="M122.73,-68.1C167.4,-68.46 240.5,-71.32 302,-84.5 316.65,-87.64 332.25,-92.88 345.71,-98.05"/>
<polygon fill="#9a32cd" stroke="#9a32cd" points="123,-64.61 112.98,-68.07 122.97,-71.61 123,-64.61"/>
<text text-anchor="middle" x="240.5" y="-98.5" font-family="Helvetica,sans-Serif" font-size="10.00"> _selectCenter</text>
<text text-anchor="middle" x="240.5" y="-87.5" font-family="Helvetica,sans-Serif" font-size="10.00">_selectTarget</text>
</g>
<!-- Node6 -->
<g id="node6" class="node">
<title>Node6</title>
<g id="a_node6"><a xlink:title=" ">
<polygon fill="white" stroke="#666666" points="161,-41 0,-41 0,0 161,0 161,-41"/>
<text text-anchor="start" x="8" y="-29" font-family="Helvetica,sans-Serif" font-size="10.00">DistantCandidateComputer</text>
<text text-anchor="start" x="8" y="-18" font-family="Helvetica,sans-Serif" font-size="10.00">&lt; EVA.Interaction.DistanceSelect</text>
<text text-anchor="middle" x="80.5" y="-7" font-family="Helvetica,sans-Serif" font-size="10.00">Interactable &gt;</text>
</a>
</g>
</g>
<!-- Node6&#45;&gt;Node1 -->
<g id="edge5" class="edge">
<title>Node6&#45;&gt;Node1</title>
<path fill="none" stroke="#9a32cd" stroke-dasharray="5,2" d="M172.62,-24.62C213.44,-28.94 261.41,-37.54 302,-54.5 326.74,-64.84 350.85,-84.48 365.91,-98.26"/>
<polygon fill="#9a32cd" stroke="#9a32cd" points="173.11,-21.15 162.81,-23.65 172.42,-28.11 173.11,-21.15"/>
<text text-anchor="middle" x="240.5" y="-57.5" font-family="Helvetica,sans-Serif" font-size="10.00"> _distantCandidateComputer</text>
</g>
</g>
</svg>
