<?xml version="1.0" encoding="UTF-8" standalone="no"?>
<!DOCTYPE svg PUBLIC "-//W3C//DTD SVG 1.1//EN"
 "http://www.w3.org/Graphics/SVG/1.1/DTD/svg11.dtd">
<!-- Generated by graphviz version 7.0.5 (20221223.1930)
 -->
<!-- Title: Veery.UI.Selection.TriggerableProperty Pages: 1 -->
<svg width="318pt" height="160pt"
 viewBox="0.00 0.00 318.00 160.00" xmlns="http://www.w3.org/2000/svg" xmlns:xlink="http://www.w3.org/1999/xlink">
<g id="graph0" class="graph" transform="scale(1 1) rotate(0) translate(4 156)">
<title>Veery.UI.Selection.TriggerableProperty</title>
<!-- Node1 -->
<g id="node1" class="node">
<title>Node1</title>
<g id="a_node1"><a xlink:title=" ">
<polygon fill="#999999" stroke="#666666" points="240,-30 93,-30 93,0 240,0 240,-30"/>
<text text-anchor="start" x="101" y="-18" font-family="Helvetica,sans-Serif" font-size="10.00">Veery.UI.Selection.Triggerable</text>
<text text-anchor="middle" x="166.5" y="-7" font-family="Helvetica,sans-Serif" font-size="10.00">Property</text>
</a>
</g>
</g>
<!-- Node2 -->
<g id="node2" class="node">
<title>Node2</title>
<g id="a_node2"><a xlink:href="class_veery_1_1_u_i_1_1_selection_1_1_selection_property.html" target="_top" xlink:title=" ">
<polygon fill="white" stroke="#666666" points="93,-96 0,-96 0,-77 93,-77 93,-96"/>
<text text-anchor="middle" x="46.5" y="-84" font-family="Helvetica,sans-Serif" font-size="10.00">SelectionProperty</text>
</a>
</g>
</g>
<!-- Node2&#45;&gt;Node1 -->
<g id="edge1" class="edge">
<title>Node2&#45;&gt;Node1</title>
<path fill="none" stroke="#63b8ff" d="M71.63,-70.94C92.27,-58.99 121.35,-42.15 141.85,-30.27"/>
<polygon fill="#63b8ff" stroke="#63b8ff" points="69.91,-67.9 63.01,-75.94 73.42,-73.96 69.91,-67.9"/>
</g>
<!-- Node3 -->
<g id="node3" class="node">
<title>Node3</title>
<g id="a_node3"><a xlink:title=" ">
<polygon fill="white" stroke="#666666" points="88.5,-152 4.5,-152 4.5,-133 88.5,-133 88.5,-152"/>
<text text-anchor="middle" x="46.5" y="-140" font-family="Helvetica,sans-Serif" font-size="10.00">MonoBehaviour</text>
</a>
</g>
</g>
<!-- Node3&#45;&gt;Node2 -->
<g id="edge2" class="edge">
<title>Node3&#45;&gt;Node2</title>
<path fill="none" stroke="#63b8ff" d="M46.5,-121.11C46.5,-112.52 46.5,-102.97 46.5,-96.25"/>
<polygon fill="#63b8ff" stroke="#63b8ff" points="43,-121.07 46.5,-131.07 50,-121.07 43,-121.07"/>
</g>
<!-- Node4 -->
<g id="node4" class="node">
<title>Node4</title>
<g id="a_node4"><a xlink:title=" ">
<polygon fill="white" stroke="#666666" points="157.5,-96 111.5,-96 111.5,-77 157.5,-77 157.5,-96"/>
<text text-anchor="middle" x="134.5" y="-84" font-family="Helvetica,sans-Serif" font-size="10.00">Toggle</text>
</a>
</g>
</g>
<!-- Node4&#45;&gt;Node1 -->
<g id="edge3" class="edge">
<title>Node4&#45;&gt;Node1</title>
<path fill="none" stroke="#9a32cd" stroke-dasharray="5,2" d="M137.09,-65.57C138.28,-59.74 140.01,-53.47 142.5,-48 145.32,-41.81 149.49,-35.66 153.58,-30.44"/>
<polygon fill="#9a32cd" stroke="#9a32cd" points="133.7,-64.6 135.56,-75.03 140.61,-65.72 133.7,-64.6"/>
<text text-anchor="middle" x="159.5" y="-51" font-family="Helvetica,sans-Serif" font-size="10.00"> _toggle</text>
</g>
<!-- Node5 -->
<g id="node5" class="node">
<title>Node5</title>
<g id="a_node5"><a xlink:title=" ">
<polygon fill="white" stroke="#666666" points="221,-96 176,-96 176,-77 221,-77 221,-96"/>
<text text-anchor="middle" x="198.5" y="-84" font-family="Helvetica,sans-Serif" font-size="10.00">Button</text>
</a>
</g>
</g>
<!-- Node5&#45;&gt;Node1 -->
<g id="edge4" class="edge">
<title>Node5&#45;&gt;Node1</title>
<path fill="none" stroke="#9a32cd" stroke-dasharray="5,2" d="M189.74,-66.47C184.48,-55.04 177.89,-40.73 173.07,-30.27"/>
<polygon fill="#9a32cd" stroke="#9a32cd" points="186.45,-67.7 193.81,-75.32 192.81,-64.78 186.45,-67.7"/>
<text text-anchor="middle" x="210.5" y="-51" font-family="Helvetica,sans-Serif" font-size="10.00"> _editButton</text>
</g>
<!-- Node6 -->
<g id="node6" class="node">
<title>Node6</title>
<g id="a_node6"><a xlink:title=" ">
<polygon fill="white" stroke="#666666" points="310,-96 239,-96 239,-77 310,-77 310,-96"/>
<text text-anchor="middle" x="274.5" y="-84" font-family="Helvetica,sans-Serif" font-size="10.00">GameObject</text>
</a>
</g>
</g>
<!-- Node6&#45;&gt;Node1 -->
<g id="edge5" class="edge">
<title>Node6&#45;&gt;Node1</title>
<path fill="none" stroke="#9a32cd" stroke-dasharray="5,2" d="M261.39,-68.05C255.56,-61.15 248.26,-53.56 240.5,-48 230.83,-41.08 219.42,-35.22 208.49,-30.49"/>
<polygon fill="#9a32cd" stroke="#9a32cd" points="258.42,-69.94 267.39,-75.59 263.9,-65.59 258.42,-69.94"/>
<text text-anchor="middle" x="281" y="-51" font-family="Helvetica,sans-Serif" font-size="10.00"> _linksPrefab</text>
</g>
</g>
</svg>
