<?xml version="1.0" encoding="UTF-8" standalone="no"?>
<!DOCTYPE svg PUBLIC "-//W3C//DTD SVG 1.1//EN"
 "http://www.w3.org/Graphics/SVG/1.1/DTD/svg11.dtd">
<!-- Generated by graphviz version 7.0.5 (20221223.1930)
 -->
<!-- Title: Veery.Import.ImportObject Pages: 1 -->
<svg width="606pt" height="236pt"
 viewBox="0.00 0.00 606.00 236.00" xmlns="http://www.w3.org/2000/svg" xmlns:xlink="http://www.w3.org/1999/xlink">
<g id="graph0" class="graph" transform="scale(1 1) rotate(0) translate(4 232)">
<title>Veery.Import.ImportObject</title>
<!-- Node1 -->
<g id="node1" class="node">
<title>Node1</title>
<g id="a_node1"><a xlink:title="Represents an object that can be imported into the scene.">
<polygon fill="#999999" stroke="#666666" points="598,-136 468,-136 468,-117 598,-117 598,-136"/>
<text text-anchor="middle" x="533" y="-124" font-family="Helvetica,sans-Serif" font-size="10.00">Veery.Import.ImportObject</text>
</a>
</g>
</g>
<!-- Node2 -->
<g id="node2" class="node">
<title>Node2</title>
<g id="a_node2"><a xlink:title=" ">
<polygon fill="white" stroke="#666666" points="345,-228 261,-228 261,-209 345,-209 345,-228"/>
<text text-anchor="middle" x="303" y="-216" font-family="Helvetica,sans-Serif" font-size="10.00">MonoBehaviour</text>
</a>
</g>
</g>
<!-- Node2&#45;&gt;Node1 -->
<g id="edge1" class="edge">
<title>Node2&#45;&gt;Node1</title>
<path fill="none" stroke="#63b8ff" d="M351.13,-205.5C356.82,-203.85 362.55,-202.16 368,-200.5 404.7,-189.3 414.95,-189.12 450,-173.5 474.28,-162.68 500.67,-146.73 516.77,-136.48"/>
<polygon fill="#63b8ff" stroke="#63b8ff" points="350.41,-202.07 341.75,-208.18 352.33,-208.8 350.41,-202.07"/>
</g>
<!-- Node3 -->
<g id="node3" class="node">
<title>Node3</title>
<g id="a_node3"><a xlink:href="interface_veery_1_1_import_1_1_properties_1_1_i_enableable.html" target="_top" xlink:title="Interface for objects that can be enabled or disabled.">
<polygon fill="white" stroke="#666666" points="336.5,-191 269.5,-191 269.5,-172 336.5,-172 336.5,-191"/>
<text text-anchor="middle" x="303" y="-179" font-family="Helvetica,sans-Serif" font-size="10.00">IEnableable</text>
</a>
</g>
</g>
<!-- Node3&#45;&gt;Node1 -->
<g id="edge2" class="edge">
<title>Node3&#45;&gt;Node1</title>
<path fill="none" stroke="#63b8ff" d="M348.04,-174.07C377.16,-168.83 416.08,-161.22 450,-152.5 467.94,-147.89 487.74,-141.65 503.38,-136.43"/>
<polygon fill="#63b8ff" stroke="#63b8ff" points="347.72,-170.57 338.49,-175.76 348.94,-177.46 347.72,-170.57"/>
</g>
<!-- Node4 -->
<g id="node4" class="node">
<title>Node4</title>
<g id="a_node4"><a xlink:title=" ">
<polygon fill="white" stroke="#666666" points="355,-154 251,-154 251,-135 355,-135 355,-154"/>
<text text-anchor="middle" x="303" y="-142" font-family="Helvetica,sans-Serif" font-size="10.00">List&lt; GameObject &gt;</text>
</a>
</g>
</g>
<!-- Node4&#45;&gt;Node1 -->
<g id="edge3" class="edge">
<title>Node4&#45;&gt;Node1</title>
<path fill="none" stroke="#9a32cd" stroke-dasharray="5,2" d="M366.7,-139.55C398.1,-137.07 436.06,-134.07 467.68,-131.58"/>
<polygon fill="#9a32cd" stroke="#9a32cd" points="366.65,-136.04 356.96,-140.32 367.21,-143.02 366.65,-136.04"/>
<text text-anchor="middle" x="418" y="-140.5" font-family="Helvetica,sans-Serif" font-size="10.00"> _deferredGOs</text>
</g>
<!-- Node5 -->
<g id="node5" class="node">
<title>Node5</title>
<g id="a_node5"><a xlink:href="class_veery_1_1_interaction_1_1_distance_select_interactable.html" target="_top" xlink:title="Allows the user to select and interact with this object from a distance using the DistanceSelectInter...">
<polygon fill="white" stroke="#666666" points="368,-116.5 238,-116.5 238,-86.5 368,-86.5 368,-116.5"/>
<text text-anchor="start" x="246" y="-104.5" font-family="Helvetica,sans-Serif" font-size="10.00">Veery.Interaction.Distance</text>
<text text-anchor="middle" x="303" y="-93.5" font-family="Helvetica,sans-Serif" font-size="10.00">SelectInteractable</text>
</a>
</g>
</g>
<!-- Node5&#45;&gt;Node1 -->
<g id="edge4" class="edge">
<title>Node5&#45;&gt;Node1</title>
<path fill="none" stroke="#9a32cd" stroke-dasharray="5,2" d="M379.59,-109.78C402.23,-112.26 427.12,-114.99 450,-117.5 455.69,-118.12 461.61,-118.77 467.54,-119.42"/>
<polygon fill="#9a32cd" stroke="#9a32cd" points="380.15,-106.32 369.83,-108.71 379.39,-113.28 380.15,-106.32"/>
<text text-anchor="middle" x="418" y="-120.5" font-family="Helvetica,sans-Serif" font-size="10.00"> interactable</text>
</g>
<!-- Node6 -->
<g id="node6" class="node">
<title>Node6</title>
<g id="a_node6"><a xlink:href="class_pointer_interactable.html" target="_top" xlink:title=" ">
<polygon fill="white" stroke="#666666" points="144,-226 0,-226 0,-185 144,-185 144,-226"/>
<text text-anchor="start" x="8" y="-214" font-family="Helvetica,sans-Serif" font-size="10.00">PointerInteractable</text>
<text text-anchor="start" x="8" y="-203" font-family="Helvetica,sans-Serif" font-size="10.00">&lt; DistanceSelectInteractor,</text>
<text text-anchor="middle" x="72" y="-192" font-family="Helvetica,sans-Serif" font-size="10.00"> DistanceSelectInteractable &gt;</text>
</a>
</g>
</g>
<!-- Node6&#45;&gt;Node5 -->
<g id="edge5" class="edge">
<title>Node6&#45;&gt;Node5</title>
<path fill="none" stroke="#63b8ff" d="M134.83,-180.29C137.93,-179.01 141,-177.74 144,-176.5 177.85,-162.46 189.59,-164.95 220,-144.5 229.39,-138.19 228.53,-132.69 238,-126.5 243.49,-122.91 249.58,-119.71 255.75,-116.9"/>
<polygon fill="#63b8ff" stroke="#63b8ff" points="133.53,-177.04 125.62,-184.08 136.2,-183.51 133.53,-177.04"/>
</g>
<!-- Node7 -->
<g id="node7" class="node">
<title>Node7</title>
<g id="a_node7"><a xlink:href="class_i_rigidbody_ref.html" target="_top" xlink:title=" ">
<polygon fill="white" stroke="#666666" points="110.5,-167 33.5,-167 33.5,-148 110.5,-148 110.5,-167"/>
<text text-anchor="middle" x="72" y="-155" font-family="Helvetica,sans-Serif" font-size="10.00">IRigidbodyRef</text>
</a>
</g>
</g>
<!-- Node7&#45;&gt;Node5 -->
<g id="edge6" class="edge">
<title>Node7&#45;&gt;Node5</title>
<path fill="none" stroke="#63b8ff" d="M121.85,-147.21C150.53,-141 187.42,-132.72 220,-124.5 229.18,-122.19 238.89,-119.59 248.3,-117"/>
<polygon fill="#63b8ff" stroke="#63b8ff" points="121.41,-143.72 112.38,-149.25 122.89,-150.57 121.41,-143.72"/>
</g>
<!-- Node8 -->
<g id="node8" class="node">
<title>Node8</title>
<g id="a_node8"><a xlink:href="class_i_relative_to_ref.html" target="_top" xlink:title=" ">
<polygon fill="white" stroke="#666666" points="112.5,-130 31.5,-130 31.5,-111 112.5,-111 112.5,-130"/>
<text text-anchor="middle" x="72" y="-118" font-family="Helvetica,sans-Serif" font-size="10.00">IRelativeToRef</text>
</a>
</g>
</g>
<!-- Node8&#45;&gt;Node5 -->
<g id="edge7" class="edge">
<title>Node8&#45;&gt;Node5</title>
<path fill="none" stroke="#63b8ff" d="M124.3,-116.24C157.89,-113.46 202.04,-109.79 237.93,-106.82"/>
<polygon fill="#63b8ff" stroke="#63b8ff" points="124.07,-112.75 114.4,-117.07 124.65,-119.73 124.07,-112.75"/>
</g>
<!-- Node9 -->
<g id="node9" class="node">
<title>Node9</title>
<g id="a_node9"><a xlink:href="class_i_colliders_ref.html" target="_top" xlink:title=" ">
<polygon fill="white" stroke="#666666" points="108,-93 36,-93 36,-74 108,-74 108,-93"/>
<text text-anchor="middle" x="72" y="-81" font-family="Helvetica,sans-Serif" font-size="10.00">ICollidersRef</text>
</a>
</g>
</g>
<!-- Node9&#45;&gt;Node5 -->
<g id="edge8" class="edge">
<title>Node9&#45;&gt;Node5</title>
<path fill="none" stroke="#63b8ff" d="M119.74,-87.17C153.72,-89.85 200.14,-93.49 237.62,-96.44"/>
<polygon fill="#63b8ff" stroke="#63b8ff" points="120.03,-83.69 109.79,-86.39 119.48,-90.66 120.03,-83.69"/>
</g>
<!-- Node10 -->
<g id="node10" class="node">
<title>Node10</title>
<g id="a_node10"><a xlink:title=" ">
<polygon fill="white" stroke="#666666" points="101.5,-56 42.5,-56 42.5,-37 101.5,-37 101.5,-56"/>
<text text-anchor="middle" x="72" y="-44" font-family="Helvetica,sans-Serif" font-size="10.00">Rigidbody</text>
</a>
</g>
</g>
<!-- Node10&#45;&gt;Node5 -->
<g id="edge9" class="edge">
<title>Node10&#45;&gt;Node5</title>
<path fill="none" stroke="#9a32cd" stroke-dasharray="5,2" d="M113.12,-53.16C142.83,-58.39 184.19,-66.32 220,-75.5 231.86,-78.54 244.54,-82.3 256.29,-86.01"/>
<polygon fill="#9a32cd" stroke="#9a32cd" points="113.89,-49.74 103.44,-51.48 112.69,-56.64 113.89,-49.74"/>
<text text-anchor="middle" x="191" y="-78.5" font-family="Helvetica,sans-Serif" font-size="10.00"> _rigidbody</text>
</g>
<!-- Node11 -->
<g id="node11" class="node">
<title>Node11</title>
<g id="a_node11"><a xlink:title=" ">
<polygon fill="white" stroke="#666666" points="102.5,-19 41.5,-19 41.5,0 102.5,0 102.5,-19"/>
<text text-anchor="middle" x="72" y="-7" font-family="Helvetica,sans-Serif" font-size="10.00">Transform</text>
</a>
</g>
</g>
<!-- Node11&#45;&gt;Node5 -->
<g id="edge10" class="edge">
<title>Node11&#45;&gt;Node5</title>
<path fill="none" stroke="#9a32cd" stroke-dasharray="5,2" d="M113.6,-19.72C123.54,-22.25 134.16,-24.96 144,-27.5 177.82,-36.24 192.07,-26.53 220,-47.5 232.44,-56.83 226.05,-67.55 238,-77.5 241.92,-80.77 246.33,-83.61 250.95,-86.09"/>
<polygon fill="#9a32cd" stroke="#9a32cd" points="114.74,-16.41 104.19,-17.34 113.03,-23.19 114.74,-16.41"/>
<text text-anchor="middle" x="191" y="-50.5" font-family="Helvetica,sans-Serif" font-size="10.00"> _grabSource</text>
</g>
<!-- Node12 -->
<g id="node12" class="node">
<title>Node12</title>
<g id="a_node12"><a xlink:title=" ">
<polygon fill="white" stroke="#666666" points="338.5,-68 267.5,-68 267.5,-49 338.5,-49 338.5,-68"/>
<text text-anchor="middle" x="303" y="-56" font-family="Helvetica,sans-Serif" font-size="10.00">GameObject</text>
</a>
</g>
</g>
<!-- Node12&#45;&gt;Node1 -->
<g id="edge11" class="edge">
<title>Node12&#45;&gt;Node1</title>
<path fill="none" stroke="#9a32cd" stroke-dasharray="5,2" d="M349.84,-68.71C378.79,-75.5 416.86,-85.07 450,-95.5 469.74,-101.71 491.65,-110.07 507.85,-116.55"/>
<polygon fill="#9a32cd" stroke="#9a32cd" points="350.83,-65.35 340.3,-66.5 349.25,-72.17 350.83,-65.35"/>
<text text-anchor="middle" x="418" y="-98.5" font-family="Helvetica,sans-Serif" font-size="10.00"> head</text>
</g>
<!-- Node13 -->
<g id="node13" class="node">
<title>Node13</title>
<g id="a_node13"><a xlink:title=" ">
<polygon fill="white" stroke="#666666" points="320.5,-31 285.5,-31 285.5,-12 320.5,-12 320.5,-31"/>
<text text-anchor="middle" x="303" y="-19" font-family="Helvetica,sans-Serif" font-size="10.00">bool</text>
</a>
</g>
</g>
<!-- Node13&#45;&gt;Node1 -->
<g id="edge12" class="edge">
<title>Node13&#45;&gt;Node1</title>
<path fill="none" stroke="#9a32cd" stroke-dasharray="5,2" d="M331.97,-26.01C362.27,-31.64 411.42,-42.99 450,-62.5 479.01,-77.17 507.76,-102.85 522.28,-116.81"/>
<polygon fill="#9a32cd" stroke="#9a32cd" points="332.92,-22.62 322.47,-24.33 331.7,-29.52 332.92,-22.62"/>
<text text-anchor="middle" x="418" y="-65.5" font-family="Helvetica,sans-Serif" font-size="10.00"> selected</text>
</g>
</g>
</svg>
