<?xml version="1.0" encoding="UTF-8" standalone="no"?>
<!DOCTYPE svg PUBLIC "-//W3C//DTD SVG 1.1//EN"
 "http://www.w3.org/Graphics/SVG/1.1/DTD/svg11.dtd">
<!-- Generated by graphviz version 7.0.5 (20221223.1930)
 -->
<!-- Title: Veery.Interaction.InteractableOutline Pages: 1 -->
<svg width="509pt" height="115pt"
 viewBox="0.00 0.00 509.00 115.00" xmlns="http://www.w3.org/2000/svg" xmlns:xlink="http://www.w3.org/1999/xlink">
<g id="graph0" class="graph" transform="scale(1 1) rotate(0) translate(4 111)">
<title>Veery.Interaction.InteractableOutline</title>
<!-- Node1 -->
<g id="node1" class="node">
<title>Node1</title>
<g id="a_node1"><a xlink:title="This class provides an outline effect for an interactable object. It listens to the state changes of ...">
<polygon fill="#999999" stroke="#666666" points="292.5,-30 149.5,-30 149.5,0 292.5,0 292.5,-30"/>
<text text-anchor="start" x="157.5" y="-18" font-family="Helvetica,sans-Serif" font-size="10.00">Veery.Interaction.Interactable</text>
<text text-anchor="middle" x="221" y="-7" font-family="Helvetica,sans-Serif" font-size="10.00">Outline</text>
</a>
</g>
</g>
<!-- Node2 -->
<g id="node2" class="node">
<title>Node2</title>
<g id="a_node2"><a xlink:title=" ">
<polygon fill="white" stroke="#666666" points="84,-107 0,-107 0,-88 84,-88 84,-107"/>
<text text-anchor="middle" x="42" y="-95" font-family="Helvetica,sans-Serif" font-size="10.00">MonoBehaviour</text>
</a>
</g>
</g>
<!-- Node2&#45;&gt;Node1 -->
<g id="edge1" class="edge">
<title>Node2&#45;&gt;Node1</title>
<path fill="none" stroke="#63b8ff" d="M34.97,-77.09C32.76,-67.32 32.37,-55.9 39,-48 53.18,-31.11 104.63,-23.13 149.23,-19.36"/>
<polygon fill="#63b8ff" stroke="#63b8ff" points="31.54,-77.85 37.79,-86.4 38.24,-75.82 31.54,-77.85"/>
</g>
<!-- Node2&#45;&gt;Node1 -->
<g id="edge2" class="edge">
<title>Node2&#45;&gt;Node1</title>
<path fill="none" stroke="#9a32cd" stroke-dasharray="5,2" d="M53.41,-78.38C60.89,-67.97 71.56,-55.51 84,-48 103.55,-36.19 127.09,-28.74 149.11,-24.04"/>
<polygon fill="#9a32cd" stroke="#9a32cd" points="50.57,-76.33 47.9,-86.59 56.38,-80.23 50.57,-76.33"/>
<text text-anchor="middle" x="124" y="-56.5" font-family="Helvetica,sans-Serif" font-size="10.00"> _interactableView</text>
</g>
<!-- Node3 -->
<g id="node3" class="node">
<title>Node3</title>
<g id="a_node3"><a xlink:title=" ">
<polygon fill="white" stroke="#666666" points="183.5,-107 136.5,-107 136.5,-88 183.5,-88 183.5,-107"/>
<text text-anchor="middle" x="160" y="-95" font-family="Helvetica,sans-Serif" font-size="10.00">Outline</text>
</a>
</g>
</g>
<!-- Node3&#45;&gt;Node1 -->
<g id="edge3" class="edge">
<title>Node3&#45;&gt;Node1</title>
<path fill="none" stroke="#9a32cd" stroke-dasharray="5,2" d="M165.6,-76.59C168.84,-67.31 173.56,-56.47 180,-48 185.02,-41.38 191.73,-35.39 198.27,-30.43"/>
<polygon fill="#9a32cd" stroke="#9a32cd" points="162.26,-75.53 162.63,-86.12 168.95,-77.61 162.26,-75.53"/>
<text text-anchor="middle" x="198.5" y="-56.5" font-family="Helvetica,sans-Serif" font-size="10.00"> _outline</text>
</g>
<!-- Node4 -->
<g id="node4" class="node">
<title>Node4</title>
<g id="a_node4"><a xlink:title=" ">
<polygon fill="white" stroke="#666666" points="240.5,-107 201.5,-107 201.5,-88 240.5,-88 240.5,-107"/>
<text text-anchor="middle" x="221" y="-95" font-family="Helvetica,sans-Serif" font-size="10.00">Color</text>
</a>
</g>
</g>
<!-- Node4&#45;&gt;Node1 -->
<g id="edge4" class="edge">
<title>Node4&#45;&gt;Node1</title>
<path fill="none" stroke="#9a32cd" stroke-dasharray="5,2" d="M221,-76.45C221,-62.14 221,-43.22 221,-30.39"/>
<polygon fill="#9a32cd" stroke="#9a32cd" points="217.5,-76.06 221,-86.06 224.5,-76.06 217.5,-76.06"/>
<text text-anchor="middle" x="248.5" y="-62" font-family="Helvetica,sans-Serif" font-size="10.00"> _hoverColor</text>
<text text-anchor="middle" x="248.5" y="-51" font-family="Helvetica,sans-Serif" font-size="10.00">_selectColor</text>
</g>
<!-- Node5 -->
<g id="node5" class="node">
<title>Node5</title>
<g id="a_node5"><a xlink:title=" ">
<polygon fill="white" stroke="#666666" points="314.5,-107 279.5,-107 279.5,-88 314.5,-88 314.5,-107"/>
<text text-anchor="middle" x="297" y="-95" font-family="Helvetica,sans-Serif" font-size="10.00">float</text>
</a>
</g>
</g>
<!-- Node5&#45;&gt;Node1 -->
<g id="edge5" class="edge">
<title>Node5&#45;&gt;Node1</title>
<path fill="none" stroke="#9a32cd" stroke-dasharray="5,2" d="M292.14,-76.82C289.03,-67.29 284.19,-56.17 277,-48 270.79,-40.94 262.62,-35.06 254.46,-30.36"/>
<polygon fill="#9a32cd" stroke="#9a32cd" points="288.71,-77.56 294.8,-86.24 295.45,-75.66 288.71,-77.56"/>
<text text-anchor="middle" x="314.5" y="-62" font-family="Helvetica,sans-Serif" font-size="10.00"> _hoverSize</text>
<text text-anchor="middle" x="314.5" y="-51" font-family="Helvetica,sans-Serif" font-size="10.00">_selectSize</text>
</g>
<!-- Node6 -->
<g id="node6" class="node">
<title>Node6</title>
<g id="a_node6"><a xlink:title=" ">
<polygon fill="white" stroke="#666666" points="425,-107 333,-107 333,-88 425,-88 425,-107"/>
<text text-anchor="middle" x="379" y="-95" font-family="Helvetica,sans-Serif" font-size="10.00">IInteractableView</text>
</a>
</g>
</g>
<!-- Node6&#45;&gt;Node1 -->
<g id="edge6" class="edge">
<title>Node6&#45;&gt;Node1</title>
<path fill="none" stroke="#9a32cd" stroke-dasharray="5,2" d="M369.49,-77.47C363.49,-67.31 354.82,-55.41 344,-48 328.89,-37.66 310.64,-30.66 292.89,-25.92"/>
<polygon fill="#9a32cd" stroke="#9a32cd" points="366.37,-79.06 374.21,-86.19 372.52,-75.73 366.37,-79.06"/>
<text text-anchor="middle" x="402" y="-56.5" font-family="Helvetica,sans-Serif" font-size="10.00"> InteractableView</text>
</g>
<!-- Node7 -->
<g id="node7" class="node">
<title>Node7</title>
<g id="a_node7"><a xlink:title=" ">
<polygon fill="white" stroke="#666666" points="493.5,-107 458.5,-107 458.5,-88 493.5,-88 493.5,-107"/>
<text text-anchor="middle" x="476" y="-95" font-family="Helvetica,sans-Serif" font-size="10.00">bool</text>
</a>
</g>
</g>
<!-- Node7&#45;&gt;Node1 -->
<g id="edge7" class="edge">
<title>Node7&#45;&gt;Node1</title>
<path fill="none" stroke="#9a32cd" stroke-dasharray="5,2" d="M468.15,-77.38C462.88,-67 454.89,-54.9 444,-48 419.47,-32.45 348.36,-24.17 292.97,-19.96"/>
<polygon fill="#9a32cd" stroke="#9a32cd" points="464.87,-78.62 472.19,-86.27 471.24,-75.72 464.87,-78.62"/>
<text text-anchor="middle" x="482" y="-56.5" font-family="Helvetica,sans-Serif" font-size="10.00"> _started</text>
</g>
</g>
</svg>
