<?xml version="1.0" encoding="UTF-8" standalone="no"?>
<!DOCTYPE svg PUBLIC "-//W3C//DTD SVG 1.1//EN"
 "http://www.w3.org/Graphics/SVG/1.1/DTD/svg11.dtd">
<!-- Generated by graphviz version 7.0.5 (20221223.1930)
 -->
<!-- Title: Veery.UI.MainMenuController.Close Pages: 1 -->
<svg width="334pt" height="86pt"
 viewBox="0.00 0.00 334.00 86.00" xmlns="http://www.w3.org/2000/svg" xmlns:xlink="http://www.w3.org/1999/xlink">
<g id="graph0" class="graph" transform="scale(1 1) rotate(0) translate(4 82)">
<title>Veery.UI.MainMenuController.Close</title>
<!-- Node1 -->
<g id="node1" class="node">
<title>Node1</title>
<g id="a_node1"><a xlink:title=" ">
<polygon fill="#999999" stroke="#666666" points="326,-54 181,-54 181,-24 326,-24 326,-54"/>
<text text-anchor="start" x="189" y="-42" font-family="Helvetica,sans-Serif" font-size="10.00">Veery.UI.MainMenuController.</text>
<text text-anchor="middle" x="253.5" y="-31" font-family="Helvetica,sans-Serif" font-size="10.00">Close</text>
</a>
</g>
</g>
<!-- Node2 -->
<g id="node2" class="node">
<title>Node2</title>
<g id="a_node2"><a xlink:href="class_veery_1_1_u_i_1_1_main_menu_controller.html#a4598f043990ef765b0dcc091d7c4748c" target="_top" xlink:title=" ">
<polygon fill="white" stroke="#666666" points="145,-78 0,-78 0,-48 145,-48 145,-78"/>
<text text-anchor="start" x="8" y="-66" font-family="Helvetica,sans-Serif" font-size="10.00">Veery.UI.MainMenuController.</text>
<text text-anchor="middle" x="72.5" y="-55" font-family="Helvetica,sans-Serif" font-size="10.00">Start</text>
</a>
</g>
</g>
<!-- Node1&#45;&gt;Node2 -->
<g id="edge1" class="edge">
<title>Node1&#45;&gt;Node2</title>
<path fill="none" stroke="#63b8ff" d="M169.41,-50.14C161.35,-51.22 153.22,-52.31 145.29,-53.37"/>
<polygon fill="#63b8ff" stroke="#63b8ff" points="169.78,-53.62 179.23,-48.82 168.85,-46.68 169.78,-53.62"/>
</g>
<!-- Node3 -->
<g id="node3" class="node">
<title>Node3</title>
<g id="a_node3"><a xlink:href="class_veery_1_1_u_i_1_1_main_menu_controller.html#ab571540372061708158ae3b867bd311b" target="_top" xlink:title=" ">
<polygon fill="white" stroke="#666666" points="145,-30 0,-30 0,0 145,0 145,-30"/>
<text text-anchor="start" x="8" y="-18" font-family="Helvetica,sans-Serif" font-size="10.00">Veery.UI.MainMenuController.</text>
<text text-anchor="middle" x="72.5" y="-7" font-family="Helvetica,sans-Serif" font-size="10.00">Update</text>
</a>
</g>
</g>
<!-- Node1&#45;&gt;Node3 -->
<g id="edge2" class="edge">
<title>Node1&#45;&gt;Node3</title>
<path fill="none" stroke="#63b8ff" d="M169.41,-27.86C161.35,-26.78 153.22,-25.69 145.29,-24.63"/>
<polygon fill="#63b8ff" stroke="#63b8ff" points="168.85,-31.32 179.23,-29.18 169.78,-24.38 168.85,-31.32"/>
</g>
</g>
</svg>
