<?xml version="1.0" encoding="UTF-8" standalone="no"?>
<!DOCTYPE svg PUBLIC "-//W3C//DTD SVG 1.1//EN"
 "http://www.w3.org/Graphics/SVG/1.1/DTD/svg11.dtd">
<!-- Generated by graphviz version 7.0.5 (20221223.1930)
 -->
<!-- Title: EVA.UI.FileExplorerManager Pages: 1 -->
<!--zoomable 251 -->
<svg id="main" version="1.1" xmlns="http://www.w3.org/2000/svg" xmlns:xlink="http://www.w3.org/1999/xlink" xml:space="preserve" onload="init(evt)">
<style type="text/css"><![CDATA[
.edge:hover path { stroke: red; }
.edge:hover polygon { stroke: red; fill: red; }
]]></style>
<script type="text/javascript"><![CDATA[
var edges = document.getElementsByTagName('g');
if (edges && edges.length) {
  for (var i=0;i<edges.length;i++) {
    if (edges[i].id.substr(0,4)=='edge') {
      edges[i].setAttribute('class','edge');
    }
  }
}
]]></script>
        <defs>
                <circle id="rim" cx="0" cy="0" r="7"/>
                <circle id="rim2" cx="0" cy="0" r="3.5"/>
                <g id="zoomPlus">
                        <use xlink:href="#rim" fill="#404040">
                                <set attributeName="fill" to="#808080" begin="zoomplus.mouseover" end="zoomplus.mouseout"/>
                        </use>
                        <path d="M-4,0h8M0,-4v8" fill="none" stroke="white" stroke-width="1.5" pointer-events="none"/>
                </g>
                <g id="zoomMin">
                        <use xlink:href="#rim" fill="#404040">
                                <set attributeName="fill" to="#808080" begin="zoomminus.mouseover" end="zoomminus.mouseout"/>
                        </use>
                        <path d="M-4,0h8" fill="none" stroke="white" stroke-width="1.5" pointer-events="none"/>
                </g>
                <g id="dirArrow">
                        <path fill="none" stroke="white" stroke-width="1.5" d="M0,-3.0v7 M-2.5,-0.5L0,-3.0L2.5,-0.5"/>
                </g>
               <g id="resetDef">
                       <use xlink:href="#rim2" fill="#404040">
                               <set attributeName="fill" to="#808080" begin="reset.mouseover" end="reset.mouseout"/>
                       </use>
               </g>
        </defs>

<script type="text/javascript">
var viewWidth = 595;
var viewHeight = 251;
var sectionId = 'dynsection-0';
</script>
<script xlink:href="svgpan.js"/>
<svg id="graph" class="graph">
<g id="viewport">
<title>EVA.UI.FileExplorerManager</title>
<!-- Node1 -->
<g id="node1" class="node">
<title>Node1</title>
<g id="a_node1"><a xlink:title="The FileExplorerManager is responsible for managing ALL file explorers (FileExplorerController)....">
<polygon fill="#999999" stroke="#666666" points="587,-167 448,-167 448,-148 587,-148 587,-167"/>
<text text-anchor="middle" x="517.5" y="-155" font-family="Helvetica,sans-Serif" font-size="10.00">EVA.UI.FileExplorerManager</text>
</a>
</g>
</g>
<!-- Node2 -->
<g id="node2" class="node">
<title>Node2</title>
<g id="a_node2"><a xlink:title=" ">
<polygon fill="white" stroke="#666666" points="314.5,-243 230.5,-243 230.5,-224 314.5,-224 314.5,-243"/>
<text text-anchor="middle" x="272.5" y="-231" font-family="Helvetica,sans-Serif" font-size="10.00">MonoBehaviour</text>
</a>
</g>
</g>
<!-- Node2&#45;&gt;Node1 -->
<g id="edge1" class="edge">
<title>Node2&#45;&gt;Node1</title>
<path fill="none" stroke="#63b8ff" d="M325.61,-224.33C356.41,-218.21 395.93,-209.15 430,-197.5 454.26,-189.2 480.86,-176.29 498.06,-167.39"/>
<polygon fill="#63b8ff" stroke="#63b8ff" points="325.32,-220.82 316.17,-226.16 326.65,-227.69 325.32,-220.82"/>
</g>
<!-- Node3 -->
<g id="node3" class="node">
<title>Node3</title>
<g id="a_node3"><a xlink:title=" ">
<polygon fill="white" stroke="#666666" points="293,-206 252,-206 252,-187 293,-187 293,-206"/>
<text text-anchor="middle" x="272.5" y="-194" font-family="Helvetica,sans-Serif" font-size="10.00">static</text>
</a>
</g>
</g>
<!-- Node3&#45;&gt;Node1 -->
<g id="edge2" class="edge">
<title>Node3&#45;&gt;Node1</title>
<path fill="none" stroke="#9a32cd" stroke-dasharray="5,2" d="M304.39,-191.59C335.96,-186.56 386.4,-178.51 430,-171.5 438.11,-170.2 446.65,-168.82 455.07,-167.46"/>
<polygon fill="#9a32cd" stroke="#9a32cd" points="304.09,-188.09 294.76,-193.12 305.19,-195 304.09,-188.09"/>
<text text-anchor="middle" x="395.5" y="-185.5" font-family="Helvetica,sans-Serif" font-size="10.00"> _instance</text>
</g>
<!-- Node4 -->
<g id="node4" class="node">
<title>Node4</title>
<g id="a_node4"><a xlink:title=" ">
<polygon fill="white" stroke="#666666" points="71,-132 0,-132 0,-113 71,-113 71,-132"/>
<text text-anchor="middle" x="35.5" y="-120" font-family="Helvetica,sans-Serif" font-size="10.00">GameObject</text>
</a>
</g>
</g>
<!-- Node4&#45;&gt;Node1 -->
<g id="edge3" class="edge">
<title>Node4&#45;&gt;Node1</title>
<path fill="none" stroke="#9a32cd" stroke-dasharray="5,2" d="M67,-136.76C74.08,-139.49 81.69,-141.97 89,-143.5 213.28,-169.55 362.27,-167.05 447.51,-162.51"/>
<polygon fill="#9a32cd" stroke="#9a32cd" points="68.41,-133.56 57.83,-132.96 65.72,-140.02 68.41,-133.56"/>
<text text-anchor="middle" x="272.5" y="-167.5" font-family="Helvetica,sans-Serif" font-size="10.00"> _elementContainerGO</text>
</g>
<!-- Node7 -->
<g id="node7" class="node">
<title>Node7</title>
<g id="a_node7"><a xlink:href="class_e_v_a_1_1_u_i_1_1_file_explorer_manager_1_1_import_prefabs.html" target="_top" xlink:title=" ">
<polygon fill="white" stroke="#666666" points="343,-111.5 202,-111.5 202,-81.5 343,-81.5 343,-111.5"/>
<text text-anchor="start" x="210" y="-99.5" font-family="Helvetica,sans-Serif" font-size="10.00">EVA.UI.FileExplorerManager.</text>
<text text-anchor="middle" x="272.5" y="-88.5" font-family="Helvetica,sans-Serif" font-size="10.00">ImportPrefabs</text>
</a>
</g>
</g>
<!-- Node4&#45;&gt;Node7 -->
<g id="edge7" class="edge">
<title>Node4&#45;&gt;Node7</title>
<path fill="none" stroke="#9a32cd" stroke-dasharray="5,2" d="M56.67,-105.53C65.91,-98.84 77.38,-91.94 89,-88.5 125.19,-77.8 167.17,-78.78 201.74,-82.89"/>
<polygon fill="#9a32cd" stroke="#9a32cd" points="54.58,-102.73 48.81,-111.61 58.86,-108.26 54.58,-102.73"/>
<text text-anchor="middle" x="136.5" y="-135.5" font-family="Helvetica,sans-Serif" font-size="10.00"> imagePrefab</text>
<text text-anchor="middle" x="136.5" y="-124.5" font-family="Helvetica,sans-Serif" font-size="10.00">model3dPrefab</text>
<text text-anchor="middle" x="136.5" y="-113.5" font-family="Helvetica,sans-Serif" font-size="10.00">soundPrefab</text>
<text text-anchor="middle" x="136.5" y="-102.5" font-family="Helvetica,sans-Serif" font-size="10.00">video360Prefab</text>
<text text-anchor="middle" x="136.5" y="-91.5" font-family="Helvetica,sans-Serif" font-size="10.00">videoPrefab</text>
</g>
<!-- Node5 -->
<g id="node5" class="node">
<title>Node5</title>
<g id="a_node5"><a xlink:href="class_e_v_a_1_1_u_i_1_1_file_explorer_manager_1_1_icon_definition.html" target="_top" xlink:title=" ">
<polygon fill="white" stroke="#666666" points="343,-48.5 202,-48.5 202,-18.5 343,-18.5 343,-48.5"/>
<text text-anchor="start" x="210" y="-36.5" font-family="Helvetica,sans-Serif" font-size="10.00">EVA.UI.FileExplorerManager.</text>
<text text-anchor="middle" x="272.5" y="-25.5" font-family="Helvetica,sans-Serif" font-size="10.00">IconDefinition</text>
</a>
</g>
</g>
<!-- Node5&#45;&gt;Node1 -->
<g id="edge4" class="edge">
<title>Node5&#45;&gt;Node1</title>
<path fill="none" stroke="#9a32cd" stroke-dasharray="5,2" d="M325.54,-53.07C356.51,-65.38 396.24,-82.34 430,-100.5 457.08,-115.07 486.58,-135.61 503.18,-147.64"/>
<polygon fill="#9a32cd" stroke="#9a32cd" points="326.96,-49.87 316.38,-49.47 324.4,-56.38 326.96,-49.87"/>
<text text-anchor="middle" x="395.5" y="-103.5" font-family="Helvetica,sans-Serif" font-size="10.00"> _iconDefinition</text>
</g>
<!-- Node6 -->
<g id="node6" class="node">
<title>Node6</title>
<g id="a_node6"><a xlink:title=" ">
<polygon fill="white" stroke="#666666" points="66,-19 5,-19 5,0 66,0 66,-19"/>
<text text-anchor="middle" x="35.5" y="-7" font-family="Helvetica,sans-Serif" font-size="10.00">TextAsset</text>
</a>
</g>
</g>
<!-- Node6&#45;&gt;Node5 -->
<g id="edge5" class="edge">
<title>Node6&#45;&gt;Node5</title>
<path fill="none" stroke="#9a32cd" stroke-dasharray="5,2" d="M77.5,-7.04C107.21,-5.93 148.25,-5.76 184,-10.5 196.3,-12.13 209.34,-14.95 221.5,-18.06"/>
<polygon fill="#9a32cd" stroke="#9a32cd" points="77.67,-3.53 67.83,-7.46 77.97,-10.53 77.67,-3.53"/>
<text text-anchor="middle" x="136.5" y="-57.5" font-family="Helvetica,sans-Serif" font-size="10.00"> iconAssociation</text>
<text text-anchor="middle" x="136.5" y="-46.5" font-family="Helvetica,sans-Serif" font-size="10.00">iconFileExt</text>
<text text-anchor="middle" x="136.5" y="-35.5" font-family="Helvetica,sans-Serif" font-size="10.00">iconFileName</text>
<text text-anchor="middle" x="136.5" y="-24.5" font-family="Helvetica,sans-Serif" font-size="10.00">iconFolderName</text>
<text text-anchor="middle" x="136.5" y="-13.5" font-family="Helvetica,sans-Serif" font-size="10.00">iconFolderNameOpen</text>
</g>
<!-- Node7&#45;&gt;Node1 -->
<g id="edge6" class="edge">
<title>Node7&#45;&gt;Node1</title>
<path fill="none" stroke="#9a32cd" stroke-dasharray="5,2" d="M354.43,-114.22C378.79,-119.8 405.54,-126.16 430,-132.5 447.86,-137.13 467.63,-142.8 483.76,-147.57"/>
<polygon fill="#9a32cd" stroke="#9a32cd" points="355.43,-110.86 344.9,-112.05 353.88,-117.68 355.43,-110.86"/>
<text text-anchor="middle" x="395.5" y="-135.5" font-family="Helvetica,sans-Serif" font-size="10.00"> _importPrefabs</text>
</g>
</g>
</svg>
        <g id="navigator" transform="translate(0 0)" fill="#404254">
                <rect fill="#f2f5e9" fill-opacity="0.5" stroke="#606060" stroke-width=".5" x="0" y="0" width="60" height="60"/>
                <use id="zoomplus" xlink:href="#zoomPlus" x="17" y="9" onmousedown="handleZoom(evt,'in')"/>
                <use id="zoomminus" xlink:href="#zoomMin" x="42" y="9" onmousedown="handleZoom(evt,'out')"/>
                <use id="reset" xlink:href="#resetDef" x="30" y="36" onmousedown="handleReset()"/>
                <g id="arrowUp" xlink:href="#dirArrow" transform="translate(30 24)" onmousedown="handlePan(0,-1)">
                  <use xlink:href="#rim" fill="#404040">
                        <set attributeName="fill" to="#808080" begin="arrowUp.mouseover" end="arrowUp.mouseout"/>
                  </use>
                  <path fill="none" stroke="white" stroke-width="1.5" d="M0,-3.0v7 M-2.5,-0.5L0,-3.0L2.5,-0.5"/>
                </g>
                <g id="arrowRight" xlink:href="#dirArrow" transform="rotate(90) translate(36 -43)" onmousedown="handlePan(1,0)">
                  <use xlink:href="#rim" fill="#404040">
                        <set attributeName="fill" to="#808080" begin="arrowRight.mouseover" end="arrowRight.mouseout"/>
                  </use>
                  <path fill="none" stroke="white" stroke-width="1.5" d="M0,-3.0v7 M-2.5,-0.5L0,-3.0L2.5,-0.5"/>
                </g>
                <g id="arrowDown" xlink:href="#dirArrow" transform="rotate(180) translate(-30 -48)" onmousedown="handlePan(0,1)">
                  <use xlink:href="#rim" fill="#404040">
                        <set attributeName="fill" to="#808080" begin="arrowDown.mouseover" end="arrowDown.mouseout"/>
                  </use>
                  <path fill="none" stroke="white" stroke-width="1.5" d="M0,-3.0v7 M-2.5,-0.5L0,-3.0L2.5,-0.5"/>
                </g>
                <g id="arrowLeft" xlink:href="#dirArrow" transform="rotate(270) translate(-36 17)" onmousedown="handlePan(-1,0)">
                  <use xlink:href="#rim" fill="#404040">
                        <set attributeName="fill" to="#808080" begin="arrowLeft.mouseover" end="arrowLeft.mouseout"/>
                  </use>
                  <path fill="none" stroke="white" stroke-width="1.5" d="M0,-3.0v7 M-2.5,-0.5L0,-3.0L2.5,-0.5"/>
                </g>
        </g>
        <svg viewBox="0 0 15 15" width="100%" height="30px" preserveAspectRatio="xMaxYMin meet">
         <g id="arrow_out" transform="scale(0.3 0.3)">
          <a xlink:href="class_e_v_a_1_1_u_i_1_1_file_explorer_manager__coll__graph_org.svg" target="_base">
           <rect id="button" ry="5" rx="5" y="6" x="6" height="38" width="38"
                fill="#f2f5e9" fill-opacity="0.5" stroke="#606060" stroke-width="1.0"/>
           <path id="arrow"
             d="M 11.500037,31.436501 C 11.940474,20.09759 22.043105,11.32322 32.158766,21.979434 L 37.068811,17.246167 C 37.068811,17.246167 37.088388,32 37.088388,32 L 22.160133,31.978069 C 22.160133,31.978069 26.997745,27.140456 26.997745,27.140456 C 18.528582,18.264221 13.291696,25.230495 11.500037,31.436501 z"
             style="fill:#404040;"/>
          </a>
         </g>
        </svg>
</svg>
