<?xml version="1.0" encoding="UTF-8" standalone="no"?>
<!DOCTYPE svg PUBLIC "-//W3C//DTD SVG 1.1//EN"
 "http://www.w3.org/Graphics/SVG/1.1/DTD/svg11.dtd">
<!-- Generated by graphviz version 7.0.5 (20221223.1930)
 -->
<!-- Title: Veery.UI.Selection.BooleanParameter Pages: 1 -->
<svg width="268pt" height="216pt"
 viewBox="0.00 0.00 267.50 216.00" xmlns="http://www.w3.org/2000/svg" xmlns:xlink="http://www.w3.org/1999/xlink">
<g id="graph0" class="graph" transform="scale(1 1) rotate(0) translate(4 212)">
<title>Veery.UI.Selection.BooleanParameter</title>
<!-- Node1 -->
<g id="node1" class="node">
<title>Node1</title>
<g id="a_node1"><a xlink:title=" ">
<polygon fill="#999999" stroke="#666666" points="185.5,-30 51.5,-30 51.5,0 185.5,0 185.5,-30"/>
<text text-anchor="start" x="59.5" y="-18" font-family="Helvetica,sans-Serif" font-size="10.00">Veery.UI.Selection.Boolean</text>
<text text-anchor="middle" x="118.5" y="-7" font-family="Helvetica,sans-Serif" font-size="10.00">Parameter</text>
</a>
</g>
</g>
<!-- Node2 -->
<g id="node2" class="node">
<title>Node2</title>
<g id="a_node2"><a xlink:href="class_veery_1_1_u_i_1_1_selection_1_1_parameter.html" target="_top" xlink:title=" ">
<polygon fill="white" stroke="#666666" points="77.5,-96 15.5,-96 15.5,-77 77.5,-77 77.5,-96"/>
<text text-anchor="middle" x="46.5" y="-84" font-family="Helvetica,sans-Serif" font-size="10.00">Parameter</text>
</a>
</g>
</g>
<!-- Node2&#45;&gt;Node1 -->
<g id="edge1" class="edge">
<title>Node2&#45;&gt;Node1</title>
<path fill="none" stroke="#63b8ff" d="M63.67,-68.93C75.87,-57.15 92.09,-41.5 103.71,-30.27"/>
<polygon fill="#63b8ff" stroke="#63b8ff" points="61.47,-66.18 56.71,-75.65 66.33,-71.22 61.47,-66.18"/>
</g>
<!-- Node3 -->
<g id="node3" class="node">
<title>Node3</title>
<g id="a_node3"><a xlink:href="class_veery_1_1_u_i_1_1_selection_1_1_selection_property.html" target="_top" xlink:title=" ">
<polygon fill="white" stroke="#666666" points="93,-152 0,-152 0,-133 93,-133 93,-152"/>
<text text-anchor="middle" x="46.5" y="-140" font-family="Helvetica,sans-Serif" font-size="10.00">SelectionProperty</text>
</a>
</g>
</g>
<!-- Node3&#45;&gt;Node2 -->
<g id="edge2" class="edge">
<title>Node3&#45;&gt;Node2</title>
<path fill="none" stroke="#63b8ff" d="M46.5,-121.11C46.5,-112.52 46.5,-102.97 46.5,-96.25"/>
<polygon fill="#63b8ff" stroke="#63b8ff" points="43,-121.07 46.5,-131.07 50,-121.07 43,-121.07"/>
</g>
<!-- Node4 -->
<g id="node4" class="node">
<title>Node4</title>
<g id="a_node4"><a xlink:title=" ">
<polygon fill="white" stroke="#666666" points="88.5,-208 4.5,-208 4.5,-189 88.5,-189 88.5,-208"/>
<text text-anchor="middle" x="46.5" y="-196" font-family="Helvetica,sans-Serif" font-size="10.00">MonoBehaviour</text>
</a>
</g>
</g>
<!-- Node4&#45;&gt;Node3 -->
<g id="edge3" class="edge">
<title>Node4&#45;&gt;Node3</title>
<path fill="none" stroke="#63b8ff" d="M46.5,-177.11C46.5,-168.52 46.5,-158.97 46.5,-152.25"/>
<polygon fill="#63b8ff" stroke="#63b8ff" points="43,-177.07 46.5,-187.07 50,-177.07 43,-177.07"/>
</g>
<!-- Node5 -->
<g id="node5" class="node">
<title>Node5</title>
<g id="a_node5"><a xlink:title=" ">
<polygon fill="white" stroke="#666666" points="141.5,-96 95.5,-96 95.5,-77 141.5,-77 141.5,-96"/>
<text text-anchor="middle" x="118.5" y="-84" font-family="Helvetica,sans-Serif" font-size="10.00">Toggle</text>
</a>
</g>
</g>
<!-- Node5&#45;&gt;Node1 -->
<g id="edge4" class="edge">
<title>Node5&#45;&gt;Node1</title>
<path fill="none" stroke="#9a32cd" stroke-dasharray="5,2" d="M118.5,-65.39C118.5,-54.15 118.5,-40.41 118.5,-30.27"/>
<polygon fill="#9a32cd" stroke="#9a32cd" points="115,-65.18 118.5,-75.18 122,-65.18 115,-65.18"/>
<text text-anchor="middle" x="135.5" y="-51" font-family="Helvetica,sans-Serif" font-size="10.00"> _toggle</text>
</g>
<!-- Node6 -->
<g id="node6" class="node">
<title>Node6</title>
<g id="a_node6"><a xlink:title=" ">
<polygon fill="white" stroke="#666666" points="259.5,-96 159.5,-96 159.5,-77 259.5,-77 259.5,-96"/>
<text text-anchor="middle" x="209.5" y="-84" font-family="Helvetica,sans-Serif" font-size="10.00">TextMeshProUGUI</text>
</a>
</g>
</g>
<!-- Node6&#45;&gt;Node1 -->
<g id="edge5" class="edge">
<title>Node6&#45;&gt;Node1</title>
<path fill="none" stroke="#9a32cd" stroke-dasharray="5,2" d="M189.13,-69.95C173.58,-58.07 152.31,-41.82 137.19,-30.27"/>
<polygon fill="#9a32cd" stroke="#9a32cd" points="186.7,-72.49 196.77,-75.78 190.95,-66.93 186.7,-72.49"/>
<text text-anchor="middle" x="187.5" y="-51" font-family="Helvetica,sans-Serif" font-size="10.00"> _name</text>
</g>
</g>
</svg>
