<?xml version="1.0" encoding="UTF-8" standalone="no"?>
<!DOCTYPE svg PUBLIC "-//W3C//DTD SVG 1.1//EN"
 "http://www.w3.org/Graphics/SVG/1.1/DTD/svg11.dtd">
<!-- Generated by graphviz version 7.0.5 (20221223.1930)
 -->
<!-- Title: Veery.Interaction.InteractableOutline.InjectOutline Pages: 1 -->
<svg width="497pt" height="38pt"
 viewBox="0.00 0.00 497.00 38.00" xmlns="http://www.w3.org/2000/svg" xmlns:xlink="http://www.w3.org/1999/xlink">
<g id="graph0" class="graph" transform="scale(1 1) rotate(0) translate(4 34)">
<title>Veery.Interaction.InteractableOutline.InjectOutline</title>
<!-- Node1 -->
<g id="node1" class="node">
<title>Node1</title>
<g id="a_node1"><a xlink:title=" ">
<polygon fill="#999999" stroke="#666666" points="489,-30 346,-30 346,0 489,0 489,-30"/>
<text text-anchor="start" x="354" y="-18" font-family="Helvetica,sans-Serif" font-size="10.00">Veery.Interaction.Interactable</text>
<text text-anchor="middle" x="417.5" y="-7" font-family="Helvetica,sans-Serif" font-size="10.00">Outline.InjectOutline</text>
</a>
</g>
</g>
<!-- Node2 -->
<g id="node2" class="node">
<title>Node2</title>
<g id="a_node2"><a xlink:href="class_veery_1_1_import_1_1_model3_d.html#a7abb9ddb03e66e71ebe9bc2304a428b2" target="_top" xlink:title="Initializes the 3D model by loading it from the specified URL and setting up its components.">
<polygon fill="white" stroke="#666666" points="310,-24.5 182,-24.5 182,-5.5 310,-5.5 310,-24.5"/>
<text text-anchor="middle" x="246" y="-12.5" font-family="Helvetica,sans-Serif" font-size="10.00">Veery.Import.Model3D.Init</text>
</a>
</g>
</g>
<!-- Node1&#45;&gt;Node2 -->
<g id="edge1" class="edge">
<title>Node1&#45;&gt;Node2</title>
<path fill="none" stroke="#63b8ff" d="M334.27,-15C326.23,-15 318.15,-15 310.33,-15"/>
<polygon fill="#63b8ff" stroke="#63b8ff" points="334.09,-18.5 344.09,-15 334.09,-11.5 334.09,-18.5"/>
</g>
<!-- Node3 -->
<g id="node3" class="node">
<title>Node3</title>
<g id="a_node3"><a xlink:href="class_veery_1_1_u_i_1_1_file_explorer_manager.html#aa290e58d935fc5068e287e909196704a" target="_top" xlink:title="Imports a file into the scene.">
<polygon fill="white" stroke="#666666" points="146,-30 0,-30 0,0 146,0 146,-30"/>
<text text-anchor="start" x="8" y="-18" font-family="Helvetica,sans-Serif" font-size="10.00">Veery.UI.FileExplorerManager.</text>
<text text-anchor="middle" x="73" y="-7" font-family="Helvetica,sans-Serif" font-size="10.00">Import</text>
</a>
</g>
</g>
<!-- Node2&#45;&gt;Node3 -->
<g id="edge2" class="edge">
<title>Node2&#45;&gt;Node3</title>
<path fill="none" stroke="#63b8ff" d="M170.32,-15C162.4,-15 154.35,-15 146.45,-15"/>
<polygon fill="#63b8ff" stroke="#63b8ff" points="170.3,-18.5 180.3,-15 170.3,-11.5 170.3,-18.5"/>
</g>
</g>
</svg>
