<?xml version="1.0" encoding="UTF-8" standalone="no"?>
<!DOCTYPE svg PUBLIC "-//W3C//DTD SVG 1.1//EN"
 "http://www.w3.org/Graphics/SVG/1.1/DTD/svg11.dtd">
<!-- Generated by graphviz version 7.0.5 (20221223.1930)
 -->
<!-- Title: Veery.UI.Selection.Link.Edit Pages: 1 -->
<svg width="301pt" height="86pt"
 viewBox="0.00 0.00 301.00 86.00" xmlns="http://www.w3.org/2000/svg" xmlns:xlink="http://www.w3.org/1999/xlink">
<g id="graph0" class="graph" transform="scale(1 1) rotate(0) translate(4 82)">
<title>Veery.UI.Selection.Link.Edit</title>
<!-- Node1 -->
<g id="node1" class="node">
<title>Node1</title>
<g id="a_node1"><a xlink:title=" ">
<polygon fill="#999999" stroke="#666666" points="293,-48.5 156,-48.5 156,-29.5 293,-29.5 293,-48.5"/>
<text text-anchor="middle" x="224.5" y="-36.5" font-family="Helvetica,sans-Serif" font-size="10.00">Veery.UI.Selection.Link.Edit</text>
</a>
</g>
</g>
<!-- Node2 -->
<g id="node2" class="node">
<title>Node2</title>
<g id="a_node2"><a xlink:href="class_veery_1_1_u_i_1_1_selection_1_1_link.html#ad2b1e4dadb933ea4a14da4aa403e3fc5" target="_top" xlink:title=" ">
<polygon fill="white" stroke="#666666" points="120,-78 0,-78 0,-48 120,-48 120,-78"/>
<text text-anchor="start" x="8" y="-66" font-family="Helvetica,sans-Serif" font-size="10.00">Veery.UI.Selection.Link.</text>
<text text-anchor="middle" x="60" y="-55" font-family="Helvetica,sans-Serif" font-size="10.00">OnDestroy</text>
</a>
</g>
</g>
<!-- Node1&#45;&gt;Node2 -->
<g id="edge1" class="edge">
<title>Node1&#45;&gt;Node2</title>
<path fill="none" stroke="#63b8ff" d="M144.79,-50.62C136.54,-51.84 128.25,-53.07 120.26,-54.25"/>
<polygon fill="#63b8ff" stroke="#63b8ff" points="145.12,-54.11 154.5,-49.19 144.1,-47.19 145.12,-54.11"/>
</g>
<!-- Node3 -->
<g id="node3" class="node">
<title>Node3</title>
<g id="a_node3"><a xlink:href="class_veery_1_1_u_i_1_1_selection_1_1_link.html#a0302d4a02186260cff8d5081004f201b" target="_top" xlink:title=" ">
<polygon fill="white" stroke="#666666" points="120,-30 0,-30 0,0 120,0 120,-30"/>
<text text-anchor="start" x="8" y="-18" font-family="Helvetica,sans-Serif" font-size="10.00">Veery.UI.Selection.Link.</text>
<text text-anchor="middle" x="60" y="-7" font-family="Helvetica,sans-Serif" font-size="10.00">Start</text>
</a>
</g>
</g>
<!-- Node1&#45;&gt;Node3 -->
<g id="edge2" class="edge">
<title>Node1&#45;&gt;Node3</title>
<path fill="none" stroke="#63b8ff" d="M144.79,-27.38C136.54,-26.16 128.25,-24.93 120.26,-23.75"/>
<polygon fill="#63b8ff" stroke="#63b8ff" points="144.1,-30.81 154.5,-28.81 145.12,-23.89 144.1,-30.81"/>
</g>
</g>
</svg>
