<?xml version="1.0" encoding="UTF-8" standalone="no"?>
<!DOCTYPE svg PUBLIC "-//W3C//DTD SVG 1.1//EN"
 "http://www.w3.org/Graphics/SVG/1.1/DTD/svg11.dtd">
<!-- Generated by graphviz version 7.0.5 (20221223.1930)
 -->
<!-- Title: Veery.Interaction.DistanceSelectInteractable Pages: 1 -->
<svg width="376pt" height="234pt"
 viewBox="0.00 0.00 376.00 234.00" xmlns="http://www.w3.org/2000/svg" xmlns:xlink="http://www.w3.org/1999/xlink">
<g id="graph0" class="graph" transform="scale(1 1) rotate(0) translate(4 230)">
<title>Veery.Interaction.DistanceSelectInteractable</title>
<!-- Node1 -->
<g id="node1" class="node">
<title>Node1</title>
<g id="a_node1"><a xlink:title="Allows the user to select and interact with this object from a distance using the DistanceSelectInter...">
<polygon fill="#999999" stroke="#666666" points="368,-116.5 238,-116.5 238,-86.5 368,-86.5 368,-116.5"/>
<text text-anchor="start" x="246" y="-104.5" font-family="Helvetica,sans-Serif" font-size="10.00">Veery.Interaction.Distance</text>
<text text-anchor="middle" x="303" y="-93.5" font-family="Helvetica,sans-Serif" font-size="10.00">SelectInteractable</text>
</a>
</g>
</g>
<!-- Node2 -->
<g id="node2" class="node">
<title>Node2</title>
<g id="a_node2"><a xlink:href="class_pointer_interactable.html" target="_top" xlink:title=" ">
<polygon fill="white" stroke="#666666" points="144,-226 0,-226 0,-185 144,-185 144,-226"/>
<text text-anchor="start" x="8" y="-214" font-family="Helvetica,sans-Serif" font-size="10.00">PointerInteractable</text>
<text text-anchor="start" x="8" y="-203" font-family="Helvetica,sans-Serif" font-size="10.00">&lt; DistanceSelectInteractor,</text>
<text text-anchor="middle" x="72" y="-192" font-family="Helvetica,sans-Serif" font-size="10.00"> DistanceSelectInteractable &gt;</text>
</a>
</g>
</g>
<!-- Node2&#45;&gt;Node1 -->
<g id="edge1" class="edge">
<title>Node2&#45;&gt;Node1</title>
<path fill="none" stroke="#63b8ff" d="M134.83,-180.29C137.93,-179.01 141,-177.74 144,-176.5 177.85,-162.46 186.85,-160.14 220,-144.5 238.32,-135.86 258.47,-125.31 274.21,-116.82"/>
<polygon fill="#63b8ff" stroke="#63b8ff" points="133.53,-177.04 125.62,-184.08 136.2,-183.51 133.53,-177.04"/>
</g>
<!-- Node3 -->
<g id="node3" class="node">
<title>Node3</title>
<g id="a_node3"><a xlink:href="class_i_rigidbody_ref.html" target="_top" xlink:title=" ">
<polygon fill="white" stroke="#666666" points="110.5,-167 33.5,-167 33.5,-148 110.5,-148 110.5,-167"/>
<text text-anchor="middle" x="72" y="-155" font-family="Helvetica,sans-Serif" font-size="10.00">IRigidbodyRef</text>
</a>
</g>
</g>
<!-- Node3&#45;&gt;Node1 -->
<g id="edge2" class="edge">
<title>Node3&#45;&gt;Node1</title>
<path fill="none" stroke="#63b8ff" d="M121.85,-147.21C150.53,-141 187.42,-132.72 220,-124.5 229.18,-122.19 238.89,-119.59 248.3,-117"/>
<polygon fill="#63b8ff" stroke="#63b8ff" points="121.41,-143.72 112.38,-149.25 122.89,-150.57 121.41,-143.72"/>
</g>
<!-- Node4 -->
<g id="node4" class="node">
<title>Node4</title>
<g id="a_node4"><a xlink:href="class_i_relative_to_ref.html" target="_top" xlink:title=" ">
<polygon fill="white" stroke="#666666" points="112.5,-130 31.5,-130 31.5,-111 112.5,-111 112.5,-130"/>
<text text-anchor="middle" x="72" y="-118" font-family="Helvetica,sans-Serif" font-size="10.00">IRelativeToRef</text>
</a>
</g>
</g>
<!-- Node4&#45;&gt;Node1 -->
<g id="edge3" class="edge">
<title>Node4&#45;&gt;Node1</title>
<path fill="none" stroke="#63b8ff" d="M124.3,-116.24C157.89,-113.46 202.04,-109.79 237.93,-106.82"/>
<polygon fill="#63b8ff" stroke="#63b8ff" points="124.07,-112.75 114.4,-117.07 124.65,-119.73 124.07,-112.75"/>
</g>
<!-- Node5 -->
<g id="node5" class="node">
<title>Node5</title>
<g id="a_node5"><a xlink:href="class_i_colliders_ref.html" target="_top" xlink:title=" ">
<polygon fill="white" stroke="#666666" points="108,-93 36,-93 36,-74 108,-74 108,-93"/>
<text text-anchor="middle" x="72" y="-81" font-family="Helvetica,sans-Serif" font-size="10.00">ICollidersRef</text>
</a>
</g>
</g>
<!-- Node5&#45;&gt;Node1 -->
<g id="edge4" class="edge">
<title>Node5&#45;&gt;Node1</title>
<path fill="none" stroke="#63b8ff" d="M119.74,-87.17C153.72,-89.85 200.14,-93.49 237.62,-96.44"/>
<polygon fill="#63b8ff" stroke="#63b8ff" points="120.03,-83.69 109.79,-86.39 119.48,-90.66 120.03,-83.69"/>
</g>
<!-- Node6 -->
<g id="node6" class="node">
<title>Node6</title>
<g id="a_node6"><a xlink:title=" ">
<polygon fill="white" stroke="#666666" points="101.5,-56 42.5,-56 42.5,-37 101.5,-37 101.5,-56"/>
<text text-anchor="middle" x="72" y="-44" font-family="Helvetica,sans-Serif" font-size="10.00">Rigidbody</text>
</a>
</g>
</g>
<!-- Node6&#45;&gt;Node1 -->
<g id="edge5" class="edge">
<title>Node6&#45;&gt;Node1</title>
<path fill="none" stroke="#9a32cd" stroke-dasharray="5,2" d="M113.12,-53.16C142.83,-58.39 184.19,-66.32 220,-75.5 231.86,-78.54 244.54,-82.3 256.29,-86.01"/>
<polygon fill="#9a32cd" stroke="#9a32cd" points="113.89,-49.74 103.44,-51.48 112.69,-56.64 113.89,-49.74"/>
<text text-anchor="middle" x="191" y="-78.5" font-family="Helvetica,sans-Serif" font-size="10.00"> _rigidbody</text>
</g>
<!-- Node7 -->
<g id="node7" class="node">
<title>Node7</title>
<g id="a_node7"><a xlink:title=" ">
<polygon fill="white" stroke="#666666" points="102.5,-19 41.5,-19 41.5,0 102.5,0 102.5,-19"/>
<text text-anchor="middle" x="72" y="-7" font-family="Helvetica,sans-Serif" font-size="10.00">Transform</text>
</a>
</g>
</g>
<!-- Node7&#45;&gt;Node1 -->
<g id="edge6" class="edge">
<title>Node7&#45;&gt;Node1</title>
<path fill="none" stroke="#9a32cd" stroke-dasharray="5,2" d="M113.93,-16.32C144.11,-22.24 185.71,-32.28 220,-47.5 243.06,-57.73 266.86,-74.18 282.84,-86.24"/>
<polygon fill="#9a32cd" stroke="#9a32cd" points="114.93,-12.95 104.45,-14.54 113.63,-19.83 114.93,-12.95"/>
<text text-anchor="middle" x="191" y="-50.5" font-family="Helvetica,sans-Serif" font-size="10.00"> _grabSource</text>
</g>
</g>
</svg>
