<?xml version="1.0" encoding="UTF-8" standalone="no"?>
<!DOCTYPE svg PUBLIC "-//W3C//DTD SVG 1.1//EN"
 "http://www.w3.org/Graphics/SVG/1.1/DTD/svg11.dtd">
<!-- Generated by graphviz version 7.0.5 (20221223.1930)
 -->
<!-- Title: Veery.Interaction.InteractableOutline.UpdateVisual Pages: 1 -->
<svg width="509pt" height="107pt"
 viewBox="0.00 0.00 509.00 107.00" xmlns="http://www.w3.org/2000/svg" xmlns:xlink="http://www.w3.org/1999/xlink">
<g id="graph0" class="graph" transform="scale(1 1) rotate(0) translate(4 103)">
<title>Veery.Interaction.InteractableOutline.UpdateVisual</title>
<!-- Node1 -->
<g id="node1" class="node">
<title>Node1</title>
<g id="a_node1"><a xlink:title="Updates the visual state of the interactable object based on its current state.">
<polygon fill="#999999" stroke="#666666" points="501,-78 358,-78 358,-48 501,-48 501,-78"/>
<text text-anchor="start" x="366" y="-66" font-family="Helvetica,sans-Serif" font-size="10.00">Veery.Interaction.Interactable</text>
<text text-anchor="middle" x="429.5" y="-55" font-family="Helvetica,sans-Serif" font-size="10.00">Outline.UpdateVisual</text>
</a>
</g>
</g>
<!-- Node2 -->
<g id="node2" class="node">
<title>Node2</title>
<g id="a_node2"><a xlink:href="class_veery_1_1_interaction_1_1_interactable_outline.html#a103f42250788441d2986466b54b368fb" target="_top" xlink:title=" ">
<polygon fill="white" stroke="#666666" points="143,-99 0,-99 0,-69 143,-69 143,-99"/>
<text text-anchor="start" x="8" y="-87" font-family="Helvetica,sans-Serif" font-size="10.00">Veery.Interaction.Interactable</text>
<text text-anchor="middle" x="71.5" y="-76" font-family="Helvetica,sans-Serif" font-size="10.00">Outline.OnEnable</text>
</a>
</g>
</g>
<!-- Node1&#45;&gt;Node2 -->
<g id="edge1" class="edge">
<title>Node1&#45;&gt;Node2</title>
<path fill="none" stroke="#63b8ff" d="M359.38,-80.9C347.02,-83.44 334.19,-85.64 322,-87 262.05,-93.67 193.5,-92.2 143.44,-89.47"/>
<polygon fill="#63b8ff" stroke="#63b8ff" points="360.06,-84.34 369.1,-78.82 358.59,-77.5 360.06,-84.34"/>
</g>
<!-- Node3 -->
<g id="node3" class="node">
<title>Node3</title>
<g id="a_node3"><a xlink:href="class_veery_1_1_interaction_1_1_interactable_outline.html#a8c5351d386a02cfcaf930182035c812c" target="_top" xlink:title=" ">
<polygon fill="white" stroke="#666666" points="322,-78 179,-78 179,-48 322,-48 322,-78"/>
<text text-anchor="start" x="187" y="-66" font-family="Helvetica,sans-Serif" font-size="10.00">Veery.Interaction.Interactable</text>
<text text-anchor="middle" x="250.5" y="-55" font-family="Helvetica,sans-Serif" font-size="10.00">Outline.Start</text>
</a>
</g>
</g>
<!-- Node1&#45;&gt;Node3 -->
<g id="edge2" class="edge">
<title>Node1&#45;&gt;Node3</title>
<path fill="none" stroke="#63b8ff" d="M346.06,-63C338.18,-63 330.24,-63 322.49,-63"/>
<polygon fill="#63b8ff" stroke="#63b8ff" points="346.01,-66.5 356.01,-63 346.01,-59.5 346.01,-66.5"/>
</g>
<!-- Node4 -->
<g id="node4" class="node">
<title>Node4</title>
<g id="a_node4"><a xlink:href="class_veery_1_1_interaction_1_1_interactable_outline.html#a075086a950ee338a917c47a88570e2cf" target="_top" xlink:title="Updates the visual state of the interactable object based on its current state change arguments.">
<polygon fill="white" stroke="#666666" points="322,-30 179,-30 179,0 322,0 322,-30"/>
<text text-anchor="start" x="187" y="-18" font-family="Helvetica,sans-Serif" font-size="10.00">Veery.Interaction.Interactable</text>
<text text-anchor="middle" x="250.5" y="-7" font-family="Helvetica,sans-Serif" font-size="10.00">Outline.UpdateVisualState</text>
</a>
</g>
</g>
<!-- Node1&#45;&gt;Node4 -->
<g id="edge3" class="edge">
<title>Node1&#45;&gt;Node4</title>
<path fill="none" stroke="#63b8ff" d="M360.41,-44.54C343.22,-39.87 324.94,-34.92 308.37,-30.42"/>
<polygon fill="#63b8ff" stroke="#63b8ff" points="359.49,-47.91 370.06,-47.15 361.33,-41.16 359.49,-47.91"/>
</g>
<!-- Node4&#45;&gt;Node2 -->
<g id="edge5" class="edge">
<title>Node4&#45;&gt;Node2</title>
<path fill="none" stroke="#63b8ff" d="M191.84,-34.25C187.48,-35.82 183.16,-37.41 179,-39 154.8,-48.22 127.95,-59.57 107.26,-68.57"/>
<polygon fill="#63b8ff" stroke="#63b8ff" points="193,-37.55 201.26,-30.92 190.67,-30.95 193,-37.55"/>
</g>
<!-- Node5 -->
<g id="node5" class="node">
<title>Node5</title>
<g id="a_node5"><a xlink:href="class_veery_1_1_interaction_1_1_interactable_outline.html#a220f9e1b3bc79cb33034fcafcc12aed8" target="_top" xlink:title=" ">
<polygon fill="white" stroke="#666666" points="143,-30 0,-30 0,0 143,0 143,-30"/>
<text text-anchor="start" x="8" y="-18" font-family="Helvetica,sans-Serif" font-size="10.00">Veery.Interaction.Interactable</text>
<text text-anchor="middle" x="71.5" y="-7" font-family="Helvetica,sans-Serif" font-size="10.00">Outline.OnDisable</text>
</a>
</g>
</g>
<!-- Node4&#45;&gt;Node5 -->
<g id="edge4" class="edge">
<title>Node4&#45;&gt;Node5</title>
<path fill="none" stroke="#63b8ff" d="M167.06,-15C159.18,-15 151.24,-15 143.49,-15"/>
<polygon fill="#63b8ff" stroke="#63b8ff" points="167.01,-18.5 177.01,-15 167.01,-11.5 167.01,-18.5"/>
</g>
</g>
</svg>
