<?xml version="1.0" encoding="UTF-8" standalone="no"?>
<!DOCTYPE svg PUBLIC "-//W3C//DTD SVG 1.1//EN"
 "http://www.w3.org/Graphics/SVG/1.1/DTD/svg11.dtd">
<!-- Generated by graphviz version 7.0.5 (20221223.1930)
 -->
<!-- Title: EVA.Gameplay.GameplayManager Pages: 1 -->
<svg width="372pt" height="93pt"
 viewBox="0.00 0.00 372.00 93.00" xmlns="http://www.w3.org/2000/svg" xmlns:xlink="http://www.w3.org/1999/xlink">
<g id="graph0" class="graph" transform="scale(1 1) rotate(0) translate(4 89)">
<title>EVA.Gameplay.GameplayManager</title>
<!-- Node1 -->
<g id="node1" class="node">
<title>Node1</title>
<g id="a_node1"><a xlink:title=" ">
<polygon fill="#999999" stroke="#666666" points="239.5,-19 74.5,-19 74.5,0 239.5,0 239.5,-19"/>
<text text-anchor="middle" x="157" y="-7" font-family="Helvetica,sans-Serif" font-size="10.00">EVA.Gameplay.GameplayManager</text>
</a>
</g>
</g>
<!-- Node2 -->
<g id="node2" class="node">
<title>Node2</title>
<g id="a_node2"><a xlink:href="class_mono_behaviour.html" target="_top" xlink:title=" ">
<polygon fill="white" stroke="#666666" points="84,-85 0,-85 0,-66 84,-66 84,-85"/>
<text text-anchor="middle" x="42" y="-73" font-family="Helvetica,sans-Serif" font-size="10.00">MonoBehaviour</text>
</a>
</g>
</g>
<!-- Node2&#45;&gt;Node1 -->
<g id="edge1" class="edge">
<title>Node2&#45;&gt;Node1</title>
<path fill="none" stroke="#63b8ff" d="M67.88,-60.09C90.38,-47.58 122.24,-29.84 141.15,-19.32"/>
<polygon fill="#63b8ff" stroke="#63b8ff" points="66.35,-56.94 59.31,-64.87 69.75,-63.06 66.35,-56.94"/>
</g>
<!-- Node3 -->
<g id="node3" class="node">
<title>Node3</title>
<g id="a_node3"><a xlink:title=" ">
<polygon fill="white" stroke="#666666" points="143.5,-85 102.5,-85 102.5,-66 143.5,-66 143.5,-85"/>
<text text-anchor="middle" x="123" y="-73" font-family="Helvetica,sans-Serif" font-size="10.00">static</text>
</a>
</g>
</g>
<!-- Node3&#45;&gt;Node1 -->
<g id="edge2" class="edge">
<title>Node3&#45;&gt;Node1</title>
<path fill="none" stroke="#9a32cd" stroke-dasharray="5,2" d="M120.43,-54.55C120.47,-48.64 121.35,-42.33 124,-37 127.59,-29.76 134.19,-23.85 140.55,-19.46"/>
<polygon fill="#9a32cd" stroke="#9a32cd" points="116.91,-54.43 121.12,-64.15 123.89,-53.93 116.91,-54.43"/>
<text text-anchor="middle" x="146.5" y="-40" font-family="Helvetica,sans-Serif" font-size="10.00"> _instance</text>
</g>
<!-- Node4 -->
<g id="node4" class="node">
<title>Node4</title>
<g id="a_node4"><a xlink:title=" ">
<polygon fill="white" stroke="#666666" points="220,-85 162,-85 162,-66 220,-66 220,-85"/>
<text text-anchor="middle" x="191" y="-73" font-family="Helvetica,sans-Serif" font-size="10.00">Controller</text>
</a>
</g>
</g>
<!-- Node4&#45;&gt;Node1 -->
<g id="edge3" class="edge">
<title>Node4&#45;&gt;Node1</title>
<path fill="none" stroke="#9a32cd" stroke-dasharray="5,2" d="M180.99,-55.66C174.61,-43.66 166.64,-28.65 161.69,-19.32"/>
<polygon fill="#9a32cd" stroke="#9a32cd" points="177.78,-57.08 185.56,-64.26 183.96,-53.79 177.78,-57.08"/>
<text text-anchor="middle" x="215.5" y="-40" font-family="Helvetica,sans-Serif" font-size="10.00"> _currentController</text>
</g>
<!-- Node5 -->
<g id="node5" class="node">
<title>Node5</title>
<g id="a_node5"><a xlink:title=" ">
<polygon fill="white" stroke="#666666" points="328.5,-85 257.5,-85 257.5,-66 328.5,-66 328.5,-85"/>
<text text-anchor="middle" x="293" y="-73" font-family="Helvetica,sans-Serif" font-size="10.00">Handedness</text>
</a>
</g>
</g>
<!-- Node5&#45;&gt;Node1 -->
<g id="edge4" class="edge">
<title>Node5&#45;&gt;Node1</title>
<path fill="none" stroke="#9a32cd" stroke-dasharray="5,2" d="M280.51,-56.7C274.71,-49.63 267.27,-42.01 259,-37 245.77,-29 230.17,-23.39 215.19,-19.47"/>
<polygon fill="#9a32cd" stroke="#9a32cd" points="277.58,-58.64 286.4,-64.5 283.16,-54.41 277.58,-58.64"/>
<text text-anchor="middle" x="317.5" y="-40" font-family="Helvetica,sans-Serif" font-size="10.00"> _currentHandedness</text>
</g>
</g>
</svg>
