<?xml version="1.0" encoding="UTF-8" standalone="no"?>
<!DOCTYPE svg PUBLIC "-//W3C//DTD SVG 1.1//EN"
 "http://www.w3.org/Graphics/SVG/1.1/DTD/svg11.dtd">
<!-- Generated by graphviz version 7.0.5 (20221223.1930)
 -->
<!-- Title: EVA.UI.CollapseButton Pages: 1 -->
<svg width="470pt" height="192pt"
 viewBox="0.00 0.00 470.00 192.00" xmlns="http://www.w3.org/2000/svg" xmlns:xlink="http://www.w3.org/1999/xlink">
<g id="graph0" class="graph" transform="scale(1 1) rotate(0) translate(4 188)">
<title>EVA.UI.CollapseButton</title>
<!-- Node1 -->
<g id="node1" class="node">
<title>Node1</title>
<g id="a_node1"><a xlink:title=" ">
<polygon fill="#999999" stroke="#666666" points="236.5,-19 119.5,-19 119.5,0 236.5,0 236.5,-19"/>
<text text-anchor="middle" x="178" y="-7" font-family="Helvetica,sans-Serif" font-size="10.00">EVA.UI.CollapseButton</text>
</a>
</g>
</g>
<!-- Node2 -->
<g id="node2" class="node">
<title>Node2</title>
<g id="a_node2"><a xlink:title=" ">
<polygon fill="white" stroke="#666666" points="84,-184 0,-184 0,-165 84,-165 84,-184"/>
<text text-anchor="middle" x="42" y="-172" font-family="Helvetica,sans-Serif" font-size="10.00">MonoBehaviour</text>
</a>
</g>
</g>
<!-- Node2&#45;&gt;Node1 -->
<g id="edge1" class="edge">
<title>Node2&#45;&gt;Node1</title>
<path fill="none" stroke="#63b8ff" d="M44.5,-153.34C47.94,-132.48 55.79,-99.79 73,-77 94.2,-48.93 130.97,-29.65 154.89,-19.34"/>
<polygon fill="#63b8ff" stroke="#63b8ff" points="41.05,-152.72 43.1,-163.12 47.98,-153.72 41.05,-152.72"/>
</g>
<!-- Node5 -->
<g id="node5" class="node">
<title>Node5</title>
<g id="a_node5"><a xlink:href="class_e_v_a_1_1_u_i_1_1_collapsable.html" target="_top" xlink:title=" ">
<polygon fill="white" stroke="#666666" points="183.5,-96 82.5,-96 82.5,-77 183.5,-77 183.5,-96"/>
<text text-anchor="middle" x="133" y="-84" font-family="Helvetica,sans-Serif" font-size="10.00">EVA.UI.Collapsable</text>
</a>
</g>
</g>
<!-- Node2&#45;&gt;Node5 -->
<g id="edge5" class="edge">
<title>Node2&#45;&gt;Node5</title>
<path fill="none" stroke="#63b8ff" d="M59.55,-156.91C78.63,-138.88 108.41,-110.74 123.52,-96.46"/>
<polygon fill="#63b8ff" stroke="#63b8ff" points="57.36,-154.17 52.5,-163.58 62.17,-159.26 57.36,-154.17"/>
</g>
<!-- Node3 -->
<g id="node3" class="node">
<title>Node3</title>
<g id="a_node3"><a xlink:title=" ">
<polygon fill="white" stroke="#666666" points="246,-96 202,-96 202,-77 246,-77 246,-96"/>
<text text-anchor="middle" x="224" y="-84" font-family="Helvetica,sans-Serif" font-size="10.00">Image</text>
</a>
</g>
</g>
<!-- Node3&#45;&gt;Node1 -->
<g id="edge2" class="edge">
<title>Node3&#45;&gt;Node1</title>
<path fill="none" stroke="#9a32cd" stroke-dasharray="5,2" d="M214.78,-66.7C210.08,-57.54 204.08,-46.5 198,-37 194.02,-30.79 189.02,-24.16 185.02,-19.09"/>
<polygon fill="#9a32cd" stroke="#9a32cd" points="211.5,-67.96 219.11,-75.33 217.76,-64.82 211.5,-67.96"/>
<text text-anchor="middle" x="251" y="-45.5" font-family="Helvetica,sans-Serif" font-size="10.00"> notchButtonImage</text>
</g>
<!-- Node4 -->
<g id="node4" class="node">
<title>Node4</title>
<g id="a_node4"><a xlink:title=" ">
<polygon fill="white" stroke="#666666" points="346,-96 304,-96 304,-77 346,-77 346,-96"/>
<text text-anchor="middle" x="325" y="-84" font-family="Helvetica,sans-Serif" font-size="10.00">Sprite</text>
</a>
</g>
</g>
<!-- Node4&#45;&gt;Node1 -->
<g id="edge3" class="edge">
<title>Node4&#45;&gt;Node1</title>
<path fill="none" stroke="#9a32cd" stroke-dasharray="5,2" d="M317.95,-66.39C313.24,-56.19 306.05,-44.27 296,-37 278.9,-24.63 257.05,-17.89 236.8,-14.26"/>
<polygon fill="#9a32cd" stroke="#9a32cd" points="314.63,-67.51 321.66,-75.44 321.11,-64.86 314.63,-67.51"/>
<text text-anchor="middle" x="375" y="-51" font-family="Helvetica,sans-Serif" font-size="10.00"> notchCollapsedButtonSprite</text>
<text text-anchor="middle" x="375" y="-40" font-family="Helvetica,sans-Serif" font-size="10.00">notchOpenedButtonSprite</text>
</g>
<!-- Node5&#45;&gt;Node1 -->
<g id="edge4" class="edge">
<title>Node5&#45;&gt;Node1</title>
<path fill="none" stroke="#9a32cd" stroke-dasharray="5,2" d="M135.54,-65.37C137.39,-56.17 140.56,-45.47 146,-37 150.52,-29.96 157.51,-23.86 163.81,-19.29"/>
<polygon fill="#9a32cd" stroke="#9a32cd" points="132.1,-64.7 133.99,-75.12 139.01,-65.79 132.1,-64.7"/>
<text text-anchor="middle" x="172" y="-45.5" font-family="Helvetica,sans-Serif" font-size="10.00"> collapsable</text>
</g>
<!-- Node6 -->
<g id="node6" class="node">
<title>Node6</title>
<g id="a_node6"><a xlink:title=" ">
<polygon fill="white" stroke="#666666" points="173.5,-184 102.5,-184 102.5,-165 173.5,-165 173.5,-184"/>
<text text-anchor="middle" x="138" y="-172" font-family="Helvetica,sans-Serif" font-size="10.00">GameObject</text>
</a>
</g>
</g>
<!-- Node6&#45;&gt;Node5 -->
<g id="edge6" class="edge">
<title>Node6&#45;&gt;Node5</title>
<path fill="none" stroke="#9a32cd" stroke-dasharray="5,2" d="M134.7,-153.57C134.42,-151.35 134.18,-149.13 134,-147 132.5,-129.09 132.58,-108.04 132.78,-96.39"/>
<polygon fill="#9a32cd" stroke="#9a32cd" points="131.2,-153.83 136.15,-163.2 138.12,-152.8 131.2,-153.83"/>
<text text-anchor="middle" x="181.5" y="-128" font-family="Helvetica,sans-Serif" font-size="10.00"> collapseContainerGO</text>
</g>
<!-- Node7 -->
<g id="node7" class="node">
<title>Node7</title>
<g id="a_node7"><a xlink:title=" ">
<polygon fill="white" stroke="#666666" points="291.5,-184 210.5,-184 210.5,-165 291.5,-165 291.5,-184"/>
<text text-anchor="middle" x="251" y="-172" font-family="Helvetica,sans-Serif" font-size="10.00">RectTransform</text>
</a>
</g>
</g>
<!-- Node7&#45;&gt;Node5 -->
<g id="edge7" class="edge">
<title>Node7&#45;&gt;Node5</title>
<path fill="none" stroke="#9a32cd" stroke-dasharray="5,2" d="M248.42,-153.76C245.71,-140.75 240.19,-124.28 229,-114 221.58,-107.19 201.04,-101.09 180.84,-96.46"/>
<polygon fill="#9a32cd" stroke="#9a32cd" points="244.92,-154.07 250,-163.37 251.83,-152.93 244.92,-154.07"/>
<text text-anchor="middle" x="307.5" y="-139" font-family="Helvetica,sans-Serif" font-size="10.00"> _CollapsableRectTransform</text>
<text text-anchor="middle" x="307.5" y="-128" font-family="Helvetica,sans-Serif" font-size="10.00">_SurfaceRectTransform</text>
<text text-anchor="middle" x="307.5" y="-117" font-family="Helvetica,sans-Serif" font-size="10.00">notchRectTransform</text>
</g>
<!-- Node8 -->
<g id="node8" class="node">
<title>Node8</title>
<g id="a_node8"><a xlink:title=" ">
<polygon fill="white" stroke="#666666" points="422,-184 372,-184 372,-165 422,-165 422,-184"/>
<text text-anchor="middle" x="397" y="-172" font-family="Helvetica,sans-Serif" font-size="10.00">Vector3</text>
</a>
</g>
</g>
<!-- Node8&#45;&gt;Node5 -->
<g id="edge8" class="edge">
<title>Node8&#45;&gt;Node5</title>
<path fill="none" stroke="#9a32cd" stroke-dasharray="5,2" d="M394.33,-153.5C391.43,-140.12 385.42,-123.31 373,-114 340.84,-89.88 232.91,-100.82 193,-96 189.97,-95.63 186.86,-95.24 183.72,-94.83"/>
<polygon fill="#9a32cd" stroke="#9a32cd" points="390.82,-153.75 395.95,-163.02 397.72,-152.57 390.82,-153.75"/>
<text text-anchor="middle" x="427" y="-133.5" font-family="Helvetica,sans-Serif" font-size="10.00"> _CollapsedSize</text>
<text text-anchor="middle" x="427" y="-122.5" font-family="Helvetica,sans-Serif" font-size="10.00">_OpenedSize</text>
</g>
</g>
</svg>
