<?xml version="1.0" encoding="UTF-8" standalone="no"?>
<!DOCTYPE svg PUBLIC "-//W3C//DTD SVG 1.1//EN"
 "http://www.w3.org/Graphics/SVG/1.1/DTD/svg11.dtd">
<!-- Generated by graphviz version 7.0.5 (20221223.1930)
 -->
<!-- Title: EVA.Interaction.InteractableOutline.UpdateVisual Pages: 1 -->
<svg width="491pt" height="107pt"
 viewBox="0.00 0.00 491.00 107.00" xmlns="http://www.w3.org/2000/svg" xmlns:xlink="http://www.w3.org/1999/xlink">
<g id="graph0" class="graph" transform="scale(1 1) rotate(0) translate(4 103)">
<title>EVA.Interaction.InteractableOutline.UpdateVisual</title>
<!-- Node1 -->
<g id="node1" class="node">
<title>Node1</title>
<g id="a_node1"><a xlink:title=" ">
<polygon fill="#999999" stroke="#666666" points="483,-78 346,-78 346,-48 483,-48 483,-78"/>
<text text-anchor="start" x="354" y="-66" font-family="Helvetica,sans-Serif" font-size="10.00">EVA.Interaction.Interactable</text>
<text text-anchor="middle" x="414.5" y="-55" font-family="Helvetica,sans-Serif" font-size="10.00">Outline.UpdateVisual</text>
</a>
</g>
</g>
<!-- Node2 -->
<g id="node2" class="node">
<title>Node2</title>
<g id="a_node2"><a xlink:href="class_e_v_a_1_1_interaction_1_1_interactable_outline.html#a24b510608dabb0c28d440c83accf86c1" target="_top" xlink:title=" ">
<polygon fill="white" stroke="#666666" points="137,-99 0,-99 0,-69 137,-69 137,-99"/>
<text text-anchor="start" x="8" y="-87" font-family="Helvetica,sans-Serif" font-size="10.00">EVA.Interaction.Interactable</text>
<text text-anchor="middle" x="68.5" y="-76" font-family="Helvetica,sans-Serif" font-size="10.00">Outline.OnEnable</text>
</a>
</g>
</g>
<!-- Node1&#45;&gt;Node2 -->
<g id="edge1" class="edge">
<title>Node1&#45;&gt;Node2</title>
<path fill="none" stroke="#63b8ff" d="M346.35,-80.9C334.33,-83.44 321.86,-85.64 310,-87 252.02,-93.63 185.68,-92.13 137.37,-89.4"/>
<polygon fill="#63b8ff" stroke="#63b8ff" points="346.75,-84.4 355.76,-78.82 345.24,-77.57 346.75,-84.4"/>
</g>
<!-- Node3 -->
<g id="node3" class="node">
<title>Node3</title>
<g id="a_node3"><a xlink:href="class_e_v_a_1_1_interaction_1_1_interactable_outline.html#a86d0d1d8cc2c5241608f6622ffe66214" target="_top" xlink:title=" ">
<polygon fill="white" stroke="#666666" points="310,-78 173,-78 173,-48 310,-48 310,-78"/>
<text text-anchor="start" x="181" y="-66" font-family="Helvetica,sans-Serif" font-size="10.00">EVA.Interaction.Interactable</text>
<text text-anchor="middle" x="241.5" y="-55" font-family="Helvetica,sans-Serif" font-size="10.00">Outline.Start</text>
</a>
</g>
</g>
<!-- Node1&#45;&gt;Node3 -->
<g id="edge2" class="edge">
<title>Node1&#45;&gt;Node3</title>
<path fill="none" stroke="#63b8ff" d="M334.59,-63C326.52,-63 318.37,-63 310.43,-63"/>
<polygon fill="#63b8ff" stroke="#63b8ff" points="334.4,-66.5 344.4,-63 334.4,-59.5 334.4,-66.5"/>
</g>
<!-- Node4 -->
<g id="node4" class="node">
<title>Node4</title>
<g id="a_node4"><a xlink:href="class_e_v_a_1_1_interaction_1_1_interactable_outline.html#a6c1de92076f6675bb1612ae23493b838" target="_top" xlink:title=" ">
<polygon fill="white" stroke="#666666" points="310,-30 173,-30 173,0 310,0 310,-30"/>
<text text-anchor="start" x="181" y="-18" font-family="Helvetica,sans-Serif" font-size="10.00">EVA.Interaction.Interactable</text>
<text text-anchor="middle" x="241.5" y="-7" font-family="Helvetica,sans-Serif" font-size="10.00">Outline.UpdateVisualState</text>
</a>
</g>
</g>
<!-- Node1&#45;&gt;Node4 -->
<g id="edge3" class="edge">
<title>Node1&#45;&gt;Node4</title>
<path fill="none" stroke="#63b8ff" d="M347.72,-44.54C331.11,-39.87 313.45,-34.92 297.44,-30.42"/>
<polygon fill="#63b8ff" stroke="#63b8ff" points="346.42,-47.81 357,-47.14 348.31,-41.07 346.42,-47.81"/>
</g>
<!-- Node4&#45;&gt;Node2 -->
<g id="edge5" class="edge">
<title>Node4&#45;&gt;Node2</title>
<path fill="none" stroke="#63b8ff" d="M184.94,-34.41C180.89,-35.93 176.87,-37.47 173,-39 149.49,-48.28 123.39,-59.63 103.28,-68.61"/>
<polygon fill="#63b8ff" stroke="#63b8ff" points="186.09,-37.72 194.26,-30.97 183.67,-31.15 186.09,-37.72"/>
</g>
<!-- Node5 -->
<g id="node5" class="node">
<title>Node5</title>
<g id="a_node5"><a xlink:href="class_e_v_a_1_1_interaction_1_1_interactable_outline.html#a1d885d0c7eb6d511f92d159735aa08d8" target="_top" xlink:title=" ">
<polygon fill="white" stroke="#666666" points="137,-30 0,-30 0,0 137,0 137,-30"/>
<text text-anchor="start" x="8" y="-18" font-family="Helvetica,sans-Serif" font-size="10.00">EVA.Interaction.Interactable</text>
<text text-anchor="middle" x="68.5" y="-7" font-family="Helvetica,sans-Serif" font-size="10.00">Outline.OnDisable</text>
</a>
</g>
</g>
<!-- Node4&#45;&gt;Node5 -->
<g id="edge4" class="edge">
<title>Node4&#45;&gt;Node5</title>
<path fill="none" stroke="#63b8ff" d="M161.59,-15C153.52,-15 145.37,-15 137.43,-15"/>
<polygon fill="#63b8ff" stroke="#63b8ff" points="161.4,-18.5 171.4,-15 161.4,-11.5 161.4,-18.5"/>
</g>
</g>
</svg>
