<?xml version="1.0" encoding="UTF-8" standalone="no"?>
<!DOCTYPE svg PUBLIC "-//W3C//DTD SVG 1.1//EN"
 "http://www.w3.org/Graphics/SVG/1.1/DTD/svg11.dtd">
<!-- Generated by graphviz version 7.0.5 (20221223.1930)
 -->
<!-- Title: EVA.Interaction.AdvancedControllerSelector Pages: 1 -->
<svg width="434pt" height="223pt"
 viewBox="0.00 0.00 434.00 223.00" xmlns="http://www.w3.org/2000/svg" xmlns:xlink="http://www.w3.org/1999/xlink">
<g id="graph0" class="graph" transform="scale(1 1) rotate(0) translate(4 219)">
<title>EVA.Interaction.AdvancedControllerSelector</title>
<!-- Node1 -->
<g id="node1" class="node">
<title>Node1</title>
<g id="a_node1"><a xlink:title=" ">
<polygon fill="#999999" stroke="#666666" points="426,-141.5 296,-141.5 296,-111.5 426,-111.5 426,-141.5"/>
<text text-anchor="start" x="304" y="-129.5" font-family="Helvetica,sans-Serif" font-size="10.00">EVA.Interaction.Advanced</text>
<text text-anchor="middle" x="361" y="-118.5" font-family="Helvetica,sans-Serif" font-size="10.00">ControllerSelector</text>
</a>
</g>
</g>
<!-- Node2 -->
<g id="node2" class="node">
<title>Node2</title>
<g id="a_node2"><a xlink:title=" ">
<polygon fill="white" stroke="#666666" points="119.5,-215 35.5,-215 35.5,-196 119.5,-196 119.5,-215"/>
<text text-anchor="middle" x="77.5" y="-203" font-family="Helvetica,sans-Serif" font-size="10.00">MonoBehaviour</text>
</a>
</g>
</g>
<!-- Node2&#45;&gt;Node1 -->
<g id="edge1" class="edge">
<title>Node2&#45;&gt;Node1</title>
<path fill="none" stroke="#63b8ff" d="M131.07,-212.64C172.47,-216.11 230.86,-216.16 278,-197.5 307.42,-185.86 333.54,-158.92 348.02,-141.77"/>
<polygon fill="#63b8ff" stroke="#63b8ff" points="131.66,-209.18 121.37,-211.72 131,-216.15 131.66,-209.18"/>
</g>
<!-- Node2&#45;&gt;Node1 -->
<g id="edge3" class="edge">
<title>Node2&#45;&gt;Node1</title>
<path fill="none" stroke="#9a32cd" stroke-dasharray="5,2" d="M131.11,-193.51C185.37,-181.08 264,-162.86 278,-158.5 293.18,-153.78 309.55,-147.61 323.65,-141.95"/>
<polygon fill="#9a32cd" stroke="#9a32cd" points="130.37,-190.09 121.41,-195.73 131.94,-196.91 130.37,-190.09"/>
<text text-anchor="middle" x="225.5" y="-185.5" font-family="Helvetica,sans-Serif" font-size="10.00"> _controller</text>
</g>
<!-- Node3 -->
<g id="node3" class="node">
<title>Node3</title>
<g id="a_node3"><a xlink:href="class_i_selector.html" target="_top" xlink:title=" ">
<polygon fill="white" stroke="#666666" points="105.5,-173 49.5,-173 49.5,-154 105.5,-154 105.5,-173"/>
<text text-anchor="middle" x="77.5" y="-161" font-family="Helvetica,sans-Serif" font-size="10.00">ISelector</text>
</a>
</g>
</g>
<!-- Node3&#45;&gt;Node1 -->
<g id="edge2" class="edge">
<title>Node3&#45;&gt;Node1</title>
<path fill="none" stroke="#63b8ff" d="M117.37,-158.87C157.6,-154.02 222.24,-146.07 278,-138.5 283.7,-137.73 289.63,-136.9 295.56,-136.06"/>
<polygon fill="#63b8ff" stroke="#63b8ff" points="116.97,-155.39 107.46,-160.06 117.8,-162.34 116.97,-155.39"/>
</g>
<!-- Node4 -->
<g id="node4" class="node">
<title>Node4</title>
<g id="a_node4"><a xlink:title=" ">
<polygon fill="white" stroke="#666666" points="135,-136 20,-136 20,-117 135,-117 135,-136"/>
<text text-anchor="middle" x="77.5" y="-124" font-family="Helvetica,sans-Serif" font-size="10.00">ControllerButtonUsage</text>
</a>
</g>
</g>
<!-- Node4&#45;&gt;Node1 -->
<g id="edge4" class="edge">
<title>Node4&#45;&gt;Node1</title>
<path fill="none" stroke="#9a32cd" stroke-dasharray="5,2" d="M146.97,-126.5C192.28,-126.5 251.32,-126.5 295.74,-126.5"/>
<polygon fill="#9a32cd" stroke="#9a32cd" points="146.98,-123 136.98,-126.5 146.98,-130 146.98,-123"/>
<text text-anchor="middle" x="225.5" y="-129.5" font-family="Helvetica,sans-Serif" font-size="10.00"> _controllerButtonUsage</text>
</g>
<!-- Node5 -->
<g id="node5" class="node">
<title>Node5</title>
<g id="a_node5"><a xlink:title=" ">
<polygon fill="white" stroke="#666666" points="146.5,-99 8.5,-99 8.5,-80 146.5,-80 146.5,-99"/>
<text text-anchor="middle" x="77.5" y="-87" font-family="Helvetica,sans-Serif" font-size="10.00">ControllerSelectorHoldLogic</text>
</a>
</g>
</g>
<!-- Node5&#45;&gt;Node1 -->
<g id="edge5" class="edge">
<title>Node5&#45;&gt;Node1</title>
<path fill="none" stroke="#9a32cd" stroke-dasharray="5,2" d="M158.09,-96.97C194.69,-100.74 238.63,-105.74 278,-111.5 283.73,-112.34 289.67,-113.28 295.61,-114.28"/>
<polygon fill="#9a32cd" stroke="#9a32cd" points="158.79,-93.52 148.49,-95.99 158.08,-100.48 158.79,-93.52"/>
<text text-anchor="middle" x="225.5" y="-114.5" font-family="Helvetica,sans-Serif" font-size="10.00"> _controllerHoldLogic</text>
</g>
<!-- Node6 -->
<g id="node6" class="node">
<title>Node6</title>
<g id="a_node6"><a xlink:title=" ">
<polygon fill="white" stroke="#666666" points="155,-62 0,-62 0,-43 155,-43 155,-62"/>
<text text-anchor="middle" x="77.5" y="-50" font-family="Helvetica,sans-Serif" font-size="10.00">ControllerSelectorLogicOperator</text>
</a>
</g>
</g>
<!-- Node6&#45;&gt;Node1 -->
<g id="edge6" class="edge">
<title>Node6&#45;&gt;Node1</title>
<path fill="none" stroke="#9a32cd" stroke-dasharray="5,2" d="M166.45,-59.85C201.74,-64.42 242.41,-71.76 278,-83.5 298.46,-90.25 319.96,-101.71 335.82,-111.11"/>
<polygon fill="#9a32cd" stroke="#9a32cd" points="167.05,-56.4 156.7,-58.65 166.19,-63.35 167.05,-56.4"/>
<text text-anchor="middle" x="225.5" y="-86.5" font-family="Helvetica,sans-Serif" font-size="10.00"> _requireButtonUsages</text>
</g>
<!-- Node7 -->
<g id="node7" class="node">
<title>Node7</title>
<g id="a_node7"><a xlink:title=" ">
<polygon fill="white" stroke="#666666" points="95,-19 60,-19 60,0 95,0 95,-19"/>
<text text-anchor="middle" x="77.5" y="-7" font-family="Helvetica,sans-Serif" font-size="10.00">bool</text>
</a>
</g>
</g>
<!-- Node7&#45;&gt;Node1 -->
<g id="edge7" class="edge">
<title>Node7&#45;&gt;Node1</title>
<path fill="none" stroke="#9a32cd" stroke-dasharray="5,2" d="M106.79,-7.04C147.2,-4.8 222.69,-5.44 278,-34.5 311.71,-52.21 338.19,-89.77 351.19,-111.02"/>
<polygon fill="#9a32cd" stroke="#9a32cd" points="106.69,-3.54 96.94,-7.7 107.15,-10.52 106.69,-3.54"/>
<text text-anchor="middle" x="225.5" y="-48.5" font-family="Helvetica,sans-Serif" font-size="10.00"> _prevPressed</text>
<text text-anchor="middle" x="225.5" y="-37.5" font-family="Helvetica,sans-Serif" font-size="10.00">_selected</text>
</g>
</g>
</svg>
