<?xml version="1.0" encoding="UTF-8" standalone="no"?>
<!DOCTYPE svg PUBLIC "-//W3C//DTD SVG 1.1//EN"
 "http://www.w3.org/Graphics/SVG/1.1/DTD/svg11.dtd">
<!-- Generated by graphviz version 7.0.5 (20221223.1930)
 -->
<!-- Title: EVA.UI.FileExplorerController.SetElements Pages: 1 -->
<svg width="507pt" height="134pt"
 viewBox="0.00 0.00 507.00 134.00" xmlns="http://www.w3.org/2000/svg" xmlns:xlink="http://www.w3.org/1999/xlink">
<g id="graph0" class="graph" transform="scale(1 1) rotate(0) translate(4 130)">
<title>EVA.UI.FileExplorerController.SetElements</title>
<!-- Node1 -->
<g id="node1" class="node">
<title>Node1</title>
<g id="a_node1"><a xlink:title="Instantiate _explorerElementPrefab for each file / directory in the current folder and set the FileEx...">
<polygon fill="#999999" stroke="#666666" points="499,-78 354,-78 354,-48 499,-48 499,-78"/>
<text text-anchor="start" x="362" y="-66" font-family="Helvetica,sans-Serif" font-size="10.00">EVA.UI.FileExplorerController.</text>
<text text-anchor="middle" x="426.5" y="-55" font-family="Helvetica,sans-Serif" font-size="10.00">SetElements</text>
</a>
</g>
</g>
<!-- Node2 -->
<g id="node2" class="node">
<title>Node2</title>
<g id="a_node2"><a xlink:href="class_e_v_a_1_1_u_i_1_1_file_explorer_controller.html#ae63dc56f1dce20a62eb151eff1f9f0ec" target="_top" xlink:title="Open the selected folder.">
<polygon fill="white" stroke="#666666" points="318,-126 173,-126 173,-96 318,-96 318,-126"/>
<text text-anchor="start" x="181" y="-114" font-family="Helvetica,sans-Serif" font-size="10.00">EVA.UI.FileExplorerController.</text>
<text text-anchor="middle" x="245.5" y="-103" font-family="Helvetica,sans-Serif" font-size="10.00">OpenFolder</text>
</a>
</g>
</g>
<!-- Node1&#45;&gt;Node2 -->
<g id="edge1" class="edge">
<title>Node1&#45;&gt;Node2</title>
<path fill="none" stroke="#63b8ff" d="M357.14,-81.33C339.61,-86.03 320.93,-91.04 304.01,-95.58"/>
<polygon fill="#63b8ff" stroke="#63b8ff" points="357.66,-84.81 366.42,-78.84 355.85,-78.05 357.66,-84.81"/>
</g>
<!-- Node4 -->
<g id="node4" class="node">
<title>Node4</title>
<g id="a_node4"><a xlink:href="class_e_v_a_1_1_u_i_1_1_file_explorer_controller.html#a79c69f64776633287e5b30296cce315d" target="_top" xlink:title="Open the parent folder.">
<polygon fill="white" stroke="#666666" points="318,-78 173,-78 173,-48 318,-48 318,-78"/>
<text text-anchor="start" x="181" y="-66" font-family="Helvetica,sans-Serif" font-size="10.00">EVA.UI.FileExplorerController.</text>
<text text-anchor="middle" x="245.5" y="-55" font-family="Helvetica,sans-Serif" font-size="10.00">OpenParent</text>
</a>
</g>
</g>
<!-- Node1&#45;&gt;Node4 -->
<g id="edge3" class="edge">
<title>Node1&#45;&gt;Node4</title>
<path fill="none" stroke="#63b8ff" d="M342.41,-63C334.35,-63 326.22,-63 318.29,-63"/>
<polygon fill="#63b8ff" stroke="#63b8ff" points="342.21,-66.5 352.21,-63 342.21,-59.5 342.21,-66.5"/>
</g>
<!-- Node5 -->
<g id="node5" class="node">
<title>Node5</title>
<g id="a_node5"><a xlink:href="class_e_v_a_1_1_u_i_1_1_file_explorer_controller.html#aabf3d5015e2f6c7c7d7426c00173b6b8" target="_top" xlink:title=" ">
<polygon fill="white" stroke="#666666" points="318,-30 173,-30 173,0 318,0 318,-30"/>
<text text-anchor="start" x="181" y="-18" font-family="Helvetica,sans-Serif" font-size="10.00">EVA.UI.FileExplorerController.</text>
<text text-anchor="middle" x="245.5" y="-7" font-family="Helvetica,sans-Serif" font-size="10.00">Start</text>
</a>
</g>
</g>
<!-- Node1&#45;&gt;Node5 -->
<g id="edge4" class="edge">
<title>Node1&#45;&gt;Node5</title>
<path fill="none" stroke="#63b8ff" d="M357.14,-44.67C339.61,-39.97 320.93,-34.96 304.01,-30.42"/>
<polygon fill="#63b8ff" stroke="#63b8ff" points="355.85,-47.95 366.42,-47.16 357.66,-41.19 355.85,-47.95"/>
</g>
<!-- Node3 -->
<g id="node3" class="node">
<title>Node3</title>
<g id="a_node3"><a xlink:href="class_e_v_a_1_1_u_i_1_1_file_explorer_element_controller.html#a35914131ada6b9141a144caac1f2f02c" target="_top" xlink:title="Called when the user clicks on the element. If the element is a folder, it will open the it (using Fi...">
<polygon fill="white" stroke="#666666" points="137,-126 0,-126 0,-96 137,-96 137,-126"/>
<text text-anchor="start" x="8" y="-114" font-family="Helvetica,sans-Serif" font-size="10.00">EVA.UI.FileExplorerElement</text>
<text text-anchor="middle" x="68.5" y="-103" font-family="Helvetica,sans-Serif" font-size="10.00">Controller.OnClick</text>
</a>
</g>
</g>
<!-- Node2&#45;&gt;Node3 -->
<g id="edge2" class="edge">
<title>Node2&#45;&gt;Node3</title>
<path fill="none" stroke="#63b8ff" d="M161.06,-111C153.16,-111 145.22,-111 137.5,-111"/>
<polygon fill="#63b8ff" stroke="#63b8ff" points="161.05,-114.5 171.05,-111 161.05,-107.5 161.05,-114.5"/>
</g>
</g>
</svg>
