<?xml version="1.0" encoding="UTF-8" standalone="no"?>
<!DOCTYPE svg PUBLIC "-//W3C//DTD SVG 1.1//EN"
 "http://www.w3.org/Graphics/SVG/1.1/DTD/svg11.dtd">
<!-- Generated by graphviz version 7.0.5 (20221223.1930)
 -->
<!-- Title: Veery.UI.Selection.TriggerEndableProperty.AddLinks Pages: 1 -->
<svg width="484pt" height="86pt"
 viewBox="0.00 0.00 484.00 86.00" xmlns="http://www.w3.org/2000/svg" xmlns:xlink="http://www.w3.org/1999/xlink">
<g id="graph0" class="graph" transform="scale(1 1) rotate(0) translate(4 82)">
<title>Veery.UI.Selection.TriggerEndableProperty.AddLinks</title>
<!-- Node1 -->
<g id="node1" class="node">
<title>Node1</title>
<g id="a_node1"><a xlink:title=" ">
<polygon fill="#999999" stroke="#666666" points="476,-54 345,-54 345,-24 476,-24 476,-54"/>
<text text-anchor="start" x="353" y="-42" font-family="Helvetica,sans-Serif" font-size="10.00">Veery.UI.Selection.Trigger</text>
<text text-anchor="middle" x="410.5" y="-31" font-family="Helvetica,sans-Serif" font-size="10.00">EndableProperty.AddLinks</text>
</a>
</g>
</g>
<!-- Node2 -->
<g id="node2" class="node">
<title>Node2</title>
<g id="a_node2"><a xlink:href="class_veery_1_1_u_i_1_1_selection_1_1_trigger_endable_property.html#a33dfb25feddf59c4b18afd2f9cce51fc" target="_top" xlink:title=" ">
<polygon fill="white" stroke="#666666" points="309,-54 171,-54 171,-24 309,-24 309,-54"/>
<text text-anchor="start" x="179" y="-42" font-family="Helvetica,sans-Serif" font-size="10.00">Veery.UI.Selection.Trigger</text>
<text text-anchor="middle" x="240" y="-31" font-family="Helvetica,sans-Serif" font-size="10.00">EndableProperty.ShowLinks</text>
</a>
</g>
</g>
<!-- Node1&#45;&gt;Node2 -->
<g id="edge1" class="edge">
<title>Node1&#45;&gt;Node2</title>
<path fill="none" stroke="#63b8ff" d="M333.56,-39C325.51,-39 317.36,-39 309.41,-39"/>
<polygon fill="#63b8ff" stroke="#63b8ff" points="333.32,-42.5 343.32,-39 333.32,-35.5 333.32,-42.5"/>
</g>
<!-- Node3 -->
<g id="node3" class="node">
<title>Node3</title>
<g id="a_node3"><a xlink:href="class_veery_1_1_u_i_1_1_selection_1_1_trigger_endable_property.html#ae19ed6ffdde3a399462d3c79213240a1" target="_top" xlink:title=" ">
<polygon fill="white" stroke="#666666" points="135,-78 0,-78 0,-48 135,-48 135,-78"/>
<text text-anchor="start" x="8" y="-66" font-family="Helvetica,sans-Serif" font-size="10.00">Veery.UI.Selection.Trigger</text>
<text text-anchor="middle" x="67.5" y="-55" font-family="Helvetica,sans-Serif" font-size="10.00">EndableProperty.OnDestroy</text>
</a>
</g>
</g>
<!-- Node2&#45;&gt;Node3 -->
<g id="edge2" class="edge">
<title>Node2&#45;&gt;Node3</title>
<path fill="none" stroke="#63b8ff" d="M159.4,-50.2C151.4,-51.33 143.34,-52.47 135.49,-53.57"/>
<polygon fill="#63b8ff" stroke="#63b8ff" points="159.72,-53.69 169.13,-48.83 158.74,-46.76 159.72,-53.69"/>
</g>
<!-- Node4 -->
<g id="node4" class="node">
<title>Node4</title>
<g id="a_node4"><a xlink:href="class_veery_1_1_u_i_1_1_selection_1_1_trigger_endable_property.html#ae8845f027b37f0b500971155e655b539" target="_top" xlink:title=" ">
<polygon fill="white" stroke="#666666" points="132,-30 3,-30 3,0 132,0 132,-30"/>
<text text-anchor="start" x="11" y="-18" font-family="Helvetica,sans-Serif" font-size="10.00">Veery.UI.Selection.Trigger</text>
<text text-anchor="middle" x="67.5" y="-7" font-family="Helvetica,sans-Serif" font-size="10.00">EndableProperty.Start</text>
</a>
</g>
</g>
<!-- Node2&#45;&gt;Node4 -->
<g id="edge3" class="edge">
<title>Node2&#45;&gt;Node4</title>
<path fill="none" stroke="#63b8ff" d="M159.31,-27.78C150.31,-26.52 141.22,-25.24 132.46,-24"/>
<polygon fill="#63b8ff" stroke="#63b8ff" points="158.74,-31.24 169.13,-29.17 159.72,-24.31 158.74,-31.24"/>
</g>
</g>
</svg>
