<?xml version="1.0" encoding="UTF-8" standalone="no"?>
<!DOCTYPE svg PUBLIC "-//W3C//DTD SVG 1.1//EN"
 "http://www.w3.org/Graphics/SVG/1.1/DTD/svg11.dtd">
<!-- Generated by graphviz version 7.0.5 (20221223.1930)
 -->
<!-- Title: EVA.Import.Model3D Pages: 1 -->
<svg width="324pt" height="93pt"
 viewBox="0.00 0.00 324.00 93.00" xmlns="http://www.w3.org/2000/svg" xmlns:xlink="http://www.w3.org/1999/xlink">
<g id="graph0" class="graph" transform="scale(1 1) rotate(0) translate(4 89)">
<title>EVA.Import.Model3D</title>
<!-- Node1 -->
<g id="node1" class="node">
<title>Node1</title>
<g id="a_node1"><a xlink:title="Manipulate a 3D model in the scene.">
<polygon fill="#999999" stroke="#666666" points="201.5,-19 94.5,-19 94.5,0 201.5,0 201.5,-19"/>
<text text-anchor="middle" x="148" y="-7" font-family="Helvetica,sans-Serif" font-size="10.00">EVA.Import.Model3D</text>
</a>
</g>
</g>
<!-- Node2 -->
<g id="node2" class="node">
<title>Node2</title>
<g id="a_node2"><a xlink:href="class_mono_behaviour.html" target="_top" xlink:title=" ">
<polygon fill="white" stroke="#666666" points="84,-85 0,-85 0,-66 84,-66 84,-85"/>
<text text-anchor="middle" x="42" y="-73" font-family="Helvetica,sans-Serif" font-size="10.00">MonoBehaviour</text>
</a>
</g>
</g>
<!-- Node2&#45;&gt;Node1 -->
<g id="edge1" class="edge">
<title>Node2&#45;&gt;Node1</title>
<path fill="none" stroke="#63b8ff" d="M66.42,-59.75C87.12,-47.26 116.12,-29.75 133.39,-19.32"/>
<polygon fill="#63b8ff" stroke="#63b8ff" points="64.79,-56.65 58.03,-64.82 68.4,-62.65 64.79,-56.65"/>
</g>
<!-- Node3 -->
<g id="node3" class="node">
<title>Node3</title>
<g id="a_node3"><a xlink:title=" ">
<polygon fill="white" stroke="#666666" points="193.5,-85 102.5,-85 102.5,-66 193.5,-66 193.5,-85"/>
<text text-anchor="middle" x="148" y="-73" font-family="Helvetica,sans-Serif" font-size="10.00">GltfBoundsAsset</text>
</a>
</g>
</g>
<!-- Node3&#45;&gt;Node1 -->
<g id="edge2" class="edge">
<title>Node3&#45;&gt;Node1</title>
<path fill="none" stroke="#9a32cd" stroke-dasharray="5,2" d="M148,-54.18C148,-42.44 148,-28.27 148,-19.32"/>
<polygon fill="#9a32cd" stroke="#9a32cd" points="144.5,-54.09 148,-64.09 151.5,-54.09 144.5,-54.09"/>
<text text-anchor="middle" x="188" y="-40" font-family="Helvetica,sans-Serif" font-size="10.00"> _gltfBoundsAsset</text>
</g>
<!-- Node4 -->
<g id="node4" class="node">
<title>Node4</title>
<g id="a_node4"><a xlink:title=" ">
<polygon fill="white" stroke="#666666" points="316,-85 212,-85 212,-66 316,-66 316,-85"/>
<text text-anchor="middle" x="264" y="-73" font-family="Helvetica,sans-Serif" font-size="10.00">List&lt; GameObject &gt;</text>
</a>
</g>
</g>
<!-- Node4&#45;&gt;Node1 -->
<g id="edge3" class="edge">
<title>Node4&#45;&gt;Node1</title>
<path fill="none" stroke="#9a32cd" stroke-dasharray="5,2" d="M252.1,-56.63C246.69,-49.66 239.75,-42.13 232,-37 220.14,-29.15 205.82,-23.5 192.38,-19.5"/>
<polygon fill="#9a32cd" stroke="#9a32cd" points="248.92,-58.2 257.6,-64.27 254.6,-54.11 248.92,-58.2"/>
<text text-anchor="middle" x="276" y="-40" font-family="Helvetica,sans-Serif" font-size="10.00"> _deferredGOs</text>
</g>
</g>
</svg>
