<?xml version="1.0" encoding="UTF-8" standalone="no"?>
<!DOCTYPE svg PUBLIC "-//W3C//DTD SVG 1.1//EN"
 "http://www.w3.org/Graphics/SVG/1.1/DTD/svg11.dtd">
<!-- Generated by graphviz version 7.0.5 (20221223.1930)
 -->
<!-- Title: Veery.UI.Selection.Methods.SetUI Pages: 1 -->
<svg width="501pt" height="182pt"
 viewBox="0.00 0.00 501.00 182.00" xmlns="http://www.w3.org/2000/svg" xmlns:xlink="http://www.w3.org/1999/xlink">
<g id="graph0" class="graph" transform="scale(1 1) rotate(0) translate(4 178)">
<title>Veery.UI.Selection.Methods.SetUI</title>
<!-- Node1 -->
<g id="node1" class="node">
<title>Node1</title>
<g id="a_node1"><a xlink:title=" ">
<polygon fill="#999999" stroke="#666666" points="493,-102 354,-102 354,-72 493,-72 493,-102"/>
<text text-anchor="start" x="362" y="-90" font-family="Helvetica,sans-Serif" font-size="10.00">Veery.UI.Selection.Methods.</text>
<text text-anchor="middle" x="423.5" y="-79" font-family="Helvetica,sans-Serif" font-size="10.00">SetUI</text>
</a>
</g>
</g>
<!-- Node2 -->
<g id="node2" class="node">
<title>Node2</title>
<g id="a_node2"><a xlink:href="class_veery_1_1_u_i_1_1_selection_1_1_links.html#af575a9e7185b07e1515793b321bf4abf" target="_top" xlink:title=" ">
<polygon fill="white" stroke="#666666" points="318,-120.5 175,-120.5 175,-101.5 318,-101.5 318,-120.5"/>
<text text-anchor="middle" x="246.5" y="-108.5" font-family="Helvetica,sans-Serif" font-size="10.00">Veery.UI.Selection.Links.Add</text>
</a>
</g>
</g>
<!-- Node1&#45;&gt;Node2 -->
<g id="edge1" class="edge">
<title>Node1&#45;&gt;Node2</title>
<path fill="none" stroke="#63b8ff" d="M342.35,-97.99C334.35,-99.09 326.26,-100.2 318.36,-101.28"/>
<polygon fill="#63b8ff" stroke="#63b8ff" points="342.66,-101.48 352.09,-96.66 341.7,-94.55 342.66,-101.48"/>
</g>
<!-- Node5 -->
<g id="node5" class="node">
<title>Node5</title>
<g id="a_node5"><a xlink:href="class_veery_1_1_u_i_1_1_selection_1_1_methods.html#a6ece3489a08cd594184c280f5ffa39c1" target="_top" xlink:title=" ">
<polygon fill="white" stroke="#666666" points="316,-78 177,-78 177,-48 316,-48 316,-78"/>
<text text-anchor="start" x="185" y="-66" font-family="Helvetica,sans-Serif" font-size="10.00">Veery.UI.Selection.Methods.</text>
<text text-anchor="middle" x="246.5" y="-55" font-family="Helvetica,sans-Serif" font-size="10.00">OnStateChanged</text>
</a>
</g>
</g>
<!-- Node1&#45;&gt;Node5 -->
<g id="edge4" class="edge">
<title>Node1&#45;&gt;Node5</title>
<path fill="none" stroke="#63b8ff" d="M342.28,-76C333.62,-74.81 324.86,-73.61 316.35,-72.44"/>
<polygon fill="#63b8ff" stroke="#63b8ff" points="341.7,-79.45 352.09,-77.34 342.66,-72.52 341.7,-79.45"/>
</g>
<!-- Node3 -->
<g id="node3" class="node">
<title>Node3</title>
<g id="a_node3"><a xlink:href="class_veery_1_1_u_i_1_1_selection_1_1_links.html#a8824fa93bcf6fb63f533c900087ab29c" target="_top" xlink:title=" ">
<polygon fill="white" stroke="#666666" points="132,-174 7,-174 7,-144 132,-144 132,-174"/>
<text text-anchor="start" x="15" y="-162" font-family="Helvetica,sans-Serif" font-size="10.00">Veery.UI.Selection.Links.</text>
<text text-anchor="middle" x="69.5" y="-151" font-family="Helvetica,sans-Serif" font-size="10.00">OnDestroy</text>
</a>
</g>
</g>
<!-- Node2&#45;&gt;Node3 -->
<g id="edge2" class="edge">
<title>Node2&#45;&gt;Node3</title>
<path fill="none" stroke="#63b8ff" d="M198.15,-123.99C176.12,-130.03 149.74,-137.26 126.7,-143.58"/>
<polygon fill="#63b8ff" stroke="#63b8ff" points="199.06,-127.37 207.78,-121.35 197.21,-120.62 199.06,-127.37"/>
</g>
<!-- Node4 -->
<g id="node4" class="node">
<title>Node4</title>
<g id="a_node4"><a xlink:href="class_veery_1_1_u_i_1_1_selection_1_1_links.html#a81cd4d5e1a873d76951f3785c96d884e" target="_top" xlink:title=" ">
<polygon fill="white" stroke="#666666" points="132,-126 7,-126 7,-96 132,-96 132,-126"/>
<text text-anchor="start" x="15" y="-114" font-family="Helvetica,sans-Serif" font-size="10.00">Veery.UI.Selection.Links.</text>
<text text-anchor="middle" x="69.5" y="-103" font-family="Helvetica,sans-Serif" font-size="10.00">Start</text>
</a>
</g>
</g>
<!-- Node2&#45;&gt;Node4 -->
<g id="edge3" class="edge">
<title>Node2&#45;&gt;Node4</title>
<path fill="none" stroke="#63b8ff" d="M163.3,-111C152.85,-111 142.3,-111 132.25,-111"/>
<polygon fill="#63b8ff" stroke="#63b8ff" points="163.06,-114.5 173.06,-111 163.06,-107.5 163.06,-114.5"/>
</g>
<!-- Node6 -->
<g id="node6" class="node">
<title>Node6</title>
<g id="a_node6"><a xlink:href="class_veery_1_1_u_i_1_1_selection_1_1_methods.html#aede144ccbfab66622384bac222e67043" target="_top" xlink:title=" ">
<polygon fill="white" stroke="#666666" points="139,-78 0,-78 0,-48 139,-48 139,-78"/>
<text text-anchor="start" x="8" y="-66" font-family="Helvetica,sans-Serif" font-size="10.00">Veery.UI.Selection.Methods.</text>
<text text-anchor="middle" x="69.5" y="-55" font-family="Helvetica,sans-Serif" font-size="10.00">OnDestroy</text>
</a>
</g>
</g>
<!-- Node5&#45;&gt;Node6 -->
<g id="edge5" class="edge">
<title>Node5&#45;&gt;Node6</title>
<path fill="none" stroke="#63b8ff" d="M165.28,-63C156.62,-63 147.86,-63 139.35,-63"/>
<polygon fill="#63b8ff" stroke="#63b8ff" points="165.07,-66.5 175.07,-63 165.07,-59.5 165.07,-66.5"/>
</g>
<!-- Node7 -->
<g id="node7" class="node">
<title>Node7</title>
<g id="a_node7"><a xlink:href="class_veery_1_1_u_i_1_1_selection_1_1_methods.html#a48083f7c70fdc83c1b71364999ed248f" target="_top" xlink:title=" ">
<polygon fill="white" stroke="#666666" points="139,-30 0,-30 0,0 139,0 139,-30"/>
<text text-anchor="start" x="8" y="-18" font-family="Helvetica,sans-Serif" font-size="10.00">Veery.UI.Selection.Methods.</text>
<text text-anchor="middle" x="69.5" y="-7" font-family="Helvetica,sans-Serif" font-size="10.00">Start</text>
</a>
</g>
</g>
<!-- Node5&#45;&gt;Node7 -->
<g id="edge6" class="edge">
<title>Node5&#45;&gt;Node7</title>
<path fill="none" stroke="#63b8ff" d="M178.18,-44.54C161.18,-39.87 143.11,-34.92 126.73,-30.42"/>
<polygon fill="#63b8ff" stroke="#63b8ff" points="177.14,-47.88 187.71,-47.15 178.99,-41.13 177.14,-47.88"/>
</g>
</g>
</svg>
