<?xml version="1.0" encoding="UTF-8" standalone="no"?>
<!DOCTYPE svg PUBLIC "-//W3C//DTD SVG 1.1//EN"
 "http://www.w3.org/Graphics/SVG/1.1/DTD/svg11.dtd">
<!-- Generated by graphviz version 7.0.5 (20221223.1930)
 -->
<!-- Title: Veery.UI.Selection.Links.ClearUI Pages: 1 -->
<svg width="531pt" height="278pt"
 viewBox="0.00 0.00 531.00 278.00" xmlns="http://www.w3.org/2000/svg" xmlns:xlink="http://www.w3.org/1999/xlink">
<g id="graph0" class="graph" transform="scale(1 1) rotate(0) translate(4 274)">
<title>Veery.UI.Selection.Links.ClearUI</title>
<!-- Node1 -->
<g id="node1" class="node">
<title>Node1</title>
<g id="a_node1"><a xlink:title=" ">
<polygon fill="#999999" stroke="#666666" points="523,-150 398,-150 398,-120 523,-120 523,-150"/>
<text text-anchor="start" x="406" y="-138" font-family="Helvetica,sans-Serif" font-size="10.00">Veery.UI.Selection.Links.</text>
<text text-anchor="middle" x="460.5" y="-127" font-family="Helvetica,sans-Serif" font-size="10.00">ClearUI</text>
</a>
</g>
</g>
<!-- Node2 -->
<g id="node2" class="node">
<title>Node2</title>
<g id="a_node2"><a xlink:href="class_veery_1_1_u_i_1_1_selection_1_1_methods.html#a6b4d3b0e1edf50238d109893eb4b25f1" target="_top" xlink:title=" ">
<polygon fill="white" stroke="#666666" points="355.5,-216.5 194.5,-216.5 194.5,-197.5 355.5,-197.5 355.5,-216.5"/>
<text text-anchor="middle" x="275" y="-204.5" font-family="Helvetica,sans-Serif" font-size="10.00">Veery.UI.Selection.Methods.Back</text>
</a>
</g>
</g>
<!-- Node1&#45;&gt;Node2 -->
<g id="edge1" class="edge">
<title>Node1&#45;&gt;Node2</title>
<path fill="none" stroke="#63b8ff" d="M409.64,-154.56C374.66,-168.29 329.33,-186.07 301.48,-197"/>
<polygon fill="#63b8ff" stroke="#63b8ff" points="410.7,-157.91 418.73,-151 408.14,-151.39 410.7,-157.91"/>
</g>
<!-- Node5 -->
<g id="node5" class="node">
<title>Node5</title>
<g id="a_node5"><a xlink:href="class_veery_1_1_u_i_1_1_selection_1_1_parameters.html#a1ead71d4e5cb2543ce094264e7eff7ed" target="_top" xlink:title=" ">
<polygon fill="white" stroke="#666666" points="362,-144.5 188,-144.5 188,-125.5 362,-125.5 362,-144.5"/>
<text text-anchor="middle" x="275" y="-132.5" font-family="Helvetica,sans-Serif" font-size="10.00">Veery.UI.Selection.Parameters.Back</text>
</a>
</g>
</g>
<!-- Node1&#45;&gt;Node5 -->
<g id="edge4" class="edge">
<title>Node1&#45;&gt;Node5</title>
<path fill="none" stroke="#63b8ff" d="M386.27,-135C378.41,-135 370.36,-135 362.36,-135"/>
<polygon fill="#63b8ff" stroke="#63b8ff" points="386.12,-138.5 396.12,-135 386.12,-131.5 386.12,-138.5"/>
</g>
<!-- Node8 -->
<g id="node8" class="node">
<title>Node8</title>
<g id="a_node8"><a xlink:href="class_veery_1_1_u_i_1_1_selection_1_1_link.html#ac6cf866d98c9d31a8bcabc4eba68206e" target="_top" xlink:title=" ">
<polygon fill="white" stroke="#666666" points="335,-78 215,-78 215,-48 335,-48 335,-78"/>
<text text-anchor="start" x="223" y="-66" font-family="Helvetica,sans-Serif" font-size="10.00">Veery.UI.Selection.Link.</text>
<text text-anchor="middle" x="275" y="-55" font-family="Helvetica,sans-Serif" font-size="10.00">Delete</text>
</a>
</g>
</g>
<!-- Node1&#45;&gt;Node8 -->
<g id="edge7" class="edge">
<title>Node1&#45;&gt;Node8</title>
<path fill="none" stroke="#63b8ff" d="M409.58,-115.41C379.93,-103.78 342.86,-89.23 315.3,-78.42"/>
<polygon fill="#63b8ff" stroke="#63b8ff" points="408.14,-118.61 418.73,-119 410.7,-112.09 408.14,-118.61"/>
</g>
<!-- Node3 -->
<g id="node3" class="node">
<title>Node3</title>
<g id="a_node3"><a xlink:href="class_veery_1_1_u_i_1_1_selection_1_1_methods.html#aede144ccbfab66622384bac222e67043" target="_top" xlink:title=" ">
<polygon fill="white" stroke="#666666" points="145.5,-270 6.5,-270 6.5,-240 145.5,-240 145.5,-270"/>
<text text-anchor="start" x="14.5" y="-258" font-family="Helvetica,sans-Serif" font-size="10.00">Veery.UI.Selection.Methods.</text>
<text text-anchor="middle" x="76" y="-247" font-family="Helvetica,sans-Serif" font-size="10.00">OnDestroy</text>
</a>
</g>
</g>
<!-- Node2&#45;&gt;Node3 -->
<g id="edge2" class="edge">
<title>Node2&#45;&gt;Node3</title>
<path fill="none" stroke="#63b8ff" d="M222.06,-219.66C196.98,-225.77 166.68,-233.15 140.27,-239.58"/>
<polygon fill="#63b8ff" stroke="#63b8ff" points="222.82,-223.07 231.71,-217.3 221.17,-216.27 222.82,-223.07"/>
</g>
<!-- Node4 -->
<g id="node4" class="node">
<title>Node4</title>
<g id="a_node4"><a xlink:href="class_veery_1_1_u_i_1_1_selection_1_1_methods.html#a48083f7c70fdc83c1b71364999ed248f" target="_top" xlink:title=" ">
<polygon fill="white" stroke="#666666" points="145.5,-222 6.5,-222 6.5,-192 145.5,-192 145.5,-222"/>
<text text-anchor="start" x="14.5" y="-210" font-family="Helvetica,sans-Serif" font-size="10.00">Veery.UI.Selection.Methods.</text>
<text text-anchor="middle" x="76" y="-199" font-family="Helvetica,sans-Serif" font-size="10.00">Start</text>
</a>
</g>
</g>
<!-- Node2&#45;&gt;Node4 -->
<g id="edge3" class="edge">
<title>Node2&#45;&gt;Node4</title>
<path fill="none" stroke="#63b8ff" d="M182.82,-207C170.4,-207 157.82,-207 145.89,-207"/>
<polygon fill="#63b8ff" stroke="#63b8ff" points="182.64,-210.5 192.64,-207 182.64,-203.5 182.64,-210.5"/>
</g>
<!-- Node6 -->
<g id="node6" class="node">
<title>Node6</title>
<g id="a_node6"><a xlink:href="class_veery_1_1_u_i_1_1_selection_1_1_parameters.html#a43952c81eecf5215afd4e1234c9e03fb" target="_top" xlink:title=" ">
<polygon fill="white" stroke="#666666" points="152,-174 0,-174 0,-144 152,-144 152,-174"/>
<text text-anchor="start" x="8" y="-162" font-family="Helvetica,sans-Serif" font-size="10.00">Veery.UI.Selection.Parameters.</text>
<text text-anchor="middle" x="76" y="-151" font-family="Helvetica,sans-Serif" font-size="10.00">OnDestroy</text>
</a>
</g>
</g>
<!-- Node5&#45;&gt;Node6 -->
<g id="edge5" class="edge">
<title>Node5&#45;&gt;Node6</title>
<path fill="none" stroke="#63b8ff" d="M180.94,-146.34C171.33,-147.51 161.65,-148.69 152.28,-149.83"/>
<polygon fill="#63b8ff" stroke="#63b8ff" points="181.16,-149.84 190.66,-145.15 180.31,-142.89 181.16,-149.84"/>
</g>
<!-- Node7 -->
<g id="node7" class="node">
<title>Node7</title>
<g id="a_node7"><a xlink:href="class_veery_1_1_u_i_1_1_selection_1_1_parameters.html#a73365883fd16999dc549f00930fa425b" target="_top" xlink:title=" ">
<polygon fill="white" stroke="#666666" points="152,-126 0,-126 0,-96 152,-96 152,-126"/>
<text text-anchor="start" x="8" y="-114" font-family="Helvetica,sans-Serif" font-size="10.00">Veery.UI.Selection.Parameters.</text>
<text text-anchor="middle" x="76" y="-103" font-family="Helvetica,sans-Serif" font-size="10.00">Start</text>
</a>
</g>
</g>
<!-- Node5&#45;&gt;Node7 -->
<g id="edge6" class="edge">
<title>Node5&#45;&gt;Node7</title>
<path fill="none" stroke="#63b8ff" d="M180.94,-123.66C171.33,-122.49 161.65,-121.31 152.28,-120.17"/>
<polygon fill="#63b8ff" stroke="#63b8ff" points="180.31,-127.11 190.66,-124.85 181.16,-120.16 180.31,-127.11"/>
</g>
<!-- Node9 -->
<g id="node9" class="node">
<title>Node9</title>
<g id="a_node9"><a xlink:href="class_veery_1_1_u_i_1_1_selection_1_1_link.html#ad2b1e4dadb933ea4a14da4aa403e3fc5" target="_top" xlink:title=" ">
<polygon fill="white" stroke="#666666" points="136,-78 16,-78 16,-48 136,-48 136,-78"/>
<text text-anchor="start" x="24" y="-66" font-family="Helvetica,sans-Serif" font-size="10.00">Veery.UI.Selection.Link.</text>
<text text-anchor="middle" x="76" y="-55" font-family="Helvetica,sans-Serif" font-size="10.00">OnDestroy</text>
</a>
</g>
</g>
<!-- Node8&#45;&gt;Node9 -->
<g id="edge8" class="edge">
<title>Node8&#45;&gt;Node9</title>
<path fill="none" stroke="#63b8ff" d="M203.34,-63C181.36,-63 157.37,-63 136.25,-63"/>
<polygon fill="#63b8ff" stroke="#63b8ff" points="203.11,-66.5 213.11,-63 203.11,-59.5 203.11,-66.5"/>
</g>
<!-- Node10 -->
<g id="node10" class="node">
<title>Node10</title>
<g id="a_node10"><a xlink:href="class_veery_1_1_u_i_1_1_selection_1_1_link.html#a0302d4a02186260cff8d5081004f201b" target="_top" xlink:title=" ">
<polygon fill="white" stroke="#666666" points="136,-30 16,-30 16,0 136,0 136,-30"/>
<text text-anchor="start" x="24" y="-18" font-family="Helvetica,sans-Serif" font-size="10.00">Veery.UI.Selection.Link.</text>
<text text-anchor="middle" x="76" y="-7" font-family="Helvetica,sans-Serif" font-size="10.00">Start</text>
</a>
</g>
</g>
<!-- Node8&#45;&gt;Node10 -->
<g id="edge9" class="edge">
<title>Node8&#45;&gt;Node10</title>
<path fill="none" stroke="#63b8ff" d="M203.64,-45.86C181.58,-40.48 157.47,-34.61 136.25,-29.44"/>
<polygon fill="#63b8ff" stroke="#63b8ff" points="202.61,-49.21 213.16,-48.18 204.27,-42.41 202.61,-49.21"/>
</g>
</g>
</svg>
