<?xml version="1.0" encoding="UTF-8" standalone="no"?>
<!DOCTYPE svg PUBLIC "-//W3C//DTD SVG 1.1//EN"
 "http://www.w3.org/Graphics/SVG/1.1/DTD/svg11.dtd">
<!-- Generated by graphviz version 7.0.5 (20221223.1930)
 -->
<!-- Title: Veery.UI.Selection.Method.SetText Pages: 1 -->
<!--zoomable 182 -->
<svg id="main" version="1.1" xmlns="http://www.w3.org/2000/svg" xmlns:xlink="http://www.w3.org/1999/xlink" xml:space="preserve" onload="init(evt)">
<style type="text/css"><![CDATA[
.edge:hover path { stroke: red; }
.edge:hover polygon { stroke: red; fill: red; }
]]></style>
<script type="text/javascript"><![CDATA[
var edges = document.getElementsByTagName('g');
if (edges && edges.length) {
  for (var i=0;i<edges.length;i++) {
    if (edges[i].id.substr(0,4)=='edge') {
      edges[i].setAttribute('class','edge');
    }
  }
}
]]></script>
        <defs>
                <circle id="rim" cx="0" cy="0" r="7"/>
                <circle id="rim2" cx="0" cy="0" r="3.5"/>
                <g id="zoomPlus">
                        <use xlink:href="#rim" fill="#404040">
                                <set attributeName="fill" to="#808080" begin="zoomplus.mouseover" end="zoomplus.mouseout"/>
                        </use>
                        <path d="M-4,0h8M0,-4v8" fill="none" stroke="white" stroke-width="1.5" pointer-events="none"/>
                </g>
                <g id="zoomMin">
                        <use xlink:href="#rim" fill="#404040">
                                <set attributeName="fill" to="#808080" begin="zoomminus.mouseover" end="zoomminus.mouseout"/>
                        </use>
                        <path d="M-4,0h8" fill="none" stroke="white" stroke-width="1.5" pointer-events="none"/>
                </g>
                <g id="dirArrow">
                        <path fill="none" stroke="white" stroke-width="1.5" d="M0,-3.0v7 M-2.5,-0.5L0,-3.0L2.5,-0.5"/>
                </g>
               <g id="resetDef">
                       <use xlink:href="#rim2" fill="#404040">
                               <set attributeName="fill" to="#808080" begin="reset.mouseover" end="reset.mouseout"/>
                       </use>
               </g>
        </defs>

<script type="text/javascript">
var viewWidth = 671;
var viewHeight = 182;
var sectionId = 'dynsection-2';
</script>
<script xlink:href="svgpan.js"/>
<svg id="graph" class="graph">
<g id="viewport">
<title>Veery.UI.Selection.Method.SetText</title>
<!-- Node1 -->
<g id="node1" class="node">
<title>Node1</title>
<g id="a_node1"><a xlink:title=" ">
<polygon fill="#999999" stroke="#666666" points="663,-102 529,-102 529,-72 663,-72 663,-102"/>
<text text-anchor="start" x="537" y="-90" font-family="Helvetica,sans-Serif" font-size="10.00">Veery.UI.Selection.Method.</text>
<text text-anchor="middle" x="596" y="-79" font-family="Helvetica,sans-Serif" font-size="10.00">SetText</text>
</a>
</g>
</g>
<!-- Node2 -->
<g id="node2" class="node">
<title>Node2</title>
<g id="a_node2"><a xlink:href="class_veery_1_1_u_i_1_1_selection_1_1_methods.html#a8a5e23602bf445fa57d0491ef048260a" target="_top" xlink:title=" ">
<polygon fill="white" stroke="#666666" points="493,-102 354,-102 354,-72 493,-72 493,-102"/>
<text text-anchor="start" x="362" y="-90" font-family="Helvetica,sans-Serif" font-size="10.00">Veery.UI.Selection.Methods.</text>
<text text-anchor="middle" x="423.5" y="-79" font-family="Helvetica,sans-Serif" font-size="10.00">SetUI</text>
</a>
</g>
</g>
<!-- Node1&#45;&gt;Node2 -->
<g id="edge1" class="edge">
<title>Node1&#45;&gt;Node2</title>
<path fill="none" stroke="#63b8ff" d="M517.33,-87C509.3,-87 501.18,-87 493.26,-87"/>
<polygon fill="#63b8ff" stroke="#63b8ff" points="517.08,-90.5 527.08,-87 517.08,-83.5 517.08,-90.5"/>
</g>
<!-- Node3 -->
<g id="node3" class="node">
<title>Node3</title>
<g id="a_node3"><a xlink:href="class_veery_1_1_u_i_1_1_selection_1_1_links.html#af575a9e7185b07e1515793b321bf4abf" target="_top" xlink:title=" ">
<polygon fill="white" stroke="#666666" points="318,-120.5 175,-120.5 175,-101.5 318,-101.5 318,-120.5"/>
<text text-anchor="middle" x="246.5" y="-108.5" font-family="Helvetica,sans-Serif" font-size="10.00">Veery.UI.Selection.Links.Add</text>
</a>
</g>
</g>
<!-- Node2&#45;&gt;Node3 -->
<g id="edge2" class="edge">
<title>Node2&#45;&gt;Node3</title>
<path fill="none" stroke="#63b8ff" d="M342.35,-97.99C334.35,-99.09 326.26,-100.2 318.36,-101.28"/>
<polygon fill="#63b8ff" stroke="#63b8ff" points="342.66,-101.48 352.09,-96.66 341.7,-94.55 342.66,-101.48"/>
</g>
<!-- Node6 -->
<g id="node6" class="node">
<title>Node6</title>
<g id="a_node6"><a xlink:href="class_veery_1_1_u_i_1_1_selection_1_1_methods.html#a6ece3489a08cd594184c280f5ffa39c1" target="_top" xlink:title=" ">
<polygon fill="white" stroke="#666666" points="316,-78 177,-78 177,-48 316,-48 316,-78"/>
<text text-anchor="start" x="185" y="-66" font-family="Helvetica,sans-Serif" font-size="10.00">Veery.UI.Selection.Methods.</text>
<text text-anchor="middle" x="246.5" y="-55" font-family="Helvetica,sans-Serif" font-size="10.00">OnStateChanged</text>
</a>
</g>
</g>
<!-- Node2&#45;&gt;Node6 -->
<g id="edge5" class="edge">
<title>Node2&#45;&gt;Node6</title>
<path fill="none" stroke="#63b8ff" d="M342.28,-76C333.62,-74.81 324.86,-73.61 316.35,-72.44"/>
<polygon fill="#63b8ff" stroke="#63b8ff" points="341.7,-79.45 352.09,-77.34 342.66,-72.52 341.7,-79.45"/>
</g>
<!-- Node4 -->
<g id="node4" class="node">
<title>Node4</title>
<g id="a_node4"><a xlink:href="class_veery_1_1_u_i_1_1_selection_1_1_links.html#a8824fa93bcf6fb63f533c900087ab29c" target="_top" xlink:title=" ">
<polygon fill="white" stroke="#666666" points="132,-174 7,-174 7,-144 132,-144 132,-174"/>
<text text-anchor="start" x="15" y="-162" font-family="Helvetica,sans-Serif" font-size="10.00">Veery.UI.Selection.Links.</text>
<text text-anchor="middle" x="69.5" y="-151" font-family="Helvetica,sans-Serif" font-size="10.00">OnDestroy</text>
</a>
</g>
</g>
<!-- Node3&#45;&gt;Node4 -->
<g id="edge3" class="edge">
<title>Node3&#45;&gt;Node4</title>
<path fill="none" stroke="#63b8ff" d="M198.15,-123.99C176.12,-130.03 149.74,-137.26 126.7,-143.58"/>
<polygon fill="#63b8ff" stroke="#63b8ff" points="199.06,-127.37 207.78,-121.35 197.21,-120.62 199.06,-127.37"/>
</g>
<!-- Node5 -->
<g id="node5" class="node">
<title>Node5</title>
<g id="a_node5"><a xlink:href="class_veery_1_1_u_i_1_1_selection_1_1_links.html#a81cd4d5e1a873d76951f3785c96d884e" target="_top" xlink:title=" ">
<polygon fill="white" stroke="#666666" points="132,-126 7,-126 7,-96 132,-96 132,-126"/>
<text text-anchor="start" x="15" y="-114" font-family="Helvetica,sans-Serif" font-size="10.00">Veery.UI.Selection.Links.</text>
<text text-anchor="middle" x="69.5" y="-103" font-family="Helvetica,sans-Serif" font-size="10.00">Start</text>
</a>
</g>
</g>
<!-- Node3&#45;&gt;Node5 -->
<g id="edge4" class="edge">
<title>Node3&#45;&gt;Node5</title>
<path fill="none" stroke="#63b8ff" d="M163.3,-111C152.85,-111 142.3,-111 132.25,-111"/>
<polygon fill="#63b8ff" stroke="#63b8ff" points="163.06,-114.5 173.06,-111 163.06,-107.5 163.06,-114.5"/>
</g>
<!-- Node7 -->
<g id="node7" class="node">
<title>Node7</title>
<g id="a_node7"><a xlink:href="class_veery_1_1_u_i_1_1_selection_1_1_methods.html#aede144ccbfab66622384bac222e67043" target="_top" xlink:title=" ">
<polygon fill="white" stroke="#666666" points="139,-78 0,-78 0,-48 139,-48 139,-78"/>
<text text-anchor="start" x="8" y="-66" font-family="Helvetica,sans-Serif" font-size="10.00">Veery.UI.Selection.Methods.</text>
<text text-anchor="middle" x="69.5" y="-55" font-family="Helvetica,sans-Serif" font-size="10.00">OnDestroy</text>
</a>
</g>
</g>
<!-- Node6&#45;&gt;Node7 -->
<g id="edge6" class="edge">
<title>Node6&#45;&gt;Node7</title>
<path fill="none" stroke="#63b8ff" d="M165.28,-63C156.62,-63 147.86,-63 139.35,-63"/>
<polygon fill="#63b8ff" stroke="#63b8ff" points="165.07,-66.5 175.07,-63 165.07,-59.5 165.07,-66.5"/>
</g>
<!-- Node8 -->
<g id="node8" class="node">
<title>Node8</title>
<g id="a_node8"><a xlink:href="class_veery_1_1_u_i_1_1_selection_1_1_methods.html#a48083f7c70fdc83c1b71364999ed248f" target="_top" xlink:title=" ">
<polygon fill="white" stroke="#666666" points="139,-30 0,-30 0,0 139,0 139,-30"/>
<text text-anchor="start" x="8" y="-18" font-family="Helvetica,sans-Serif" font-size="10.00">Veery.UI.Selection.Methods.</text>
<text text-anchor="middle" x="69.5" y="-7" font-family="Helvetica,sans-Serif" font-size="10.00">Start</text>
</a>
</g>
</g>
<!-- Node6&#45;&gt;Node8 -->
<g id="edge7" class="edge">
<title>Node6&#45;&gt;Node8</title>
<path fill="none" stroke="#63b8ff" d="M178.18,-44.54C161.18,-39.87 143.11,-34.92 126.73,-30.42"/>
<polygon fill="#63b8ff" stroke="#63b8ff" points="177.14,-47.88 187.71,-47.15 178.99,-41.13 177.14,-47.88"/>
</g>
</g>
</svg>
        <g id="navigator" transform="translate(0 0)" fill="#404254">
                <rect fill="#f2f5e9" fill-opacity="0.5" stroke="#606060" stroke-width=".5" x="0" y="0" width="60" height="60"/>
                <use id="zoomplus" xlink:href="#zoomPlus" x="17" y="9" onmousedown="handleZoom(evt,'in')"/>
                <use id="zoomminus" xlink:href="#zoomMin" x="42" y="9" onmousedown="handleZoom(evt,'out')"/>
                <use id="reset" xlink:href="#resetDef" x="30" y="36" onmousedown="handleReset()"/>
                <g id="arrowUp" xlink:href="#dirArrow" transform="translate(30 24)" onmousedown="handlePan(0,-1)">
                  <use xlink:href="#rim" fill="#404040">
                        <set attributeName="fill" to="#808080" begin="arrowUp.mouseover" end="arrowUp.mouseout"/>
                  </use>
                  <path fill="none" stroke="white" stroke-width="1.5" d="M0,-3.0v7 M-2.5,-0.5L0,-3.0L2.5,-0.5"/>
                </g>
                <g id="arrowRight" xlink:href="#dirArrow" transform="rotate(90) translate(36 -43)" onmousedown="handlePan(1,0)">
                  <use xlink:href="#rim" fill="#404040">
                        <set attributeName="fill" to="#808080" begin="arrowRight.mouseover" end="arrowRight.mouseout"/>
                  </use>
                  <path fill="none" stroke="white" stroke-width="1.5" d="M0,-3.0v7 M-2.5,-0.5L0,-3.0L2.5,-0.5"/>
                </g>
                <g id="arrowDown" xlink:href="#dirArrow" transform="rotate(180) translate(-30 -48)" onmousedown="handlePan(0,1)">
                  <use xlink:href="#rim" fill="#404040">
                        <set attributeName="fill" to="#808080" begin="arrowDown.mouseover" end="arrowDown.mouseout"/>
                  </use>
                  <path fill="none" stroke="white" stroke-width="1.5" d="M0,-3.0v7 M-2.5,-0.5L0,-3.0L2.5,-0.5"/>
                </g>
                <g id="arrowLeft" xlink:href="#dirArrow" transform="rotate(270) translate(-36 17)" onmousedown="handlePan(-1,0)">
                  <use xlink:href="#rim" fill="#404040">
                        <set attributeName="fill" to="#808080" begin="arrowLeft.mouseover" end="arrowLeft.mouseout"/>
                  </use>
                  <path fill="none" stroke="white" stroke-width="1.5" d="M0,-3.0v7 M-2.5,-0.5L0,-3.0L2.5,-0.5"/>
                </g>
        </g>
        <svg viewBox="0 0 15 15" width="100%" height="30px" preserveAspectRatio="xMaxYMin meet">
         <g id="arrow_out" transform="scale(0.3 0.3)">
          <a xlink:href="class_veery_1_1_u_i_1_1_selection_1_1_method_ab5229e5c84608a6eb9ed63575dc369ad_icgraph_org.svg" target="_base">
           <rect id="button" ry="5" rx="5" y="6" x="6" height="38" width="38"
                fill="#f2f5e9" fill-opacity="0.5" stroke="#606060" stroke-width="1.0"/>
           <path id="arrow"
             d="M 11.500037,31.436501 C 11.940474,20.09759 22.043105,11.32322 32.158766,21.979434 L 37.068811,17.246167 C 37.068811,17.246167 37.088388,32 37.088388,32 L 22.160133,31.978069 C 22.160133,31.978069 26.997745,27.140456 26.997745,27.140456 C 18.528582,18.264221 13.291696,25.230495 11.500037,31.436501 z"
             style="fill:#404040;"/>
          </a>
         </g>
        </svg>
</svg>
