<?xml version="1.0" encoding="UTF-8" standalone="no"?>
<!DOCTYPE svg PUBLIC "-//W3C//DTD SVG 1.1//EN"
 "http://www.w3.org/Graphics/SVG/1.1/DTD/svg11.dtd">
<!-- Generated by graphviz version 7.0.5 (20221223.1930)
 -->
<!-- Title: Veery.Interaction.Grabbable Pages: 1 -->
<svg width="526pt" height="115pt"
 viewBox="0.00 0.00 526.00 115.00" xmlns="http://www.w3.org/2000/svg" xmlns:xlink="http://www.w3.org/1999/xlink">
<g id="graph0" class="graph" transform="scale(1 1) rotate(0) translate(4 111)">
<title>Veery.Interaction.Grabbable</title>
<!-- Node1 -->
<g id="node1" class="node">
<title>Node1</title>
<g id="a_node1"><a xlink:title=" ">
<polygon fill="#999999" stroke="#666666" points="279,-19 143,-19 143,0 279,0 279,-19"/>
<text text-anchor="middle" x="211" y="-7" font-family="Helvetica,sans-Serif" font-size="10.00">Veery.Interaction.Grabbable</text>
</a>
</g>
</g>
<!-- Node2 -->
<g id="node2" class="node">
<title>Node2</title>
<g id="a_node2"><a xlink:href="class_pointable_element.html" target="_top" xlink:title=" ">
<polygon fill="white" stroke="#666666" points="92,-107 0,-107 0,-88 92,-88 92,-107"/>
<text text-anchor="middle" x="46" y="-95" font-family="Helvetica,sans-Serif" font-size="10.00">PointableElement</text>
</a>
</g>
</g>
<!-- Node2&#45;&gt;Node1 -->
<g id="edge1" class="edge">
<title>Node2&#45;&gt;Node1</title>
<path fill="none" stroke="#63b8ff" d="M73.08,-82.35C96.17,-70.29 130.26,-52.49 160,-37 171.33,-31.1 184.08,-24.48 194,-19.33"/>
<polygon fill="#63b8ff" stroke="#63b8ff" points="71.58,-79.19 64.33,-86.92 74.82,-85.39 71.58,-79.19"/>
</g>
<!-- Node3 -->
<g id="node3" class="node">
<title>Node3</title>
<g id="a_node3"><a xlink:href="class_i_grabbable.html" target="_top" xlink:title=" ">
<polygon fill="white" stroke="#666666" points="174,-107 110,-107 110,-88 174,-88 174,-107"/>
<text text-anchor="middle" x="142" y="-95" font-family="Helvetica,sans-Serif" font-size="10.00">IGrabbable</text>
</a>
</g>
</g>
<!-- Node3&#45;&gt;Node1 -->
<g id="edge2" class="edge">
<title>Node3&#45;&gt;Node1</title>
<path fill="none" stroke="#63b8ff" d="M156.3,-78.67C170.79,-60.61 192.61,-33.42 203.81,-19.46"/>
<polygon fill="#63b8ff" stroke="#63b8ff" points="153.6,-76.45 150.07,-86.44 159.06,-80.83 153.6,-76.45"/>
</g>
<!-- Node4 -->
<g id="node4" class="node">
<title>Node4</title>
<g id="a_node4"><a xlink:title=" ">
<polygon fill="white" stroke="#666666" points="276,-107 192,-107 192,-88 276,-88 276,-107"/>
<text text-anchor="middle" x="234" y="-95" font-family="Helvetica,sans-Serif" font-size="10.00">MonoBehaviour</text>
</a>
</g>
</g>
<!-- Node4&#45;&gt;Node1 -->
<g id="edge3" class="edge">
<title>Node4&#45;&gt;Node1</title>
<path fill="none" stroke="#9a32cd" stroke-dasharray="5,2" d="M216.85,-79.04C214.89,-76.2 213.17,-73.15 212,-70 205.68,-52.95 207.58,-31.22 209.38,-19.3"/>
<polygon fill="#9a32cd" stroke="#9a32cd" points="214.02,-81.1 223.11,-86.54 219.4,-76.62 214.02,-81.1"/>
<text text-anchor="middle" x="260.5" y="-56.5" font-family="Helvetica,sans-Serif" font-size="10.00"> _oneGrabTransformer</text>
<text text-anchor="middle" x="260.5" y="-45.5" font-family="Helvetica,sans-Serif" font-size="10.00">_twoGrabTransformer</text>
</g>
<!-- Node5 -->
<g id="node5" class="node">
<title>Node5</title>
<g id="a_node5"><a xlink:title=" ">
<polygon fill="white" stroke="#666666" points="345.5,-107 316.5,-107 316.5,-88 345.5,-88 345.5,-107"/>
<text text-anchor="middle" x="331" y="-95" font-family="Helvetica,sans-Serif" font-size="10.00">int</text>
</a>
</g>
</g>
<!-- Node5&#45;&gt;Node1 -->
<g id="edge4" class="edge">
<title>Node5&#45;&gt;Node1</title>
<path fill="none" stroke="#9a32cd" stroke-dasharray="5,2" d="M328.43,-76.74C325.73,-63.72 320.21,-47.25 309,-37 300.28,-29.03 289.42,-23.42 278.12,-19.48"/>
<polygon fill="#9a32cd" stroke="#9a32cd" points="324.94,-77.05 330.01,-86.36 331.85,-75.92 324.94,-77.05"/>
<text text-anchor="middle" x="363.5" y="-51" font-family="Helvetica,sans-Serif" font-size="10.00"> _maxGrabPoints</text>
</g>
<!-- Node6 -->
<g id="node6" class="node">
<title>Node6</title>
<g id="a_node6"><a xlink:title=" ">
<polygon fill="white" stroke="#666666" points="465,-107 393,-107 393,-88 465,-88 465,-107"/>
<text text-anchor="middle" x="429" y="-95" font-family="Helvetica,sans-Serif" font-size="10.00">ITransformer</text>
</a>
</g>
</g>
<!-- Node6&#45;&gt;Node1 -->
<g id="edge5" class="edge">
<title>Node6&#45;&gt;Node1</title>
<path fill="none" stroke="#9a32cd" stroke-dasharray="5,2" d="M426.22,-76.63C423.27,-63.32 417.25,-46.54 405,-37 385.76,-22.02 327.13,-15.5 279.32,-12.67"/>
<polygon fill="#9a32cd" stroke="#9a32cd" points="422.7,-76.85 427.89,-86.09 429.6,-75.63 422.7,-76.85"/>
<text text-anchor="middle" x="471" y="-62" font-family="Helvetica,sans-Serif" font-size="10.00"> OneGrabTransformer</text>
<text text-anchor="middle" x="471" y="-51" font-family="Helvetica,sans-Serif" font-size="10.00">TwoGrabTransformer</text>
<text text-anchor="middle" x="471" y="-40" font-family="Helvetica,sans-Serif" font-size="10.00">_activeTransformer</text>
</g>
</g>
</svg>
