<?xml version="1.0" encoding="UTF-8" standalone="no"?>
<!DOCTYPE svg PUBLIC "-//W3C//DTD SVG 1.1//EN"
 "http://www.w3.org/Graphics/SVG/1.1/DTD/svg11.dtd">
<!-- Generated by graphviz version 7.0.5 (20221223.1930)
 -->
<!-- Title: Veery.Interaction.DistanceSelectInteractor Pages: 1 -->
<svg width="463pt" height="227pt"
 viewBox="0.00 0.00 463.00 227.00" xmlns="http://www.w3.org/2000/svg" xmlns:xlink="http://www.w3.org/1999/xlink">
<g id="graph0" class="graph" transform="scale(1 1) rotate(0) translate(4 223)">
<title>Veery.Interaction.DistanceSelectInteractor</title>
<!-- Node1 -->
<g id="node1" class="node">
<title>Node1</title>
<g id="a_node1"><a xlink:title="An interactor that selects interactables based on their distance from the interactor&#39;s pointer.">
<polygon fill="#999999" stroke="#666666" points="455,-128.5 325,-128.5 325,-98.5 455,-98.5 455,-128.5"/>
<text text-anchor="start" x="333" y="-116.5" font-family="Helvetica,sans-Serif" font-size="10.00">Veery.Interaction.Distance</text>
<text text-anchor="middle" x="390" y="-105.5" font-family="Helvetica,sans-Serif" font-size="10.00">SelectInteractor</text>
</a>
</g>
</g>
<!-- Node2 -->
<g id="node2" class="node">
<title>Node2</title>
<g id="a_node2"><a xlink:href="class_pointer_interactor.html" target="_top" xlink:title=" ">
<polygon fill="white" stroke="#666666" points="155,-219 11,-219 11,-178 155,-178 155,-219"/>
<text text-anchor="start" x="19" y="-207" font-family="Helvetica,sans-Serif" font-size="10.00">PointerInteractor&lt;</text>
<text text-anchor="start" x="19" y="-196" font-family="Helvetica,sans-Serif" font-size="10.00"> DistanceSelectInteractor,</text>
<text text-anchor="middle" x="83" y="-185" font-family="Helvetica,sans-Serif" font-size="10.00"> DistanceSelectInteractable &gt;</text>
</a>
</g>
</g>
<!-- Node2&#45;&gt;Node1 -->
<g id="edge1" class="edge">
<title>Node2&#45;&gt;Node1</title>
<path fill="none" stroke="#63b8ff" d="M166.65,-188.9C209.35,-182.46 261.82,-172.2 307,-156.5 327.19,-149.48 348.54,-138.15 364.39,-128.88"/>
<polygon fill="#63b8ff" stroke="#63b8ff" points="166.34,-185.41 156.95,-190.32 167.35,-192.34 166.34,-185.41"/>
</g>
<!-- Node3 -->
<g id="node3" class="node">
<title>Node3</title>
<g id="a_node3"><a xlink:href="class_i_distance_interactor.html" target="_top" xlink:title=" ">
<polygon fill="white" stroke="#666666" points="132.5,-160 33.5,-160 33.5,-141 132.5,-141 132.5,-160"/>
<text text-anchor="middle" x="83" y="-148" font-family="Helvetica,sans-Serif" font-size="10.00">IDistanceInteractor</text>
</a>
</g>
</g>
<!-- Node3&#45;&gt;Node1 -->
<g id="edge2" class="edge">
<title>Node3&#45;&gt;Node1</title>
<path fill="none" stroke="#63b8ff" d="M143.98,-150.15C189.09,-149.06 252.29,-145.78 307,-136.5 317.93,-134.64 329.5,-131.9 340.39,-128.95"/>
<polygon fill="#63b8ff" stroke="#63b8ff" points="144.06,-146.65 134.14,-150.36 144.21,-153.65 144.06,-146.65"/>
</g>
<!-- Node4 -->
<g id="node4" class="node">
<title>Node4</title>
<g id="a_node4"><a xlink:title=" ">
<polygon fill="white" stroke="#666666" points="125,-123 41,-123 41,-104 125,-104 125,-123"/>
<text text-anchor="middle" x="83" y="-111" font-family="Helvetica,sans-Serif" font-size="10.00">MonoBehaviour</text>
</a>
</g>
</g>
<!-- Node4&#45;&gt;Node1 -->
<g id="edge3" class="edge">
<title>Node4&#45;&gt;Node1</title>
<path fill="none" stroke="#9a32cd" stroke-dasharray="5,2" d="M136.79,-113.5C188.98,-113.5 268.91,-113.5 324.76,-113.5"/>
<polygon fill="#9a32cd" stroke="#9a32cd" points="136.96,-110 126.96,-113.5 136.96,-117 136.96,-110"/>
<text text-anchor="middle" x="245.5" y="-127.5" font-family="Helvetica,sans-Serif" font-size="10.00"> _canvasInteractor</text>
<text text-anchor="middle" x="245.5" y="-116.5" font-family="Helvetica,sans-Serif" font-size="10.00">_selector</text>
</g>
<!-- Node5 -->
<g id="node5" class="node">
<title>Node5</title>
<g id="a_node5"><a xlink:title=" ">
<polygon fill="white" stroke="#666666" points="113.5,-78 52.5,-78 52.5,-59 113.5,-59 113.5,-78"/>
<text text-anchor="middle" x="83" y="-66" font-family="Helvetica,sans-Serif" font-size="10.00">Transform</text>
</a>
</g>
</g>
<!-- Node5&#45;&gt;Node1 -->
<g id="edge4" class="edge">
<title>Node5&#45;&gt;Node1</title>
<path fill="none" stroke="#9a32cd" stroke-dasharray="5,2" d="M125.22,-69.28C170.27,-70.77 244.38,-75.06 307,-87.5 320.04,-90.09 333.92,-94.02 346.49,-98.05"/>
<polygon fill="#9a32cd" stroke="#9a32cd" points="125.48,-65.79 115.39,-68.99 125.28,-72.78 125.48,-65.79"/>
<text text-anchor="middle" x="245.5" y="-101.5" font-family="Helvetica,sans-Serif" font-size="10.00"> _selectCenter</text>
<text text-anchor="middle" x="245.5" y="-90.5" font-family="Helvetica,sans-Serif" font-size="10.00">_selectTarget</text>
</g>
<!-- Node6 -->
<g id="node6" class="node">
<title>Node6</title>
<g id="a_node6"><a xlink:title=" ">
<polygon fill="white" stroke="#666666" points="166,-41 0,-41 0,0 166,0 166,-41"/>
<text text-anchor="start" x="8" y="-29" font-family="Helvetica,sans-Serif" font-size="10.00">DistantCandidateComputer</text>
<text text-anchor="start" x="8" y="-18" font-family="Helvetica,sans-Serif" font-size="10.00">&lt; Veery.Interaction.DistanceSelect</text>
<text text-anchor="middle" x="83" y="-7" font-family="Helvetica,sans-Serif" font-size="10.00">Interactable &gt;</text>
</a>
</g>
</g>
<!-- Node6&#45;&gt;Node1 -->
<g id="edge5" class="edge">
<title>Node6&#45;&gt;Node1</title>
<path fill="none" stroke="#9a32cd" stroke-dasharray="5,2" d="M177.67,-26.25C218.52,-31.11 266.28,-40.06 307,-56.5 331.6,-66.43 356.08,-84.85 371.8,-98.07"/>
<polygon fill="#9a32cd" stroke="#9a32cd" points="178.17,-22.79 167.84,-25.15 177.39,-29.74 178.17,-22.79"/>
<text text-anchor="middle" x="245.5" y="-59.5" font-family="Helvetica,sans-Serif" font-size="10.00"> _distantCandidateComputer</text>
</g>
</g>
</svg>
