<?xml version="1.0" encoding="UTF-8" standalone="no"?>
<!DOCTYPE svg PUBLIC "-//W3C//DTD SVG 1.1//EN"
 "http://www.w3.org/Graphics/SVG/1.1/DTD/svg11.dtd">
<!-- Generated by graphviz version 7.0.5 (20221223.1930)
 -->
<!-- Title: Veery.UI.Selection.Parameters Pages: 1 -->
<svg width="265pt" height="149pt"
 viewBox="0.00 0.00 264.50 149.00" xmlns="http://www.w3.org/2000/svg" xmlns:xlink="http://www.w3.org/1999/xlink">
<g id="graph0" class="graph" transform="scale(1 1) rotate(0) translate(4 145)">
<title>Veery.UI.Selection.Parameters</title>
<!-- Node1 -->
<g id="node1" class="node">
<title>Node1</title>
<g id="a_node1"><a xlink:title=" ">
<polygon fill="#999999" stroke="#666666" points="208,-19 59,-19 59,0 208,0 208,-19"/>
<text text-anchor="middle" x="133.5" y="-7" font-family="Helvetica,sans-Serif" font-size="10.00">Veery.UI.Selection.Parameters</text>
</a>
</g>
</g>
<!-- Node2 -->
<g id="node2" class="node">
<title>Node2</title>
<g id="a_node2"><a xlink:href="class_veery_1_1_u_i_1_1_selection_1_1_selection_property.html" target="_top" xlink:title=" ">
<polygon fill="white" stroke="#666666" points="93,-85 0,-85 0,-66 93,-66 93,-85"/>
<text text-anchor="middle" x="46.5" y="-73" font-family="Helvetica,sans-Serif" font-size="10.00">SelectionProperty</text>
</a>
</g>
</g>
<!-- Node2&#45;&gt;Node1 -->
<g id="edge1" class="edge">
<title>Node2&#45;&gt;Node1</title>
<path fill="none" stroke="#63b8ff" d="M67.72,-58.89C84.62,-46.46 107.66,-29.51 121.51,-19.32"/>
<polygon fill="#63b8ff" stroke="#63b8ff" points="65.8,-55.96 59.82,-64.7 69.95,-61.6 65.8,-55.96"/>
</g>
<!-- Node3 -->
<g id="node3" class="node">
<title>Node3</title>
<g id="a_node3"><a xlink:title=" ">
<polygon fill="white" stroke="#666666" points="88.5,-141 4.5,-141 4.5,-122 88.5,-122 88.5,-141"/>
<text text-anchor="middle" x="46.5" y="-129" font-family="Helvetica,sans-Serif" font-size="10.00">MonoBehaviour</text>
</a>
</g>
</g>
<!-- Node3&#45;&gt;Node2 -->
<g id="edge2" class="edge">
<title>Node3&#45;&gt;Node2</title>
<path fill="none" stroke="#63b8ff" d="M46.5,-110.11C46.5,-101.52 46.5,-91.97 46.5,-85.25"/>
<polygon fill="#63b8ff" stroke="#63b8ff" points="43,-110.07 46.5,-120.07 50,-110.07 43,-110.07"/>
</g>
<!-- Node4 -->
<g id="node4" class="node">
<title>Node4</title>
<g id="a_node4"><a xlink:title=" ">
<polygon fill="white" stroke="#666666" points="156,-85 111,-85 111,-66 156,-66 156,-85"/>
<text text-anchor="middle" x="133.5" y="-73" font-family="Helvetica,sans-Serif" font-size="10.00">Button</text>
</a>
</g>
</g>
<!-- Node4&#45;&gt;Node1 -->
<g id="edge3" class="edge">
<title>Node4&#45;&gt;Node1</title>
<path fill="none" stroke="#9a32cd" stroke-dasharray="5,2" d="M133.5,-54.18C133.5,-42.44 133.5,-28.27 133.5,-19.32"/>
<polygon fill="#9a32cd" stroke="#9a32cd" points="130,-54.09 133.5,-64.09 137,-54.09 130,-54.09"/>
<text text-anchor="middle" x="162.5" y="-40" font-family="Helvetica,sans-Serif" font-size="10.00"> _backButton</text>
</g>
<!-- Node5 -->
<g id="node5" class="node">
<title>Node5</title>
<g id="a_node5"><a xlink:title=" ">
<polygon fill="white" stroke="#666666" points="250,-85 179,-85 179,-66 250,-66 250,-85"/>
<text text-anchor="middle" x="214.5" y="-73" font-family="Helvetica,sans-Serif" font-size="10.00">GameObject</text>
</a>
</g>
</g>
<!-- Node5&#45;&gt;Node1 -->
<g id="edge4" class="edge">
<title>Node5&#45;&gt;Node1</title>
<path fill="none" stroke="#9a32cd" stroke-dasharray="5,2" d="M206.34,-55.55C202.82,-49.03 198.19,-42.1 192.5,-37 183.97,-29.35 172.88,-23.59 162.61,-19.43"/>
<polygon fill="#9a32cd" stroke="#9a32cd" points="203.08,-56.84 210.55,-64.36 209.39,-53.82 203.08,-56.84"/>
<text text-anchor="middle" x="229" y="-40" font-family="Helvetica,sans-Serif" font-size="10.00"> _contentGO</text>
</g>
</g>
</svg>
