<?xml version="1.0" encoding="UTF-8" standalone="no"?>
<!DOCTYPE svg PUBLIC "-//W3C//DTD SVG 1.1//EN"
 "http://www.w3.org/Graphics/SVG/1.1/DTD/svg11.dtd">
<!-- Generated by graphviz version 7.0.5 (20221223.1930)
 -->
<!-- Title: EVA.UI.Collapsable Pages: 1 -->
<svg width="474pt" height="115pt"
 viewBox="0.00 0.00 474.00 115.00" xmlns="http://www.w3.org/2000/svg" xmlns:xlink="http://www.w3.org/1999/xlink">
<g id="graph0" class="graph" transform="scale(1 1) rotate(0) translate(4 111)">
<title>EVA.UI.Collapsable</title>
<!-- Node1 -->
<g id="node1" class="node">
<title>Node1</title>
<g id="a_node1"><a xlink:title=" ">
<polygon fill="#999999" stroke="#666666" points="247.5,-19 146.5,-19 146.5,0 247.5,0 247.5,-19"/>
<text text-anchor="middle" x="197" y="-7" font-family="Helvetica,sans-Serif" font-size="10.00">EVA.UI.Collapsable</text>
</a>
</g>
</g>
<!-- Node2 -->
<g id="node2" class="node">
<title>Node2</title>
<g id="a_node2"><a xlink:href="class_mono_behaviour.html" target="_top" xlink:title=" ">
<polygon fill="white" stroke="#666666" points="84,-107 0,-107 0,-88 84,-88 84,-107"/>
<text text-anchor="middle" x="42" y="-95" font-family="Helvetica,sans-Serif" font-size="10.00">MonoBehaviour</text>
</a>
</g>
</g>
<!-- Node2&#45;&gt;Node1 -->
<g id="edge1" class="edge">
<title>Node2&#45;&gt;Node1</title>
<path fill="none" stroke="#63b8ff" d="M61.76,-80.79C78.66,-67.87 103.98,-49.69 128,-37 141.05,-30.11 156.3,-24.06 169.14,-19.49"/>
<polygon fill="#63b8ff" stroke="#63b8ff" points="59.8,-77.88 54.06,-86.78 64.1,-83.41 59.8,-77.88"/>
</g>
<!-- Node3 -->
<g id="node3" class="node">
<title>Node3</title>
<g id="a_node3"><a xlink:title=" ">
<polygon fill="white" stroke="#666666" points="173.5,-107 102.5,-107 102.5,-88 173.5,-88 173.5,-107"/>
<text text-anchor="middle" x="138" y="-95" font-family="Helvetica,sans-Serif" font-size="10.00">GameObject</text>
</a>
</g>
</g>
<!-- Node3&#45;&gt;Node1 -->
<g id="edge2" class="edge">
<title>Node3&#45;&gt;Node1</title>
<path fill="none" stroke="#9a32cd" stroke-dasharray="5,2" d="M133.28,-76.59C131.5,-64.23 131.45,-48.54 139,-37 144.21,-29.03 152.47,-23.43 161.14,-19.5"/>
<polygon fill="#9a32cd" stroke="#9a32cd" points="129.78,-76.95 135.13,-86.09 136.65,-75.61 129.78,-76.95"/>
<text text-anchor="middle" x="186.5" y="-51" font-family="Helvetica,sans-Serif" font-size="10.00"> collapseContainerGO</text>
</g>
<!-- Node4 -->
<g id="node4" class="node">
<title>Node4</title>
<g id="a_node4"><a xlink:title=" ">
<polygon fill="white" stroke="#666666" points="296.5,-107 215.5,-107 215.5,-88 296.5,-88 296.5,-107"/>
<text text-anchor="middle" x="256" y="-95" font-family="Helvetica,sans-Serif" font-size="10.00">RectTransform</text>
</a>
</g>
</g>
<!-- Node4&#45;&gt;Node1 -->
<g id="edge3" class="edge">
<title>Node4&#45;&gt;Node1</title>
<path fill="none" stroke="#9a32cd" stroke-dasharray="5,2" d="M251.83,-76.7C248.52,-64.37 242.92,-48.69 234,-37 228.54,-29.84 220.6,-23.8 213.48,-19.31"/>
<polygon fill="#9a32cd" stroke="#9a32cd" points="248.37,-77.24 254.08,-86.16 255.18,-75.63 248.37,-77.24"/>
<text text-anchor="middle" x="310.5" y="-62" font-family="Helvetica,sans-Serif" font-size="10.00"> _CollapsableRectTransform</text>
<text text-anchor="middle" x="310.5" y="-51" font-family="Helvetica,sans-Serif" font-size="10.00">_SurfaceRectTransform</text>
<text text-anchor="middle" x="310.5" y="-40" font-family="Helvetica,sans-Serif" font-size="10.00">notchRectTransform</text>
</g>
<!-- Node5 -->
<g id="node5" class="node">
<title>Node5</title>
<g id="a_node5"><a xlink:title=" ">
<polygon fill="white" stroke="#666666" points="427,-107 377,-107 377,-88 427,-88 427,-107"/>
<text text-anchor="middle" x="402" y="-95" font-family="Helvetica,sans-Serif" font-size="10.00">Vector3</text>
</a>
</g>
</g>
<!-- Node5&#45;&gt;Node1 -->
<g id="edge4" class="edge">
<title>Node5&#45;&gt;Node1</title>
<path fill="none" stroke="#9a32cd" stroke-dasharray="5,2" d="M398.5,-76.64C395.07,-63.33 388.48,-46.54 376,-37 356.41,-22.02 293.52,-15.45 247.82,-12.6"/>
<polygon fill="#9a32cd" stroke="#9a32cd" points="395.01,-77.05 400.51,-86.1 401.85,-75.59 395.01,-77.05"/>
<text text-anchor="middle" x="431" y="-56.5" font-family="Helvetica,sans-Serif" font-size="10.00"> _CollapsedSize</text>
<text text-anchor="middle" x="431" y="-45.5" font-family="Helvetica,sans-Serif" font-size="10.00">_OpenedSize</text>
</g>
</g>
</svg>
