<?xml version="1.0" encoding="UTF-8" standalone="no"?>
<!DOCTYPE svg PUBLIC "-//W3C//DTD SVG 1.1//EN"
 "http://www.w3.org/Graphics/SVG/1.1/DTD/svg11.dtd">
<!-- Generated by graphviz version 7.0.5 (20221223.1930)
 -->
<!-- Title: Veery.UI.FileExplorerController.SetElements Pages: 1 -->
<svg width="530pt" height="107pt"
 viewBox="0.00 0.00 530.00 107.00" xmlns="http://www.w3.org/2000/svg" xmlns:xlink="http://www.w3.org/1999/xlink">
<g id="graph0" class="graph" transform="scale(1 1) rotate(0) translate(4 103)">
<title>Veery.UI.FileExplorerController.SetElements</title>
<!-- Node1 -->
<g id="node1" class="node">
<title>Node1</title>
<g id="a_node1"><a xlink:title="Instantiate _explorerElementPrefab for each file / directory in the current folder and set the FileEx...">
<polygon fill="#999999" stroke="#666666" points="522,-51 372,-51 372,-21 522,-21 522,-51"/>
<text text-anchor="start" x="380" y="-39" font-family="Helvetica,sans-Serif" font-size="10.00">Veery.UI.FileExplorerController.</text>
<text text-anchor="middle" x="447" y="-28" font-family="Helvetica,sans-Serif" font-size="10.00">SetElements</text>
</a>
</g>
</g>
<!-- Node2 -->
<g id="node2" class="node">
<title>Node2</title>
<g id="a_node2"><a xlink:href="class_veery_1_1_u_i_1_1_file_explorer_controller.html#a323f74e569f4a10f9ad3f20f95887267" target="_top" xlink:title="Open the selected folder.">
<polygon fill="white" stroke="#666666" points="336,-99 186,-99 186,-69 336,-69 336,-99"/>
<text text-anchor="start" x="194" y="-87" font-family="Helvetica,sans-Serif" font-size="10.00">Veery.UI.FileExplorerController.</text>
<text text-anchor="middle" x="261" y="-76" font-family="Helvetica,sans-Serif" font-size="10.00">OpenFolder</text>
</a>
</g>
</g>
<!-- Node1&#45;&gt;Node2 -->
<g id="edge1" class="edge">
<title>Node1&#45;&gt;Node2</title>
<path fill="none" stroke="#63b8ff" d="M375.73,-54.33C357.71,-59.03 338.51,-64.04 321.12,-68.58"/>
<polygon fill="#63b8ff" stroke="#63b8ff" points="376.51,-57.74 385.3,-51.83 374.74,-50.97 376.51,-57.74"/>
</g>
<!-- Node4 -->
<g id="node4" class="node">
<title>Node4</title>
<g id="a_node4"><a xlink:href="class_veery_1_1_u_i_1_1_file_explorer_controller.html#a7c0c10a8756873b5c556326c39ac64a6" target="_top" xlink:title="Open the parent folder.">
<polygon fill="white" stroke="#666666" points="336,-51 186,-51 186,-21 336,-21 336,-51"/>
<text text-anchor="start" x="194" y="-39" font-family="Helvetica,sans-Serif" font-size="10.00">Veery.UI.FileExplorerController.</text>
<text text-anchor="middle" x="261" y="-28" font-family="Helvetica,sans-Serif" font-size="10.00">OpenParent</text>
</a>
</g>
</g>
<!-- Node1&#45;&gt;Node4 -->
<g id="edge3" class="edge">
<title>Node1&#45;&gt;Node4</title>
<path fill="none" stroke="#63b8ff" d="M360.38,-36C352.33,-36 344.22,-36 336.29,-36"/>
<polygon fill="#63b8ff" stroke="#63b8ff" points="360.18,-39.5 370.18,-36 360.18,-32.5 360.18,-39.5"/>
</g>
<!-- Node5 -->
<g id="node5" class="node">
<title>Node5</title>
<g id="a_node5"><a xlink:href="class_veery_1_1_u_i_1_1_file_explorer_controller.html#a98910455bfbf3c3b7e9453ac6b50cc0a" target="_top" xlink:title=" ">
<polygon fill="white" stroke="#666666" points="150,-30 0,-30 0,0 150,0 150,-30"/>
<text text-anchor="start" x="8" y="-18" font-family="Helvetica,sans-Serif" font-size="10.00">Veery.UI.FileExplorerController.</text>
<text text-anchor="middle" x="75" y="-7" font-family="Helvetica,sans-Serif" font-size="10.00">Start</text>
</a>
</g>
</g>
<!-- Node1&#45;&gt;Node5 -->
<g id="edge5" class="edge">
<title>Node1&#45;&gt;Node5</title>
<path fill="none" stroke="#63b8ff" d="M374.98,-18.17C362.09,-15.6 348.7,-13.37 336,-12 273.73,-5.29 202.58,-6.73 150.47,-9.46"/>
<polygon fill="#63b8ff" stroke="#63b8ff" points="374.17,-21.58 384.67,-20.19 375.6,-14.73 374.17,-21.58"/>
</g>
<!-- Node3 -->
<g id="node3" class="node">
<title>Node3</title>
<g id="a_node3"><a xlink:href="class_veery_1_1_u_i_1_1_file_explorer_element_controller.html#ac2124d37d6f857c38af761d8912cfec5" target="_top" xlink:title="Called when the user clicks on the element. If the element is a folder, it will open the it (using Fi...">
<polygon fill="white" stroke="#666666" points="146,-99 4,-99 4,-69 146,-69 146,-99"/>
<text text-anchor="start" x="12" y="-87" font-family="Helvetica,sans-Serif" font-size="10.00">Veery.UI.FileExplorerElement</text>
<text text-anchor="middle" x="75" y="-76" font-family="Helvetica,sans-Serif" font-size="10.00">Controller.OnClick</text>
</a>
</g>
</g>
<!-- Node2&#45;&gt;Node3 -->
<g id="edge2" class="edge">
<title>Node2&#45;&gt;Node3</title>
<path fill="none" stroke="#63b8ff" d="M174.35,-84C165,-84 155.55,-84 146.41,-84"/>
<polygon fill="#63b8ff" stroke="#63b8ff" points="174.18,-87.5 184.18,-84 174.18,-80.5 174.18,-87.5"/>
</g>
<!-- Node4&#45;&gt;Node5 -->
<g id="edge4" class="edge">
<title>Node4&#45;&gt;Node5</title>
<path fill="none" stroke="#63b8ff" d="M174.38,-26.23C166.33,-25.31 158.22,-24.38 150.29,-23.48"/>
<polygon fill="#63b8ff" stroke="#63b8ff" points="173.85,-29.69 184.19,-27.35 174.65,-22.74 173.85,-29.69"/>
</g>
</g>
</svg>
