<?xml version="1.0" encoding="UTF-8" standalone="no"?>
<!DOCTYPE svg PUBLIC "-//W3C//DTD SVG 1.1//EN"
 "http://www.w3.org/Graphics/SVG/1.1/DTD/svg11.dtd">
<!-- Generated by graphviz version 7.0.5 (20221223.1930)
 -->
<!-- Title: Veery.UI.HandMenuController Pages: 1 -->
<svg width="429pt" height="126pt"
 viewBox="0.00 0.00 429.00 126.00" xmlns="http://www.w3.org/2000/svg" xmlns:xlink="http://www.w3.org/1999/xlink">
<g id="graph0" class="graph" transform="scale(1 1) rotate(0) translate(4 122)">
<title>Veery.UI.HandMenuController</title>
<!-- Node1 -->
<g id="node1" class="node">
<title>Node1</title>
<g id="a_node1"><a xlink:title="Controls the positioning and parenting of a menu based on the active Controller and Handedness.">
<polygon fill="#999999" stroke="#666666" points="247.5,-19 102.5,-19 102.5,0 247.5,0 247.5,-19"/>
<text text-anchor="middle" x="175" y="-7" font-family="Helvetica,sans-Serif" font-size="10.00">Veery.UI.HandMenuController</text>
</a>
</g>
</g>
<!-- Node2 -->
<g id="node2" class="node">
<title>Node2</title>
<g id="a_node2"><a xlink:title=" ">
<polygon fill="white" stroke="#666666" points="84,-118 0,-118 0,-99 84,-99 84,-118"/>
<text text-anchor="middle" x="42" y="-106" font-family="Helvetica,sans-Serif" font-size="10.00">MonoBehaviour</text>
</a>
</g>
</g>
<!-- Node2&#45;&gt;Node1 -->
<g id="edge1" class="edge">
<title>Node2&#45;&gt;Node1</title>
<path fill="none" stroke="#63b8ff" d="M57.07,-90.11C71.14,-74.67 93.31,-52.24 116,-37 126.53,-29.92 139.26,-23.93 150.2,-19.44"/>
<polygon fill="#63b8ff" stroke="#63b8ff" points="54.47,-87.77 50.43,-97.57 59.7,-92.42 54.47,-87.77"/>
</g>
<!-- Node3 -->
<g id="node3" class="node">
<title>Node3</title>
<g id="a_node3"><a xlink:title=" ">
<polygon fill="white" stroke="#666666" points="152,-118 102,-118 102,-99 152,-99 152,-118"/>
<text text-anchor="middle" x="127" y="-106" font-family="Helvetica,sans-Serif" font-size="10.00">Vector3</text>
</a>
</g>
</g>
<!-- Node3&#45;&gt;Node1 -->
<g id="edge2" class="edge">
<title>Node3&#45;&gt;Node1</title>
<path fill="none" stroke="#9a32cd" stroke-dasharray="5,2" d="M122.23,-87.45C119.81,-72.5 119.02,-52.13 128,-37 132.69,-29.11 140.67,-23.37 148.75,-19.3"/>
<polygon fill="#9a32cd" stroke="#9a32cd" points="118.75,-87.91 124.16,-97.02 125.61,-86.52 118.75,-87.91"/>
<text text-anchor="middle" x="165" y="-67.5" font-family="Helvetica,sans-Serif" font-size="10.00"> _controllerOffset</text>
<text text-anchor="middle" x="165" y="-56.5" font-family="Helvetica,sans-Serif" font-size="10.00">_handOffset</text>
<text text-anchor="middle" x="165" y="-45.5" font-family="Helvetica,sans-Serif" font-size="10.00">_scale</text>
</g>
<!-- Node4 -->
<g id="node4" class="node">
<title>Node4</title>
<g id="a_node4"><a xlink:title=" ">
<polygon fill="white" stroke="#666666" points="254.5,-118 193.5,-118 193.5,-99 254.5,-99 254.5,-118"/>
<text text-anchor="middle" x="224" y="-106" font-family="Helvetica,sans-Serif" font-size="10.00">Transform</text>
</a>
</g>
</g>
<!-- Node4&#45;&gt;Node1 -->
<g id="edge3" class="edge">
<title>Node4&#45;&gt;Node1</title>
<path fill="none" stroke="#9a32cd" stroke-dasharray="5,2" d="M220.56,-87.79C217.37,-73.02 211.61,-52.73 202,-37 197.89,-30.27 191.7,-24.03 186.28,-19.3"/>
<polygon fill="#9a32cd" stroke="#9a32cd" points="217.05,-88.05 222.39,-97.2 223.92,-86.71 217.05,-88.05"/>
<text text-anchor="middle" x="252" y="-73" font-family="Helvetica,sans-Serif" font-size="10.00"> _controllerLeft</text>
<text text-anchor="middle" x="252" y="-62" font-family="Helvetica,sans-Serif" font-size="10.00">_controllerRight</text>
<text text-anchor="middle" x="252" y="-51" font-family="Helvetica,sans-Serif" font-size="10.00">_handLeft</text>
<text text-anchor="middle" x="252" y="-40" font-family="Helvetica,sans-Serif" font-size="10.00">_handRight</text>
</g>
<!-- Node5 -->
<g id="node5" class="node">
<title>Node5</title>
<g id="a_node5"><a xlink:title=" ">
<polygon fill="white" stroke="#666666" points="347,-118 283,-118 283,-99 347,-99 347,-118"/>
<text text-anchor="middle" x="315" y="-106" font-family="Helvetica,sans-Serif" font-size="10.00">Quaternion</text>
</a>
</g>
</g>
<!-- Node5&#45;&gt;Node1 -->
<g id="edge4" class="edge">
<title>Node5&#45;&gt;Node1</title>
<path fill="none" stroke="#9a32cd" stroke-dasharray="5,2" d="M313.08,-87.39C310.49,-71.46 304.38,-49.82 290,-37 278.23,-26.5 263.13,-19.92 247.78,-15.85"/>
<polygon fill="#9a32cd" stroke="#9a32cd" points="309.59,-87.67 314.31,-97.16 316.54,-86.8 309.59,-87.67"/>
<text text-anchor="middle" x="366" y="-62" font-family="Helvetica,sans-Serif" font-size="10.00"> _controllerOffsetRotation</text>
<text text-anchor="middle" x="366" y="-51" font-family="Helvetica,sans-Serif" font-size="10.00">_handOffsetRotation</text>
</g>
</g>
</svg>
