<?xml version="1.0" encoding="UTF-8" standalone="no"?>
<!DOCTYPE svg PUBLIC "-//W3C//DTD SVG 1.1//EN"
 "http://www.w3.org/Graphics/SVG/1.1/DTD/svg11.dtd">
<!-- Generated by graphviz version 7.0.5 (20221223.1930)
 -->
<!-- Title: Veery.Import.Model3D Pages: 1 -->
<svg width="872pt" height="464pt"
 viewBox="0.00 0.00 872.00 464.00" xmlns="http://www.w3.org/2000/svg" xmlns:xlink="http://www.w3.org/1999/xlink">
<g id="graph0" class="graph" transform="scale(1 1) rotate(0) translate(4 460)">
<title>Veery.Import.Model3D</title>
<!-- Node1 -->
<g id="node1" class="node">
<title>Node1</title>
<g id="a_node1"><a xlink:title="Represents a 3D model that can be imported into the scene.">
<polygon fill="#999999" stroke="#666666" points="864,-146 752,-146 752,-127 864,-127 864,-146"/>
<text text-anchor="middle" x="808" y="-134" font-family="Helvetica,sans-Serif" font-size="10.00">Veery.Import.Model3D</text>
</a>
</g>
</g>
<!-- Node2 -->
<g id="node2" class="node">
<title>Node2</title>
<g id="a_node2"><a xlink:href="class_veery_1_1_import_1_1_import_object.html" target="_top" xlink:title="Represents an object that can be imported into the scene.">
<polygon fill="white" stroke="#666666" points="592,-146 519,-146 519,-127 592,-127 592,-146"/>
<text text-anchor="middle" x="555.5" y="-134" font-family="Helvetica,sans-Serif" font-size="10.00">ImportObject</text>
</a>
</g>
</g>
<!-- Node2&#45;&gt;Node1 -->
<g id="edge1" class="edge">
<title>Node2&#45;&gt;Node1</title>
<path fill="none" stroke="#63b8ff" d="M603.71,-136.5C645.8,-136.5 707.43,-136.5 751.78,-136.5"/>
<polygon fill="#63b8ff" stroke="#63b8ff" points="603.9,-133 593.9,-136.5 603.9,-140 603.9,-133"/>
</g>
<!-- Node3 -->
<g id="node3" class="node">
<title>Node3</title>
<g id="a_node3"><a xlink:title=" ">
<polygon fill="white" stroke="#666666" points="345,-265 261,-265 261,-246 345,-246 345,-265"/>
<text text-anchor="middle" x="303" y="-253" font-family="Helvetica,sans-Serif" font-size="10.00">MonoBehaviour</text>
</a>
</g>
</g>
<!-- Node3&#45;&gt;Node2 -->
<g id="edge2" class="edge">
<title>Node3&#45;&gt;Node2</title>
<path fill="none" stroke="#63b8ff" d="M356.48,-249.61C389.39,-244.33 431.9,-234.5 466,-216.5 500.62,-198.23 532.36,-163.33 546.6,-146.32"/>
<polygon fill="#63b8ff" stroke="#63b8ff" points="356.13,-246.13 346.76,-251.07 357.17,-253.05 356.13,-246.13"/>
</g>
<!-- Node16 -->
<g id="node16" class="node">
<title>Node16</title>
<g id="a_node16"><a xlink:href="class_veery_1_1_interaction_1_1_interactable_outline.html" target="_top" xlink:title="This class provides an outline effect for an interactable object. It listens to the state changes of ...">
<polygon fill="white" stroke="#666666" points="627,-320.5 484,-320.5 484,-290.5 627,-290.5 627,-320.5"/>
<text text-anchor="start" x="492" y="-308.5" font-family="Helvetica,sans-Serif" font-size="10.00">Veery.Interaction.Interactable</text>
<text text-anchor="middle" x="555.5" y="-297.5" font-family="Helvetica,sans-Serif" font-size="10.00">Outline</text>
</a>
</g>
</g>
<!-- Node3&#45;&gt;Node16 -->
<g id="edge16" class="edge">
<title>Node3&#45;&gt;Node16</title>
<path fill="none" stroke="#63b8ff" d="M356.82,-256.08C388.8,-257.41 430.19,-260.88 466,-269.5 485.67,-274.24 506.7,-282.63 523.31,-290.13"/>
<polygon fill="#63b8ff" stroke="#63b8ff" points="357.12,-252.59 347.01,-255.73 356.88,-259.58 357.12,-252.59"/>
</g>
<!-- Node3&#45;&gt;Node16 -->
<g id="edge17" class="edge">
<title>Node3&#45;&gt;Node16</title>
<path fill="none" stroke="#9a32cd" stroke-dasharray="5,2" d="M356.38,-265.96C393.3,-273.33 443.18,-283.28 483.65,-291.36"/>
<polygon fill="#9a32cd" stroke="#9a32cd" points="357.34,-262.58 346.85,-264.05 355.97,-269.44 357.34,-262.58"/>
<text text-anchor="middle" x="426" y="-288.5" font-family="Helvetica,sans-Serif" font-size="10.00"> _interactableView</text>
</g>
<!-- Node4 -->
<g id="node4" class="node">
<title>Node4</title>
<g id="a_node4"><a xlink:href="interface_veery_1_1_import_1_1_properties_1_1_i_enableable.html" target="_top" xlink:title="Interface for objects that can be enabled or disabled.">
<polygon fill="white" stroke="#666666" points="336.5,-32 269.5,-32 269.5,-13 336.5,-13 336.5,-32"/>
<text text-anchor="middle" x="303" y="-20" font-family="Helvetica,sans-Serif" font-size="10.00">IEnableable</text>
</a>
</g>
</g>
<!-- Node4&#45;&gt;Node2 -->
<g id="edge3" class="edge">
<title>Node4&#45;&gt;Node2</title>
<path fill="none" stroke="#63b8ff" d="M348.03,-23.25C384.04,-26.17 434.06,-35.84 466,-65.5 483.92,-82.14 466.11,-100.82 484,-117.5 493.36,-126.23 506.31,-131.03 518.56,-133.64"/>
<polygon fill="#63b8ff" stroke="#63b8ff" points="348.58,-19.77 338.38,-22.62 348.13,-26.76 348.58,-19.77"/>
</g>
<!-- Node5 -->
<g id="node5" class="node">
<title>Node5</title>
<g id="a_node5"><a xlink:title=" ">
<polygon fill="white" stroke="#666666" points="355,-155 251,-155 251,-136 355,-136 355,-155"/>
<text text-anchor="middle" x="303" y="-143" font-family="Helvetica,sans-Serif" font-size="10.00">List&lt; GameObject &gt;</text>
</a>
</g>
</g>
<!-- Node5&#45;&gt;Node2 -->
<g id="edge4" class="edge">
<title>Node5&#45;&gt;Node2</title>
<path fill="none" stroke="#9a32cd" stroke-dasharray="5,2" d="M366.26,-138.83C372.92,-138.29 379.59,-137.83 386,-137.5 431.72,-135.14 484.51,-135.29 518.64,-135.77"/>
<polygon fill="#9a32cd" stroke="#9a32cd" points="366.29,-135.31 356.63,-139.66 366.9,-142.28 366.29,-135.31"/>
<text text-anchor="middle" x="426" y="-140.5" font-family="Helvetica,sans-Serif" font-size="10.00"> _deferredGOs</text>
</g>
<!-- Node6 -->
<g id="node6" class="node">
<title>Node6</title>
<g id="a_node6"><a xlink:href="class_veery_1_1_interaction_1_1_distance_select_interactable.html" target="_top" xlink:title="Allows the user to select and interact with this object from a distance using the DistanceSelectInter...">
<polygon fill="white" stroke="#666666" points="368,-117.5 238,-117.5 238,-87.5 368,-87.5 368,-117.5"/>
<text text-anchor="start" x="246" y="-105.5" font-family="Helvetica,sans-Serif" font-size="10.00">Veery.Interaction.Distance</text>
<text text-anchor="middle" x="303" y="-94.5" font-family="Helvetica,sans-Serif" font-size="10.00">SelectInteractable</text>
</a>
</g>
</g>
<!-- Node6&#45;&gt;Node2 -->
<g id="edge5" class="edge">
<title>Node6&#45;&gt;Node2</title>
<path fill="none" stroke="#9a32cd" stroke-dasharray="5,2" d="M379.77,-110.58C407,-113.69 437.92,-117.48 466,-121.5 483.43,-124 502.72,-127.21 518.82,-130.03"/>
<polygon fill="#9a32cd" stroke="#9a32cd" points="380.18,-107.1 369.85,-109.45 379.4,-114.06 380.18,-107.1"/>
<text text-anchor="middle" x="426" y="-124.5" font-family="Helvetica,sans-Serif" font-size="10.00"> interactable</text>
</g>
<!-- Node7 -->
<g id="node7" class="node">
<title>Node7</title>
<g id="a_node7"><a xlink:href="class_pointer_interactable.html" target="_top" xlink:title=" ">
<polygon fill="white" stroke="#666666" points="144,-226 0,-226 0,-185 144,-185 144,-226"/>
<text text-anchor="start" x="8" y="-214" font-family="Helvetica,sans-Serif" font-size="10.00">PointerInteractable</text>
<text text-anchor="start" x="8" y="-203" font-family="Helvetica,sans-Serif" font-size="10.00">&lt; DistanceSelectInteractor,</text>
<text text-anchor="middle" x="72" y="-192" font-family="Helvetica,sans-Serif" font-size="10.00"> DistanceSelectInteractable &gt;</text>
</a>
</g>
</g>
<!-- Node7&#45;&gt;Node6 -->
<g id="edge6" class="edge">
<title>Node7&#45;&gt;Node6</title>
<path fill="none" stroke="#63b8ff" d="M154.16,-180.55C176.56,-171.68 200.15,-160.37 220,-146.5 229.8,-139.65 228.12,-133.24 238,-126.5 242.71,-123.29 247.9,-120.44 253.23,-117.93"/>
<polygon fill="#63b8ff" stroke="#63b8ff" points="153.13,-177.19 145.04,-184.04 155.63,-183.73 153.13,-177.19"/>
</g>
<!-- Node8 -->
<g id="node8" class="node">
<title>Node8</title>
<g id="a_node8"><a xlink:href="class_i_rigidbody_ref.html" target="_top" xlink:title=" ">
<polygon fill="white" stroke="#666666" points="110.5,-167 33.5,-167 33.5,-148 110.5,-148 110.5,-167"/>
<text text-anchor="middle" x="72" y="-155" font-family="Helvetica,sans-Serif" font-size="10.00">IRigidbodyRef</text>
</a>
</g>
</g>
<!-- Node8&#45;&gt;Node6 -->
<g id="edge7" class="edge">
<title>Node8&#45;&gt;Node6</title>
<path fill="none" stroke="#63b8ff" d="M121.87,-147.62C150.55,-141.63 187.44,-133.6 220,-125.5 229.33,-123.18 239.2,-120.55 248.75,-117.93"/>
<polygon fill="#63b8ff" stroke="#63b8ff" points="121.47,-144.13 112.39,-149.58 122.89,-150.98 121.47,-144.13"/>
</g>
<!-- Node9 -->
<g id="node9" class="node">
<title>Node9</title>
<g id="a_node9"><a xlink:href="class_i_relative_to_ref.html" target="_top" xlink:title=" ">
<polygon fill="white" stroke="#666666" points="112.5,-130 31.5,-130 31.5,-111 112.5,-111 112.5,-130"/>
<text text-anchor="middle" x="72" y="-118" font-family="Helvetica,sans-Serif" font-size="10.00">IRelativeToRef</text>
</a>
</g>
</g>
<!-- Node9&#45;&gt;Node6 -->
<g id="edge8" class="edge">
<title>Node9&#45;&gt;Node6</title>
<path fill="none" stroke="#63b8ff" d="M124.3,-116.47C157.89,-113.83 202.04,-110.36 237.93,-107.54"/>
<polygon fill="#63b8ff" stroke="#63b8ff" points="124.09,-112.97 114.4,-117.25 124.64,-119.95 124.09,-112.97"/>
</g>
<!-- Node10 -->
<g id="node10" class="node">
<title>Node10</title>
<g id="a_node10"><a xlink:href="class_i_colliders_ref.html" target="_top" xlink:title=" ">
<polygon fill="white" stroke="#666666" points="108,-93 36,-93 36,-74 108,-74 108,-93"/>
<text text-anchor="middle" x="72" y="-81" font-family="Helvetica,sans-Serif" font-size="10.00">ICollidersRef</text>
</a>
</g>
</g>
<!-- Node10&#45;&gt;Node6 -->
<g id="edge9" class="edge">
<title>Node10&#45;&gt;Node6</title>
<path fill="none" stroke="#63b8ff" d="M119.74,-87.38C153.72,-90.2 200.14,-94.05 237.62,-97.16"/>
<polygon fill="#63b8ff" stroke="#63b8ff" points="120.04,-83.89 109.79,-86.55 119.46,-90.87 120.04,-83.89"/>
</g>
<!-- Node11 -->
<g id="node11" class="node">
<title>Node11</title>
<g id="a_node11"><a xlink:title=" ">
<polygon fill="white" stroke="#666666" points="101.5,-56 42.5,-56 42.5,-37 101.5,-37 101.5,-56"/>
<text text-anchor="middle" x="72" y="-44" font-family="Helvetica,sans-Serif" font-size="10.00">Rigidbody</text>
</a>
</g>
</g>
<!-- Node11&#45;&gt;Node6 -->
<g id="edge10" class="edge">
<title>Node11&#45;&gt;Node6</title>
<path fill="none" stroke="#9a32cd" stroke-dasharray="5,2" d="M113.11,-53.5C142.81,-58.97 184.17,-67.19 220,-76.5 231.85,-79.58 244.53,-83.35 256.28,-87.06"/>
<polygon fill="#9a32cd" stroke="#9a32cd" points="113.89,-50.09 103.43,-51.74 112.64,-56.97 113.89,-50.09"/>
<text text-anchor="middle" x="191" y="-79.5" font-family="Helvetica,sans-Serif" font-size="10.00"> _rigidbody</text>
</g>
<!-- Node12 -->
<g id="node12" class="node">
<title>Node12</title>
<g id="a_node12"><a xlink:title=" ">
<polygon fill="white" stroke="#666666" points="102.5,-19 41.5,-19 41.5,0 102.5,0 102.5,-19"/>
<text text-anchor="middle" x="72" y="-7" font-family="Helvetica,sans-Serif" font-size="10.00">Transform</text>
</a>
</g>
</g>
<!-- Node12&#45;&gt;Node6 -->
<g id="edge11" class="edge">
<title>Node12&#45;&gt;Node6</title>
<path fill="none" stroke="#9a32cd" stroke-dasharray="5,2" d="M113.62,-19.64C123.57,-22.17 134.18,-24.9 144,-27.5 177.88,-36.47 191.94,-27.5 220,-48.5 232.15,-57.59 226.34,-67.8 238,-77.5 242.4,-81.16 247.4,-84.33 252.62,-87.06"/>
<polygon fill="#9a32cd" stroke="#9a32cd" points="114.77,-16.32 104.21,-17.26 113.05,-23.11 114.77,-16.32"/>
<text text-anchor="middle" x="191" y="-51.5" font-family="Helvetica,sans-Serif" font-size="10.00"> _grabSource</text>
</g>
<!-- Node13 -->
<g id="node13" class="node">
<title>Node13</title>
<g id="a_node13"><a xlink:title=" ">
<polygon fill="white" stroke="#666666" points="338.5,-69 267.5,-69 267.5,-50 338.5,-50 338.5,-69"/>
<text text-anchor="middle" x="303" y="-57" font-family="Helvetica,sans-Serif" font-size="10.00">GameObject</text>
</a>
</g>
</g>
<!-- Node13&#45;&gt;Node2 -->
<g id="edge12" class="edge">
<title>Node13&#45;&gt;Node2</title>
<path fill="none" stroke="#9a32cd" stroke-dasharray="5,2" d="M349.97,-62.27C384.08,-66.09 430.61,-75.13 466,-96.5 476.52,-102.86 473.6,-110.94 484,-117.5 494.4,-124.06 507.04,-128.38 518.73,-131.21"/>
<polygon fill="#9a32cd" stroke="#9a32cd" points="350.72,-58.83 340.42,-61.32 350.02,-65.79 350.72,-58.83"/>
<text text-anchor="middle" x="426" y="-99.5" font-family="Helvetica,sans-Serif" font-size="10.00"> head</text>
</g>
<!-- Node14 -->
<g id="node14" class="node">
<title>Node14</title>
<g id="a_node14"><a xlink:title=" ">
<polygon fill="white" stroke="#666666" points="320.5,-203 285.5,-203 285.5,-184 320.5,-184 320.5,-203"/>
<text text-anchor="middle" x="303" y="-191" font-family="Helvetica,sans-Serif" font-size="10.00">bool</text>
</a>
</g>
</g>
<!-- Node14&#45;&gt;Node2 -->
<g id="edge13" class="edge">
<title>Node14&#45;&gt;Node2</title>
<path fill="none" stroke="#9a32cd" stroke-dasharray="5,2" d="M331.55,-185.68C347.42,-181.29 367.77,-175.84 386,-171.5 431.49,-160.68 484.33,-150.01 518.54,-143.35"/>
<polygon fill="#9a32cd" stroke="#9a32cd" points="331.04,-182.2 322.35,-188.26 332.92,-188.94 331.04,-182.2"/>
<text text-anchor="middle" x="426" y="-174.5" font-family="Helvetica,sans-Serif" font-size="10.00"> selected</text>
</g>
<!-- Node14&#45;&gt;Node16 -->
<g id="edge22" class="edge">
<title>Node14&#45;&gt;Node16</title>
<path fill="none" stroke="#9a32cd" stroke-dasharray="5,2" d="M331.84,-199.02C364.95,-206.24 421.36,-220.6 466,-242.5 492.41,-255.46 519.5,-276.02 536.63,-290.1"/>
<polygon fill="#9a32cd" stroke="#9a32cd" points="332.75,-195.64 322.24,-197 331.3,-202.49 332.75,-195.64"/>
<text text-anchor="middle" x="426" y="-245.5" font-family="Helvetica,sans-Serif" font-size="10.00"> _started</text>
</g>
<!-- Node15 -->
<g id="node15" class="node">
<title>Node15</title>
<g id="a_node15"><a xlink:title=" ">
<polygon fill="white" stroke="#666666" points="601,-109 510,-109 510,-90 601,-90 601,-109"/>
<text text-anchor="middle" x="555.5" y="-97" font-family="Helvetica,sans-Serif" font-size="10.00">GltfBoundsAsset</text>
</a>
</g>
</g>
<!-- Node15&#45;&gt;Node1 -->
<g id="edge14" class="edge">
<title>Node15&#45;&gt;Node1</title>
<path fill="none" stroke="#9a32cd" stroke-dasharray="5,2" d="M612.57,-105.3C647.58,-109.2 693.53,-114.85 734,-121.5 742.81,-122.95 752.17,-124.71 761.15,-126.5"/>
<polygon fill="#9a32cd" stroke="#9a32cd" points="612.96,-101.82 602.64,-104.21 612.2,-108.78 612.96,-101.82"/>
<text text-anchor="middle" x="689.5" y="-124.5" font-family="Helvetica,sans-Serif" font-size="10.00"> _gltfBoundsAsset</text>
</g>
<!-- Node16&#45;&gt;Node1 -->
<g id="edge15" class="edge">
<title>Node16&#45;&gt;Node1</title>
<path fill="none" stroke="#9a32cd" stroke-dasharray="5,2" d="M588.42,-283.97C643.2,-247.01 753.03,-172.91 792.48,-146.3"/>
<polygon fill="#9a32cd" stroke="#9a32cd" points="586.76,-280.86 580.43,-289.36 590.67,-286.67 586.76,-280.86"/>
<text text-anchor="middle" x="689.5" y="-243.5" font-family="Helvetica,sans-Serif" font-size="10.00"> _interactableOutline</text>
</g>
<!-- Node17 -->
<g id="node17" class="node">
<title>Node17</title>
<g id="a_node17"><a xlink:title=" ">
<polygon fill="white" stroke="#666666" points="326.5,-456 279.5,-456 279.5,-437 326.5,-437 326.5,-456"/>
<text text-anchor="middle" x="303" y="-444" font-family="Helvetica,sans-Serif" font-size="10.00">Outline</text>
</a>
</g>
</g>
<!-- Node17&#45;&gt;Node16 -->
<g id="edge18" class="edge">
<title>Node17&#45;&gt;Node16</title>
<path fill="none" stroke="#9a32cd" stroke-dasharray="5,2" d="M338.35,-447.53C372.94,-447.05 426.66,-442.01 466,-418.5 505.78,-394.72 534.47,-345.84 547.19,-320.89"/>
<polygon fill="#9a32cd" stroke="#9a32cd" points="338.48,-444.03 328.49,-447.53 338.49,-451.03 338.48,-444.03"/>
<text text-anchor="middle" x="426" y="-446.5" font-family="Helvetica,sans-Serif" font-size="10.00"> _outline</text>
</g>
<!-- Node18 -->
<g id="node18" class="node">
<title>Node18</title>
<g id="a_node18"><a xlink:title=" ">
<polygon fill="white" stroke="#666666" points="322.5,-411 283.5,-411 283.5,-392 322.5,-392 322.5,-411"/>
<text text-anchor="middle" x="303" y="-399" font-family="Helvetica,sans-Serif" font-size="10.00">Color</text>
</a>
</g>
</g>
<!-- Node18&#45;&gt;Node16 -->
<g id="edge19" class="edge">
<title>Node18&#45;&gt;Node16</title>
<path fill="none" stroke="#9a32cd" stroke-dasharray="5,2" d="M334.04,-399.73C367.48,-396.87 422.52,-389.46 466,-370.5 493.96,-358.31 521.54,-335.96 538.29,-320.92"/>
<polygon fill="#9a32cd" stroke="#9a32cd" points="333.98,-396.22 324.27,-400.47 334.51,-403.2 333.98,-396.22"/>
<text text-anchor="middle" x="426" y="-406.5" font-family="Helvetica,sans-Serif" font-size="10.00"> _hoverColor</text>
<text text-anchor="middle" x="426" y="-395.5" font-family="Helvetica,sans-Serif" font-size="10.00">_selectColor</text>
</g>
<!-- Node19 -->
<g id="node19" class="node">
<title>Node19</title>
<g id="a_node19"><a xlink:title=" ">
<polygon fill="white" stroke="#666666" points="320.5,-367 285.5,-367 285.5,-348 320.5,-348 320.5,-367"/>
<text text-anchor="middle" x="303" y="-355" font-family="Helvetica,sans-Serif" font-size="10.00">float</text>
</a>
</g>
</g>
<!-- Node19&#45;&gt;Node16 -->
<g id="edge20" class="edge">
<title>Node19&#45;&gt;Node16</title>
<path fill="none" stroke="#9a32cd" stroke-dasharray="5,2" d="M331.91,-353.49C364.32,-348.64 419.3,-339.84 466,-329.5 477.35,-326.99 489.42,-323.96 500.88,-320.91"/>
<polygon fill="#9a32cd" stroke="#9a32cd" points="331.54,-350.01 322.16,-354.93 332.56,-356.93 331.54,-350.01"/>
<text text-anchor="middle" x="426" y="-358.5" font-family="Helvetica,sans-Serif" font-size="10.00"> _hoverSize</text>
<text text-anchor="middle" x="426" y="-347.5" font-family="Helvetica,sans-Serif" font-size="10.00">_selectSize</text>
</g>
<!-- Node20 -->
<g id="node20" class="node">
<title>Node20</title>
<g id="a_node20"><a xlink:title=" ">
<polygon fill="white" stroke="#666666" points="349,-330 257,-330 257,-311 349,-311 349,-330"/>
<text text-anchor="middle" x="303" y="-318" font-family="Helvetica,sans-Serif" font-size="10.00">IInteractableView</text>
</a>
</g>
</g>
<!-- Node20&#45;&gt;Node16 -->
<g id="edge21" class="edge">
<title>Node20&#45;&gt;Node16</title>
<path fill="none" stroke="#9a32cd" stroke-dasharray="5,2" d="M360.79,-317.1C397.29,-314.91 444.98,-312.06 483.91,-309.73"/>
<polygon fill="#9a32cd" stroke="#9a32cd" points="360.65,-313.6 350.87,-317.69 361.07,-320.59 360.65,-313.6"/>
<text text-anchor="middle" x="426" y="-317.5" font-family="Helvetica,sans-Serif" font-size="10.00"> InteractableView</text>
</g>
</g>
</svg>
