<?xml version="1.0" encoding="UTF-8" standalone="no"?>
<!DOCTYPE svg PUBLIC "-//W3C//DTD SVG 1.1//EN"
 "http://www.w3.org/Graphics/SVG/1.1/DTD/svg11.dtd">
<!-- Generated by graphviz version 7.0.5 (20221223.1930)
 -->
<!-- Title: Veery.UI.Selection.Method Pages: 1 -->
<svg width="376pt" height="160pt"
 viewBox="0.00 0.00 375.50 160.00" xmlns="http://www.w3.org/2000/svg" xmlns:xlink="http://www.w3.org/1999/xlink">
<g id="graph0" class="graph" transform="scale(1 1) rotate(0) translate(4 156)">
<title>Veery.UI.Selection.Method</title>
<!-- Node1 -->
<g id="node1" class="node">
<title>Node1</title>
<g id="a_node1"><a xlink:title=" ">
<polygon fill="#999999" stroke="#666666" points="244,-19 113,-19 113,0 244,0 244,-19"/>
<text text-anchor="middle" x="178.5" y="-7" font-family="Helvetica,sans-Serif" font-size="10.00">Veery.UI.Selection.Method</text>
</a>
</g>
</g>
<!-- Node2 -->
<g id="node2" class="node">
<title>Node2</title>
<g id="a_node2"><a xlink:href="class_veery_1_1_u_i_1_1_selection_1_1_selection_property.html" target="_top" xlink:title=" ">
<polygon fill="white" stroke="#666666" points="93,-96 0,-96 0,-77 93,-77 93,-96"/>
<text text-anchor="middle" x="46.5" y="-84" font-family="Helvetica,sans-Serif" font-size="10.00">SelectionProperty</text>
</a>
</g>
</g>
<!-- Node2&#45;&gt;Node1 -->
<g id="edge1" class="edge">
<title>Node2&#45;&gt;Node1</title>
<path fill="none" stroke="#63b8ff" d="M71.31,-70.71C87.74,-60.99 109.81,-48.07 129.5,-37 140.12,-31.03 152.16,-24.51 161.64,-19.44"/>
<polygon fill="#63b8ff" stroke="#63b8ff" points="69.52,-67.7 62.71,-75.82 73.1,-73.72 69.52,-67.7"/>
</g>
<!-- Node3 -->
<g id="node3" class="node">
<title>Node3</title>
<g id="a_node3"><a xlink:title=" ">
<polygon fill="white" stroke="#666666" points="88.5,-152 4.5,-152 4.5,-133 88.5,-133 88.5,-152"/>
<text text-anchor="middle" x="46.5" y="-140" font-family="Helvetica,sans-Serif" font-size="10.00">MonoBehaviour</text>
</a>
</g>
</g>
<!-- Node3&#45;&gt;Node2 -->
<g id="edge2" class="edge">
<title>Node3&#45;&gt;Node2</title>
<path fill="none" stroke="#63b8ff" d="M46.5,-121.11C46.5,-112.52 46.5,-102.97 46.5,-96.25"/>
<polygon fill="#63b8ff" stroke="#63b8ff" points="43,-121.07 46.5,-131.07 50,-121.07 43,-121.07"/>
</g>
<!-- Node4 -->
<g id="node4" class="node">
<title>Node4</title>
<g id="a_node4"><a xlink:title=" ">
<polygon fill="white" stroke="#666666" points="156,-96 111,-96 111,-77 156,-77 156,-96"/>
<text text-anchor="middle" x="133.5" y="-84" font-family="Helvetica,sans-Serif" font-size="10.00">Button</text>
</a>
</g>
</g>
<!-- Node4&#45;&gt;Node1 -->
<g id="edge3" class="edge">
<title>Node4&#45;&gt;Node1</title>
<path fill="none" stroke="#9a32cd" stroke-dasharray="5,2" d="M132.32,-65.27C132.67,-56.05 134.39,-45.36 139.5,-37 144.11,-29.46 151.77,-23.56 159.09,-19.27"/>
<polygon fill="#9a32cd" stroke="#9a32cd" points="128.82,-65.1 132.48,-75.05 135.82,-64.99 128.82,-65.1"/>
<text text-anchor="middle" x="171" y="-45.5" font-family="Helvetica,sans-Serif" font-size="10.00"> _selectButton</text>
</g>
<!-- Node5 -->
<g id="node5" class="node">
<title>Node5</title>
<g id="a_node5"><a xlink:title=" ">
<polygon fill="white" stroke="#666666" points="274.5,-96 174.5,-96 174.5,-77 274.5,-77 274.5,-96"/>
<text text-anchor="middle" x="224.5" y="-84" font-family="Helvetica,sans-Serif" font-size="10.00">TextMeshProUGUI</text>
</a>
</g>
</g>
<!-- Node5&#45;&gt;Node1 -->
<g id="edge4" class="edge">
<title>Node5&#45;&gt;Node1</title>
<path fill="none" stroke="#9a32cd" stroke-dasharray="5,2" d="M217.45,-66.39C213.64,-57.16 208.49,-46.13 202.5,-37 198.28,-30.57 192.51,-24.15 187.69,-19.24"/>
<polygon fill="#9a32cd" stroke="#9a32cd" points="214.08,-67.39 220.96,-75.44 220.6,-64.85 214.08,-67.39"/>
<text text-anchor="middle" x="225.5" y="-45.5" font-family="Helvetica,sans-Serif" font-size="10.00"> _text</text>
</g>
<!-- Node6 -->
<g id="node6" class="node">
<title>Node6</title>
<g id="a_node6"><a xlink:title=" ">
<polygon fill="white" stroke="#666666" points="364,-96 293,-96 293,-77 364,-77 364,-96"/>
<text text-anchor="middle" x="328.5" y="-84" font-family="Helvetica,sans-Serif" font-size="10.00">GameObject</text>
</a>
</g>
</g>
<!-- Node6&#45;&gt;Node1 -->
<g id="edge5" class="edge">
<title>Node6&#45;&gt;Node1</title>
<path fill="none" stroke="#9a32cd" stroke-dasharray="5,2" d="M303.87,-70.81C286.66,-60.79 263,-47.47 241.5,-37 228.49,-30.66 213.57,-24.34 201.52,-19.47"/>
<polygon fill="#9a32cd" stroke="#9a32cd" points="301.98,-73.76 312.37,-75.81 305.53,-67.73 301.98,-73.76"/>
<text text-anchor="middle" x="325" y="-51" font-family="Helvetica,sans-Serif" font-size="10.00"> _parametersPrefab</text>
<text text-anchor="middle" x="325" y="-40" font-family="Helvetica,sans-Serif" font-size="10.00">_triggerLinkPrefab</text>
</g>
</g>
</svg>
