<?xml version="1.0" encoding="UTF-8" standalone="no"?>
<!DOCTYPE svg PUBLIC "-//W3C//DTD SVG 1.1//EN"
 "http://www.w3.org/Graphics/SVG/1.1/DTD/svg11.dtd">
<!-- Generated by graphviz version 7.0.5 (20221223.1930)
 -->
<!-- Title: EVA.UI.FileExplorerElementController Pages: 1 -->
<svg width="200pt" height="104pt"
 viewBox="0.00 0.00 200.00 104.00" xmlns="http://www.w3.org/2000/svg" xmlns:xlink="http://www.w3.org/1999/xlink">
<g id="graph0" class="graph" transform="scale(1 1) rotate(0) translate(4 100)">
<title>EVA.UI.FileExplorerElementController</title>
<!-- Node1 -->
<g id="node1" class="node">
<title>Node1</title>
<g id="a_node1"><a xlink:title="The FileExplorerElementController is used to control ONE element (file / folder) of the file explorer...">
<polygon fill="#999999" stroke="#666666" points="160.5,-30 23.5,-30 23.5,0 160.5,0 160.5,-30"/>
<text text-anchor="start" x="31.5" y="-18" font-family="Helvetica,sans-Serif" font-size="10.00">EVA.UI.FileExplorerElement</text>
<text text-anchor="middle" x="92" y="-7" font-family="Helvetica,sans-Serif" font-size="10.00">Controller</text>
</a>
</g>
</g>
<!-- Node2 -->
<g id="node2" class="node">
<title>Node2</title>
<g id="a_node2"><a xlink:title=" ">
<polygon fill="white" stroke="#666666" points="84,-96 0,-96 0,-77 84,-77 84,-96"/>
<text text-anchor="middle" x="42" y="-84" font-family="Helvetica,sans-Serif" font-size="10.00">MonoBehaviour</text>
</a>
</g>
</g>
<!-- Node2&#45;&gt;Node1 -->
<g id="edge1" class="edge">
<title>Node2&#45;&gt;Node1</title>
<path fill="none" stroke="#63b8ff" d="M54.92,-67.54C63.27,-55.94 73.97,-41.06 81.73,-30.27"/>
<polygon fill="#63b8ff" stroke="#63b8ff" points="52.22,-65.31 49.22,-75.47 57.9,-69.4 52.22,-65.31"/>
</g>
<!-- Node3 -->
<g id="node3" class="node">
<title>Node3</title>
<g id="a_node3"><a xlink:title=" ">
<polygon fill="white" stroke="#666666" points="184,-96 102,-96 102,-77 184,-77 184,-96"/>
<text text-anchor="middle" x="143" y="-84" font-family="Helvetica,sans-Serif" font-size="10.00">FileSystemInfo</text>
</a>
</g>
</g>
<!-- Node3&#45;&gt;Node1 -->
<g id="edge2" class="edge">
<title>Node3&#45;&gt;Node1</title>
<path fill="none" stroke="#9a32cd" stroke-dasharray="5,2" d="M129.82,-67.54C121.31,-55.94 110.39,-41.06 102.47,-30.27"/>
<polygon fill="#9a32cd" stroke="#9a32cd" points="126.91,-69.49 135.65,-75.48 132.55,-65.34 126.91,-69.49"/>
<text text-anchor="middle" x="157" y="-51" font-family="Helvetica,sans-Serif" font-size="10.00"> _fileSystemInfo</text>
</g>
</g>
</svg>
