<?xml version="1.0" encoding="UTF-8" standalone="no"?>
<!DOCTYPE svg PUBLIC "-//W3C//DTD SVG 1.1//EN"
 "http://www.w3.org/Graphics/SVG/1.1/DTD/svg11.dtd">
<!-- Generated by graphviz version 7.0.5 (20221223.1930)
 -->
<!-- Title: EVA.Interaction.DistanceGrabInteractor Pages: 1 -->
<!--zoomable 223 -->
<svg id="main" version="1.1" xmlns="http://www.w3.org/2000/svg" xmlns:xlink="http://www.w3.org/1999/xlink" xml:space="preserve" onload="init(evt)">
<style type="text/css"><![CDATA[
.edge:hover path { stroke: red; }
.edge:hover polygon { stroke: red; fill: red; }
]]></style>
<script type="text/javascript"><![CDATA[
var edges = document.getElementsByTagName('g');
if (edges && edges.length) {
  for (var i=0;i<edges.length;i++) {
    if (edges[i].id.substr(0,4)=='edge') {
      edges[i].setAttribute('class','edge');
    }
  }
}
]]></script>
        <defs>
                <circle id="rim" cx="0" cy="0" r="7"/>
                <circle id="rim2" cx="0" cy="0" r="3.5"/>
                <g id="zoomPlus">
                        <use xlink:href="#rim" fill="#404040">
                                <set attributeName="fill" to="#808080" begin="zoomplus.mouseover" end="zoomplus.mouseout"/>
                        </use>
                        <path d="M-4,0h8M0,-4v8" fill="none" stroke="white" stroke-width="1.5" pointer-events="none"/>
                </g>
                <g id="zoomMin">
                        <use xlink:href="#rim" fill="#404040">
                                <set attributeName="fill" to="#808080" begin="zoomminus.mouseover" end="zoomminus.mouseout"/>
                        </use>
                        <path d="M-4,0h8" fill="none" stroke="white" stroke-width="1.5" pointer-events="none"/>
                </g>
                <g id="dirArrow">
                        <path fill="none" stroke="white" stroke-width="1.5" d="M0,-3.0v7 M-2.5,-0.5L0,-3.0L2.5,-0.5"/>
                </g>
               <g id="resetDef">
                       <use xlink:href="#rim2" fill="#404040">
                               <set attributeName="fill" to="#808080" begin="reset.mouseover" end="reset.mouseout"/>
                       </use>
               </g>
        </defs>

<script type="text/javascript">
var viewWidth = 728;
var viewHeight = 223;
var sectionId = 'dynsection-0';
</script>
<script xlink:href="svgpan.js"/>
<svg id="graph" class="graph">
<g id="viewport">
<title>EVA.Interaction.DistanceGrabInteractor</title>
<!-- Node1 -->
<g id="node1" class="node">
<title>Node1</title>
<g id="a_node1"><a xlink:title=" ">
<polygon fill="#999999" stroke="#666666" points="720,-128.5 595,-128.5 595,-98.5 720,-98.5 720,-128.5"/>
<text text-anchor="start" x="603" y="-116.5" font-family="Helvetica,sans-Serif" font-size="10.00">EVA.Interaction.Distance</text>
<text text-anchor="middle" x="657.5" y="-105.5" font-family="Helvetica,sans-Serif" font-size="10.00">GrabInteractor</text>
</a>
</g>
</g>
<!-- Node2 -->
<g id="node2" class="node">
<title>Node2</title>
<g id="a_node2"><a xlink:title=" ">
<polygon fill="white" stroke="#666666" points="443.5,-176.5 321.5,-176.5 321.5,-146.5 443.5,-146.5 443.5,-176.5"/>
<text text-anchor="start" x="329.5" y="-164.5" font-family="Helvetica,sans-Serif" font-size="10.00">Oculus::Interaction</text>
<text text-anchor="middle" x="382.5" y="-153.5" font-family="Helvetica,sans-Serif" font-size="10.00">::DistanceGrabInteractor</text>
</a>
</g>
</g>
<!-- Node2&#45;&gt;Node1 -->
<g id="edge1" class="edge">
<title>Node2&#45;&gt;Node1</title>
<path fill="none" stroke="#63b8ff" d="M454.75,-149.66C491.32,-143.5 536.57,-135.76 577,-128.5 582.81,-127.46 588.85,-126.35 594.89,-125.24"/>
<polygon fill="#63b8ff" stroke="#63b8ff" points="454.46,-146.16 445.18,-151.26 455.62,-153.06 454.46,-146.16"/>
</g>
<!-- Node3 -->
<g id="node3" class="node">
<title>Node3</title>
<g id="a_node3"><a xlink:href="class_e_v_a_1_1_interaction_1_1_distance_select_interactor.html" target="_top" xlink:title=" ">
<polygon fill="white" stroke="#666666" points="445,-128.5 320,-128.5 320,-98.5 445,-98.5 445,-128.5"/>
<text text-anchor="start" x="328" y="-116.5" font-family="Helvetica,sans-Serif" font-size="10.00">EVA.Interaction.Distance</text>
<text text-anchor="middle" x="382.5" y="-105.5" font-family="Helvetica,sans-Serif" font-size="10.00">SelectInteractor</text>
</a>
</g>
</g>
<!-- Node3&#45;&gt;Node1 -->
<g id="edge2" class="edge">
<title>Node3&#45;&gt;Node1</title>
<path fill="none" stroke="#9a32cd" stroke-dasharray="5,2" d="M456.74,-113.5C499.87,-113.5 553.84,-113.5 594.8,-113.5"/>
<polygon fill="#9a32cd" stroke="#9a32cd" points="456.96,-110 446.96,-113.5 456.96,-117 456.96,-110"/>
<text text-anchor="middle" x="520" y="-116.5" font-family="Helvetica,sans-Serif" font-size="10.00"> _distanceSelectInteractor</text>
</g>
<!-- Node4 -->
<g id="node4" class="node">
<title>Node4</title>
<g id="a_node4"><a xlink:href="class_pointer_interactor.html" target="_top" xlink:title=" ">
<polygon fill="white" stroke="#666666" points="152.5,-215 8.5,-215 8.5,-174 152.5,-174 152.5,-215"/>
<text text-anchor="start" x="16.5" y="-203" font-family="Helvetica,sans-Serif" font-size="10.00">PointerInteractor&lt;</text>
<text text-anchor="start" x="16.5" y="-192" font-family="Helvetica,sans-Serif" font-size="10.00"> DistanceSelectInteractor,</text>
<text text-anchor="middle" x="80.5" y="-181" font-family="Helvetica,sans-Serif" font-size="10.00"> DistanceSelectInteractable &gt;</text>
</a>
</g>
</g>
<!-- Node4&#45;&gt;Node3 -->
<g id="edge3" class="edge">
<title>Node4&#45;&gt;Node3</title>
<path fill="none" stroke="#63b8ff" d="M164.06,-181.58C206.05,-173.75 257.49,-162.19 302,-146.5 310.44,-143.53 311.83,-141.13 320,-137.5 326.49,-134.62 333.45,-131.72 340.26,-128.99"/>
<polygon fill="#63b8ff" stroke="#63b8ff" points="163.45,-178.13 154.24,-183.37 164.71,-185.02 163.45,-178.13"/>
</g>
<!-- Node5 -->
<g id="node5" class="node">
<title>Node5</title>
<g id="a_node5"><a xlink:href="class_i_distance_interactor.html" target="_top" xlink:title=" ">
<polygon fill="white" stroke="#666666" points="130,-156 31,-156 31,-137 130,-137 130,-156"/>
<text text-anchor="middle" x="80.5" y="-144" font-family="Helvetica,sans-Serif" font-size="10.00">IDistanceInteractor</text>
</a>
</g>
</g>
<!-- Node5&#45;&gt;Node3 -->
<g id="edge4" class="edge">
<title>Node5&#45;&gt;Node3</title>
<path fill="none" stroke="#63b8ff" d="M141.68,-142.21C186.08,-138.76 247.92,-133.37 302,-126.5 307.69,-125.78 313.59,-124.95 319.5,-124.08"/>
<polygon fill="#63b8ff" stroke="#63b8ff" points="141.43,-138.72 131.73,-142.97 141.96,-145.7 141.43,-138.72"/>
</g>
<!-- Node6 -->
<g id="node6" class="node">
<title>Node6</title>
<g id="a_node6"><a xlink:title=" ">
<polygon fill="white" stroke="#666666" points="122.5,-119 38.5,-119 38.5,-100 122.5,-100 122.5,-119"/>
<text text-anchor="middle" x="80.5" y="-107" font-family="Helvetica,sans-Serif" font-size="10.00">MonoBehaviour</text>
</a>
</g>
</g>
<!-- Node6&#45;&gt;Node3 -->
<g id="edge5" class="edge">
<title>Node6&#45;&gt;Node3</title>
<path fill="none" stroke="#9a32cd" stroke-dasharray="5,2" d="M134.16,-110.2C185.95,-110.89 264.98,-111.95 319.71,-112.68"/>
<polygon fill="#9a32cd" stroke="#9a32cd" points="134.46,-106.71 124.41,-110.07 134.36,-113.71 134.46,-106.71"/>
<text text-anchor="middle" x="240.5" y="-114.5" font-family="Helvetica,sans-Serif" font-size="10.00"> _selector</text>
</g>
<!-- Node7 -->
<g id="node7" class="node">
<title>Node7</title>
<g id="a_node7"><a xlink:title=" ">
<polygon fill="white" stroke="#666666" points="111,-78 50,-78 50,-59 111,-59 111,-78"/>
<text text-anchor="middle" x="80.5" y="-66" font-family="Helvetica,sans-Serif" font-size="10.00">Transform</text>
</a>
</g>
</g>
<!-- Node7&#45;&gt;Node3 -->
<g id="edge6" class="edge">
<title>Node7&#45;&gt;Node3</title>
<path fill="none" stroke="#9a32cd" stroke-dasharray="5,2" d="M122.73,-68.1C167.4,-68.46 240.5,-71.32 302,-84.5 310.12,-86.24 326.56,-92.09 342.39,-98.09"/>
<polygon fill="#9a32cd" stroke="#9a32cd" points="123,-64.61 112.98,-68.07 122.97,-71.61 123,-64.61"/>
<text text-anchor="middle" x="240.5" y="-98.5" font-family="Helvetica,sans-Serif" font-size="10.00"> _selectCenter</text>
<text text-anchor="middle" x="240.5" y="-87.5" font-family="Helvetica,sans-Serif" font-size="10.00">_selectTarget</text>
</g>
<!-- Node8 -->
<g id="node8" class="node">
<title>Node8</title>
<g id="a_node8"><a xlink:title=" ">
<polygon fill="white" stroke="#666666" points="161,-41 0,-41 0,0 161,0 161,-41"/>
<text text-anchor="start" x="8" y="-29" font-family="Helvetica,sans-Serif" font-size="10.00">DistantCandidateComputer</text>
<text text-anchor="start" x="8" y="-18" font-family="Helvetica,sans-Serif" font-size="10.00">&lt; EVA.Interaction.DistanceSelect</text>
<text text-anchor="middle" x="80.5" y="-7" font-family="Helvetica,sans-Serif" font-size="10.00">Interactable &gt;</text>
</a>
</g>
</g>
<!-- Node8&#45;&gt;Node3 -->
<g id="edge7" class="edge">
<title>Node8&#45;&gt;Node3</title>
<path fill="none" stroke="#9a32cd" stroke-dasharray="5,2" d="M172.75,-16.89C215.46,-19.47 264.95,-29.01 302,-55.5 315.91,-65.44 307.24,-78.12 320,-89.5 323.68,-92.78 327.86,-95.63 332.26,-98.11"/>
<polygon fill="#9a32cd" stroke="#9a32cd" points="173.15,-13.41 162.99,-16.43 172.82,-20.4 173.15,-13.41"/>
<text text-anchor="middle" x="240.5" y="-58.5" font-family="Helvetica,sans-Serif" font-size="10.00"> _distantCandidateComputer</text>
</g>
<!-- Node9 -->
<g id="node9" class="node">
<title>Node9</title>
<g id="a_node9"><a xlink:title=" ">
<polygon fill="white" stroke="#666666" points="400,-80 365,-80 365,-61 400,-61 400,-80"/>
<text text-anchor="middle" x="382.5" y="-68" font-family="Helvetica,sans-Serif" font-size="10.00">bool</text>
</a>
</g>
</g>
<!-- Node9&#45;&gt;Node1 -->
<g id="edge8" class="edge">
<title>Node9&#45;&gt;Node1</title>
<path fill="none" stroke="#9a32cd" stroke-dasharray="5,2" d="M411.43,-74.16C449.1,-79.18 518.24,-88.71 577,-98.5 582.82,-99.47 588.87,-100.52 594.92,-101.61"/>
<polygon fill="#9a32cd" stroke="#9a32cd" points="412.23,-70.74 401.86,-72.89 411.32,-77.68 412.23,-70.74"/>
<text text-anchor="middle" x="520" y="-101.5" font-family="Helvetica,sans-Serif" font-size="10.00"> _alreadySelected</text>
</g>
</g>
</svg>
        <g id="navigator" transform="translate(0 0)" fill="#404254">
                <rect fill="#f2f5e9" fill-opacity="0.5" stroke="#606060" stroke-width=".5" x="0" y="0" width="60" height="60"/>
                <use id="zoomplus" xlink:href="#zoomPlus" x="17" y="9" onmousedown="handleZoom(evt,'in')"/>
                <use id="zoomminus" xlink:href="#zoomMin" x="42" y="9" onmousedown="handleZoom(evt,'out')"/>
                <use id="reset" xlink:href="#resetDef" x="30" y="36" onmousedown="handleReset()"/>
                <g id="arrowUp" xlink:href="#dirArrow" transform="translate(30 24)" onmousedown="handlePan(0,-1)">
                  <use xlink:href="#rim" fill="#404040">
                        <set attributeName="fill" to="#808080" begin="arrowUp.mouseover" end="arrowUp.mouseout"/>
                  </use>
                  <path fill="none" stroke="white" stroke-width="1.5" d="M0,-3.0v7 M-2.5,-0.5L0,-3.0L2.5,-0.5"/>
                </g>
                <g id="arrowRight" xlink:href="#dirArrow" transform="rotate(90) translate(36 -43)" onmousedown="handlePan(1,0)">
                  <use xlink:href="#rim" fill="#404040">
                        <set attributeName="fill" to="#808080" begin="arrowRight.mouseover" end="arrowRight.mouseout"/>
                  </use>
                  <path fill="none" stroke="white" stroke-width="1.5" d="M0,-3.0v7 M-2.5,-0.5L0,-3.0L2.5,-0.5"/>
                </g>
                <g id="arrowDown" xlink:href="#dirArrow" transform="rotate(180) translate(-30 -48)" onmousedown="handlePan(0,1)">
                  <use xlink:href="#rim" fill="#404040">
                        <set attributeName="fill" to="#808080" begin="arrowDown.mouseover" end="arrowDown.mouseout"/>
                  </use>
                  <path fill="none" stroke="white" stroke-width="1.5" d="M0,-3.0v7 M-2.5,-0.5L0,-3.0L2.5,-0.5"/>
                </g>
                <g id="arrowLeft" xlink:href="#dirArrow" transform="rotate(270) translate(-36 17)" onmousedown="handlePan(-1,0)">
                  <use xlink:href="#rim" fill="#404040">
                        <set attributeName="fill" to="#808080" begin="arrowLeft.mouseover" end="arrowLeft.mouseout"/>
                  </use>
                  <path fill="none" stroke="white" stroke-width="1.5" d="M0,-3.0v7 M-2.5,-0.5L0,-3.0L2.5,-0.5"/>
                </g>
        </g>
        <svg viewBox="0 0 15 15" width="100%" height="30px" preserveAspectRatio="xMaxYMin meet">
         <g id="arrow_out" transform="scale(0.3 0.3)">
          <a xlink:href="class_e_v_a_1_1_interaction_1_1_distance_grab_interactor__coll__graph_org.svg" target="_base">
           <rect id="button" ry="5" rx="5" y="6" x="6" height="38" width="38"
                fill="#f2f5e9" fill-opacity="0.5" stroke="#606060" stroke-width="1.0"/>
           <path id="arrow"
             d="M 11.500037,31.436501 C 11.940474,20.09759 22.043105,11.32322 32.158766,21.979434 L 37.068811,17.246167 C 37.068811,17.246167 37.088388,32 37.088388,32 L 22.160133,31.978069 C 22.160133,31.978069 26.997745,27.140456 26.997745,27.140456 C 18.528582,18.264221 13.291696,25.230495 11.500037,31.436501 z"
             style="fill:#404040;"/>
          </a>
         </g>
        </svg>
</svg>
