<?xml version="1.0" encoding="UTF-8" standalone="no"?>
<!DOCTYPE svg PUBLIC "-//W3C//DTD SVG 1.1//EN"
 "http://www.w3.org/Graphics/SVG/1.1/DTD/svg11.dtd">
<!-- Generated by graphviz version 7.0.5 (20221223.1930)
 -->
<!-- Title: Veery.UI.Selection.BooleanParameter.Toggle Pages: 1 -->
<svg width="312pt" height="86pt"
 viewBox="0.00 0.00 312.00 86.00" xmlns="http://www.w3.org/2000/svg" xmlns:xlink="http://www.w3.org/1999/xlink">
<g id="graph0" class="graph" transform="scale(1 1) rotate(0) translate(4 82)">
<title>Veery.UI.Selection.BooleanParameter.Toggle</title>
<!-- Node1 -->
<g id="node1" class="node">
<title>Node1</title>
<g id="a_node1"><a xlink:title=" ">
<polygon fill="#999999" stroke="#666666" points="304,-54 170,-54 170,-24 304,-24 304,-54"/>
<text text-anchor="start" x="178" y="-42" font-family="Helvetica,sans-Serif" font-size="10.00">Veery.UI.Selection.Boolean</text>
<text text-anchor="middle" x="237" y="-31" font-family="Helvetica,sans-Serif" font-size="10.00">Parameter.Toggle</text>
</a>
</g>
</g>
<!-- Node2 -->
<g id="node2" class="node">
<title>Node2</title>
<g id="a_node2"><a xlink:href="class_veery_1_1_u_i_1_1_selection_1_1_boolean_parameter.html#ac6cb47fac7691b79a6faeaa485445699" target="_top" xlink:title=" ">
<polygon fill="white" stroke="#666666" points="134,-78 0,-78 0,-48 134,-48 134,-78"/>
<text text-anchor="start" x="8" y="-66" font-family="Helvetica,sans-Serif" font-size="10.00">Veery.UI.Selection.Boolean</text>
<text text-anchor="middle" x="67" y="-55" font-family="Helvetica,sans-Serif" font-size="10.00">Parameter.OnDestroy</text>
</a>
</g>
</g>
<!-- Node1&#45;&gt;Node2 -->
<g id="edge1" class="edge">
<title>Node1&#45;&gt;Node2</title>
<path fill="none" stroke="#63b8ff" d="M158.38,-50.09C150.39,-51.23 142.32,-52.38 134.47,-53.5"/>
<polygon fill="#63b8ff" stroke="#63b8ff" points="158.7,-53.58 168.1,-48.7 157.71,-46.65 158.7,-53.58"/>
</g>
<!-- Node3 -->
<g id="node3" class="node">
<title>Node3</title>
<g id="a_node3"><a xlink:href="class_veery_1_1_u_i_1_1_selection_1_1_boolean_parameter.html#a9dc0fe07c80f696d0f7fab14d5260fd7" target="_top" xlink:title=" ">
<polygon fill="white" stroke="#666666" points="134,-30 0,-30 0,0 134,0 134,-30"/>
<text text-anchor="start" x="8" y="-18" font-family="Helvetica,sans-Serif" font-size="10.00">Veery.UI.Selection.Boolean</text>
<text text-anchor="middle" x="67" y="-7" font-family="Helvetica,sans-Serif" font-size="10.00">Parameter.SetUI</text>
</a>
</g>
</g>
<!-- Node1&#45;&gt;Node3 -->
<g id="edge2" class="edge">
<title>Node1&#45;&gt;Node3</title>
<path fill="none" stroke="#63b8ff" d="M158.38,-27.91C150.39,-26.77 142.32,-25.62 134.47,-24.5"/>
<polygon fill="#63b8ff" stroke="#63b8ff" points="157.71,-31.35 168.1,-29.3 158.7,-24.42 157.71,-31.35"/>
</g>
</g>
</svg>
