<?xml version="1.0" encoding="UTF-8" standalone="no"?>
<!DOCTYPE svg PUBLIC "-//W3C//DTD SVG 1.1//EN"
 "http://www.w3.org/Graphics/SVG/1.1/DTD/svg11.dtd">
<!-- Generated by graphviz version 7.0.5 (20221223.1930)
 -->
<!-- Title: Veery.UI.Selection.TriggerableProperty.ShowLinks Pages: 1 -->
<svg width="338pt" height="86pt"
 viewBox="0.00 0.00 338.00 86.00" xmlns="http://www.w3.org/2000/svg" xmlns:xlink="http://www.w3.org/1999/xlink">
<g id="graph0" class="graph" transform="scale(1 1) rotate(0) translate(4 82)">
<title>Veery.UI.Selection.TriggerableProperty.ShowLinks</title>
<!-- Node1 -->
<g id="node1" class="node">
<title>Node1</title>
<g id="a_node1"><a xlink:title=" ">
<polygon fill="#999999" stroke="#666666" points="330,-54 183,-54 183,-24 330,-24 330,-54"/>
<text text-anchor="start" x="191" y="-42" font-family="Helvetica,sans-Serif" font-size="10.00">Veery.UI.Selection.Triggerable</text>
<text text-anchor="middle" x="256.5" y="-31" font-family="Helvetica,sans-Serif" font-size="10.00">Property.ShowLinks</text>
</a>
</g>
</g>
<!-- Node2 -->
<g id="node2" class="node">
<title>Node2</title>
<g id="a_node2"><a xlink:href="class_veery_1_1_u_i_1_1_selection_1_1_triggerable_property.html#a5bfed5bb789ca733201f2213ffb2c051" target="_top" xlink:title=" ">
<polygon fill="white" stroke="#666666" points="147,-78 0,-78 0,-48 147,-48 147,-78"/>
<text text-anchor="start" x="8" y="-66" font-family="Helvetica,sans-Serif" font-size="10.00">Veery.UI.Selection.Triggerable</text>
<text text-anchor="middle" x="73.5" y="-55" font-family="Helvetica,sans-Serif" font-size="10.00">Property.OnDestroy</text>
</a>
</g>
</g>
<!-- Node1&#45;&gt;Node2 -->
<g id="edge1" class="edge">
<title>Node1&#45;&gt;Node2</title>
<path fill="none" stroke="#63b8ff" d="M171.43,-50.15C163.43,-51.21 155.36,-52.28 147.48,-53.32"/>
<polygon fill="#63b8ff" stroke="#63b8ff" points="171.71,-53.64 181.16,-48.86 170.79,-46.7 171.71,-53.64"/>
</g>
<!-- Node3 -->
<g id="node3" class="node">
<title>Node3</title>
<g id="a_node3"><a xlink:href="class_veery_1_1_u_i_1_1_selection_1_1_triggerable_property.html#a0d9ebb1a2f95b6642369340b280a1b26" target="_top" xlink:title=" ">
<polygon fill="white" stroke="#666666" points="147,-30 0,-30 0,0 147,0 147,-30"/>
<text text-anchor="start" x="8" y="-18" font-family="Helvetica,sans-Serif" font-size="10.00">Veery.UI.Selection.Triggerable</text>
<text text-anchor="middle" x="73.5" y="-7" font-family="Helvetica,sans-Serif" font-size="10.00">Property.Start</text>
</a>
</g>
</g>
<!-- Node1&#45;&gt;Node3 -->
<g id="edge2" class="edge">
<title>Node1&#45;&gt;Node3</title>
<path fill="none" stroke="#63b8ff" d="M171.43,-27.85C163.43,-26.79 155.36,-25.72 147.48,-24.68"/>
<polygon fill="#63b8ff" stroke="#63b8ff" points="170.79,-31.3 181.16,-29.14 171.71,-24.36 170.79,-31.3"/>
</g>
</g>
</svg>
