<?xml version="1.0" encoding="UTF-8" standalone="no"?>
<!DOCTYPE svg PUBLIC "-//W3C//DTD SVG 1.1//EN"
 "http://www.w3.org/Graphics/SVG/1.1/DTD/svg11.dtd">
<!-- Generated by graphviz version 7.0.5 (20221223.1930)
 -->
<!-- Title: Veery.Import.Triggers.TriggersManager Pages: 1 -->
<!--zoomable 321 -->
<svg id="main" version="1.1" xmlns="http://www.w3.org/2000/svg" xmlns:xlink="http://www.w3.org/1999/xlink" xml:space="preserve" onload="init(evt)">
<style type="text/css"><![CDATA[
.edge:hover path { stroke: red; }
.edge:hover polygon { stroke: red; fill: red; }
]]></style>
<script type="text/javascript"><![CDATA[
var edges = document.getElementsByTagName('g');
if (edges && edges.length) {
  for (var i=0;i<edges.length;i++) {
    if (edges[i].id.substr(0,4)=='edge') {
      edges[i].setAttribute('class','edge');
    }
  }
}
]]></script>
        <defs>
                <circle id="rim" cx="0" cy="0" r="7"/>
                <circle id="rim2" cx="0" cy="0" r="3.5"/>
                <g id="zoomPlus">
                        <use xlink:href="#rim" fill="#404040">
                                <set attributeName="fill" to="#808080" begin="zoomplus.mouseover" end="zoomplus.mouseout"/>
                        </use>
                        <path d="M-4,0h8M0,-4v8" fill="none" stroke="white" stroke-width="1.5" pointer-events="none"/>
                </g>
                <g id="zoomMin">
                        <use xlink:href="#rim" fill="#404040">
                                <set attributeName="fill" to="#808080" begin="zoomminus.mouseover" end="zoomminus.mouseout"/>
                        </use>
                        <path d="M-4,0h8" fill="none" stroke="white" stroke-width="1.5" pointer-events="none"/>
                </g>
                <g id="dirArrow">
                        <path fill="none" stroke="white" stroke-width="1.5" d="M0,-3.0v7 M-2.5,-0.5L0,-3.0L2.5,-0.5"/>
                </g>
               <g id="resetDef">
                       <use xlink:href="#rim2" fill="#404040">
                               <set attributeName="fill" to="#808080" begin="reset.mouseover" end="reset.mouseout"/>
                       </use>
               </g>
        </defs>

<script type="text/javascript">
var viewWidth = 730;
var viewHeight = 321;
var sectionId = 'dynsection-0';
</script>
<script xlink:href="svgpan.js"/>
<svg id="graph" class="graph">
<g id="viewport">
<title>Veery.Import.Triggers.TriggersManager</title>
<!-- Node1 -->
<g id="node1" class="node">
<title>Node1</title>
<g id="a_node1"><a xlink:title="Manages all triggers in the scene.">
<polygon fill="#999999" stroke="#666666" points="722,-137.5 576,-137.5 576,-107.5 722,-107.5 722,-137.5"/>
<text text-anchor="start" x="584" y="-125.5" font-family="Helvetica,sans-Serif" font-size="10.00">Veery.Import.Triggers.Triggers</text>
<text text-anchor="middle" x="649" y="-114.5" font-family="Helvetica,sans-Serif" font-size="10.00">Manager</text>
</a>
</g>
</g>
<!-- Node2 -->
<g id="node2" class="node">
<title>Node2</title>
<g id="a_node2"><a xlink:title=" ">
<polygon fill="white" stroke="#666666" points="125,-313 41,-313 41,-294 125,-294 125,-313"/>
<text text-anchor="middle" x="83" y="-301" font-family="Helvetica,sans-Serif" font-size="10.00">MonoBehaviour</text>
</a>
</g>
</g>
<!-- Node2&#45;&gt;Node1 -->
<g id="edge1" class="edge">
<title>Node2&#45;&gt;Node1</title>
<path fill="none" stroke="#63b8ff" d="M136.64,-304.89C182.26,-304.99 249.75,-302.46 307,-289.5 424.94,-262.8 452.6,-243.78 558,-184.5 583.14,-170.36 610.15,-151.16 627.95,-137.88"/>
<polygon fill="#63b8ff" stroke="#63b8ff" points="136.79,-301.39 126.76,-304.82 136.74,-308.39 136.79,-301.39"/>
</g>
<!-- Node7 -->
<g id="node7" class="node">
<title>Node7</title>
<g id="a_node7"><a xlink:href="class_veery_1_1_interaction_1_1_distance_select_interactor.html" target="_top" xlink:title="An interactor that selects interactables based on their distance from the interactor&#39;s pointer.">
<polygon fill="white" stroke="#666666" points="463,-214.5 333,-214.5 333,-184.5 463,-184.5 463,-214.5"/>
<text text-anchor="start" x="341" y="-202.5" font-family="Helvetica,sans-Serif" font-size="10.00">Veery.Interaction.Distance</text>
<text text-anchor="middle" x="398" y="-191.5" font-family="Helvetica,sans-Serif" font-size="10.00">SelectInteractor</text>
</a>
</g>
</g>
<!-- Node2&#45;&gt;Node7 -->
<g id="edge10" class="edge">
<title>Node2&#45;&gt;Node7</title>
<path fill="none" stroke="#9a32cd" stroke-dasharray="5,2" d="M136.25,-296.69C146.5,-294.09 156.89,-290.48 166,-285.5 175.92,-280.07 174.08,-272.93 184,-267.5 233.1,-240.63 253.9,-258.2 307,-240.5 327.69,-233.6 350,-223.46 367.23,-214.99"/>
<polygon fill="#9a32cd" stroke="#9a32cd" points="135.73,-293.23 126.73,-298.82 137.25,-300.06 135.73,-293.23"/>
<text text-anchor="middle" x="245.5" y="-281.5" font-family="Helvetica,sans-Serif" font-size="10.00"> _canvasInteractor</text>
<text text-anchor="middle" x="245.5" y="-270.5" font-family="Helvetica,sans-Serif" font-size="10.00">_selector</text>
</g>
<!-- Node3 -->
<g id="node3" class="node">
<title>Node3</title>
<g id="a_node3"><a xlink:title=" ">
<polygon fill="white" stroke="#666666" points="418.5,-152 377.5,-152 377.5,-133 418.5,-133 418.5,-152"/>
<text text-anchor="middle" x="398" y="-140" font-family="Helvetica,sans-Serif" font-size="10.00">static</text>
</a>
</g>
</g>
<!-- Node3&#45;&gt;Node1 -->
<g id="edge2" class="edge">
<title>Node3&#45;&gt;Node1</title>
<path fill="none" stroke="#9a32cd" stroke-dasharray="5,2" d="M430.24,-139.99C466.47,-137.08 527.38,-132.19 575.59,-128.32"/>
<polygon fill="#9a32cd" stroke="#9a32cd" points="430.15,-136.49 420.46,-140.78 430.71,-143.46 430.15,-136.49"/>
<text text-anchor="middle" x="523.5" y="-137.5" font-family="Helvetica,sans-Serif" font-size="10.00"> _instance</text>
</g>
<!-- Node4 -->
<g id="node4" class="node">
<title>Node4</title>
<g id="a_node4"><a xlink:href="class_veery_1_1_import_1_1_triggers_1_1_triggers_manager_1_1_triggers_prefabs.html" target="_top" xlink:title="A container class for prefabs used to create different types of triggers.">
<polygon fill="white" stroke="#666666" points="471,-67.5 325,-67.5 325,-37.5 471,-37.5 471,-67.5"/>
<text text-anchor="start" x="333" y="-55.5" font-family="Helvetica,sans-Serif" font-size="10.00">Veery.Import.Triggers.Triggers</text>
<text text-anchor="middle" x="398" y="-44.5" font-family="Helvetica,sans-Serif" font-size="10.00">Manager.TriggersPrefabs</text>
</a>
</g>
</g>
<!-- Node4&#45;&gt;Node1 -->
<g id="edge3" class="edge">
<title>Node4&#45;&gt;Node1</title>
<path fill="none" stroke="#9a32cd" stroke-dasharray="5,2" d="M482.45,-61.46C507.13,-65.35 533.96,-70.84 558,-78.5 580.37,-85.63 604.18,-97.47 621.68,-107.08"/>
<polygon fill="#9a32cd" stroke="#9a32cd" points="483.19,-58.03 472.78,-60 482.15,-64.95 483.19,-58.03"/>
<text text-anchor="middle" x="523.5" y="-81.5" font-family="Helvetica,sans-Serif" font-size="10.00"> _triggerPrefabs</text>
</g>
<!-- Node5 -->
<g id="node5" class="node">
<title>Node5</title>
<g id="a_node5"><a xlink:title=" ">
<polygon fill="white" stroke="#666666" points="118.5,-73 47.5,-73 47.5,-54 118.5,-54 118.5,-73"/>
<text text-anchor="middle" x="83" y="-61" font-family="Helvetica,sans-Serif" font-size="10.00">GameObject</text>
</a>
</g>
</g>
<!-- Node5&#45;&gt;Node1 -->
<g id="edge5" class="edge">
<title>Node5&#45;&gt;Node1</title>
<path fill="none" stroke="#9a32cd" stroke-dasharray="5,2" d="M130,-69.2C146.96,-71.26 166.35,-73.55 184,-75.5 322.42,-90.81 484.3,-106.77 575.62,-115.59"/>
<polygon fill="#9a32cd" stroke="#9a32cd" points="130.54,-65.74 120.19,-68.01 129.7,-72.69 130.54,-65.74"/>
<text text-anchor="middle" x="398" y="-107.5" font-family="Helvetica,sans-Serif" font-size="10.00"> _elementContainerGO</text>
</g>
<!-- Node5&#45;&gt;Node4 -->
<g id="edge4" class="edge">
<title>Node5&#45;&gt;Node4</title>
<path fill="none" stroke="#9a32cd" stroke-dasharray="5,2" d="M130.37,-61.87C181.64,-60.07 264.89,-57.14 324.73,-55.04"/>
<polygon fill="#9a32cd" stroke="#9a32cd" points="130.38,-58.37 120.51,-62.22 130.62,-65.36 130.38,-58.37"/>
<text text-anchor="middle" x="245.5" y="-63.5" font-family="Helvetica,sans-Serif" font-size="10.00"> areaTriggerPrefab</text>
</g>
<!-- Node6 -->
<g id="node6" class="node">
<title>Node6</title>
<g id="a_node6"><a xlink:title=" ">
<polygon fill="white" stroke="#666666" points="422.5,-19 373.5,-19 373.5,0 422.5,0 422.5,-19"/>
<text text-anchor="middle" x="398" y="-7" font-family="Helvetica,sans-Serif" font-size="10.00">Collider</text>
</a>
</g>
</g>
<!-- Node6&#45;&gt;Node1 -->
<g id="edge6" class="edge">
<title>Node6&#45;&gt;Node1</title>
<path fill="none" stroke="#9a32cd" stroke-dasharray="5,2" d="M433.77,-13.48C467.06,-18.32 517.99,-28.46 558,-48.5 588.02,-63.54 616.95,-90.19 633.58,-107.07"/>
<polygon fill="#9a32cd" stroke="#9a32cd" points="434.65,-10.07 424.27,-12.19 433.71,-17 434.65,-10.07"/>
<text text-anchor="middle" x="523.5" y="-51.5" font-family="Helvetica,sans-Serif" font-size="10.00"> _head</text>
</g>
<!-- Node7&#45;&gt;Node1 -->
<g id="edge7" class="edge">
<title>Node7&#45;&gt;Node1</title>
<path fill="none" stroke="#9a32cd" stroke-dasharray="5,2" d="M459.84,-180.69C502.26,-167.57 558.17,-150.28 597.99,-137.96"/>
<polygon fill="#9a32cd" stroke="#9a32cd" points="459.05,-177.27 450.54,-183.56 461.12,-183.95 459.05,-177.27"/>
<text text-anchor="middle" x="523.5" y="-172.5" font-family="Helvetica,sans-Serif" font-size="10.00"> _interactor</text>
</g>
<!-- Node8 -->
<g id="node8" class="node">
<title>Node8</title>
<g id="a_node8"><a xlink:href="class_pointer_interactor.html" target="_top" xlink:title=" ">
<polygon fill="white" stroke="#666666" points="155,-276 11,-276 11,-235 155,-235 155,-276"/>
<text text-anchor="start" x="19" y="-264" font-family="Helvetica,sans-Serif" font-size="10.00">PointerInteractor&lt;</text>
<text text-anchor="start" x="19" y="-253" font-family="Helvetica,sans-Serif" font-size="10.00"> DistanceSelectInteractor,</text>
<text text-anchor="middle" x="83" y="-242" font-family="Helvetica,sans-Serif" font-size="10.00"> DistanceSelectInteractable &gt;</text>
</a>
</g>
</g>
<!-- Node8&#45;&gt;Node7 -->
<g id="edge8" class="edge">
<title>Node8&#45;&gt;Node7</title>
<path fill="none" stroke="#63b8ff" d="M166.65,-241.32C208.7,-234.04 260.6,-224.94 307,-216.5 315.29,-214.99 324.01,-213.38 332.62,-211.77"/>
<polygon fill="#63b8ff" stroke="#63b8ff" points="166.1,-237.86 156.84,-243.02 167.29,-244.76 166.1,-237.86"/>
</g>
<!-- Node9 -->
<g id="node9" class="node">
<title>Node9</title>
<g id="a_node9"><a xlink:href="class_i_distance_interactor.html" target="_top" xlink:title=" ">
<polygon fill="white" stroke="#666666" points="132.5,-217 33.5,-217 33.5,-198 132.5,-198 132.5,-217"/>
<text text-anchor="middle" x="83" y="-205" font-family="Helvetica,sans-Serif" font-size="10.00">IDistanceInteractor</text>
</a>
</g>
</g>
<!-- Node9&#45;&gt;Node7 -->
<g id="edge9" class="edge">
<title>Node9&#45;&gt;Node7</title>
<path fill="none" stroke="#63b8ff" d="M144.38,-205.96C198.45,-204.57 277.49,-202.55 332.72,-201.14"/>
<polygon fill="#63b8ff" stroke="#63b8ff" points="144.33,-202.46 134.42,-206.21 144.51,-209.45 144.33,-202.46"/>
</g>
<!-- Node10 -->
<g id="node10" class="node">
<title>Node10</title>
<g id="a_node10"><a xlink:title=" ">
<polygon fill="white" stroke="#666666" points="113.5,-180 52.5,-180 52.5,-161 113.5,-161 113.5,-180"/>
<text text-anchor="middle" x="83" y="-168" font-family="Helvetica,sans-Serif" font-size="10.00">Transform</text>
</a>
</g>
</g>
<!-- Node10&#45;&gt;Node7 -->
<g id="edge11" class="edge">
<title>Node10&#45;&gt;Node7</title>
<path fill="none" stroke="#9a32cd" stroke-dasharray="5,2" d="M125.08,-168.51C170,-167.01 244,-166.53 307,-175.5 320.29,-177.39 334.42,-180.58 347.45,-184.03"/>
<polygon fill="#9a32cd" stroke="#9a32cd" points="125.14,-165.01 115.27,-168.88 125.4,-172 125.14,-165.01"/>
<text text-anchor="middle" x="245.5" y="-189.5" font-family="Helvetica,sans-Serif" font-size="10.00"> _selectCenter</text>
<text text-anchor="middle" x="245.5" y="-178.5" font-family="Helvetica,sans-Serif" font-size="10.00">_selectTarget</text>
</g>
<!-- Node11 -->
<g id="node11" class="node">
<title>Node11</title>
<g id="a_node11"><a xlink:title=" ">
<polygon fill="white" stroke="#666666" points="166,-143 0,-143 0,-102 166,-102 166,-143"/>
<text text-anchor="start" x="8" y="-131" font-family="Helvetica,sans-Serif" font-size="10.00">DistantCandidateComputer</text>
<text text-anchor="start" x="8" y="-120" font-family="Helvetica,sans-Serif" font-size="10.00">&lt; Veery.Interaction.DistanceSelect</text>
<text text-anchor="middle" x="83" y="-109" font-family="Helvetica,sans-Serif" font-size="10.00">Interactable &gt;</text>
</a>
</g>
</g>
<!-- Node11&#45;&gt;Node7 -->
<g id="edge12" class="edge">
<title>Node11&#45;&gt;Node7</title>
<path fill="none" stroke="#9a32cd" stroke-dasharray="5,2" d="M177.49,-127.81C218.01,-131.95 265.57,-139.34 307,-152.5 308.65,-153.02 342.13,-170.58 367.77,-184.08"/>
<polygon fill="#9a32cd" stroke="#9a32cd" points="178.06,-124.35 167.77,-126.87 177.38,-131.31 178.06,-124.35"/>
<text text-anchor="middle" x="245.5" y="-155.5" font-family="Helvetica,sans-Serif" font-size="10.00"> _distantCandidateComputer</text>
</g>
</g>
</svg>
        <g id="navigator" transform="translate(0 0)" fill="#404254">
                <rect fill="#f2f5e9" fill-opacity="0.5" stroke="#606060" stroke-width=".5" x="0" y="0" width="60" height="60"/>
                <use id="zoomplus" xlink:href="#zoomPlus" x="17" y="9" onmousedown="handleZoom(evt,'in')"/>
                <use id="zoomminus" xlink:href="#zoomMin" x="42" y="9" onmousedown="handleZoom(evt,'out')"/>
                <use id="reset" xlink:href="#resetDef" x="30" y="36" onmousedown="handleReset()"/>
                <g id="arrowUp" xlink:href="#dirArrow" transform="translate(30 24)" onmousedown="handlePan(0,-1)">
                  <use xlink:href="#rim" fill="#404040">
                        <set attributeName="fill" to="#808080" begin="arrowUp.mouseover" end="arrowUp.mouseout"/>
                  </use>
                  <path fill="none" stroke="white" stroke-width="1.5" d="M0,-3.0v7 M-2.5,-0.5L0,-3.0L2.5,-0.5"/>
                </g>
                <g id="arrowRight" xlink:href="#dirArrow" transform="rotate(90) translate(36 -43)" onmousedown="handlePan(1,0)">
                  <use xlink:href="#rim" fill="#404040">
                        <set attributeName="fill" to="#808080" begin="arrowRight.mouseover" end="arrowRight.mouseout"/>
                  </use>
                  <path fill="none" stroke="white" stroke-width="1.5" d="M0,-3.0v7 M-2.5,-0.5L0,-3.0L2.5,-0.5"/>
                </g>
                <g id="arrowDown" xlink:href="#dirArrow" transform="rotate(180) translate(-30 -48)" onmousedown="handlePan(0,1)">
                  <use xlink:href="#rim" fill="#404040">
                        <set attributeName="fill" to="#808080" begin="arrowDown.mouseover" end="arrowDown.mouseout"/>
                  </use>
                  <path fill="none" stroke="white" stroke-width="1.5" d="M0,-3.0v7 M-2.5,-0.5L0,-3.0L2.5,-0.5"/>
                </g>
                <g id="arrowLeft" xlink:href="#dirArrow" transform="rotate(270) translate(-36 17)" onmousedown="handlePan(-1,0)">
                  <use xlink:href="#rim" fill="#404040">
                        <set attributeName="fill" to="#808080" begin="arrowLeft.mouseover" end="arrowLeft.mouseout"/>
                  </use>
                  <path fill="none" stroke="white" stroke-width="1.5" d="M0,-3.0v7 M-2.5,-0.5L0,-3.0L2.5,-0.5"/>
                </g>
        </g>
        <svg viewBox="0 0 15 15" width="100%" height="30px" preserveAspectRatio="xMaxYMin meet">
         <g id="arrow_out" transform="scale(0.3 0.3)">
          <a xlink:href="class_veery_1_1_import_1_1_triggers_1_1_triggers_manager__coll__graph_org.svg" target="_base">
           <rect id="button" ry="5" rx="5" y="6" x="6" height="38" width="38"
                fill="#f2f5e9" fill-opacity="0.5" stroke="#606060" stroke-width="1.0"/>
           <path id="arrow"
             d="M 11.500037,31.436501 C 11.940474,20.09759 22.043105,11.32322 32.158766,21.979434 L 37.068811,17.246167 C 37.068811,17.246167 37.088388,32 37.088388,32 L 22.160133,31.978069 C 22.160133,31.978069 26.997745,27.140456 26.997745,27.140456 C 18.528582,18.264221 13.291696,25.230495 11.500037,31.436501 z"
             style="fill:#404040;"/>
          </a>
         </g>
        </svg>
</svg>
