<?xml version="1.0" encoding="UTF-8" standalone="no"?>
<!DOCTYPE svg PUBLIC "-//W3C//DTD SVG 1.1//EN"
 "http://www.w3.org/Graphics/SVG/1.1/DTD/svg11.dtd">
<!-- Generated by graphviz version 7.0.5 (20221223.1930)
 -->
<!-- Title: Veery.Interaction.DistanceGrabInteractor Pages: 1 -->
<svg width="743pt" height="227pt"
 viewBox="0.00 0.00 743.00 227.00" xmlns="http://www.w3.org/2000/svg" xmlns:xlink="http://www.w3.org/1999/xlink">
<g id="graph0" class="graph" transform="scale(1 1) rotate(0) translate(4 223)">
<title>Veery.Interaction.DistanceGrabInteractor</title>
<!-- Node1 -->
<g id="node1" class="node">
<title>Node1</title>
<g id="a_node1"><a xlink:title="A custom implementation of the Oculus Interaction DistanceGrabInteractor that allows for optional sel...">
<polygon fill="#999999" stroke="#666666" points="735,-128.5 605,-128.5 605,-98.5 735,-98.5 735,-128.5"/>
<text text-anchor="start" x="613" y="-116.5" font-family="Helvetica,sans-Serif" font-size="10.00">Veery.Interaction.Distance</text>
<text text-anchor="middle" x="670" y="-105.5" font-family="Helvetica,sans-Serif" font-size="10.00">GrabInteractor</text>
</a>
</g>
</g>
<!-- Node2 -->
<g id="node2" class="node">
<title>Node2</title>
<g id="a_node2"><a xlink:title=" ">
<polygon fill="white" stroke="#666666" points="451,-176.5 329,-176.5 329,-146.5 451,-146.5 451,-176.5"/>
<text text-anchor="start" x="337" y="-164.5" font-family="Helvetica,sans-Serif" font-size="10.00">Oculus::Interaction</text>
<text text-anchor="middle" x="390" y="-153.5" font-family="Helvetica,sans-Serif" font-size="10.00">::DistanceGrabInteractor</text>
</a>
</g>
</g>
<!-- Node2&#45;&gt;Node1 -->
<g id="edge1" class="edge">
<title>Node2&#45;&gt;Node1</title>
<path fill="none" stroke="#63b8ff" d="M462.32,-149.74C499.51,-143.55 545.73,-135.75 587,-128.5 592.7,-127.5 598.62,-126.44 604.56,-125.38"/>
<polygon fill="#63b8ff" stroke="#63b8ff" points="461.87,-146.27 452.58,-151.36 463.02,-153.17 461.87,-146.27"/>
</g>
<!-- Node3 -->
<g id="node3" class="node">
<title>Node3</title>
<g id="a_node3"><a xlink:href="class_veery_1_1_interaction_1_1_distance_select_interactor.html" target="_top" xlink:title="An interactor that selects interactables based on their distance from the interactor&#39;s pointer.">
<polygon fill="white" stroke="#666666" points="455,-128.5 325,-128.5 325,-98.5 455,-98.5 455,-128.5"/>
<text text-anchor="start" x="333" y="-116.5" font-family="Helvetica,sans-Serif" font-size="10.00">Veery.Interaction.Distance</text>
<text text-anchor="middle" x="390" y="-105.5" font-family="Helvetica,sans-Serif" font-size="10.00">SelectInteractor</text>
</a>
</g>
</g>
<!-- Node3&#45;&gt;Node1 -->
<g id="edge2" class="edge">
<title>Node3&#45;&gt;Node1</title>
<path fill="none" stroke="#9a32cd" stroke-dasharray="5,2" d="M466.81,-113.5C510.08,-113.5 563.72,-113.5 604.87,-113.5"/>
<polygon fill="#9a32cd" stroke="#9a32cd" points="466.99,-110 456.99,-113.5 466.99,-117 466.99,-110"/>
<text text-anchor="middle" x="530" y="-116.5" font-family="Helvetica,sans-Serif" font-size="10.00"> _distanceSelectInteractor</text>
</g>
<!-- Node4 -->
<g id="node4" class="node">
<title>Node4</title>
<g id="a_node4"><a xlink:href="class_pointer_interactor.html" target="_top" xlink:title=" ">
<polygon fill="white" stroke="#666666" points="155,-219 11,-219 11,-178 155,-178 155,-219"/>
<text text-anchor="start" x="19" y="-207" font-family="Helvetica,sans-Serif" font-size="10.00">PointerInteractor&lt;</text>
<text text-anchor="start" x="19" y="-196" font-family="Helvetica,sans-Serif" font-size="10.00"> DistanceSelectInteractor,</text>
<text text-anchor="middle" x="83" y="-185" font-family="Helvetica,sans-Serif" font-size="10.00"> DistanceSelectInteractable &gt;</text>
</a>
</g>
</g>
<!-- Node4&#45;&gt;Node3 -->
<g id="edge3" class="edge">
<title>Node4&#45;&gt;Node3</title>
<path fill="none" stroke="#63b8ff" d="M166.56,-195.17C210.49,-190.47 264.13,-179.88 307,-156.5 317.21,-150.93 315.31,-143.93 325,-137.5 329.85,-134.29 335.18,-131.42 340.64,-128.9"/>
<polygon fill="#63b8ff" stroke="#63b8ff" points="166.44,-191.66 156.83,-196.12 167.12,-198.63 166.44,-191.66"/>
</g>
<!-- Node5 -->
<g id="node5" class="node">
<title>Node5</title>
<g id="a_node5"><a xlink:href="class_i_distance_interactor.html" target="_top" xlink:title=" ">
<polygon fill="white" stroke="#666666" points="132.5,-160 33.5,-160 33.5,-141 132.5,-141 132.5,-160"/>
<text text-anchor="middle" x="83" y="-148" font-family="Helvetica,sans-Serif" font-size="10.00">IDistanceInteractor</text>
</a>
</g>
</g>
<!-- Node5&#45;&gt;Node3 -->
<g id="edge4" class="edge">
<title>Node5&#45;&gt;Node3</title>
<path fill="none" stroke="#63b8ff" d="M143.98,-150.15C189.09,-149.06 252.29,-145.78 307,-136.5 317.93,-134.64 329.5,-131.9 340.39,-128.95"/>
<polygon fill="#63b8ff" stroke="#63b8ff" points="144.06,-146.65 134.14,-150.36 144.21,-153.65 144.06,-146.65"/>
</g>
<!-- Node6 -->
<g id="node6" class="node">
<title>Node6</title>
<g id="a_node6"><a xlink:title=" ">
<polygon fill="white" stroke="#666666" points="125,-123 41,-123 41,-104 125,-104 125,-123"/>
<text text-anchor="middle" x="83" y="-111" font-family="Helvetica,sans-Serif" font-size="10.00">MonoBehaviour</text>
</a>
</g>
</g>
<!-- Node6&#45;&gt;Node3 -->
<g id="edge5" class="edge">
<title>Node6&#45;&gt;Node3</title>
<path fill="none" stroke="#9a32cd" stroke-dasharray="5,2" d="M136.79,-113.5C188.98,-113.5 268.91,-113.5 324.76,-113.5"/>
<polygon fill="#9a32cd" stroke="#9a32cd" points="136.96,-110 126.96,-113.5 136.96,-117 136.96,-110"/>
<text text-anchor="middle" x="245.5" y="-127.5" font-family="Helvetica,sans-Serif" font-size="10.00"> _canvasInteractor</text>
<text text-anchor="middle" x="245.5" y="-116.5" font-family="Helvetica,sans-Serif" font-size="10.00">_selector</text>
</g>
<!-- Node7 -->
<g id="node7" class="node">
<title>Node7</title>
<g id="a_node7"><a xlink:title=" ">
<polygon fill="white" stroke="#666666" points="113.5,-78 52.5,-78 52.5,-59 113.5,-59 113.5,-78"/>
<text text-anchor="middle" x="83" y="-66" font-family="Helvetica,sans-Serif" font-size="10.00">Transform</text>
</a>
</g>
</g>
<!-- Node7&#45;&gt;Node3 -->
<g id="edge6" class="edge">
<title>Node7&#45;&gt;Node3</title>
<path fill="none" stroke="#9a32cd" stroke-dasharray="5,2" d="M125.22,-69.28C170.27,-70.77 244.38,-75.06 307,-87.5 320.04,-90.09 333.92,-94.02 346.49,-98.05"/>
<polygon fill="#9a32cd" stroke="#9a32cd" points="125.48,-65.79 115.39,-68.99 125.28,-72.78 125.48,-65.79"/>
<text text-anchor="middle" x="245.5" y="-101.5" font-family="Helvetica,sans-Serif" font-size="10.00"> _selectCenter</text>
<text text-anchor="middle" x="245.5" y="-90.5" font-family="Helvetica,sans-Serif" font-size="10.00">_selectTarget</text>
</g>
<!-- Node8 -->
<g id="node8" class="node">
<title>Node8</title>
<g id="a_node8"><a xlink:title=" ">
<polygon fill="white" stroke="#666666" points="166,-41 0,-41 0,0 166,0 166,-41"/>
<text text-anchor="start" x="8" y="-29" font-family="Helvetica,sans-Serif" font-size="10.00">DistantCandidateComputer</text>
<text text-anchor="start" x="8" y="-18" font-family="Helvetica,sans-Serif" font-size="10.00">&lt; Veery.Interaction.DistanceSelect</text>
<text text-anchor="middle" x="83" y="-7" font-family="Helvetica,sans-Serif" font-size="10.00">Interactable &gt;</text>
</a>
</g>
</g>
<!-- Node8&#45;&gt;Node3 -->
<g id="edge7" class="edge">
<title>Node8&#45;&gt;Node3</title>
<path fill="none" stroke="#9a32cd" stroke-dasharray="5,2" d="M177.55,-18.14C220.34,-21.3 269.68,-31.34 307,-57.5 320.36,-66.87 312.61,-78.88 325,-89.5 328.78,-92.74 333.05,-95.57 337.54,-98.03"/>
<polygon fill="#9a32cd" stroke="#9a32cd" points="177.96,-14.66 167.76,-17.54 177.53,-21.64 177.96,-14.66"/>
<text text-anchor="middle" x="245.5" y="-60.5" font-family="Helvetica,sans-Serif" font-size="10.00"> _distantCandidateComputer</text>
</g>
<!-- Node9 -->
<g id="node9" class="node">
<title>Node9</title>
<g id="a_node9"><a xlink:title=" ">
<polygon fill="white" stroke="#666666" points="407.5,-80 372.5,-80 372.5,-61 407.5,-61 407.5,-80"/>
<text text-anchor="middle" x="390" y="-68" font-family="Helvetica,sans-Serif" font-size="10.00">bool</text>
</a>
</g>
</g>
<!-- Node9&#45;&gt;Node1 -->
<g id="edge8" class="edge">
<title>Node9&#45;&gt;Node1</title>
<path fill="none" stroke="#9a32cd" stroke-dasharray="5,2" d="M418.99,-74.15C457.07,-79.19 527.3,-88.78 587,-98.5 592.71,-99.43 598.64,-100.44 604.58,-101.47"/>
<polygon fill="#9a32cd" stroke="#9a32cd" points="419.69,-70.71 409.31,-72.87 418.77,-77.65 419.69,-70.71"/>
<text text-anchor="middle" x="530" y="-101.5" font-family="Helvetica,sans-Serif" font-size="10.00"> _alreadySelected</text>
</g>
</g>
</svg>
