<?xml version="1.0" encoding="UTF-8" standalone="no"?>
<!DOCTYPE svg PUBLIC "-//W3C//DTD SVG 1.1//EN"
 "http://www.w3.org/Graphics/SVG/1.1/DTD/svg11.dtd">
<!-- Generated by graphviz version 7.0.5 (20221223.1930)
 -->
<!-- Title: Veery.UI.Selection.Parameter.SetUI Pages: 1 -->
<svg width="685pt" height="182pt"
 viewBox="0.00 0.00 685.00 182.00" xmlns="http://www.w3.org/2000/svg" xmlns:xlink="http://www.w3.org/1999/xlink">
<g id="graph0" class="graph" transform="scale(1 1) rotate(0) translate(4 178)">
<title>Veery.UI.Selection.Parameter.SetUI</title>
<!-- Node1 -->
<g id="node1" class="node">
<title>Node1</title>
<g id="a_node1"><a xlink:title=" ">
<polygon fill="#999999" stroke="#666666" points="677,-102 531,-102 531,-72 677,-72 677,-102"/>
<text text-anchor="start" x="539" y="-90" font-family="Helvetica,sans-Serif" font-size="10.00">Veery.UI.Selection.Parameter.</text>
<text text-anchor="middle" x="604" y="-79" font-family="Helvetica,sans-Serif" font-size="10.00">SetUI</text>
</a>
</g>
</g>
<!-- Node2 -->
<g id="node2" class="node">
<title>Node2</title>
<g id="a_node2"><a xlink:href="class_veery_1_1_u_i_1_1_selection_1_1_parameters.html#a45a76ffb1bc24ba01237809a236fdb43" target="_top" xlink:title=" ">
<polygon fill="white" stroke="#666666" points="495,-102 343,-102 343,-72 495,-72 495,-102"/>
<text text-anchor="start" x="351" y="-90" font-family="Helvetica,sans-Serif" font-size="10.00">Veery.UI.Selection.Parameters.</text>
<text text-anchor="middle" x="419" y="-79" font-family="Helvetica,sans-Serif" font-size="10.00">SetUI</text>
</a>
</g>
</g>
<!-- Node1&#45;&gt;Node2 -->
<g id="edge1" class="edge">
<title>Node1&#45;&gt;Node2</title>
<path fill="none" stroke="#63b8ff" d="M519.43,-87C511.42,-87 503.33,-87 495.41,-87"/>
<polygon fill="#63b8ff" stroke="#63b8ff" points="519.16,-90.5 529.16,-87 519.16,-83.5 519.16,-90.5"/>
</g>
<!-- Node3 -->
<g id="node3" class="node">
<title>Node3</title>
<g id="a_node3"><a xlink:href="class_veery_1_1_u_i_1_1_selection_1_1_link.html#a5d149735d26f8dcbd3d704429be0674f" target="_top" xlink:title=" ">
<polygon fill="white" stroke="#666666" points="307,-120.5 170,-120.5 170,-101.5 307,-101.5 307,-120.5"/>
<text text-anchor="middle" x="238.5" y="-108.5" font-family="Helvetica,sans-Serif" font-size="10.00">Veery.UI.Selection.Link.Edit</text>
</a>
</g>
</g>
<!-- Node2&#45;&gt;Node3 -->
<g id="edge2" class="edge">
<title>Node2&#45;&gt;Node3</title>
<path fill="none" stroke="#63b8ff" d="M331.24,-98.67C323.2,-99.75 315.14,-100.83 307.31,-101.88"/>
<polygon fill="#63b8ff" stroke="#63b8ff" points="331.61,-102.15 341.06,-97.35 330.68,-95.21 331.61,-102.15"/>
</g>
<!-- Node6 -->
<g id="node6" class="node">
<title>Node6</title>
<g id="a_node6"><a xlink:href="class_veery_1_1_u_i_1_1_selection_1_1_method.html#ae420f302a2942cd484bb8cb14776f07a" target="_top" xlink:title=" ">
<polygon fill="white" stroke="#666666" points="305.5,-78 171.5,-78 171.5,-48 305.5,-48 305.5,-78"/>
<text text-anchor="start" x="179.5" y="-66" font-family="Helvetica,sans-Serif" font-size="10.00">Veery.UI.Selection.Method.</text>
<text text-anchor="middle" x="238.5" y="-55" font-family="Helvetica,sans-Serif" font-size="10.00">Select</text>
</a>
</g>
</g>
<!-- Node2&#45;&gt;Node6 -->
<g id="edge5" class="edge">
<title>Node2&#45;&gt;Node6</title>
<path fill="none" stroke="#63b8ff" d="M331.35,-75.35C322.8,-74.2 314.21,-73.04 305.9,-71.93"/>
<polygon fill="#63b8ff" stroke="#63b8ff" points="330.68,-78.79 341.06,-76.65 331.61,-71.85 330.68,-78.79"/>
</g>
<!-- Node4 -->
<g id="node4" class="node">
<title>Node4</title>
<g id="a_node4"><a xlink:href="class_veery_1_1_u_i_1_1_selection_1_1_link.html#ad2b1e4dadb933ea4a14da4aa403e3fc5" target="_top" xlink:title=" ">
<polygon fill="white" stroke="#666666" points="127,-174 7,-174 7,-144 127,-144 127,-174"/>
<text text-anchor="start" x="15" y="-162" font-family="Helvetica,sans-Serif" font-size="10.00">Veery.UI.Selection.Link.</text>
<text text-anchor="middle" x="67" y="-151" font-family="Helvetica,sans-Serif" font-size="10.00">OnDestroy</text>
</a>
</g>
</g>
<!-- Node3&#45;&gt;Node4 -->
<g id="edge3" class="edge">
<title>Node3&#45;&gt;Node4</title>
<path fill="none" stroke="#63b8ff" d="M191.35,-124.07C170.06,-130.1 144.65,-137.29 122.44,-143.58"/>
<polygon fill="#63b8ff" stroke="#63b8ff" points="192.26,-127.45 200.92,-121.36 190.35,-120.72 192.26,-127.45"/>
</g>
<!-- Node5 -->
<g id="node5" class="node">
<title>Node5</title>
<g id="a_node5"><a xlink:href="class_veery_1_1_u_i_1_1_selection_1_1_link.html#a0302d4a02186260cff8d5081004f201b" target="_top" xlink:title=" ">
<polygon fill="white" stroke="#666666" points="127,-126 7,-126 7,-96 127,-96 127,-126"/>
<text text-anchor="start" x="15" y="-114" font-family="Helvetica,sans-Serif" font-size="10.00">Veery.UI.Selection.Link.</text>
<text text-anchor="middle" x="67" y="-103" font-family="Helvetica,sans-Serif" font-size="10.00">Start</text>
</a>
</g>
</g>
<!-- Node3&#45;&gt;Node5 -->
<g id="edge4" class="edge">
<title>Node3&#45;&gt;Node5</title>
<path fill="none" stroke="#63b8ff" d="M158.27,-111C147.83,-111 137.27,-111 127.24,-111"/>
<polygon fill="#63b8ff" stroke="#63b8ff" points="158.02,-114.5 168.02,-111 158.02,-107.5 158.02,-114.5"/>
</g>
<!-- Node7 -->
<g id="node7" class="node">
<title>Node7</title>
<g id="a_node7"><a xlink:href="class_veery_1_1_u_i_1_1_selection_1_1_method.html#a90a0b56b50df93505354c64addc5e97c" target="_top" xlink:title=" ">
<polygon fill="white" stroke="#666666" points="134,-78 0,-78 0,-48 134,-48 134,-78"/>
<text text-anchor="start" x="8" y="-66" font-family="Helvetica,sans-Serif" font-size="10.00">Veery.UI.Selection.Method.</text>
<text text-anchor="middle" x="67" y="-55" font-family="Helvetica,sans-Serif" font-size="10.00">OnDestroy</text>
</a>
</g>
</g>
<!-- Node6&#45;&gt;Node7 -->
<g id="edge6" class="edge">
<title>Node6&#45;&gt;Node7</title>
<path fill="none" stroke="#63b8ff" d="M160.23,-63C151.6,-63 142.87,-63 134.4,-63"/>
<polygon fill="#63b8ff" stroke="#63b8ff" points="159.97,-66.5 169.97,-63 159.97,-59.5 159.97,-66.5"/>
</g>
<!-- Node8 -->
<g id="node8" class="node">
<title>Node8</title>
<g id="a_node8"><a xlink:href="class_veery_1_1_u_i_1_1_selection_1_1_method.html#a09f9a806d21549d5c76b9d43386c0a10" target="_top" xlink:title=" ">
<polygon fill="white" stroke="#666666" points="134,-30 0,-30 0,0 134,0 134,-30"/>
<text text-anchor="start" x="8" y="-18" font-family="Helvetica,sans-Serif" font-size="10.00">Veery.UI.Selection.Method.</text>
<text text-anchor="middle" x="67" y="-7" font-family="Helvetica,sans-Serif" font-size="10.00">Start</text>
</a>
</g>
</g>
<!-- Node6&#45;&gt;Node8 -->
<g id="edge7" class="edge">
<title>Node6&#45;&gt;Node8</title>
<path fill="none" stroke="#63b8ff" d="M172.3,-44.54C155.83,-39.87 138.33,-34.92 122.46,-30.42"/>
<polygon fill="#63b8ff" stroke="#63b8ff" points="170.9,-47.78 181.48,-47.14 172.81,-41.04 170.9,-47.78"/>
</g>
</g>
</svg>
