<?xml version="1.0" encoding="UTF-8" standalone="no"?>
<!DOCTYPE svg PUBLIC "-//W3C//DTD SVG 1.1//EN"
 "http://www.w3.org/Graphics/SVG/1.1/DTD/svg11.dtd">
<!-- Generated by graphviz version 7.0.5 (20221223.1930)
 -->
<!-- Title: Veery.UI.Selection.Links Pages: 1 -->
<svg width="286pt" height="171pt"
 viewBox="0.00 0.00 285.50 171.00" xmlns="http://www.w3.org/2000/svg" xmlns:xlink="http://www.w3.org/1999/xlink">
<g id="graph0" class="graph" transform="scale(1 1) rotate(0) translate(4 167)">
<title>Veery.UI.Selection.Links</title>
<!-- Node1 -->
<g id="node1" class="node">
<title>Node1</title>
<g id="a_node1"><a xlink:title=" ">
<polygon fill="#999999" stroke="#666666" points="195,-19 72,-19 72,0 195,0 195,-19"/>
<text text-anchor="middle" x="133.5" y="-7" font-family="Helvetica,sans-Serif" font-size="10.00">Veery.UI.Selection.Links</text>
</a>
</g>
</g>
<!-- Node2 -->
<g id="node2" class="node">
<title>Node2</title>
<g id="a_node2"><a xlink:href="class_veery_1_1_u_i_1_1_selection_1_1_selection_property.html" target="_top" xlink:title=" ">
<polygon fill="white" stroke="#666666" points="93,-107 0,-107 0,-88 93,-88 93,-107"/>
<text text-anchor="middle" x="46.5" y="-95" font-family="Helvetica,sans-Serif" font-size="10.00">SelectionProperty</text>
</a>
</g>
</g>
<!-- Node2&#45;&gt;Node1 -->
<g id="edge1" class="edge">
<title>Node2&#45;&gt;Node1</title>
<path fill="none" stroke="#63b8ff" d="M63.53,-79.66C81.78,-61.63 110.06,-33.67 124.44,-19.46"/>
<polygon fill="#63b8ff" stroke="#63b8ff" points="61.21,-77.04 56.56,-86.56 66.13,-82.02 61.21,-77.04"/>
</g>
<!-- Node3 -->
<g id="node3" class="node">
<title>Node3</title>
<g id="a_node3"><a xlink:title=" ">
<polygon fill="white" stroke="#666666" points="88.5,-163 4.5,-163 4.5,-144 88.5,-144 88.5,-163"/>
<text text-anchor="middle" x="46.5" y="-151" font-family="Helvetica,sans-Serif" font-size="10.00">MonoBehaviour</text>
</a>
</g>
</g>
<!-- Node3&#45;&gt;Node2 -->
<g id="edge2" class="edge">
<title>Node3&#45;&gt;Node2</title>
<path fill="none" stroke="#63b8ff" d="M46.5,-132.11C46.5,-123.52 46.5,-113.97 46.5,-107.25"/>
<polygon fill="#63b8ff" stroke="#63b8ff" points="43,-132.07 46.5,-142.07 50,-132.07 43,-132.07"/>
</g>
<!-- Node4 -->
<g id="node4" class="node">
<title>Node4</title>
<g id="a_node4"><a xlink:title=" ">
<polygon fill="white" stroke="#666666" points="156,-107 111,-107 111,-88 156,-88 156,-107"/>
<text text-anchor="middle" x="133.5" y="-95" font-family="Helvetica,sans-Serif" font-size="10.00">Button</text>
</a>
</g>
</g>
<!-- Node4&#45;&gt;Node1 -->
<g id="edge3" class="edge">
<title>Node4&#45;&gt;Node1</title>
<path fill="none" stroke="#9a32cd" stroke-dasharray="5,2" d="M133.5,-76.37C133.5,-58.37 133.5,-32.83 133.5,-19.46"/>
<polygon fill="#9a32cd" stroke="#9a32cd" points="130,-76.11 133.5,-86.11 137,-76.11 130,-76.11"/>
<text text-anchor="middle" x="161" y="-56.5" font-family="Helvetica,sans-Serif" font-size="10.00"> _addButton</text>
<text text-anchor="middle" x="161" y="-45.5" font-family="Helvetica,sans-Serif" font-size="10.00">_backButton</text>
</g>
<!-- Node5 -->
<g id="node5" class="node">
<title>Node5</title>
<g id="a_node5"><a xlink:title=" ">
<polygon fill="white" stroke="#666666" points="247,-107 176,-107 176,-88 247,-88 247,-107"/>
<text text-anchor="middle" x="211.5" y="-95" font-family="Helvetica,sans-Serif" font-size="10.00">GameObject</text>
</a>
</g>
</g>
<!-- Node5&#45;&gt;Node1 -->
<g id="edge4" class="edge">
<title>Node5&#45;&gt;Node1</title>
<path fill="none" stroke="#9a32cd" stroke-dasharray="5,2" d="M208.13,-76.54C205.11,-63.91 199.54,-47.96 189.5,-37 182.38,-29.23 172.51,-23.52 163.03,-19.44"/>
<polygon fill="#9a32cd" stroke="#9a32cd" points="204.68,-77.14 210.08,-86.26 211.55,-75.77 204.68,-77.14"/>
<text text-anchor="middle" x="241.5" y="-62" font-family="Helvetica,sans-Serif" font-size="10.00"> _contentGO</text>
<text text-anchor="middle" x="241.5" y="-51" font-family="Helvetica,sans-Serif" font-size="10.00">_linkPrefab</text>
<text text-anchor="middle" x="241.5" y="-40" font-family="Helvetica,sans-Serif" font-size="10.00">_methodsPrefab</text>
</g>
</g>
</svg>
