<?xml version="1.0" encoding="UTF-8" standalone="no"?>
<!DOCTYPE svg PUBLIC "-//W3C//DTD SVG 1.1//EN"
 "http://www.w3.org/Graphics/SVG/1.1/DTD/svg11.dtd">
<!-- Generated by graphviz version 7.0.5 (20221223.1930)
 -->
<!-- Title: Veery.Anchors.AnchorsManager.WaitForCreation Pages: 1 -->
<svg width="748pt" height="38pt"
 viewBox="0.00 0.00 748.00 38.00" xmlns="http://www.w3.org/2000/svg" xmlns:xlink="http://www.w3.org/1999/xlink">
<g id="graph0" class="graph" transform="scale(1 1) rotate(0) translate(4 34)">
<title>Veery.Anchors.AnchorsManager.WaitForCreation</title>
<!-- Node1 -->
<g id="node1" class="node">
<title>Node1</title>
<g id="a_node1"><a xlink:title="Waits until the creation of the OVRSpatialAnchor component has ended, then saves the anchor.">
<polygon fill="#999999" stroke="#666666" points="740,-30 582,-30 582,0 740,0 740,-30"/>
<text text-anchor="start" x="590" y="-18" font-family="Helvetica,sans-Serif" font-size="10.00">Veery.Anchors.AnchorsManager.</text>
<text text-anchor="middle" x="661" y="-7" font-family="Helvetica,sans-Serif" font-size="10.00">WaitForCreation</text>
</a>
</g>
</g>
<!-- Node2 -->
<g id="node2" class="node">
<title>Node2</title>
<g id="a_node2"><a xlink:href="class_veery_1_1_anchors_1_1_anchors_manager.html#a6c45983b0768f9fad7dd544bfb44b649" target="_top" xlink:title="Called when the distance select interactor is removed from the current interactable....">
<polygon fill="white" stroke="#666666" points="546,-30 388,-30 388,0 546,0 546,-30"/>
<text text-anchor="start" x="396" y="-18" font-family="Helvetica,sans-Serif" font-size="10.00">Veery.Anchors.AnchorsManager.</text>
<text text-anchor="middle" x="467" y="-7" font-family="Helvetica,sans-Serif" font-size="10.00">Deselect</text>
</a>
</g>
</g>
<!-- Node1&#45;&gt;Node2 -->
<g id="edge1" class="edge">
<title>Node1&#45;&gt;Node2</title>
<path fill="none" stroke="#63b8ff" d="M570.38,-15C562.38,-15 554.33,-15 546.43,-15"/>
<polygon fill="#63b8ff" stroke="#63b8ff" points="570.12,-18.5 580.12,-15 570.12,-11.5 570.12,-18.5"/>
</g>
<!-- Node3 -->
<g id="node3" class="node">
<title>Node3</title>
<g id="a_node3"><a xlink:href="class_veery_1_1_anchors_1_1_anchors_manager.html#a646d6cb0148c9f170abab2da3176306b" target="_top" xlink:title="Called when the state of the distance select interactor changes to &quot;Select&quot;. Sets the current interac...">
<polygon fill="white" stroke="#666666" points="352,-30 194,-30 194,0 352,0 352,-30"/>
<text text-anchor="start" x="202" y="-18" font-family="Helvetica,sans-Serif" font-size="10.00">Veery.Anchors.AnchorsManager.</text>
<text text-anchor="middle" x="273" y="-7" font-family="Helvetica,sans-Serif" font-size="10.00">Select</text>
</a>
</g>
</g>
<!-- Node2&#45;&gt;Node3 -->
<g id="edge2" class="edge">
<title>Node2&#45;&gt;Node3</title>
<path fill="none" stroke="#63b8ff" d="M376.38,-15C368.38,-15 360.33,-15 352.43,-15"/>
<polygon fill="#63b8ff" stroke="#63b8ff" points="376.12,-18.5 386.12,-15 376.12,-11.5 376.12,-18.5"/>
</g>
<!-- Node4 -->
<g id="node4" class="node">
<title>Node4</title>
<g id="a_node4"><a xlink:href="class_veery_1_1_anchors_1_1_anchors_manager.html#a26098d886f7b561ec7e01a871df64b37" target="_top" xlink:title=" ">
<polygon fill="white" stroke="#666666" points="158,-30 0,-30 0,0 158,0 158,-30"/>
<text text-anchor="start" x="8" y="-18" font-family="Helvetica,sans-Serif" font-size="10.00">Veery.Anchors.AnchorsManager.</text>
<text text-anchor="middle" x="79" y="-7" font-family="Helvetica,sans-Serif" font-size="10.00">Start</text>
</a>
</g>
</g>
<!-- Node3&#45;&gt;Node4 -->
<g id="edge3" class="edge">
<title>Node3&#45;&gt;Node4</title>
<path fill="none" stroke="#63b8ff" d="M182.38,-15C174.38,-15 166.33,-15 158.43,-15"/>
<polygon fill="#63b8ff" stroke="#63b8ff" points="182.12,-18.5 192.12,-15 182.12,-11.5 182.12,-18.5"/>
</g>
</g>
</svg>
