<?xml version="1.0" encoding="UTF-8" standalone="no"?>
<!DOCTYPE svg PUBLIC "-//W3C//DTD SVG 1.1//EN"
 "http://www.w3.org/Graphics/SVG/1.1/DTD/svg11.dtd">
<!-- Generated by graphviz version 7.0.5 (20221223.1930)
 -->
<!-- Title: Veery.UI.Collapsable Pages: 1 -->
<svg width="385pt" height="115pt"
 viewBox="0.00 0.00 385.00 115.00" xmlns="http://www.w3.org/2000/svg" xmlns:xlink="http://www.w3.org/1999/xlink">
<g id="graph0" class="graph" transform="scale(1 1) rotate(0) translate(4 111)">
<title>Veery.UI.Collapsable</title>
<!-- Node1 -->
<g id="node1" class="node">
<title>Node1</title>
<g id="a_node1"><a xlink:title="A component that allows a UI element to be collapsed and expanded.">
<polygon fill="#999999" stroke="#666666" points="191.5,-19 84.5,-19 84.5,0 191.5,0 191.5,-19"/>
<text text-anchor="middle" x="138" y="-7" font-family="Helvetica,sans-Serif" font-size="10.00">Veery.UI.Collapsable</text>
</a>
</g>
</g>
<!-- Node2 -->
<g id="node2" class="node">
<title>Node2</title>
<g id="a_node2"><a xlink:title=" ">
<polygon fill="white" stroke="#666666" points="84,-107 0,-107 0,-88 84,-88 84,-107"/>
<text text-anchor="middle" x="42" y="-95" font-family="Helvetica,sans-Serif" font-size="10.00">MonoBehaviour</text>
</a>
</g>
</g>
<!-- Node2&#45;&gt;Node1 -->
<g id="edge1" class="edge">
<title>Node2&#45;&gt;Node1</title>
<path fill="none" stroke="#63b8ff" d="M60.25,-80.15C80.36,-62.13 111.99,-33.8 128,-19.46"/>
<polygon fill="#63b8ff" stroke="#63b8ff" points="58.15,-77.33 53.04,-86.61 62.82,-82.54 58.15,-77.33"/>
</g>
<!-- Node3 -->
<g id="node3" class="node">
<title>Node3</title>
<g id="a_node3"><a xlink:title=" ">
<polygon fill="white" stroke="#666666" points="173.5,-107 102.5,-107 102.5,-88 173.5,-88 173.5,-107"/>
<text text-anchor="middle" x="138" y="-95" font-family="Helvetica,sans-Serif" font-size="10.00">GameObject</text>
</a>
</g>
</g>
<!-- Node3&#45;&gt;Node1 -->
<g id="edge2" class="edge">
<title>Node3&#45;&gt;Node1</title>
<path fill="none" stroke="#9a32cd" stroke-dasharray="5,2" d="M138,-76.37C138,-58.37 138,-32.83 138,-19.46"/>
<polygon fill="#9a32cd" stroke="#9a32cd" points="134.5,-76.11 138,-86.11 141.5,-76.11 134.5,-76.11"/>
<text text-anchor="middle" x="188" y="-51" font-family="Helvetica,sans-Serif" font-size="10.00"> _collapseContainerGO</text>
</g>
<!-- Node4 -->
<g id="node4" class="node">
<title>Node4</title>
<g id="a_node4"><a xlink:title=" ">
<polygon fill="white" stroke="#666666" points="301.5,-107 220.5,-107 220.5,-88 301.5,-88 301.5,-107"/>
<text text-anchor="middle" x="261" y="-95" font-family="Helvetica,sans-Serif" font-size="10.00">RectTransform</text>
</a>
</g>
</g>
<!-- Node4&#45;&gt;Node1 -->
<g id="edge3" class="edge">
<title>Node4&#45;&gt;Node1</title>
<path fill="none" stroke="#9a32cd" stroke-dasharray="5,2" d="M258.46,-76.71C255.77,-63.68 250.25,-47.2 239,-37 226.11,-25.31 208.68,-18.66 191.94,-14.91"/>
<polygon fill="#9a32cd" stroke="#9a32cd" points="254.96,-77.03 260.03,-86.34 261.87,-75.91 254.96,-77.03"/>
<text text-anchor="middle" x="316.5" y="-62" font-family="Helvetica,sans-Serif" font-size="10.00"> _collapsableRectTransform</text>
<text text-anchor="middle" x="316.5" y="-51" font-family="Helvetica,sans-Serif" font-size="10.00">_notchRectTransform</text>
<text text-anchor="middle" x="316.5" y="-40" font-family="Helvetica,sans-Serif" font-size="10.00">_surfaceRectTransform</text>
</g>
</g>
</svg>
