<?xml version="1.0" encoding="UTF-8" standalone="no"?>
<!DOCTYPE svg PUBLIC "-//W3C//DTD SVG 1.1//EN"
 "http://www.w3.org/Graphics/SVG/1.1/DTD/svg11.dtd">
<!-- Generated by graphviz version 7.0.5 (20221223.1930)
 -->
<!-- Title: Veery.UI.Selection.Methods.OnStateChanged Pages: 1 -->
<svg width="322pt" height="86pt"
 viewBox="0.00 0.00 322.00 86.00" xmlns="http://www.w3.org/2000/svg" xmlns:xlink="http://www.w3.org/1999/xlink">
<g id="graph0" class="graph" transform="scale(1 1) rotate(0) translate(4 82)">
<title>Veery.UI.Selection.Methods.OnStateChanged</title>
<!-- Node1 -->
<g id="node1" class="node">
<title>Node1</title>
<g id="a_node1"><a xlink:title=" ">
<polygon fill="#999999" stroke="#666666" points="314,-54 175,-54 175,-24 314,-24 314,-54"/>
<text text-anchor="start" x="183" y="-42" font-family="Helvetica,sans-Serif" font-size="10.00">Veery.UI.Selection.Methods.</text>
<text text-anchor="middle" x="244.5" y="-31" font-family="Helvetica,sans-Serif" font-size="10.00">OnStateChanged</text>
</a>
</g>
</g>
<!-- Node2 -->
<g id="node2" class="node">
<title>Node2</title>
<g id="a_node2"><a xlink:href="class_veery_1_1_u_i_1_1_selection_1_1_methods.html#aede144ccbfab66622384bac222e67043" target="_top" xlink:title=" ">
<polygon fill="white" stroke="#666666" points="139,-78 0,-78 0,-48 139,-48 139,-78"/>
<text text-anchor="start" x="8" y="-66" font-family="Helvetica,sans-Serif" font-size="10.00">Veery.UI.Selection.Methods.</text>
<text text-anchor="middle" x="69.5" y="-55" font-family="Helvetica,sans-Serif" font-size="10.00">OnDestroy</text>
</a>
</g>
</g>
<!-- Node1&#45;&gt;Node2 -->
<g id="edge1" class="edge">
<title>Node1&#45;&gt;Node2</title>
<path fill="none" stroke="#63b8ff" d="M163.38,-50.11C155.38,-51.23 147.3,-52.35 139.42,-53.44"/>
<polygon fill="#63b8ff" stroke="#63b8ff" points="163.71,-53.6 173.13,-48.76 162.74,-46.67 163.71,-53.6"/>
</g>
<!-- Node3 -->
<g id="node3" class="node">
<title>Node3</title>
<g id="a_node3"><a xlink:href="class_veery_1_1_u_i_1_1_selection_1_1_methods.html#a48083f7c70fdc83c1b71364999ed248f" target="_top" xlink:title=" ">
<polygon fill="white" stroke="#666666" points="139,-30 0,-30 0,0 139,0 139,-30"/>
<text text-anchor="start" x="8" y="-18" font-family="Helvetica,sans-Serif" font-size="10.00">Veery.UI.Selection.Methods.</text>
<text text-anchor="middle" x="69.5" y="-7" font-family="Helvetica,sans-Serif" font-size="10.00">Start</text>
</a>
</g>
</g>
<!-- Node1&#45;&gt;Node3 -->
<g id="edge2" class="edge">
<title>Node1&#45;&gt;Node3</title>
<path fill="none" stroke="#63b8ff" d="M163.38,-27.89C155.38,-26.77 147.3,-25.65 139.42,-24.56"/>
<polygon fill="#63b8ff" stroke="#63b8ff" points="162.74,-31.33 173.13,-29.24 163.71,-24.4 162.74,-31.33"/>
</g>
</g>
</svg>
