<?xml version="1.0" encoding="UTF-8" standalone="no"?>
<!DOCTYPE svg PUBLIC "-//W3C//DTD SVG 1.1//EN"
 "http://www.w3.org/Graphics/SVG/1.1/DTD/svg11.dtd">
<!-- Generated by graphviz version 7.0.5 (20221223.1930)
 -->
<!-- Title: EVA.UI.HandMenuController Pages: 1 -->
<svg width="422pt" height="137pt"
 viewBox="0.00 0.00 422.00 137.00" xmlns="http://www.w3.org/2000/svg" xmlns:xlink="http://www.w3.org/1999/xlink">
<g id="graph0" class="graph" transform="scale(1 1) rotate(0) translate(4 133)">
<title>EVA.UI.HandMenuController</title>
<!-- Node1 -->
<g id="node1" class="node">
<title>Node1</title>
<g id="a_node1"><a xlink:title=" ">
<polygon fill="#999999" stroke="#666666" points="246,-19 106,-19 106,0 246,0 246,-19"/>
<text text-anchor="middle" x="176" y="-7" font-family="Helvetica,sans-Serif" font-size="10.00">EVA.UI.HandMenuController</text>
</a>
</g>
</g>
<!-- Node2 -->
<g id="node2" class="node">
<title>Node2</title>
<g id="a_node2"><a xlink:title=" ">
<polygon fill="white" stroke="#666666" points="84,-129 0,-129 0,-110 84,-110 84,-129"/>
<text text-anchor="middle" x="42" y="-117" font-family="Helvetica,sans-Serif" font-size="10.00">MonoBehaviour</text>
</a>
</g>
</g>
<!-- Node2&#45;&gt;Node1 -->
<g id="edge1" class="edge">
<title>Node2&#45;&gt;Node1</title>
<path fill="none" stroke="#63b8ff" d="M55.89,-100.88C70.61,-83.07 95.25,-55.58 121,-37 130.8,-29.93 142.78,-23.9 153.05,-19.39"/>
<polygon fill="#63b8ff" stroke="#63b8ff" points="53.31,-98.51 49.74,-108.49 58.75,-102.91 53.31,-98.51"/>
</g>
<!-- Node3 -->
<g id="node3" class="node">
<title>Node3</title>
<g id="a_node3"><a xlink:title=" ">
<polygon fill="white" stroke="#666666" points="163.5,-129 102.5,-129 102.5,-110 163.5,-110 163.5,-129"/>
<text text-anchor="middle" x="133" y="-117" font-family="Helvetica,sans-Serif" font-size="10.00">Transform</text>
</a>
</g>
</g>
<!-- Node3&#45;&gt;Node1 -->
<g id="edge2" class="edge">
<title>Node3&#45;&gt;Node1</title>
<path fill="none" stroke="#9a32cd" stroke-dasharray="5,2" d="M128.22,-98.68C125.13,-81.28 123.44,-55.88 134,-37 138.29,-29.33 145.83,-23.56 153.35,-19.4"/>
<polygon fill="#9a32cd" stroke="#9a32cd" points="124.74,-99.18 130.23,-108.24 131.59,-97.73 124.74,-99.18"/>
<text text-anchor="middle" x="165.5" y="-84" font-family="Helvetica,sans-Serif" font-size="10.00"> _parent</text>
<text text-anchor="middle" x="165.5" y="-73" font-family="Helvetica,sans-Serif" font-size="10.00">controllerLeft</text>
<text text-anchor="middle" x="165.5" y="-62" font-family="Helvetica,sans-Serif" font-size="10.00">controllerRight</text>
<text text-anchor="middle" x="165.5" y="-51" font-family="Helvetica,sans-Serif" font-size="10.00">handLeft</text>
<text text-anchor="middle" x="165.5" y="-40" font-family="Helvetica,sans-Serif" font-size="10.00">handRight</text>
</g>
<!-- Node4 -->
<g id="node4" class="node">
<title>Node4</title>
<g id="a_node4"><a xlink:title=" ">
<polygon fill="white" stroke="#666666" points="244,-129 194,-129 194,-110 244,-110 244,-129"/>
<text text-anchor="middle" x="219" y="-117" font-family="Helvetica,sans-Serif" font-size="10.00">Vector3</text>
</a>
</g>
</g>
<!-- Node4&#45;&gt;Node1 -->
<g id="edge3" class="edge">
<title>Node4&#45;&gt;Node1</title>
<path fill="none" stroke="#9a32cd" stroke-dasharray="5,2" d="M215.89,-98.19C212.73,-81.18 206.88,-56.61 197,-37 193.72,-30.5 188.69,-24.08 184.38,-19.19"/>
<polygon fill="#9a32cd" stroke="#9a32cd" points="212.43,-98.74 217.54,-108.02 219.33,-97.58 212.43,-98.74"/>
<text text-anchor="middle" x="248.5" y="-73" font-family="Helvetica,sans-Serif" font-size="10.00"> controllerOffset</text>
<text text-anchor="middle" x="248.5" y="-62" font-family="Helvetica,sans-Serif" font-size="10.00">handOffset</text>
<text text-anchor="middle" x="248.5" y="-51" font-family="Helvetica,sans-Serif" font-size="10.00">scale</text>
</g>
<!-- Node5 -->
<g id="node5" class="node">
<title>Node5</title>
<g id="a_node5"><a xlink:title=" ">
<polygon fill="white" stroke="#666666" points="343,-129 279,-129 279,-110 343,-110 343,-129"/>
<text text-anchor="middle" x="311" y="-117" font-family="Helvetica,sans-Serif" font-size="10.00">Quaternion</text>
</a>
</g>
</g>
<!-- Node5&#45;&gt;Node1 -->
<g id="edge4" class="edge">
<title>Node5&#45;&gt;Node1</title>
<path fill="none" stroke="#9a32cd" stroke-dasharray="5,2" d="M310.54,-98.45C309,-79.92 303.78,-52.92 287,-37 275.86,-26.43 261.3,-19.83 246.4,-15.77"/>
<polygon fill="#9a32cd" stroke="#9a32cd" points="307.03,-98.36 311.03,-108.17 314.02,-98.01 307.03,-98.36"/>
<text text-anchor="middle" x="361.5" y="-67.5" font-family="Helvetica,sans-Serif" font-size="10.00"> controllerOffsetRotation</text>
<text text-anchor="middle" x="361.5" y="-56.5" font-family="Helvetica,sans-Serif" font-size="10.00">handOffsetRotation</text>
</g>
</g>
</svg>
