<?xml version="1.0" encoding="UTF-8" standalone="no"?>
<!DOCTYPE svg PUBLIC "-//W3C//DTD SVG 1.1//EN"
 "http://www.w3.org/Graphics/SVG/1.1/DTD/svg11.dtd">
<!-- Generated by graphviz version 7.0.5 (20221223.1930)
 -->
<!-- Title: Veery.UI.Selection.SelectionProperties.SetUI Pages: 1 -->
<svg width="508pt" height="134pt"
 viewBox="0.00 0.00 508.00 134.00" xmlns="http://www.w3.org/2000/svg" xmlns:xlink="http://www.w3.org/1999/xlink">
<g id="graph0" class="graph" transform="scale(1 1) rotate(0) translate(4 130)">
<title>Veery.UI.Selection.SelectionProperties.SetUI</title>
<!-- Node1 -->
<g id="node1" class="node">
<title>Node1</title>
<g id="a_node1"><a xlink:title=" ">
<polygon fill="#999999" stroke="#666666" points="500,-54 360,-54 360,-24 500,-24 500,-54"/>
<text text-anchor="start" x="368" y="-42" font-family="Helvetica,sans-Serif" font-size="10.00">Veery.UI.Selection.Selection</text>
<text text-anchor="middle" x="430" y="-31" font-family="Helvetica,sans-Serif" font-size="10.00">Properties.SetUI</text>
</a>
</g>
</g>
<!-- Node2 -->
<g id="node2" class="node">
<title>Node2</title>
<g id="a_node2"><a xlink:href="class_veery_1_1_u_i_1_1_selection_1_1_links.html#a54ddd0c97f855eb11d00757f1c8a80f6" target="_top" xlink:title=" ">
<polygon fill="white" stroke="#666666" points="324,-72.5 176,-72.5 176,-53.5 324,-53.5 324,-72.5"/>
<text text-anchor="middle" x="250" y="-60.5" font-family="Helvetica,sans-Serif" font-size="10.00">Veery.UI.Selection.Links.Back</text>
</a>
</g>
</g>
<!-- Node1&#45;&gt;Node2 -->
<g id="edge1" class="edge">
<title>Node1&#45;&gt;Node2</title>
<path fill="none" stroke="#63b8ff" d="M348.39,-49.87C340.35,-50.95 332.22,-52.05 324.26,-53.12"/>
<polygon fill="#63b8ff" stroke="#63b8ff" points="348.73,-53.35 358.17,-48.55 347.79,-46.42 348.73,-53.35"/>
</g>
<!-- Node5 -->
<g id="node5" class="node">
<title>Node5</title>
<g id="a_node5"><a xlink:href="class_veery_1_1_u_i_1_1_selection_1_1_selection_properties.html#a255de7bcc4a115adc203f137e993c93e" target="_top" xlink:title=" ">
<polygon fill="white" stroke="#666666" points="320,-33 180,-33 180,-3 320,-3 320,-33"/>
<text text-anchor="start" x="188" y="-21" font-family="Helvetica,sans-Serif" font-size="10.00">Veery.UI.Selection.Selection</text>
<text text-anchor="middle" x="250" y="-10" font-family="Helvetica,sans-Serif" font-size="10.00">Properties.OnStateChanged</text>
</a>
</g>
</g>
<!-- Node1&#45;&gt;Node5 -->
<g id="edge4" class="edge">
<title>Node1&#45;&gt;Node5</title>
<path fill="none" stroke="#63b8ff" d="M348.38,-29.49C339.05,-28.39 329.6,-27.27 320.43,-26.19"/>
<polygon fill="#63b8ff" stroke="#63b8ff" points="347.83,-32.95 358.17,-30.64 348.65,-26 347.83,-32.95"/>
</g>
<!-- Node3 -->
<g id="node3" class="node">
<title>Node3</title>
<g id="a_node3"><a xlink:href="class_veery_1_1_u_i_1_1_selection_1_1_links.html#a8824fa93bcf6fb63f533c900087ab29c" target="_top" xlink:title=" ">
<polygon fill="white" stroke="#666666" points="132.5,-126 7.5,-126 7.5,-96 132.5,-96 132.5,-126"/>
<text text-anchor="start" x="15.5" y="-114" font-family="Helvetica,sans-Serif" font-size="10.00">Veery.UI.Selection.Links.</text>
<text text-anchor="middle" x="70" y="-103" font-family="Helvetica,sans-Serif" font-size="10.00">OnDestroy</text>
</a>
</g>
</g>
<!-- Node2&#45;&gt;Node3 -->
<g id="edge2" class="edge">
<title>Node2&#45;&gt;Node3</title>
<path fill="none" stroke="#63b8ff" d="M201.15,-75.9C178.67,-81.96 151.71,-89.24 128.17,-95.58"/>
<polygon fill="#63b8ff" stroke="#63b8ff" points="201.91,-79.32 210.66,-73.34 200.09,-72.56 201.91,-79.32"/>
</g>
<!-- Node4 -->
<g id="node4" class="node">
<title>Node4</title>
<g id="a_node4"><a xlink:href="class_veery_1_1_u_i_1_1_selection_1_1_links.html#a81cd4d5e1a873d76951f3785c96d884e" target="_top" xlink:title=" ">
<polygon fill="white" stroke="#666666" points="132.5,-78 7.5,-78 7.5,-48 132.5,-48 132.5,-78"/>
<text text-anchor="start" x="15.5" y="-66" font-family="Helvetica,sans-Serif" font-size="10.00">Veery.UI.Selection.Links.</text>
<text text-anchor="middle" x="70" y="-55" font-family="Helvetica,sans-Serif" font-size="10.00">Start</text>
</a>
</g>
</g>
<!-- Node2&#45;&gt;Node4 -->
<g id="edge3" class="edge">
<title>Node2&#45;&gt;Node4</title>
<path fill="none" stroke="#63b8ff" d="M164.19,-63C153.65,-63 143.03,-63 132.92,-63"/>
<polygon fill="#63b8ff" stroke="#63b8ff" points="164.06,-66.5 174.06,-63 164.06,-59.5 164.06,-66.5"/>
</g>
<!-- Node6 -->
<g id="node6" class="node">
<title>Node6</title>
<g id="a_node6"><a xlink:href="class_veery_1_1_u_i_1_1_selection_1_1_selection_properties.html#a67117303cc0bb1920df11495c2d3fa8c" target="_top" xlink:title=" ">
<polygon fill="white" stroke="#666666" points="140,-30 0,-30 0,0 140,0 140,-30"/>
<text text-anchor="start" x="8" y="-18" font-family="Helvetica,sans-Serif" font-size="10.00">Veery.UI.Selection.Selection</text>
<text text-anchor="middle" x="70" y="-7" font-family="Helvetica,sans-Serif" font-size="10.00">Properties.Start</text>
</a>
</g>
</g>
<!-- Node5&#45;&gt;Node6 -->
<g id="edge5" class="edge">
<title>Node5&#45;&gt;Node6</title>
<path fill="none" stroke="#63b8ff" d="M168.38,-16.64C159.05,-16.48 149.6,-16.32 140.43,-16.17"/>
<polygon fill="#63b8ff" stroke="#63b8ff" points="168.1,-20.14 178.16,-16.81 168.22,-13.14 168.1,-20.14"/>
</g>
</g>
</svg>
