<?xml version="1.0" encoding="UTF-8" standalone="no"?>
<!DOCTYPE svg PUBLIC "-//W3C//DTD SVG 1.1//EN"
 "http://www.w3.org/Graphics/SVG/1.1/DTD/svg11.dtd">
<!-- Generated by graphviz version 7.0.5 (20221223.1930)
 -->
<!-- Title: Veery.UI.Selection.TriggerEndableProperty.Toggle Pages: 1 -->
<svg width="308pt" height="86pt"
 viewBox="0.00 0.00 308.00 86.00" xmlns="http://www.w3.org/2000/svg" xmlns:xlink="http://www.w3.org/1999/xlink">
<g id="graph0" class="graph" transform="scale(1 1) rotate(0) translate(4 82)">
<title>Veery.UI.Selection.TriggerEndableProperty.Toggle</title>
<!-- Node1 -->
<g id="node1" class="node">
<title>Node1</title>
<g id="a_node1"><a xlink:title=" ">
<polygon fill="#999999" stroke="#666666" points="300,-54 171,-54 171,-24 300,-24 300,-54"/>
<text text-anchor="start" x="179" y="-42" font-family="Helvetica,sans-Serif" font-size="10.00">Veery.UI.Selection.Trigger</text>
<text text-anchor="middle" x="235.5" y="-31" font-family="Helvetica,sans-Serif" font-size="10.00">EndableProperty.Toggle</text>
</a>
</g>
</g>
<!-- Node2 -->
<g id="node2" class="node">
<title>Node2</title>
<g id="a_node2"><a xlink:href="class_veery_1_1_u_i_1_1_selection_1_1_trigger_endable_property.html#ae19ed6ffdde3a399462d3c79213240a1" target="_top" xlink:title=" ">
<polygon fill="white" stroke="#666666" points="135,-78 0,-78 0,-48 135,-48 135,-78"/>
<text text-anchor="start" x="8" y="-66" font-family="Helvetica,sans-Serif" font-size="10.00">Veery.UI.Selection.Trigger</text>
<text text-anchor="middle" x="67.5" y="-55" font-family="Helvetica,sans-Serif" font-size="10.00">EndableProperty.OnDestroy</text>
</a>
</g>
</g>
<!-- Node1&#45;&gt;Node2 -->
<g id="edge1" class="edge">
<title>Node1&#45;&gt;Node2</title>
<path fill="none" stroke="#63b8ff" d="M159.5,-49.84C151.45,-51.01 143.29,-52.19 135.34,-53.34"/>
<polygon fill="#63b8ff" stroke="#63b8ff" points="159.9,-53.32 169.3,-48.43 158.9,-46.39 159.9,-53.32"/>
</g>
<!-- Node3 -->
<g id="node3" class="node">
<title>Node3</title>
<g id="a_node3"><a xlink:href="class_veery_1_1_u_i_1_1_selection_1_1_trigger_endable_property.html#ae8845f027b37f0b500971155e655b539" target="_top" xlink:title=" ">
<polygon fill="white" stroke="#666666" points="132,-30 3,-30 3,0 132,0 132,-30"/>
<text text-anchor="start" x="11" y="-18" font-family="Helvetica,sans-Serif" font-size="10.00">Veery.UI.Selection.Trigger</text>
<text text-anchor="middle" x="67.5" y="-7" font-family="Helvetica,sans-Serif" font-size="10.00">EndableProperty.Start</text>
</a>
</g>
</g>
<!-- Node1&#45;&gt;Node3 -->
<g id="edge2" class="edge">
<title>Node1&#45;&gt;Node3</title>
<path fill="none" stroke="#63b8ff" d="M159.42,-28.15C150.37,-26.84 141.18,-25.51 132.31,-24.23"/>
<polygon fill="#63b8ff" stroke="#63b8ff" points="158.9,-31.61 169.3,-29.57 159.9,-24.68 158.9,-31.61"/>
</g>
</g>
</svg>
