<?xml version="1.0" encoding="UTF-8" standalone="no"?>
<!DOCTYPE svg PUBLIC "-//W3C//DTD SVG 1.1//EN"
 "http://www.w3.org/Graphics/SVG/1.1/DTD/svg11.dtd">
<!-- Generated by graphviz version 7.0.5 (20221223.1930)
 -->
<!-- Title: Veery.UI.Selection.Link Pages: 1 -->
<!--zoomable 184 -->
<svg id="main" version="1.1" xmlns="http://www.w3.org/2000/svg" xmlns:xlink="http://www.w3.org/1999/xlink" xml:space="preserve" onload="init(evt)">
<style type="text/css"><![CDATA[
.edge:hover path { stroke: red; }
.edge:hover polygon { stroke: red; fill: red; }
]]></style>
<script type="text/javascript"><![CDATA[
var edges = document.getElementsByTagName('g');
if (edges && edges.length) {
  for (var i=0;i<edges.length;i++) {
    if (edges[i].id.substr(0,4)=='edge') {
      edges[i].setAttribute('class','edge');
    }
  }
}
]]></script>
        <defs>
                <circle id="rim" cx="0" cy="0" r="7"/>
                <circle id="rim2" cx="0" cy="0" r="3.5"/>
                <g id="zoomPlus">
                        <use xlink:href="#rim" fill="#404040">
                                <set attributeName="fill" to="#808080" begin="zoomplus.mouseover" end="zoomplus.mouseout"/>
                        </use>
                        <path d="M-4,0h8M0,-4v8" fill="none" stroke="white" stroke-width="1.5" pointer-events="none"/>
                </g>
                <g id="zoomMin">
                        <use xlink:href="#rim" fill="#404040">
                                <set attributeName="fill" to="#808080" begin="zoomminus.mouseover" end="zoomminus.mouseout"/>
                        </use>
                        <path d="M-4,0h8" fill="none" stroke="white" stroke-width="1.5" pointer-events="none"/>
                </g>
                <g id="dirArrow">
                        <path fill="none" stroke="white" stroke-width="1.5" d="M0,-3.0v7 M-2.5,-0.5L0,-3.0L2.5,-0.5"/>
                </g>
               <g id="resetDef">
                       <use xlink:href="#rim2" fill="#404040">
                               <set attributeName="fill" to="#808080" begin="reset.mouseover" end="reset.mouseout"/>
                       </use>
               </g>
        </defs>

<script type="text/javascript">
var viewWidth = 589;
var viewHeight = 184;
var sectionId = 'dynsection-0';
</script>
<script xlink:href="svgpan.js"/>
<svg id="graph" class="graph">
<g id="viewport">
<title>Veery.UI.Selection.Link</title>
<!-- Node1 -->
<g id="node1" class="node">
<title>Node1</title>
<g id="a_node1"><a xlink:title=" ">
<polygon fill="#999999" stroke="#666666" points="581,-91 463,-91 463,-72 581,-72 581,-91"/>
<text text-anchor="middle" x="522" y="-79" font-family="Helvetica,sans-Serif" font-size="10.00">Veery.UI.Selection.Link</text>
</a>
</g>
</g>
<!-- Node2 -->
<g id="node2" class="node">
<title>Node2</title>
<g id="a_node2"><a xlink:href="class_veery_1_1_u_i_1_1_selection_1_1_selection_property.html" target="_top" xlink:title=" ">
<polygon fill="white" stroke="#666666" points="308.5,-176 215.5,-176 215.5,-157 308.5,-157 308.5,-176"/>
<text text-anchor="middle" x="262" y="-164" font-family="Helvetica,sans-Serif" font-size="10.00">SelectionProperty</text>
</a>
</g>
</g>
<!-- Node2&#45;&gt;Node1 -->
<g id="edge1" class="edge">
<title>Node2&#45;&gt;Node1</title>
<path fill="none" stroke="#63b8ff" d="M319.87,-160.85C356.58,-155.85 404.81,-146.74 445,-130.5 469.45,-120.62 494.54,-102.6 508.9,-91.39"/>
<polygon fill="#63b8ff" stroke="#63b8ff" points="319.84,-157.32 310.37,-162.07 320.73,-164.26 319.84,-157.32"/>
</g>
<!-- Node3 -->
<g id="node3" class="node">
<title>Node3</title>
<g id="a_node3"><a xlink:title=" ">
<polygon fill="white" stroke="#666666" points="84,-172 0,-172 0,-153 84,-153 84,-172"/>
<text text-anchor="middle" x="42" y="-160" font-family="Helvetica,sans-Serif" font-size="10.00">MonoBehaviour</text>
</a>
</g>
</g>
<!-- Node3&#45;&gt;Node2 -->
<g id="edge2" class="edge">
<title>Node3&#45;&gt;Node2</title>
<path fill="none" stroke="#63b8ff" d="M95.65,-163.47C132.09,-164.13 180.11,-165.02 215.01,-165.66"/>
<polygon fill="#63b8ff" stroke="#63b8ff" points="95.84,-159.97 85.77,-163.28 95.71,-166.97 95.84,-159.97"/>
</g>
<!-- Node7 -->
<g id="node7" class="node">
<title>Node7</title>
<g id="a_node7"><a xlink:href="class_veery_1_1_import_1_1_triggers_1_1_trigger_link.html" target="_top" xlink:title="Represents a link between two import objects that can trigger a delegate with parameters.">
<polygon fill="white" stroke="#666666" points="342,-132 182,-132 182,-113 342,-113 342,-132"/>
<text text-anchor="middle" x="262" y="-120" font-family="Helvetica,sans-Serif" font-size="10.00">Veery.Import.Triggers.TriggerLink</text>
</a>
</g>
</g>
<!-- Node3&#45;&gt;Node7 -->
<g id="edge7" class="edge">
<title>Node3&#45;&gt;Node7</title>
<path fill="none" stroke="#63b8ff" d="M95.27,-152.91C128.95,-146.73 172.65,-138.71 206.72,-132.46"/>
<polygon fill="#63b8ff" stroke="#63b8ff" points="94.95,-149.41 85.75,-154.66 96.22,-156.29 94.95,-149.41"/>
</g>
<!-- Node4 -->
<g id="node4" class="node">
<title>Node4</title>
<g id="a_node4"><a xlink:title=" ">
<polygon fill="white" stroke="#666666" points="284.5,-93 239.5,-93 239.5,-74 284.5,-74 284.5,-93"/>
<text text-anchor="middle" x="262" y="-81" font-family="Helvetica,sans-Serif" font-size="10.00">Button</text>
</a>
</g>
</g>
<!-- Node4&#45;&gt;Node1 -->
<g id="edge3" class="edge">
<title>Node4&#45;&gt;Node1</title>
<path fill="none" stroke="#9a32cd" stroke-dasharray="5,2" d="M296.44,-83.12C315.14,-82.92 338.86,-82.67 360,-82.5 394.1,-82.22 432.26,-81.98 462.87,-81.8"/>
<polygon fill="#9a32cd" stroke="#9a32cd" points="296.43,-79.62 286.47,-83.23 296.51,-86.62 296.43,-79.62"/>
<text text-anchor="middle" x="402.5" y="-96.5" font-family="Helvetica,sans-Serif" font-size="10.00"> _deleteButton</text>
<text text-anchor="middle" x="402.5" y="-85.5" font-family="Helvetica,sans-Serif" font-size="10.00">_editButton</text>
</g>
<!-- Node5 -->
<g id="node5" class="node">
<title>Node5</title>
<g id="a_node5"><a xlink:title=" ">
<polygon fill="white" stroke="#666666" points="312,-56 212,-56 212,-37 312,-37 312,-56"/>
<text text-anchor="middle" x="262" y="-44" font-family="Helvetica,sans-Serif" font-size="10.00">TextMeshProUGUI</text>
</a>
</g>
</g>
<!-- Node5&#45;&gt;Node1 -->
<g id="edge4" class="edge">
<title>Node5&#45;&gt;Node1</title>
<path fill="none" stroke="#9a32cd" stroke-dasharray="5,2" d="M323.35,-51.83C358.87,-55.29 404.6,-60.3 445,-66.5 454.31,-67.93 464.2,-69.7 473.68,-71.51"/>
<polygon fill="#9a32cd" stroke="#9a32cd" points="323.99,-48.37 313.71,-50.9 323.33,-55.34 323.99,-48.37"/>
<text text-anchor="middle" x="402.5" y="-69.5" font-family="Helvetica,sans-Serif" font-size="10.00"> _text</text>
</g>
<!-- Node6 -->
<g id="node6" class="node">
<title>Node6</title>
<g id="a_node6"><a xlink:title=" ">
<polygon fill="white" stroke="#666666" points="297.5,-19 226.5,-19 226.5,0 297.5,0 297.5,-19"/>
<text text-anchor="middle" x="262" y="-7" font-family="Helvetica,sans-Serif" font-size="10.00">GameObject</text>
</a>
</g>
</g>
<!-- Node6&#45;&gt;Node1 -->
<g id="edge5" class="edge">
<title>Node6&#45;&gt;Node1</title>
<path fill="none" stroke="#9a32cd" stroke-dasharray="5,2" d="M308.73,-13.57C346.14,-17.83 400.02,-26.13 445,-41.5 467.15,-49.07 490.72,-62.4 505.63,-71.58"/>
<polygon fill="#9a32cd" stroke="#9a32cd" points="309.5,-10.13 299.18,-12.53 308.74,-17.09 309.5,-10.13"/>
<text text-anchor="middle" x="402.5" y="-44.5" font-family="Helvetica,sans-Serif" font-size="10.00"> _parametersPrefab</text>
</g>
<!-- Node7&#45;&gt;Node1 -->
<g id="edge6" class="edge">
<title>Node7&#45;&gt;Node1</title>
<path fill="none" stroke="#9a32cd" stroke-dasharray="5,2" d="M353.42,-117.06C382.81,-114.37 415.45,-110.37 445,-104.5 461.09,-101.3 478.64,-96.11 492.82,-91.46"/>
<polygon fill="#9a32cd" stroke="#9a32cd" points="353.49,-113.54 343.84,-117.9 354.1,-120.52 353.49,-113.54"/>
<text text-anchor="middle" x="402.5" y="-118.5" font-family="Helvetica,sans-Serif" font-size="10.00"> _link</text>
</g>
<!-- Node8 -->
<g id="node8" class="node">
<title>Node8</title>
<g id="a_node8"><a xlink:title=" ">
<polygon fill="white" stroke="#666666" points="79,-128 5,-128 5,-109 79,-109 79,-128"/>
<text text-anchor="middle" x="42" y="-116" font-family="Helvetica,sans-Serif" font-size="10.00">LineRenderer</text>
</a>
</g>
</g>
<!-- Node8&#45;&gt;Node7 -->
<g id="edge8" class="edge">
<title>Node8&#45;&gt;Node7</title>
<path fill="none" stroke="#9a32cd" stroke-dasharray="5,2" d="M90.48,-118.64C112.79,-118.78 139.76,-119.03 164,-119.5 169.73,-119.61 175.64,-119.75 181.6,-119.9"/>
<polygon fill="#9a32cd" stroke="#9a32cd" points="90.8,-115.15 80.79,-118.59 90.77,-122.15 90.8,-115.15"/>
<text text-anchor="middle" x="133" y="-122.5" font-family="Helvetica,sans-Serif" font-size="10.00"> _lineRenderer</text>
</g>
<!-- Node9 -->
<g id="node9" class="node">
<title>Node9</title>
<g id="a_node9"><a xlink:title=" ">
<polygon fill="white" stroke="#666666" points="67.5,-91 16.5,-91 16.5,-72 67.5,-72 67.5,-91"/>
<text text-anchor="middle" x="42" y="-79" font-family="Helvetica,sans-Serif" font-size="10.00">Material</text>
</a>
</g>
</g>
<!-- Node9&#45;&gt;Node7 -->
<g id="edge9" class="edge">
<title>Node9&#45;&gt;Node7</title>
<path fill="none" stroke="#9a32cd" stroke-dasharray="5,2" d="M78.69,-87.86C102.8,-92.18 135.33,-98.09 164,-103.5 179.18,-106.37 195.67,-109.56 210.68,-112.51"/>
<polygon fill="#9a32cd" stroke="#9a32cd" points="79.53,-84.45 69.07,-86.14 78.3,-91.34 79.53,-84.45"/>
<text text-anchor="middle" x="133" y="-106.5" font-family="Helvetica,sans-Serif" font-size="10.00"> _material</text>
</g>
</g>
</svg>
        <g id="navigator" transform="translate(0 0)" fill="#404254">
                <rect fill="#f2f5e9" fill-opacity="0.5" stroke="#606060" stroke-width=".5" x="0" y="0" width="60" height="60"/>
                <use id="zoomplus" xlink:href="#zoomPlus" x="17" y="9" onmousedown="handleZoom(evt,'in')"/>
                <use id="zoomminus" xlink:href="#zoomMin" x="42" y="9" onmousedown="handleZoom(evt,'out')"/>
                <use id="reset" xlink:href="#resetDef" x="30" y="36" onmousedown="handleReset()"/>
                <g id="arrowUp" xlink:href="#dirArrow" transform="translate(30 24)" onmousedown="handlePan(0,-1)">
                  <use xlink:href="#rim" fill="#404040">
                        <set attributeName="fill" to="#808080" begin="arrowUp.mouseover" end="arrowUp.mouseout"/>
                  </use>
                  <path fill="none" stroke="white" stroke-width="1.5" d="M0,-3.0v7 M-2.5,-0.5L0,-3.0L2.5,-0.5"/>
                </g>
                <g id="arrowRight" xlink:href="#dirArrow" transform="rotate(90) translate(36 -43)" onmousedown="handlePan(1,0)">
                  <use xlink:href="#rim" fill="#404040">
                        <set attributeName="fill" to="#808080" begin="arrowRight.mouseover" end="arrowRight.mouseout"/>
                  </use>
                  <path fill="none" stroke="white" stroke-width="1.5" d="M0,-3.0v7 M-2.5,-0.5L0,-3.0L2.5,-0.5"/>
                </g>
                <g id="arrowDown" xlink:href="#dirArrow" transform="rotate(180) translate(-30 -48)" onmousedown="handlePan(0,1)">
                  <use xlink:href="#rim" fill="#404040">
                        <set attributeName="fill" to="#808080" begin="arrowDown.mouseover" end="arrowDown.mouseout"/>
                  </use>
                  <path fill="none" stroke="white" stroke-width="1.5" d="M0,-3.0v7 M-2.5,-0.5L0,-3.0L2.5,-0.5"/>
                </g>
                <g id="arrowLeft" xlink:href="#dirArrow" transform="rotate(270) translate(-36 17)" onmousedown="handlePan(-1,0)">
                  <use xlink:href="#rim" fill="#404040">
                        <set attributeName="fill" to="#808080" begin="arrowLeft.mouseover" end="arrowLeft.mouseout"/>
                  </use>
                  <path fill="none" stroke="white" stroke-width="1.5" d="M0,-3.0v7 M-2.5,-0.5L0,-3.0L2.5,-0.5"/>
                </g>
        </g>
        <svg viewBox="0 0 15 15" width="100%" height="30px" preserveAspectRatio="xMaxYMin meet">
         <g id="arrow_out" transform="scale(0.3 0.3)">
          <a xlink:href="class_veery_1_1_u_i_1_1_selection_1_1_link__coll__graph_org.svg" target="_base">
           <rect id="button" ry="5" rx="5" y="6" x="6" height="38" width="38"
                fill="#f2f5e9" fill-opacity="0.5" stroke="#606060" stroke-width="1.0"/>
           <path id="arrow"
             d="M 11.500037,31.436501 C 11.940474,20.09759 22.043105,11.32322 32.158766,21.979434 L 37.068811,17.246167 C 37.068811,17.246167 37.088388,32 37.088388,32 L 22.160133,31.978069 C 22.160133,31.978069 26.997745,27.140456 26.997745,27.140456 C 18.528582,18.264221 13.291696,25.230495 11.500037,31.436501 z"
             style="fill:#404040;"/>
          </a>
         </g>
        </svg>
</svg>
