<?xml version="1.0" encoding="UTF-8" standalone="no"?>
<!DOCTYPE svg PUBLIC "-//W3C//DTD SVG 1.1//EN"
 "http://www.w3.org/Graphics/SVG/1.1/DTD/svg11.dtd">
<!-- Generated by graphviz version 7.0.5 (20221223.1930)
 -->
<!-- Title: Veery.Interaction.Grabbable.EndTransform Pages: 1 -->
<svg width="494pt" height="124pt"
 viewBox="0.00 0.00 494.00 124.00" xmlns="http://www.w3.org/2000/svg" xmlns:xlink="http://www.w3.org/1999/xlink">
<g id="graph0" class="graph" transform="scale(1 1) rotate(0) translate(4 120)">
<title>Veery.Interaction.Grabbable.EndTransform</title>
<!-- Node1 -->
<g id="node1" class="node">
<title>Node1</title>
<g id="a_node1"><a xlink:title=" ">
<polygon fill="#999999" stroke="#666666" points="486,-73 348,-73 348,-43 486,-43 486,-73"/>
<text text-anchor="start" x="356" y="-61" font-family="Helvetica,sans-Serif" font-size="10.00">Veery.Interaction.Grabbable.</text>
<text text-anchor="middle" x="417" y="-50" font-family="Helvetica,sans-Serif" font-size="10.00">EndTransform</text>
</a>
</g>
</g>
<!-- Node2 -->
<g id="node2" class="node">
<title>Node2</title>
<g id="a_node2"><a xlink:href="class_veery_1_1_interaction_1_1_grabbable.html#afbf59a99411109bd42d9de6a6b076f16" target="_top" xlink:title=" ">
<polygon fill="white" stroke="#666666" points="312,-116 174,-116 174,-86 312,-86 312,-116"/>
<text text-anchor="start" x="182" y="-104" font-family="Helvetica,sans-Serif" font-size="10.00">Veery.Interaction.Grabbable.</text>
<text text-anchor="middle" x="243" y="-93" font-family="Helvetica,sans-Serif" font-size="10.00">BeginTransform</text>
</a>
</g>
</g>
<!-- Node1&#45;&gt;Node2 -->
<g id="edge1" class="edge">
<title>Node1&#45;&gt;Node2</title>
<path fill="none" stroke="#63b8ff" d="M343.49,-76.13C330.94,-79.27 317.99,-82.5 305.76,-85.56"/>
<polygon fill="#63b8ff" stroke="#63b8ff" points="344.07,-79.59 352.92,-73.77 342.37,-72.8 344.07,-79.59"/>
</g>
<!-- Node3 -->
<g id="node3" class="node">
<title>Node3</title>
<g id="a_node3"><a xlink:href="class_veery_1_1_interaction_1_1_grabbable.html#a7299e6a545bccb7640c599937d6b61e8" target="_top" xlink:title=" ">
<polygon fill="white" stroke="#666666" points="138,-94 0,-94 0,-64 138,-64 138,-94"/>
<text text-anchor="start" x="8" y="-82" font-family="Helvetica,sans-Serif" font-size="10.00">Veery.Interaction.Grabbable.</text>
<text text-anchor="middle" x="69" y="-71" font-family="Helvetica,sans-Serif" font-size="10.00">ProcessPointerEvent</text>
</a>
</g>
</g>
<!-- Node1&#45;&gt;Node3 -->
<g id="edge4" class="edge">
<title>Node1&#45;&gt;Node3</title>
<path fill="none" stroke="#63b8ff" d="M336.33,-62.84C276.41,-66.47 195.16,-71.4 138.22,-74.86"/>
<polygon fill="#63b8ff" stroke="#63b8ff" points="336.36,-66.34 346.13,-62.24 335.94,-59.35 336.36,-66.34"/>
</g>
<!-- Node4 -->
<g id="node4" class="node">
<title>Node4</title>
<g id="a_node4"><a xlink:href="class_veery_1_1_interaction_1_1_grabbable.html#a3e5960d94493a92a6f512db5cde84c79" target="_top" xlink:title=" ">
<polygon fill="white" stroke="#666666" points="312,-30 174,-30 174,0 312,0 312,-30"/>
<text text-anchor="start" x="182" y="-18" font-family="Helvetica,sans-Serif" font-size="10.00">Veery.Interaction.Grabbable.</text>
<text text-anchor="middle" x="243" y="-7" font-family="Helvetica,sans-Serif" font-size="10.00">OnDisable</text>
</a>
</g>
</g>
<!-- Node1&#45;&gt;Node4 -->
<g id="edge3" class="edge">
<title>Node1&#45;&gt;Node4</title>
<path fill="none" stroke="#63b8ff" d="M343.49,-39.87C330.94,-36.73 317.99,-33.5 305.76,-30.44"/>
<polygon fill="#63b8ff" stroke="#63b8ff" points="342.37,-43.2 352.92,-42.23 344.07,-36.41 342.37,-43.2"/>
</g>
<!-- Node2&#45;&gt;Node3 -->
<g id="edge2" class="edge">
<title>Node2&#45;&gt;Node3</title>
<path fill="none" stroke="#63b8ff" d="M162.26,-90.8C154.23,-89.77 146.13,-88.74 138.24,-87.73"/>
<polygon fill="#63b8ff" stroke="#63b8ff" points="161.66,-94.25 172.03,-92.05 162.55,-87.31 161.66,-94.25"/>
</g>
</g>
</svg>
