<?xml version="1.0" encoding="UTF-8" standalone="no"?>
<!DOCTYPE svg PUBLIC "-//W3C//DTD SVG 1.1//EN"
 "http://www.w3.org/Graphics/SVG/1.1/DTD/svg11.dtd">
<!-- Generated by graphviz version 7.0.5 (20221223.1930)
 -->
<!-- Title: Veery.UI.Collapsable.SetCollapsedState Pages: 1 -->
<svg width="475pt" height="70pt"
 viewBox="0.00 0.00 475.00 69.50" xmlns="http://www.w3.org/2000/svg" xmlns:xlink="http://www.w3.org/1999/xlink">
<g id="graph0" class="graph" transform="scale(1 1) rotate(0) translate(4 65.5)">
<title>Veery.UI.Collapsable.SetCollapsedState</title>
<!-- Node1 -->
<g id="node1" class="node">
<title>Node1</title>
<g id="a_node1"><a xlink:title="Sets the collapsed state of the Collapsable object.">
<polygon fill="#999999" stroke="#666666" points="467,-42.5 343,-42.5 343,-12.5 467,-12.5 467,-42.5"/>
<text text-anchor="start" x="351" y="-30.5" font-family="Helvetica,sans-Serif" font-size="10.00">Veery.UI.Collapsable.Set</text>
<text text-anchor="middle" x="405" y="-19.5" font-family="Helvetica,sans-Serif" font-size="10.00">CollapsedState</text>
</a>
</g>
</g>
<!-- Node2 -->
<g id="node2" class="node">
<title>Node2</title>
<g id="a_node2"><a xlink:href="class_veery_1_1_u_i_1_1_collapsable.html#abd0db3f8d30cc2656f5e7cfae9601c09" target="_top" xlink:title="Toggles the collapsed state of the Collapsable object.">
<polygon fill="white" stroke="#666666" points="307,-56 161,-56 161,-37 307,-37 307,-56"/>
<text text-anchor="middle" x="234" y="-44" font-family="Helvetica,sans-Serif" font-size="10.00">Veery.UI.Collapsable.Collapse</text>
</a>
</g>
</g>
<!-- Node1&#45;&gt;Node2 -->
<g id="edge1" class="edge">
<title>Node1&#45;&gt;Node2</title>
<path fill="none" stroke="#63b8ff" d="M331.1,-35.7C323.23,-36.58 315.22,-37.48 307.35,-38.37"/>
<polygon fill="#63b8ff" stroke="#63b8ff" points="331.46,-39.18 341,-34.58 330.68,-32.22 331.46,-39.18"/>
</g>
<!-- Node4 -->
<g id="node4" class="node">
<title>Node4</title>
<g id="a_node4"><a xlink:href="class_veery_1_1_u_i_1_1_collapsable.html#a68169b57521d05f8f6863406cde22b6a" target="_top" xlink:title=" ">
<polygon fill="white" stroke="#666666" points="299,-19 169,-19 169,0 299,0 299,-19"/>
<text text-anchor="middle" x="234" y="-7" font-family="Helvetica,sans-Serif" font-size="10.00">Veery.UI.Collapsable.Start</text>
</a>
</g>
</g>
<!-- Node1&#45;&gt;Node4 -->
<g id="edge3" class="edge">
<title>Node1&#45;&gt;Node4</title>
<path fill="none" stroke="#63b8ff" d="M331.14,-19.74C320.54,-18.61 309.7,-17.46 299.29,-16.35"/>
<polygon fill="#63b8ff" stroke="#63b8ff" points="330.69,-23.21 341,-20.79 331.43,-16.25 330.69,-23.21"/>
</g>
<!-- Node3 -->
<g id="node3" class="node">
<title>Node3</title>
<g id="a_node3"><a xlink:href="class_veery_1_1_u_i_1_1_collapse_button.html#a12cf58d56406e39aa18ea871bccc7415" target="_top" xlink:title="Event handler for the button click event. Collapses or opens the collapsable components in the list.">
<polygon fill="white" stroke="#666666" points="125,-61.5 0,-61.5 0,-31.5 125,-31.5 125,-61.5"/>
<text text-anchor="start" x="8" y="-49.5" font-family="Helvetica,sans-Serif" font-size="10.00">Veery.UI.CollapseButton.</text>
<text text-anchor="middle" x="62.5" y="-38.5" font-family="Helvetica,sans-Serif" font-size="10.00">OnClick</text>
</a>
</g>
</g>
<!-- Node2&#45;&gt;Node3 -->
<g id="edge2" class="edge">
<title>Node2&#45;&gt;Node3</title>
<path fill="none" stroke="#63b8ff" d="M149.32,-46.5C141.29,-46.5 133.25,-46.5 125.49,-46.5"/>
<polygon fill="#63b8ff" stroke="#63b8ff" points="149.11,-50 159.11,-46.5 149.11,-43 149.11,-50"/>
</g>
</g>
</svg>
