<?xml version="1.0" encoding="UTF-8" standalone="no"?>
<!DOCTYPE svg PUBLIC "-//W3C//DTD SVG 1.1//EN"
 "http://www.w3.org/Graphics/SVG/1.1/DTD/svg11.dtd">
<!-- Generated by graphviz version 7.0.5 (20221223.1930)
 -->
<!-- Title: Veery.Anchors.AnchorsManager Pages: 1 -->
<svg width="707pt" height="219pt"
 viewBox="0.00 0.00 707.00 219.00" xmlns="http://www.w3.org/2000/svg" xmlns:xlink="http://www.w3.org/1999/xlink">
<g id="graph0" class="graph" transform="scale(1 1) rotate(0) translate(4 215)">
<title>Veery.Anchors.AnchorsManager</title>
<!-- Node1 -->
<g id="node1" class="node">
<title>Node1</title>
<g id="a_node1"><a xlink:title="Manages the creation, deletion, and loading of spatial anchors.">
<polygon fill="#999999" stroke="#666666" points="699,-106 544,-106 544,-87 699,-87 699,-106"/>
<text text-anchor="middle" x="621.5" y="-94" font-family="Helvetica,sans-Serif" font-size="10.00">Veery.Anchors.AnchorsManager</text>
</a>
</g>
</g>
<!-- Node2 -->
<g id="node2" class="node">
<title>Node2</title>
<g id="a_node2"><a xlink:title=" ">
<polygon fill="white" stroke="#666666" points="125,-211 41,-211 41,-192 125,-192 125,-211"/>
<text text-anchor="middle" x="83" y="-199" font-family="Helvetica,sans-Serif" font-size="10.00">MonoBehaviour</text>
</a>
</g>
</g>
<!-- Node2&#45;&gt;Node1 -->
<g id="edge1" class="edge">
<title>Node2&#45;&gt;Node1</title>
<path fill="none" stroke="#63b8ff" d="M136.76,-201.41C182.19,-200.56 249.33,-197.48 307,-187.5 406.8,-170.23 428.78,-152.89 526,-124.5 546.37,-118.55 569.18,-111.8 587.28,-106.41"/>
<polygon fill="#63b8ff" stroke="#63b8ff" points="136.87,-197.9 126.93,-201.56 136.98,-204.9 136.87,-197.9"/>
</g>
<!-- Node3 -->
<g id="node3" class="node">
<title>Node3</title>
<g id="a_node3"><a xlink:href="class_veery_1_1_interaction_1_1_distance_select_interactor.html" target="_top" xlink:title="An interactor that selects interactables based on their distance from the interactor&#39;s pointer.">
<polygon fill="white" stroke="#666666" points="455,-133.5 325,-133.5 325,-103.5 455,-103.5 455,-133.5"/>
<text text-anchor="start" x="333" y="-121.5" font-family="Helvetica,sans-Serif" font-size="10.00">Veery.Interaction.Distance</text>
<text text-anchor="middle" x="390" y="-110.5" font-family="Helvetica,sans-Serif" font-size="10.00">SelectInteractor</text>
</a>
</g>
</g>
<!-- Node2&#45;&gt;Node3 -->
<g id="edge5" class="edge">
<title>Node2&#45;&gt;Node3</title>
<path fill="none" stroke="#9a32cd" stroke-dasharray="5,2" d="M136.25,-194.69C146.5,-192.09 156.89,-188.48 166,-183.5 175.92,-178.07 173.99,-170.78 184,-165.5 233.2,-139.57 252.91,-155.44 307,-142.5 317.53,-139.98 328.72,-136.95 339.34,-133.9"/>
<polygon fill="#9a32cd" stroke="#9a32cd" points="135.73,-191.23 126.73,-196.82 137.25,-198.06 135.73,-191.23"/>
<text text-anchor="middle" x="245.5" y="-179.5" font-family="Helvetica,sans-Serif" font-size="10.00"> _canvasInteractor</text>
<text text-anchor="middle" x="245.5" y="-168.5" font-family="Helvetica,sans-Serif" font-size="10.00">_selector</text>
</g>
<!-- Node3&#45;&gt;Node1 -->
<g id="edge2" class="edge">
<title>Node3&#45;&gt;Node1</title>
<path fill="none" stroke="#9a32cd" stroke-dasharray="5,2" d="M466.41,-111.27C491.19,-108.9 518.76,-106.25 543.65,-103.87"/>
<polygon fill="#9a32cd" stroke="#9a32cd" points="466.36,-107.76 456.74,-112.2 467.03,-114.73 466.36,-107.76"/>
<text text-anchor="middle" x="499.5" y="-112.5" font-family="Helvetica,sans-Serif" font-size="10.00"> _interactor</text>
</g>
<!-- Node4 -->
<g id="node4" class="node">
<title>Node4</title>
<g id="a_node4"><a xlink:href="class_pointer_interactor.html" target="_top" xlink:title=" ">
<polygon fill="white" stroke="#666666" points="155,-174 11,-174 11,-133 155,-133 155,-174"/>
<text text-anchor="start" x="19" y="-162" font-family="Helvetica,sans-Serif" font-size="10.00">PointerInteractor&lt;</text>
<text text-anchor="start" x="19" y="-151" font-family="Helvetica,sans-Serif" font-size="10.00"> DistanceSelectInteractor,</text>
<text text-anchor="middle" x="83" y="-140" font-family="Helvetica,sans-Serif" font-size="10.00"> DistanceSelectInteractable &gt;</text>
</a>
</g>
</g>
<!-- Node4&#45;&gt;Node3 -->
<g id="edge3" class="edge">
<title>Node4&#45;&gt;Node3</title>
<path fill="none" stroke="#63b8ff" d="M166.49,-144.03C216.16,-138.33 278.48,-131.18 324.52,-125.9"/>
<polygon fill="#63b8ff" stroke="#63b8ff" points="166.16,-140.55 156.63,-145.17 166.96,-147.5 166.16,-140.55"/>
</g>
<!-- Node5 -->
<g id="node5" class="node">
<title>Node5</title>
<g id="a_node5"><a xlink:href="class_i_distance_interactor.html" target="_top" xlink:title=" ">
<polygon fill="white" stroke="#666666" points="132.5,-115 33.5,-115 33.5,-96 132.5,-96 132.5,-115"/>
<text text-anchor="middle" x="83" y="-103" font-family="Helvetica,sans-Serif" font-size="10.00">IDistanceInteractor</text>
</a>
</g>
</g>
<!-- Node5&#45;&gt;Node3 -->
<g id="edge4" class="edge">
<title>Node5&#45;&gt;Node3</title>
<path fill="none" stroke="#63b8ff" d="M144.06,-108.06C196.13,-110.28 271.27,-113.48 324.57,-115.75"/>
<polygon fill="#63b8ff" stroke="#63b8ff" points="144.32,-104.57 134.18,-107.64 144.02,-111.56 144.32,-104.57"/>
</g>
<!-- Node6 -->
<g id="node6" class="node">
<title>Node6</title>
<g id="a_node6"><a xlink:title=" ">
<polygon fill="white" stroke="#666666" points="113.5,-78 52.5,-78 52.5,-59 113.5,-59 113.5,-78"/>
<text text-anchor="middle" x="83" y="-66" font-family="Helvetica,sans-Serif" font-size="10.00">Transform</text>
</a>
</g>
</g>
<!-- Node6&#45;&gt;Node3 -->
<g id="edge6" class="edge">
<title>Node6&#45;&gt;Node3</title>
<path fill="none" stroke="#9a32cd" stroke-dasharray="5,2" d="M125.18,-65.49C170.77,-63.47 245.9,-64.07 307,-83.5 315.93,-86.34 316.57,-90.39 325,-94.5 331.19,-97.52 337.85,-100.4 344.47,-103.05"/>
<polygon fill="#9a32cd" stroke="#9a32cd" points="125.01,-62 115.21,-66.01 125.37,-68.99 125.01,-62"/>
<text text-anchor="middle" x="245.5" y="-97.5" font-family="Helvetica,sans-Serif" font-size="10.00"> _selectCenter</text>
<text text-anchor="middle" x="245.5" y="-86.5" font-family="Helvetica,sans-Serif" font-size="10.00">_selectTarget</text>
</g>
<!-- Node7 -->
<g id="node7" class="node">
<title>Node7</title>
<g id="a_node7"><a xlink:title=" ">
<polygon fill="white" stroke="#666666" points="166,-41 0,-41 0,0 166,0 166,-41"/>
<text text-anchor="start" x="8" y="-29" font-family="Helvetica,sans-Serif" font-size="10.00">DistantCandidateComputer</text>
<text text-anchor="start" x="8" y="-18" font-family="Helvetica,sans-Serif" font-size="10.00">&lt; Veery.Interaction.DistanceSelect</text>
<text text-anchor="middle" x="83" y="-7" font-family="Helvetica,sans-Serif" font-size="10.00">Interactable &gt;</text>
</a>
</g>
</g>
<!-- Node7&#45;&gt;Node3 -->
<g id="edge7" class="edge">
<title>Node7&#45;&gt;Node3</title>
<path fill="none" stroke="#9a32cd" stroke-dasharray="5,2" d="M177.81,-12.7C221.12,-13.87 270.83,-22.54 307,-50.5 323.72,-63.42 309.84,-79.78 325,-94.5 328.41,-97.81 332.31,-100.67 336.47,-103.14"/>
<polygon fill="#9a32cd" stroke="#9a32cd" points="177.92,-9.21 167.88,-12.58 177.84,-16.2 177.92,-9.21"/>
<text text-anchor="middle" x="245.5" y="-53.5" font-family="Helvetica,sans-Serif" font-size="10.00"> _distantCandidateComputer</text>
</g>
<!-- Node8 -->
<g id="node8" class="node">
<title>Node8</title>
<g id="a_node8"><a xlink:title=" ">
<polygon fill="white" stroke="#666666" points="440,-85 340,-85 340,-66 440,-66 440,-85"/>
<text text-anchor="middle" x="390" y="-73" font-family="Helvetica,sans-Serif" font-size="10.00">TextMeshProUGUI</text>
</a>
</g>
</g>
<!-- Node8&#45;&gt;Node1 -->
<g id="edge8" class="edge">
<title>Node8&#45;&gt;Node1</title>
<path fill="none" stroke="#9a32cd" stroke-dasharray="5,2" d="M451.92,-76.75C475.15,-77.6 501.84,-79.05 526,-81.5 538.48,-82.76 551.82,-84.59 564.42,-86.53"/>
<polygon fill="#9a32cd" stroke="#9a32cd" points="452.09,-73.25 441.98,-76.41 451.86,-80.25 452.09,-73.25"/>
<text text-anchor="middle" x="499.5" y="-84.5" font-family="Helvetica,sans-Serif" font-size="10.00"> _debugText</text>
</g>
<!-- Node9 -->
<g id="node9" class="node">
<title>Node9</title>
<g id="a_node9"><a xlink:title=" ">
<polygon fill="white" stroke="#666666" points="439,-48 341,-48 341,-29 439,-29 439,-48"/>
<text text-anchor="middle" x="390" y="-36" font-family="Helvetica,sans-Serif" font-size="10.00">OVRSpatialAnchor</text>
</a>
</g>
</g>
<!-- Node9&#45;&gt;Node1 -->
<g id="edge9" class="edge">
<title>Node9&#45;&gt;Node1</title>
<path fill="none" stroke="#9a32cd" stroke-dasharray="5,2" d="M450.53,-46.85C474.21,-50.75 501.59,-55.99 526,-62.5 550.43,-69.02 577.5,-79.06 596.39,-86.54"/>
<polygon fill="#9a32cd" stroke="#9a32cd" points="451.15,-43.41 440.72,-45.28 450.05,-50.32 451.15,-43.41"/>
<text text-anchor="middle" x="499.5" y="-65.5" font-family="Helvetica,sans-Serif" font-size="10.00"> _anchor</text>
</g>
</g>
</svg>
