<?xml version="1.0" encoding="UTF-8" standalone="no"?>
<!DOCTYPE svg PUBLIC "-//W3C//DTD SVG 1.1//EN"
 "http://www.w3.org/Graphics/SVG/1.1/DTD/svg11.dtd">
<!-- Generated by graphviz version 7.0.5 (20221223.1930)
 -->
<!-- Title: Veery.Import.Triggers.TriggerLink Pages: 1 -->
<svg width="262pt" height="93pt"
 viewBox="0.00 0.00 262.00 93.00" xmlns="http://www.w3.org/2000/svg" xmlns:xlink="http://www.w3.org/1999/xlink">
<g id="graph0" class="graph" transform="scale(1 1) rotate(0) translate(4 89)">
<title>Veery.Import.Triggers.TriggerLink</title>
<!-- Node1 -->
<g id="node1" class="node">
<title>Node1</title>
<g id="a_node1"><a xlink:title="Represents a link between two import objects that can trigger a delegate with parameters.">
<polygon fill="#999999" stroke="#666666" points="219,-19 59,-19 59,0 219,0 219,-19"/>
<text text-anchor="middle" x="139" y="-7" font-family="Helvetica,sans-Serif" font-size="10.00">Veery.Import.Triggers.TriggerLink</text>
</a>
</g>
</g>
<!-- Node2 -->
<g id="node2" class="node">
<title>Node2</title>
<g id="a_node2"><a xlink:title=" ">
<polygon fill="white" stroke="#666666" points="84,-85 0,-85 0,-66 84,-66 84,-85"/>
<text text-anchor="middle" x="42" y="-73" font-family="Helvetica,sans-Serif" font-size="10.00">MonoBehaviour</text>
</a>
</g>
</g>
<!-- Node2&#45;&gt;Node1 -->
<g id="edge1" class="edge">
<title>Node2&#45;&gt;Node1</title>
<path fill="none" stroke="#63b8ff" d="M64.87,-59.41C83.78,-46.94 109.97,-29.65 125.63,-19.32"/>
<polygon fill="#63b8ff" stroke="#63b8ff" points="63.17,-56.34 56.75,-64.77 67.03,-62.18 63.17,-56.34"/>
</g>
<!-- Node3 -->
<g id="node3" class="node">
<title>Node3</title>
<g id="a_node3"><a xlink:title=" ">
<polygon fill="white" stroke="#666666" points="176,-85 102,-85 102,-66 176,-66 176,-85"/>
<text text-anchor="middle" x="139" y="-73" font-family="Helvetica,sans-Serif" font-size="10.00">LineRenderer</text>
</a>
</g>
</g>
<!-- Node3&#45;&gt;Node1 -->
<g id="edge2" class="edge">
<title>Node3&#45;&gt;Node1</title>
<path fill="none" stroke="#9a32cd" stroke-dasharray="5,2" d="M139,-54.18C139,-42.44 139,-28.27 139,-19.32"/>
<polygon fill="#9a32cd" stroke="#9a32cd" points="135.5,-54.09 139,-64.09 142.5,-54.09 135.5,-54.09"/>
<text text-anchor="middle" x="170" y="-40" font-family="Helvetica,sans-Serif" font-size="10.00"> _lineRenderer</text>
</g>
<!-- Node4 -->
<g id="node4" class="node">
<title>Node4</title>
<g id="a_node4"><a xlink:title=" ">
<polygon fill="white" stroke="#666666" points="249.5,-85 198.5,-85 198.5,-66 249.5,-66 249.5,-85"/>
<text text-anchor="middle" x="224" y="-73" font-family="Helvetica,sans-Serif" font-size="10.00">Material</text>
</a>
</g>
</g>
<!-- Node4&#45;&gt;Node1 -->
<g id="edge3" class="edge">
<title>Node4&#45;&gt;Node1</title>
<path fill="none" stroke="#9a32cd" stroke-dasharray="5,2" d="M215.9,-55.47C212.39,-48.95 207.75,-42.03 202,-37 193.16,-29.26 181.74,-23.54 171.05,-19.44"/>
<polygon fill="#9a32cd" stroke="#9a32cd" points="212.64,-56.77 220.09,-64.31 218.97,-53.77 212.64,-56.77"/>
<text text-anchor="middle" x="232.5" y="-40" font-family="Helvetica,sans-Serif" font-size="10.00"> _material</text>
</g>
</g>
</svg>
