<?xml version="1.0" encoding="UTF-8" standalone="no"?>
<!DOCTYPE svg PUBLIC "-//W3C//DTD SVG 1.1//EN"
 "http://www.w3.org/Graphics/SVG/1.1/DTD/svg11.dtd">
<!-- Generated by graphviz version 7.0.5 (20221223.1930)
 -->
<!-- Title: EVA.Import.Model3D Pages: 1 -->
<svg width="585pt" height="250pt"
 viewBox="0.00 0.00 585.00 249.62" xmlns="http://www.w3.org/2000/svg" xmlns:xlink="http://www.w3.org/1999/xlink">
<g id="graph0" class="graph" transform="scale(1 1) rotate(0) translate(4 245.62)">
<title>EVA.Import.Model3D</title>
<!-- Node1 -->
<g id="node1" class="node">
<title>Node1</title>
<g id="a_node1"><a xlink:title="Manipulate a 3D model in the scene.">
<polygon fill="#999999" stroke="#666666" points="577,-136 470,-136 470,-117 577,-117 577,-136"/>
<text text-anchor="middle" x="523.5" y="-124" font-family="Helvetica,sans-Serif" font-size="10.00">EVA.Import.Model3D</text>
</a>
</g>
</g>
<!-- Node2 -->
<g id="node2" class="node">
<title>Node2</title>
<g id="a_node2"><a xlink:title=" ">
<polygon fill="white" stroke="#666666" points="88,-241 4,-241 4,-222 88,-222 88,-241"/>
<text text-anchor="middle" x="46" y="-229" font-family="Helvetica,sans-Serif" font-size="10.00">MonoBehaviour</text>
</a>
</g>
</g>
<!-- Node2&#45;&gt;Node1 -->
<g id="edge1" class="edge">
<title>Node2&#45;&gt;Node1</title>
<path fill="none" stroke="#63b8ff" d="M99.44,-239.11C126.6,-241.78 160.23,-243.1 190,-238.5 312.2,-219.61 449.67,-160.25 501.36,-136.48"/>
<polygon fill="#63b8ff" stroke="#63b8ff" points="100.04,-235.65 89.73,-238.06 99.29,-242.61 100.04,-235.65"/>
</g>
<!-- Node4 -->
<g id="node4" class="node">
<title>Node4</title>
<g id="a_node4"><a xlink:href="class_e_v_a_1_1_interaction_1_1_interactable_outline.html" target="_top" xlink:title=" ">
<polygon fill="white" stroke="#666666" points="345,-163.5 208,-163.5 208,-133.5 345,-133.5 345,-163.5"/>
<text text-anchor="start" x="216" y="-151.5" font-family="Helvetica,sans-Serif" font-size="10.00">EVA.Interaction.Interactable</text>
<text text-anchor="middle" x="276.5" y="-140.5" font-family="Helvetica,sans-Serif" font-size="10.00">Outline</text>
</a>
</g>
</g>
<!-- Node2&#45;&gt;Node4 -->
<g id="edge4" class="edge">
<title>Node2&#45;&gt;Node4</title>
<path fill="none" stroke="#63b8ff" d="M99.73,-233.5C127.52,-232.8 161.62,-229.11 190,-217.5 219.13,-205.58 246.23,-180.36 261.81,-163.94"/>
<polygon fill="#63b8ff" stroke="#63b8ff" points="99.72,-230 89.76,-233.61 99.8,-236.99 99.72,-230"/>
</g>
<!-- Node2&#45;&gt;Node4 -->
<g id="edge5" class="edge">
<title>Node2&#45;&gt;Node4</title>
<path fill="none" stroke="#9a32cd" stroke-dasharray="5,2" d="M79.18,-216.96C88.99,-212.73 99.86,-208.25 110,-204.5 144.94,-191.59 154.7,-191.41 190,-179.5 204.51,-174.6 220.3,-168.97 234.32,-163.86"/>
<polygon fill="#9a32cd" stroke="#9a32cd" points="77.79,-213.75 70.03,-220.97 80.6,-220.16 77.79,-213.75"/>
<text text-anchor="middle" x="150" y="-207.5" font-family="Helvetica,sans-Serif" font-size="10.00"> _interactableView</text>
</g>
<!-- Node3 -->
<g id="node3" class="node">
<title>Node3</title>
<g id="a_node3"><a xlink:title=" ">
<polygon fill="white" stroke="#666666" points="322,-115 231,-115 231,-96 322,-96 322,-115"/>
<text text-anchor="middle" x="276.5" y="-103" font-family="Helvetica,sans-Serif" font-size="10.00">GltfBoundsAsset</text>
</a>
</g>
</g>
<!-- Node3&#45;&gt;Node1 -->
<g id="edge2" class="edge">
<title>Node3&#45;&gt;Node1</title>
<path fill="none" stroke="#9a32cd" stroke-dasharray="5,2" d="M333.71,-104.94C368,-105.22 412.67,-106.68 452,-111.5 461.69,-112.69 472.02,-114.54 481.7,-116.55"/>
<polygon fill="#9a32cd" stroke="#9a32cd" points="334.03,-101.44 324.01,-104.9 334,-108.44 334.03,-101.44"/>
<text text-anchor="middle" x="407.5" y="-114.5" font-family="Helvetica,sans-Serif" font-size="10.00"> _gltfBoundsAsset</text>
</g>
<!-- Node4&#45;&gt;Node1 -->
<g id="edge3" class="edge">
<title>Node4&#45;&gt;Node1</title>
<path fill="none" stroke="#9a32cd" stroke-dasharray="5,2" d="M356.68,-141.39C393.66,-138.07 436.67,-134.21 469.62,-131.25"/>
<polygon fill="#9a32cd" stroke="#9a32cd" points="356.58,-137.89 346.93,-142.27 357.2,-144.86 356.58,-137.89"/>
<text text-anchor="middle" x="407.5" y="-143.5" font-family="Helvetica,sans-Serif" font-size="10.00"> _interactableOutline</text>
</g>
<!-- Node5 -->
<g id="node5" class="node">
<title>Node5</title>
<g id="a_node5"><a xlink:title=" ">
<polygon fill="white" stroke="#666666" points="69.5,-181 22.5,-181 22.5,-162 69.5,-162 69.5,-181"/>
<text text-anchor="middle" x="46" y="-169" font-family="Helvetica,sans-Serif" font-size="10.00">Outline</text>
</a>
</g>
</g>
<!-- Node5&#45;&gt;Node4 -->
<g id="edge6" class="edge">
<title>Node5&#45;&gt;Node4</title>
<path fill="none" stroke="#9a32cd" stroke-dasharray="5,2" d="M81.12,-168.07C114.38,-164.72 165.88,-159.53 207.51,-155.34"/>
<polygon fill="#9a32cd" stroke="#9a32cd" points="80.85,-164.58 71.25,-169.06 81.55,-171.54 80.85,-164.58"/>
<text text-anchor="middle" x="150" y="-167.5" font-family="Helvetica,sans-Serif" font-size="10.00"> _outline</text>
</g>
<!-- Node6 -->
<g id="node6" class="node">
<title>Node6</title>
<g id="a_node6"><a xlink:title=" ">
<polygon fill="white" stroke="#666666" points="65.5,-136 26.5,-136 26.5,-117 65.5,-117 65.5,-136"/>
<text text-anchor="middle" x="46" y="-124" font-family="Helvetica,sans-Serif" font-size="10.00">Color</text>
</a>
</g>
</g>
<!-- Node6&#45;&gt;Node4 -->
<g id="edge7" class="edge">
<title>Node6&#45;&gt;Node4</title>
<path fill="none" stroke="#9a32cd" stroke-dasharray="5,2" d="M76.99,-124.68C106.01,-123.4 151.2,-122.67 190,-127.5 200.01,-128.75 210.54,-130.75 220.66,-133.03"/>
<polygon fill="#9a32cd" stroke="#9a32cd" points="76.93,-121.18 67.11,-125.18 77.28,-128.17 76.93,-121.18"/>
<text text-anchor="middle" x="150" y="-141.5" font-family="Helvetica,sans-Serif" font-size="10.00"> _hoverColor</text>
<text text-anchor="middle" x="150" y="-130.5" font-family="Helvetica,sans-Serif" font-size="10.00">_selectColor</text>
</g>
<!-- Node7 -->
<g id="node7" class="node">
<title>Node7</title>
<g id="a_node7"><a xlink:title=" ">
<polygon fill="white" stroke="#666666" points="63.5,-93 28.5,-93 28.5,-74 63.5,-74 63.5,-93"/>
<text text-anchor="middle" x="46" y="-81" font-family="Helvetica,sans-Serif" font-size="10.00">float</text>
</a>
</g>
</g>
<!-- Node7&#45;&gt;Node4 -->
<g id="edge8" class="edge">
<title>Node7&#45;&gt;Node4</title>
<path fill="none" stroke="#9a32cd" stroke-dasharray="5,2" d="M74.93,-79.53C105.45,-76.64 154.68,-76.32 190,-97.5 202.37,-104.92 196.63,-115.63 208,-124.5 212.22,-127.79 216.92,-130.65 221.83,-133.13"/>
<polygon fill="#9a32cd" stroke="#9a32cd" points="74.9,-76.01 65.35,-80.61 75.68,-82.97 74.9,-76.01"/>
<text text-anchor="middle" x="150" y="-111.5" font-family="Helvetica,sans-Serif" font-size="10.00"> _hoverSize</text>
<text text-anchor="middle" x="150" y="-100.5" font-family="Helvetica,sans-Serif" font-size="10.00">_selectSize</text>
</g>
<!-- Node8 -->
<g id="node8" class="node">
<title>Node8</title>
<g id="a_node8"><a xlink:title=" ">
<polygon fill="white" stroke="#666666" points="92,-56 0,-56 0,-37 92,-37 92,-56"/>
<text text-anchor="middle" x="46" y="-44" font-family="Helvetica,sans-Serif" font-size="10.00">IInteractableView</text>
</a>
</g>
</g>
<!-- Node8&#45;&gt;Node4 -->
<g id="edge9" class="edge">
<title>Node8&#45;&gt;Node4</title>
<path fill="none" stroke="#9a32cd" stroke-dasharray="5,2" d="M103.55,-39.44C132.49,-38.95 166.47,-43.64 190,-63.5 211.6,-81.73 188.57,-103.97 208,-124.5 211.16,-127.84 214.82,-130.72 218.77,-133.2"/>
<polygon fill="#9a32cd" stroke="#9a32cd" points="103.7,-35.93 93.84,-39.82 103.98,-42.92 103.7,-35.93"/>
<text text-anchor="middle" x="150" y="-66.5" font-family="Helvetica,sans-Serif" font-size="10.00"> InteractableView</text>
</g>
<!-- Node9 -->
<g id="node9" class="node">
<title>Node9</title>
<g id="a_node9"><a xlink:title=" ">
<polygon fill="white" stroke="#666666" points="63.5,-19 28.5,-19 28.5,0 63.5,0 63.5,-19"/>
<text text-anchor="middle" x="46" y="-7" font-family="Helvetica,sans-Serif" font-size="10.00">bool</text>
</a>
</g>
</g>
<!-- Node9&#45;&gt;Node4 -->
<g id="edge10" class="edge">
<title>Node9&#45;&gt;Node4</title>
<path fill="none" stroke="#9a32cd" stroke-dasharray="5,2" d="M74.91,-3.52C107,1.57 159.19,4.12 190,-24.5 223.08,-55.24 178.78,-90.07 208,-124.5 210.82,-127.82 214.12,-130.68 217.74,-133.14"/>
<polygon fill="#9a32cd" stroke="#9a32cd" points="74.4,-0.06 65.17,-5.27 75.64,-6.95 74.4,-0.06"/>
<text text-anchor="middle" x="150" y="-27.5" font-family="Helvetica,sans-Serif" font-size="10.00"> _started</text>
</g>
<!-- Node10 -->
<g id="node10" class="node">
<title>Node10</title>
<g id="a_node10"><a xlink:title=" ">
<polygon fill="white" stroke="#666666" points="328.5,-78 224.5,-78 224.5,-59 328.5,-59 328.5,-78"/>
<text text-anchor="middle" x="276.5" y="-66" font-family="Helvetica,sans-Serif" font-size="10.00">List&lt; GameObject &gt;</text>
</a>
</g>
</g>
<!-- Node10&#45;&gt;Node1 -->
<g id="edge11" class="edge">
<title>Node10&#45;&gt;Node1</title>
<path fill="none" stroke="#9a32cd" stroke-dasharray="5,2" d="M339.99,-71.13C373.75,-73.85 415.82,-79.36 452,-90.5 471.96,-96.65 493.07,-108.19 506.93,-116.55"/>
<polygon fill="#9a32cd" stroke="#9a32cd" points="340.62,-67.66 330.39,-70.42 340.1,-74.65 340.62,-67.66"/>
<text text-anchor="middle" x="407.5" y="-93.5" font-family="Helvetica,sans-Serif" font-size="10.00"> _deferredGOs</text>
</g>
</g>
</svg>
