<?xml version="1.0" encoding="UTF-8" standalone="no"?>
<!DOCTYPE svg PUBLIC "-//W3C//DTD SVG 1.1//EN"
 "http://www.w3.org/Graphics/SVG/1.1/DTD/svg11.dtd">
<!-- Generated by graphviz version 7.0.5 (20221223.1930)
 -->
<!-- Title: Veery.UI.Selection.Methods.ClearUI Pages: 1 -->
<svg width="497pt" height="86pt"
 viewBox="0.00 0.00 497.00 86.00" xmlns="http://www.w3.org/2000/svg" xmlns:xlink="http://www.w3.org/1999/xlink">
<g id="graph0" class="graph" transform="scale(1 1) rotate(0) translate(4 82)">
<title>Veery.UI.Selection.Methods.ClearUI</title>
<!-- Node1 -->
<g id="node1" class="node">
<title>Node1</title>
<g id="a_node1"><a xlink:title=" ">
<polygon fill="#999999" stroke="#666666" points="489,-56 350,-56 350,-26 489,-26 489,-56"/>
<text text-anchor="start" x="358" y="-44" font-family="Helvetica,sans-Serif" font-size="10.00">Veery.UI.Selection.Methods.</text>
<text text-anchor="middle" x="419.5" y="-33" font-family="Helvetica,sans-Serif" font-size="10.00">ClearUI</text>
</a>
</g>
</g>
<!-- Node2 -->
<g id="node2" class="node">
<title>Node2</title>
<g id="a_node2"><a xlink:href="class_veery_1_1_u_i_1_1_selection_1_1_methods.html#aede144ccbfab66622384bac222e67043" target="_top" xlink:title=" ">
<polygon fill="white" stroke="#666666" points="139,-78 0,-78 0,-48 139,-48 139,-78"/>
<text text-anchor="start" x="8" y="-66" font-family="Helvetica,sans-Serif" font-size="10.00">Veery.UI.Selection.Methods.</text>
<text text-anchor="middle" x="69.5" y="-55" font-family="Helvetica,sans-Serif" font-size="10.00">OnDestroy</text>
</a>
</g>
</g>
<!-- Node1&#45;&gt;Node2 -->
<g id="edge1" class="edge">
<title>Node1&#45;&gt;Node2</title>
<path fill="none" stroke="#63b8ff" d="M338.39,-46.06C278.22,-49.87 196.67,-55.02 139.41,-58.64"/>
<polygon fill="#63b8ff" stroke="#63b8ff" points="338.48,-49.57 348.24,-45.44 338.03,-42.58 338.48,-49.57"/>
</g>
<!-- Node3 -->
<g id="node3" class="node">
<title>Node3</title>
<g id="a_node3"><a xlink:href="class_veery_1_1_u_i_1_1_selection_1_1_methods.html#a6ece3489a08cd594184c280f5ffa39c1" target="_top" xlink:title=" ">
<polygon fill="white" stroke="#666666" points="314,-35 175,-35 175,-5 314,-5 314,-35"/>
<text text-anchor="start" x="183" y="-23" font-family="Helvetica,sans-Serif" font-size="10.00">Veery.UI.Selection.Methods.</text>
<text text-anchor="middle" x="244.5" y="-12" font-family="Helvetica,sans-Serif" font-size="10.00">OnStateChanged</text>
</a>
</g>
</g>
<!-- Node1&#45;&gt;Node3 -->
<g id="edge2" class="edge">
<title>Node1&#45;&gt;Node3</title>
<path fill="none" stroke="#63b8ff" d="M338.38,-31.28C330.38,-30.3 322.3,-29.32 314.42,-28.37"/>
<polygon fill="#63b8ff" stroke="#63b8ff" points="337.78,-34.73 348.13,-32.46 338.62,-27.78 337.78,-34.73"/>
</g>
<!-- Node3&#45;&gt;Node2 -->
<g id="edge3" class="edge">
<title>Node3&#45;&gt;Node2</title>
<path fill="none" stroke="#63b8ff" d="M170.57,-38.13C157.94,-41.27 144.92,-44.5 132.62,-47.56"/>
<polygon fill="#63b8ff" stroke="#63b8ff" points="171.2,-41.58 180.06,-35.77 169.51,-34.78 171.2,-41.58"/>
</g>
<!-- Node4 -->
<g id="node4" class="node">
<title>Node4</title>
<g id="a_node4"><a xlink:href="class_veery_1_1_u_i_1_1_selection_1_1_methods.html#a48083f7c70fdc83c1b71364999ed248f" target="_top" xlink:title=" ">
<polygon fill="white" stroke="#666666" points="139,-30 0,-30 0,0 139,0 139,-30"/>
<text text-anchor="start" x="8" y="-18" font-family="Helvetica,sans-Serif" font-size="10.00">Veery.UI.Selection.Methods.</text>
<text text-anchor="middle" x="69.5" y="-7" font-family="Helvetica,sans-Serif" font-size="10.00">Start</text>
</a>
</g>
</g>
<!-- Node3&#45;&gt;Node4 -->
<g id="edge4" class="edge">
<title>Node3&#45;&gt;Node4</title>
<path fill="none" stroke="#63b8ff" d="M163.38,-17.68C155.38,-17.45 147.3,-17.22 139.42,-16.99"/>
<polygon fill="#63b8ff" stroke="#63b8ff" points="163.02,-21.18 173.12,-17.97 163.22,-14.18 163.02,-21.18"/>
</g>
</g>
</svg>
