<?xml version="1.0" encoding="UTF-8" standalone="no"?>
<!DOCTYPE svg PUBLIC "-//W3C//DTD SVG 1.1//EN"
 "http://www.w3.org/Graphics/SVG/1.1/DTD/svg11.dtd">
<!-- Generated by graphviz version 7.0.5 (20221223.1930)
 -->
<!-- Title: Veery.UI.FileExplorerManager.Import Pages: 1 -->
<svg width="736pt" height="56pt"
 viewBox="0.00 0.00 736.00 56.00" xmlns="http://www.w3.org/2000/svg" xmlns:xlink="http://www.w3.org/1999/xlink">
<g id="graph0" class="graph" transform="scale(1 1) rotate(0) translate(4 52)">
<title>Veery.UI.FileExplorerManager.Import</title>
<!-- Node1 -->
<g id="node1" class="node">
<title>Node1</title>
<g id="a_node1"><a xlink:title="Imports a file into the scene.">
<polygon fill="#999999" stroke="#666666" points="728,-30 582,-30 582,0 728,0 728,-30"/>
<text text-anchor="start" x="590" y="-18" font-family="Helvetica,sans-Serif" font-size="10.00">Veery.UI.FileExplorerManager.</text>
<text text-anchor="middle" x="655" y="-7" font-family="Helvetica,sans-Serif" font-size="10.00">Import</text>
</a>
</g>
</g>
<!-- Node1&#45;&gt;Node1 -->
<g id="edge1" class="edge">
<title>Node1&#45;&gt;Node1</title>
<path fill="none" stroke="#63b8ff" d="M686.72,-41.61C681.64,-45.43 671.06,-48 655,-48 625.62,-48 614.61,-39.41 621.95,-30.28"/>
<polygon fill="#63b8ff" stroke="#63b8ff" points="690.19,-42.12 687.87,-31.78 683.23,-41.3 690.19,-42.12"/>
</g>
<!-- Node2 -->
<g id="node2" class="node">
<title>Node2</title>
<g id="a_node2"><a xlink:href="class_veery_1_1_anchors_1_1_anchors_manager.html#ac82661c1d1ff4087e40cb2d824c522d1" target="_top" xlink:title="Called when an OVRSpatialAnchor.UnboundAnchor is localized. Imports the model associated with the anc...">
<polygon fill="white" stroke="#666666" points="546,-30 388,-30 388,0 546,0 546,-30"/>
<text text-anchor="start" x="396" y="-18" font-family="Helvetica,sans-Serif" font-size="10.00">Veery.Anchors.AnchorsManager.</text>
<text text-anchor="middle" x="467" y="-7" font-family="Helvetica,sans-Serif" font-size="10.00">OnLocalized</text>
</a>
</g>
</g>
<!-- Node1&#45;&gt;Node2 -->
<g id="edge2" class="edge">
<title>Node1&#45;&gt;Node2</title>
<path fill="none" stroke="#63b8ff" d="M570.09,-15C562.21,-15 554.23,-15 546.4,-15"/>
<polygon fill="#63b8ff" stroke="#63b8ff" points="570.04,-18.5 580.04,-15 570.04,-11.5 570.04,-18.5"/>
</g>
<!-- Node3 -->
<g id="node3" class="node">
<title>Node3</title>
<g id="a_node3"><a xlink:href="class_veery_1_1_anchors_1_1_anchors_manager.html#adf9b8272c001df6894ceac4570d34bd6" target="_top" xlink:title="Binds all unbound anchors to their corresponding game objects. If an anchor is already localized,...">
<polygon fill="white" stroke="#666666" points="352,-30 194,-30 194,0 352,0 352,-30"/>
<text text-anchor="start" x="202" y="-18" font-family="Helvetica,sans-Serif" font-size="10.00">Veery.Anchors.AnchorsManager.</text>
<text text-anchor="middle" x="273" y="-7" font-family="Helvetica,sans-Serif" font-size="10.00">BindAll</text>
</a>
</g>
</g>
<!-- Node2&#45;&gt;Node3 -->
<g id="edge3" class="edge">
<title>Node2&#45;&gt;Node3</title>
<path fill="none" stroke="#63b8ff" d="M376.38,-15C368.38,-15 360.33,-15 352.43,-15"/>
<polygon fill="#63b8ff" stroke="#63b8ff" points="376.12,-18.5 386.12,-15 376.12,-11.5 376.12,-18.5"/>
</g>
<!-- Node4 -->
<g id="node4" class="node">
<title>Node4</title>
<g id="a_node4"><a xlink:href="class_veery_1_1_anchors_1_1_anchors_manager.html#a3b913ba272909bdd047404789b43c2fc" target="_top" xlink:title="Loads all saved anchors and binds them to their corresponding game objects.">
<polygon fill="white" stroke="#666666" points="158,-30 0,-30 0,0 158,0 158,-30"/>
<text text-anchor="start" x="8" y="-18" font-family="Helvetica,sans-Serif" font-size="10.00">Veery.Anchors.AnchorsManager.</text>
<text text-anchor="middle" x="79" y="-7" font-family="Helvetica,sans-Serif" font-size="10.00">LoadAll</text>
</a>
</g>
</g>
<!-- Node3&#45;&gt;Node4 -->
<g id="edge4" class="edge">
<title>Node3&#45;&gt;Node4</title>
<path fill="none" stroke="#63b8ff" d="M182.38,-15C174.38,-15 166.33,-15 158.43,-15"/>
<polygon fill="#63b8ff" stroke="#63b8ff" points="182.12,-18.5 192.12,-15 182.12,-11.5 182.12,-18.5"/>
</g>
</g>
</svg>
