<?xml version="1.0" encoding="UTF-8" standalone="no"?>
<!DOCTYPE svg PUBLIC "-//W3C//DTD SVG 1.1//EN"
 "http://www.w3.org/Graphics/SVG/1.1/DTD/svg11.dtd">
<!-- Generated by graphviz version 7.0.5 (20221223.1930)
 -->
<!-- Title: Veery.UI.Selection.Methods Pages: 1 -->
<svg width="509pt" height="226pt"
 viewBox="0.00 0.00 508.50 226.00" xmlns="http://www.w3.org/2000/svg" xmlns:xlink="http://www.w3.org/1999/xlink">
<g id="graph0" class="graph" transform="scale(1 1) rotate(0) translate(4 222)">
<title>Veery.UI.Selection.Methods</title>
<!-- Node1 -->
<g id="node1" class="node">
<title>Node1</title>
<g id="a_node1"><a xlink:title=" ">
<polygon fill="#999999" stroke="#666666" points="408,-19 271,-19 271,0 408,0 408,-19"/>
<text text-anchor="middle" x="339.5" y="-7" font-family="Helvetica,sans-Serif" font-size="10.00">Veery.UI.Selection.Methods</text>
</a>
</g>
</g>
<!-- Node2 -->
<g id="node2" class="node">
<title>Node2</title>
<g id="a_node2"><a xlink:href="class_veery_1_1_u_i_1_1_selection_1_1_selection_property.html" target="_top" xlink:title=" ">
<polygon fill="white" stroke="#666666" points="93,-162 0,-162 0,-143 93,-143 93,-162"/>
<text text-anchor="middle" x="46.5" y="-150" font-family="Helvetica,sans-Serif" font-size="10.00">SelectionProperty</text>
</a>
</g>
</g>
<!-- Node2&#45;&gt;Node1 -->
<g id="edge1" class="edge">
<title>Node2&#45;&gt;Node1</title>
<path fill="none" stroke="#63b8ff" d="M58.64,-133.38C72.69,-113.82 97.62,-83.18 126.5,-66 170.67,-39.72 227.22,-25.73 270.95,-18.38"/>
<polygon fill="#63b8ff" stroke="#63b8ff" points="55.85,-131.25 53.02,-141.46 61.6,-135.24 55.85,-131.25"/>
</g>
<!-- Node6 -->
<g id="node6" class="node">
<title>Node6</title>
<g id="a_node6"><a xlink:href="class_veery_1_1_u_i_1_1_selection_1_1_method.html" target="_top" xlink:title=" ">
<polygon fill="white" stroke="#666666" points="266,-85 135,-85 135,-66 266,-66 266,-85"/>
<text text-anchor="middle" x="200.5" y="-73" font-family="Helvetica,sans-Serif" font-size="10.00">Veery.UI.Selection.Method</text>
</a>
</g>
</g>
<!-- Node2&#45;&gt;Node6 -->
<g id="edge6" class="edge">
<title>Node2&#45;&gt;Node6</title>
<path fill="none" stroke="#63b8ff" d="M75.04,-137.6C106.37,-122.34 155.75,-98.29 182.25,-85.39"/>
<polygon fill="#63b8ff" stroke="#63b8ff" points="73.59,-134.41 66.13,-141.94 76.65,-140.71 73.59,-134.41"/>
</g>
<!-- Node3 -->
<g id="node3" class="node">
<title>Node3</title>
<g id="a_node3"><a xlink:title=" ">
<polygon fill="white" stroke="#666666" points="88.5,-218 4.5,-218 4.5,-199 88.5,-199 88.5,-218"/>
<text text-anchor="middle" x="46.5" y="-206" font-family="Helvetica,sans-Serif" font-size="10.00">MonoBehaviour</text>
</a>
</g>
</g>
<!-- Node3&#45;&gt;Node2 -->
<g id="edge2" class="edge">
<title>Node3&#45;&gt;Node2</title>
<path fill="none" stroke="#63b8ff" d="M46.5,-187.11C46.5,-178.52 46.5,-168.97 46.5,-162.25"/>
<polygon fill="#63b8ff" stroke="#63b8ff" points="43,-187.07 46.5,-197.07 50,-187.07 43,-187.07"/>
</g>
<!-- Node4 -->
<g id="node4" class="node">
<title>Node4</title>
<g id="a_node4"><a xlink:title=" ">
<polygon fill="white" stroke="#666666" points="342,-162 297,-162 297,-143 342,-143 342,-162"/>
<text text-anchor="middle" x="319.5" y="-150" font-family="Helvetica,sans-Serif" font-size="10.00">Button</text>
</a>
</g>
</g>
<!-- Node4&#45;&gt;Node1 -->
<g id="edge3" class="edge">
<title>Node4&#45;&gt;Node1</title>
<path fill="none" stroke="#9a32cd" stroke-dasharray="5,2" d="M353.01,-141.62C360.71,-137.71 367.96,-132.34 372.5,-125 394.25,-89.8 361.88,-39.72 346.67,-19.49"/>
<polygon fill="#9a32cd" stroke="#9a32cd" points="351.68,-138.39 343.83,-145.5 354.41,-144.83 351.68,-138.39"/>
<text text-anchor="middle" x="406.5" y="-73" font-family="Helvetica,sans-Serif" font-size="10.00"> _backButton</text>
</g>
<!-- Node4&#45;&gt;Node6 -->
<g id="edge7" class="edge">
<title>Node4&#45;&gt;Node6</title>
<path fill="none" stroke="#9a32cd" stroke-dasharray="5,2" d="M285.38,-148.46C254.4,-144.91 211.99,-137.83 201.5,-125 192.44,-113.91 194.97,-96.16 197.7,-85.49"/>
<polygon fill="#9a32cd" stroke="#9a32cd" points="284.79,-151.91 295.1,-149.49 285.53,-144.95 284.79,-151.91"/>
<text text-anchor="middle" x="233" y="-111.5" font-family="Helvetica,sans-Serif" font-size="10.00"> _selectButton</text>
</g>
<!-- Node5 -->
<g id="node5" class="node">
<title>Node5</title>
<g id="a_node5"><a xlink:title=" ">
<polygon fill="white" stroke="#666666" points="473,-162 402,-162 402,-143 473,-143 473,-162"/>
<text text-anchor="middle" x="437.5" y="-150" font-family="Helvetica,sans-Serif" font-size="10.00">GameObject</text>
</a>
</g>
</g>
<!-- Node5&#45;&gt;Node1 -->
<g id="edge4" class="edge">
<title>Node5&#45;&gt;Node1</title>
<path fill="none" stroke="#9a32cd" stroke-dasharray="5,2" d="M443.56,-131.69C447.94,-113.34 451.25,-85.96 439.5,-66 425.3,-41.87 396.4,-27.49 373.31,-19.43"/>
<polygon fill="#9a32cd" stroke="#9a32cd" points="440.19,-130.72 440.92,-141.29 446.94,-132.57 440.19,-130.72"/>
<text text-anchor="middle" x="473" y="-73" font-family="Helvetica,sans-Serif" font-size="10.00"> _contentGO</text>
</g>
<!-- Node5&#45;&gt;Node6 -->
<g id="edge9" class="edge">
<title>Node5&#45;&gt;Node6</title>
<path fill="none" stroke="#9a32cd" stroke-dasharray="5,2" d="M398.54,-139.17C350.71,-124.04 270.79,-98.74 228.58,-85.39"/>
<polygon fill="#9a32cd" stroke="#9a32cd" points="397.35,-142.47 407.94,-142.15 399.46,-135.79 397.35,-142.47"/>
<text text-anchor="middle" x="389" y="-117" font-family="Helvetica,sans-Serif" font-size="10.00"> _parametersPrefab</text>
<text text-anchor="middle" x="389" y="-106" font-family="Helvetica,sans-Serif" font-size="10.00">_triggerLinkPrefab</text>
</g>
<!-- Node6&#45;&gt;Node1 -->
<g id="edge5" class="edge">
<title>Node6&#45;&gt;Node1</title>
<path fill="none" stroke="#9a32cd" stroke-dasharray="5,2" d="M229.96,-60.94C257.22,-48.38 296.97,-30.08 320.34,-19.32"/>
<polygon fill="#9a32cd" stroke="#9a32cd" points="228.82,-57.61 221.2,-64.97 231.75,-63.96 228.82,-57.61"/>
<text text-anchor="middle" x="312" y="-40" font-family="Helvetica,sans-Serif" font-size="10.00"> _methodPrefab</text>
</g>
<!-- Node7 -->
<g id="node7" class="node">
<title>Node7</title>
<g id="a_node7"><a xlink:title=" ">
<polygon fill="white" stroke="#666666" points="211.5,-162 111.5,-162 111.5,-143 211.5,-143 211.5,-162"/>
<text text-anchor="middle" x="161.5" y="-150" font-family="Helvetica,sans-Serif" font-size="10.00">TextMeshProUGUI</text>
</a>
</g>
</g>
<!-- Node7&#45;&gt;Node6 -->
<g id="edge8" class="edge">
<title>Node7&#45;&gt;Node6</title>
<path fill="none" stroke="#9a32cd" stroke-dasharray="5,2" d="M153.22,-132.02C150.57,-122.7 149.47,-111.7 154.5,-103 159.02,-95.18 166.82,-89.46 174.73,-85.39"/>
<polygon fill="#9a32cd" stroke="#9a32cd" points="149.85,-132.99 156.54,-141.21 156.43,-130.62 149.85,-132.99"/>
<text text-anchor="middle" x="166.5" y="-111.5" font-family="Helvetica,sans-Serif" font-size="10.00"> _text</text>
</g>
</g>
</svg>
