<?xml version="1.0" encoding="UTF-8" standalone="no"?>
<!DOCTYPE svg PUBLIC "-//W3C//DTD SVG 1.1//EN"
 "http://www.w3.org/Graphics/SVG/1.1/DTD/svg11.dtd">
<!-- Generated by graphviz version 7.0.5 (20221223.1930)
 -->
<!-- Title: Veery.UI.Selection.Links.SetUI Pages: 1 -->
<svg width="531pt" height="470pt"
 viewBox="0.00 0.00 531.00 470.00" xmlns="http://www.w3.org/2000/svg" xmlns:xlink="http://www.w3.org/1999/xlink">
<g id="graph0" class="graph" transform="scale(1 1) rotate(0) translate(4 466)">
<title>Veery.UI.Selection.Links.SetUI</title>
<!-- Node1 -->
<g id="node1" class="node">
<title>Node1</title>
<g id="a_node1"><a xlink:title=" ">
<polygon fill="#999999" stroke="#666666" points="523,-246 398,-246 398,-216 523,-216 523,-246"/>
<text text-anchor="start" x="406" y="-234" font-family="Helvetica,sans-Serif" font-size="10.00">Veery.UI.Selection.Links.</text>
<text text-anchor="middle" x="460.5" y="-223" font-family="Helvetica,sans-Serif" font-size="10.00">SetUI</text>
</a>
</g>
</g>
<!-- Node2 -->
<g id="node2" class="node">
<title>Node2</title>
<g id="a_node2"><a xlink:href="class_veery_1_1_u_i_1_1_selection_1_1_methods.html#a6b4d3b0e1edf50238d109893eb4b25f1" target="_top" xlink:title=" ">
<polygon fill="white" stroke="#666666" points="355.5,-408.5 194.5,-408.5 194.5,-389.5 355.5,-389.5 355.5,-408.5"/>
<text text-anchor="middle" x="275" y="-396.5" font-family="Helvetica,sans-Serif" font-size="10.00">Veery.UI.Selection.Methods.Back</text>
</a>
</g>
</g>
<!-- Node1&#45;&gt;Node2 -->
<g id="edge1" class="edge">
<title>Node1&#45;&gt;Node2</title>
<path fill="none" stroke="#63b8ff" d="M435.01,-254.12C415.37,-272.6 387.05,-299.1 362,-322 335.38,-346.34 303.67,-374.52 287.2,-389.11"/>
<polygon fill="#63b8ff" stroke="#63b8ff" points="437.4,-256.68 442.28,-247.28 432.6,-251.58 437.4,-256.68"/>
</g>
<!-- Node5 -->
<g id="node5" class="node">
<title>Node5</title>
<g id="a_node5"><a xlink:href="class_veery_1_1_u_i_1_1_selection_1_1_parameters.html#a1ead71d4e5cb2543ce094264e7eff7ed" target="_top" xlink:title=" ">
<polygon fill="white" stroke="#666666" points="362,-312.5 188,-312.5 188,-293.5 362,-293.5 362,-312.5"/>
<text text-anchor="middle" x="275" y="-300.5" font-family="Helvetica,sans-Serif" font-size="10.00">Veery.UI.Selection.Parameters.Back</text>
</a>
</g>
</g>
<!-- Node1&#45;&gt;Node5 -->
<g id="edge4" class="edge">
<title>Node1&#45;&gt;Node5</title>
<path fill="none" stroke="#63b8ff" d="M409.64,-250.56C374.66,-264.29 329.33,-282.07 301.48,-293"/>
<polygon fill="#63b8ff" stroke="#63b8ff" points="410.7,-253.91 418.73,-247 408.14,-247.39 410.7,-253.91"/>
</g>
<!-- Node8 -->
<g id="node8" class="node">
<title>Node8</title>
<g id="a_node8"><a xlink:href="class_veery_1_1_u_i_1_1_selection_1_1_link.html#ac6cf866d98c9d31a8bcabc4eba68206e" target="_top" xlink:title=" ">
<polygon fill="white" stroke="#666666" points="335,-246 215,-246 215,-216 335,-216 335,-246"/>
<text text-anchor="start" x="223" y="-234" font-family="Helvetica,sans-Serif" font-size="10.00">Veery.UI.Selection.Link.</text>
<text text-anchor="middle" x="275" y="-223" font-family="Helvetica,sans-Serif" font-size="10.00">Delete</text>
</a>
</g>
</g>
<!-- Node1&#45;&gt;Node8 -->
<g id="edge7" class="edge">
<title>Node1&#45;&gt;Node8</title>
<path fill="none" stroke="#63b8ff" d="M386.14,-231C369.3,-231 351.59,-231 335.43,-231"/>
<polygon fill="#63b8ff" stroke="#63b8ff" points="386.12,-234.5 396.12,-231 386.12,-227.5 386.12,-234.5"/>
</g>
<!-- Node11 -->
<g id="node11" class="node">
<title>Node11</title>
<g id="a_node11"><a xlink:href="class_veery_1_1_u_i_1_1_selection_1_1_triggerable_property.html#a74ae17a5edecd649f99e8c8cc60e0d5f" target="_top" xlink:title=" ">
<polygon fill="white" stroke="#666666" points="348.5,-174 201.5,-174 201.5,-144 348.5,-144 348.5,-174"/>
<text text-anchor="start" x="209.5" y="-162" font-family="Helvetica,sans-Serif" font-size="10.00">Veery.UI.Selection.Triggerable</text>
<text text-anchor="middle" x="275" y="-151" font-family="Helvetica,sans-Serif" font-size="10.00">Property.ShowLinks</text>
</a>
</g>
</g>
<!-- Node1&#45;&gt;Node11 -->
<g id="edge10" class="edge">
<title>Node1&#45;&gt;Node11</title>
<path fill="none" stroke="#63b8ff" d="M409.58,-211.41C379.93,-199.78 342.86,-185.23 315.3,-174.42"/>
<polygon fill="#63b8ff" stroke="#63b8ff" points="408.14,-214.61 418.73,-215 410.7,-208.09 408.14,-214.61"/>
</g>
<!-- Node14 -->
<g id="node14" class="node">
<title>Node14</title>
<g id="a_node14"><a xlink:href="class_veery_1_1_u_i_1_1_selection_1_1_trigger_endable_property.html#a33dfb25feddf59c4b18afd2f9cce51fc" target="_top" xlink:title=" ">
<polygon fill="white" stroke="#666666" points="344,-78 206,-78 206,-48 344,-48 344,-78"/>
<text text-anchor="start" x="214" y="-66" font-family="Helvetica,sans-Serif" font-size="10.00">Veery.UI.Selection.Trigger</text>
<text text-anchor="middle" x="275" y="-55" font-family="Helvetica,sans-Serif" font-size="10.00">EndableProperty.ShowLinks</text>
</a>
</g>
</g>
<!-- Node1&#45;&gt;Node14 -->
<g id="edge13" class="edge">
<title>Node1&#45;&gt;Node14</title>
<path fill="none" stroke="#63b8ff" d="M436.69,-207.51C417.25,-187.73 388.35,-158.93 362,-135 339.66,-114.71 312.84,-92.59 295.16,-78.3"/>
<polygon fill="#63b8ff" stroke="#63b8ff" points="434.11,-209.87 443.61,-214.57 439.11,-204.97 434.11,-209.87"/>
</g>
<!-- Node3 -->
<g id="node3" class="node">
<title>Node3</title>
<g id="a_node3"><a xlink:href="class_veery_1_1_u_i_1_1_selection_1_1_methods.html#aede144ccbfab66622384bac222e67043" target="_top" xlink:title=" ">
<polygon fill="white" stroke="#666666" points="145.5,-462 6.5,-462 6.5,-432 145.5,-432 145.5,-462"/>
<text text-anchor="start" x="14.5" y="-450" font-family="Helvetica,sans-Serif" font-size="10.00">Veery.UI.Selection.Methods.</text>
<text text-anchor="middle" x="76" y="-439" font-family="Helvetica,sans-Serif" font-size="10.00">OnDestroy</text>
</a>
</g>
</g>
<!-- Node2&#45;&gt;Node3 -->
<g id="edge2" class="edge">
<title>Node2&#45;&gt;Node3</title>
<path fill="none" stroke="#63b8ff" d="M222.06,-411.66C196.98,-417.77 166.68,-425.15 140.27,-431.58"/>
<polygon fill="#63b8ff" stroke="#63b8ff" points="222.82,-415.07 231.71,-409.3 221.17,-408.27 222.82,-415.07"/>
</g>
<!-- Node4 -->
<g id="node4" class="node">
<title>Node4</title>
<g id="a_node4"><a xlink:href="class_veery_1_1_u_i_1_1_selection_1_1_methods.html#a48083f7c70fdc83c1b71364999ed248f" target="_top" xlink:title=" ">
<polygon fill="white" stroke="#666666" points="145.5,-414 6.5,-414 6.5,-384 145.5,-384 145.5,-414"/>
<text text-anchor="start" x="14.5" y="-402" font-family="Helvetica,sans-Serif" font-size="10.00">Veery.UI.Selection.Methods.</text>
<text text-anchor="middle" x="76" y="-391" font-family="Helvetica,sans-Serif" font-size="10.00">Start</text>
</a>
</g>
</g>
<!-- Node2&#45;&gt;Node4 -->
<g id="edge3" class="edge">
<title>Node2&#45;&gt;Node4</title>
<path fill="none" stroke="#63b8ff" d="M182.82,-399C170.4,-399 157.82,-399 145.89,-399"/>
<polygon fill="#63b8ff" stroke="#63b8ff" points="182.64,-402.5 192.64,-399 182.64,-395.5 182.64,-402.5"/>
</g>
<!-- Node6 -->
<g id="node6" class="node">
<title>Node6</title>
<g id="a_node6"><a xlink:href="class_veery_1_1_u_i_1_1_selection_1_1_parameters.html#a43952c81eecf5215afd4e1234c9e03fb" target="_top" xlink:title=" ">
<polygon fill="white" stroke="#666666" points="152,-366 0,-366 0,-336 152,-336 152,-366"/>
<text text-anchor="start" x="8" y="-354" font-family="Helvetica,sans-Serif" font-size="10.00">Veery.UI.Selection.Parameters.</text>
<text text-anchor="middle" x="76" y="-343" font-family="Helvetica,sans-Serif" font-size="10.00">OnDestroy</text>
</a>
</g>
</g>
<!-- Node5&#45;&gt;Node6 -->
<g id="edge5" class="edge">
<title>Node5&#45;&gt;Node6</title>
<path fill="none" stroke="#63b8ff" d="M222.06,-315.66C196.98,-321.77 166.68,-329.15 140.27,-335.58"/>
<polygon fill="#63b8ff" stroke="#63b8ff" points="222.82,-319.07 231.71,-313.3 221.17,-312.27 222.82,-319.07"/>
</g>
<!-- Node7 -->
<g id="node7" class="node">
<title>Node7</title>
<g id="a_node7"><a xlink:href="class_veery_1_1_u_i_1_1_selection_1_1_parameters.html#a73365883fd16999dc549f00930fa425b" target="_top" xlink:title=" ">
<polygon fill="white" stroke="#666666" points="152,-318 0,-318 0,-288 152,-288 152,-318"/>
<text text-anchor="start" x="8" y="-306" font-family="Helvetica,sans-Serif" font-size="10.00">Veery.UI.Selection.Parameters.</text>
<text text-anchor="middle" x="76" y="-295" font-family="Helvetica,sans-Serif" font-size="10.00">Start</text>
</a>
</g>
</g>
<!-- Node5&#45;&gt;Node7 -->
<g id="edge6" class="edge">
<title>Node5&#45;&gt;Node7</title>
<path fill="none" stroke="#63b8ff" d="M176.22,-303C168.15,-303 160.08,-303 152.22,-303"/>
<polygon fill="#63b8ff" stroke="#63b8ff" points="176.08,-306.5 186.08,-303 176.08,-299.5 176.08,-306.5"/>
</g>
<!-- Node9 -->
<g id="node9" class="node">
<title>Node9</title>
<g id="a_node9"><a xlink:href="class_veery_1_1_u_i_1_1_selection_1_1_link.html#ad2b1e4dadb933ea4a14da4aa403e3fc5" target="_top" xlink:title=" ">
<polygon fill="white" stroke="#666666" points="136,-270 16,-270 16,-240 136,-240 136,-270"/>
<text text-anchor="start" x="24" y="-258" font-family="Helvetica,sans-Serif" font-size="10.00">Veery.UI.Selection.Link.</text>
<text text-anchor="middle" x="76" y="-247" font-family="Helvetica,sans-Serif" font-size="10.00">OnDestroy</text>
</a>
</g>
</g>
<!-- Node8&#45;&gt;Node9 -->
<g id="edge8" class="edge">
<title>Node8&#45;&gt;Node9</title>
<path fill="none" stroke="#63b8ff" d="M203.34,-239.61C181.36,-242.29 157.37,-245.21 136.25,-247.78"/>
<polygon fill="#63b8ff" stroke="#63b8ff" points="203.62,-243.1 213.12,-238.42 202.77,-236.15 203.62,-243.1"/>
</g>
<!-- Node10 -->
<g id="node10" class="node">
<title>Node10</title>
<g id="a_node10"><a xlink:href="class_veery_1_1_u_i_1_1_selection_1_1_link.html#a0302d4a02186260cff8d5081004f201b" target="_top" xlink:title=" ">
<polygon fill="white" stroke="#666666" points="136,-222 16,-222 16,-192 136,-192 136,-222"/>
<text text-anchor="start" x="24" y="-210" font-family="Helvetica,sans-Serif" font-size="10.00">Veery.UI.Selection.Link.</text>
<text text-anchor="middle" x="76" y="-199" font-family="Helvetica,sans-Serif" font-size="10.00">Start</text>
</a>
</g>
</g>
<!-- Node8&#45;&gt;Node10 -->
<g id="edge9" class="edge">
<title>Node8&#45;&gt;Node10</title>
<path fill="none" stroke="#63b8ff" d="M203.34,-222.39C181.36,-219.71 157.37,-216.79 136.25,-214.22"/>
<polygon fill="#63b8ff" stroke="#63b8ff" points="202.77,-225.85 213.12,-223.58 203.62,-218.9 202.77,-225.85"/>
</g>
<!-- Node12 -->
<g id="node12" class="node">
<title>Node12</title>
<g id="a_node12"><a xlink:href="class_veery_1_1_u_i_1_1_selection_1_1_triggerable_property.html#a5bfed5bb789ca733201f2213ffb2c051" target="_top" xlink:title=" ">
<polygon fill="white" stroke="#666666" points="149.5,-174 2.5,-174 2.5,-144 149.5,-144 149.5,-174"/>
<text text-anchor="start" x="10.5" y="-162" font-family="Helvetica,sans-Serif" font-size="10.00">Veery.UI.Selection.Triggerable</text>
<text text-anchor="middle" x="76" y="-151" font-family="Helvetica,sans-Serif" font-size="10.00">Property.OnDestroy</text>
</a>
</g>
</g>
<!-- Node11&#45;&gt;Node12 -->
<g id="edge11" class="edge">
<title>Node11&#45;&gt;Node12</title>
<path fill="none" stroke="#63b8ff" d="M190.07,-159C176.68,-159 162.93,-159 149.83,-159"/>
<polygon fill="#63b8ff" stroke="#63b8ff" points="189.69,-162.5 199.69,-159 189.69,-155.5 189.69,-162.5"/>
</g>
<!-- Node13 -->
<g id="node13" class="node">
<title>Node13</title>
<g id="a_node13"><a xlink:href="class_veery_1_1_u_i_1_1_selection_1_1_triggerable_property.html#a0d9ebb1a2f95b6642369340b280a1b26" target="_top" xlink:title=" ">
<polygon fill="white" stroke="#666666" points="149.5,-126 2.5,-126 2.5,-96 149.5,-96 149.5,-126"/>
<text text-anchor="start" x="10.5" y="-114" font-family="Helvetica,sans-Serif" font-size="10.00">Veery.UI.Selection.Triggerable</text>
<text text-anchor="middle" x="76" y="-103" font-family="Helvetica,sans-Serif" font-size="10.00">Property.Start</text>
</a>
</g>
</g>
<!-- Node11&#45;&gt;Node13 -->
<g id="edge12" class="edge">
<title>Node11&#45;&gt;Node13</title>
<path fill="none" stroke="#63b8ff" d="M199.58,-140.87C180.05,-136.11 159.18,-131.02 140.3,-126.42"/>
<polygon fill="#63b8ff" stroke="#63b8ff" points="198.57,-144.22 209.11,-143.19 200.23,-137.42 198.57,-144.22"/>
</g>
<!-- Node15 -->
<g id="node15" class="node">
<title>Node15</title>
<g id="a_node15"><a xlink:href="class_veery_1_1_u_i_1_1_selection_1_1_trigger_endable_property.html#ae19ed6ffdde3a399462d3c79213240a1" target="_top" xlink:title=" ">
<polygon fill="white" stroke="#666666" points="143.5,-78 8.5,-78 8.5,-48 143.5,-48 143.5,-78"/>
<text text-anchor="start" x="16.5" y="-66" font-family="Helvetica,sans-Serif" font-size="10.00">Veery.UI.Selection.Trigger</text>
<text text-anchor="middle" x="76" y="-55" font-family="Helvetica,sans-Serif" font-size="10.00">EndableProperty.OnDestroy</text>
</a>
</g>
</g>
<!-- Node14&#45;&gt;Node15 -->
<g id="edge14" class="edge">
<title>Node14&#45;&gt;Node15</title>
<path fill="none" stroke="#63b8ff" d="M194.23,-63C177.53,-63 160.08,-63 143.9,-63"/>
<polygon fill="#63b8ff" stroke="#63b8ff" points="194.14,-66.5 204.14,-63 194.14,-59.5 194.14,-66.5"/>
</g>
<!-- Node16 -->
<g id="node16" class="node">
<title>Node16</title>
<g id="a_node16"><a xlink:href="class_veery_1_1_u_i_1_1_selection_1_1_trigger_endable_property.html#ae8845f027b37f0b500971155e655b539" target="_top" xlink:title=" ">
<polygon fill="white" stroke="#666666" points="140.5,-30 11.5,-30 11.5,0 140.5,0 140.5,-30"/>
<text text-anchor="start" x="19.5" y="-18" font-family="Helvetica,sans-Serif" font-size="10.00">Veery.UI.Selection.Trigger</text>
<text text-anchor="middle" x="76" y="-7" font-family="Helvetica,sans-Serif" font-size="10.00">EndableProperty.Start</text>
</a>
</g>
</g>
<!-- Node14&#45;&gt;Node16 -->
<g id="edge15" class="edge">
<title>Node14&#45;&gt;Node16</title>
<path fill="none" stroke="#63b8ff" d="M199.58,-44.87C180.05,-40.11 159.18,-35.02 140.3,-30.42"/>
<polygon fill="#63b8ff" stroke="#63b8ff" points="198.57,-48.22 209.11,-47.19 200.23,-41.42 198.57,-48.22"/>
</g>
</g>
</svg>
