<?xml version="1.0" encoding="UTF-8" standalone="no"?>
<!DOCTYPE svg PUBLIC "-//W3C//DTD SVG 1.1//EN"
 "http://www.w3.org/Graphics/SVG/1.1/DTD/svg11.dtd">
<!-- Generated by graphviz version 7.0.5 (20221223.1930)
 -->
<!-- Title: Veery.UI.FileExplorerElementController Pages: 1 -->
<svg width="299pt" height="104pt"
 viewBox="0.00 0.00 299.00 104.00" xmlns="http://www.w3.org/2000/svg" xmlns:xlink="http://www.w3.org/1999/xlink">
<g id="graph0" class="graph" transform="scale(1 1) rotate(0) translate(4 100)">
<title>Veery.UI.FileExplorerElementController</title>
<!-- Node1 -->
<g id="node1" class="node">
<title>Node1</title>
<g id="a_node1"><a xlink:title="The FileExplorerElementController is used to control ONE element (file / folder) of the file explorer...">
<polygon fill="#999999" stroke="#666666" points="214,-30 72,-30 72,0 214,0 214,-30"/>
<text text-anchor="start" x="80" y="-18" font-family="Helvetica,sans-Serif" font-size="10.00">Veery.UI.FileExplorerElement</text>
<text text-anchor="middle" x="143" y="-7" font-family="Helvetica,sans-Serif" font-size="10.00">Controller</text>
</a>
</g>
</g>
<!-- Node2 -->
<g id="node2" class="node">
<title>Node2</title>
<g id="a_node2"><a xlink:title=" ">
<polygon fill="white" stroke="#666666" points="84,-96 0,-96 0,-77 84,-77 84,-96"/>
<text text-anchor="middle" x="42" y="-84" font-family="Helvetica,sans-Serif" font-size="10.00">MonoBehaviour</text>
</a>
</g>
</g>
<!-- Node2&#45;&gt;Node1 -->
<g id="edge1" class="edge">
<title>Node2&#45;&gt;Node1</title>
<path fill="none" stroke="#63b8ff" d="M64.12,-70.28C81.42,-58.37 105.31,-41.93 122.26,-30.27"/>
<polygon fill="#63b8ff" stroke="#63b8ff" points="62.29,-67.29 56.04,-75.84 66.26,-73.05 62.29,-67.29"/>
</g>
<!-- Node3 -->
<g id="node3" class="node">
<title>Node3</title>
<g id="a_node3"><a xlink:title=" ">
<polygon fill="white" stroke="#666666" points="184,-96 102,-96 102,-77 184,-77 184,-96"/>
<text text-anchor="middle" x="143" y="-84" font-family="Helvetica,sans-Serif" font-size="10.00">FileSystemInfo</text>
</a>
</g>
</g>
<!-- Node3&#45;&gt;Node1 -->
<g id="edge2" class="edge">
<title>Node3&#45;&gt;Node1</title>
<path fill="none" stroke="#9a32cd" stroke-dasharray="5,2" d="M143,-65.39C143,-54.15 143,-40.41 143,-30.27"/>
<polygon fill="#9a32cd" stroke="#9a32cd" points="139.5,-65.18 143,-75.18 146.5,-65.18 139.5,-65.18"/>
<text text-anchor="middle" x="178" y="-51" font-family="Helvetica,sans-Serif" font-size="10.00"> _fileSystemInfo</text>
</g>
<!-- Node4 -->
<g id="node4" class="node">
<title>Node4</title>
<g id="a_node4"><a xlink:title=" ">
<polygon fill="white" stroke="#666666" points="276,-96 202,-96 202,-77 276,-77 276,-96"/>
<text text-anchor="middle" x="239" y="-84" font-family="Helvetica,sans-Serif" font-size="10.00">EventSystem</text>
</a>
</g>
</g>
<!-- Node4&#45;&gt;Node1 -->
<g id="edge3" class="edge">
<title>Node4&#45;&gt;Node1</title>
<path fill="none" stroke="#9a32cd" stroke-dasharray="5,2" d="M230.87,-66.5C227.36,-59.98 222.72,-53.06 217,-48 208.82,-40.77 198.76,-34.97 188.72,-30.41"/>
<polygon fill="#9a32cd" stroke="#9a32cd" points="227.62,-67.8 235.07,-75.33 233.94,-64.79 227.62,-67.8"/>
<text text-anchor="middle" x="258.5" y="-51" font-family="Helvetica,sans-Serif" font-size="10.00"> _eventSystem</text>
</g>
</g>
</svg>
