<?xml version="1.0" encoding="UTF-8" standalone="no"?>
<!DOCTYPE svg PUBLIC "-//W3C//DTD SVG 1.1//EN"
 "http://www.w3.org/Graphics/SVG/1.1/DTD/svg11.dtd">
<!-- Generated by graphviz version 7.0.5 (20221223.1930)
 -->
<!-- Title: EVA.Import.Image Pages: 1 -->
<svg width="288pt" height="93pt"
 viewBox="0.00 0.00 288.00 93.00" xmlns="http://www.w3.org/2000/svg" xmlns:xlink="http://www.w3.org/1999/xlink">
<g id="graph0" class="graph" transform="scale(1 1) rotate(0) translate(4 89)">
<title>EVA.Import.Image</title>
<!-- Node1 -->
<g id="node1" class="node">
<title>Node1</title>
<g id="a_node1"><a xlink:title="Manipulate an image in the scene.">
<polygon fill="#999999" stroke="#666666" points="177.5,-19 82.5,-19 82.5,0 177.5,0 177.5,-19"/>
<text text-anchor="middle" x="130" y="-7" font-family="Helvetica,sans-Serif" font-size="10.00">EVA.Import.Image</text>
</a>
</g>
</g>
<!-- Node2 -->
<g id="node2" class="node">
<title>Node2</title>
<g id="a_node2"><a xlink:title=" ">
<polygon fill="white" stroke="#666666" points="84,-85 0,-85 0,-66 84,-66 84,-85"/>
<text text-anchor="middle" x="42" y="-73" font-family="Helvetica,sans-Serif" font-size="10.00">MonoBehaviour</text>
</a>
</g>
</g>
<!-- Node2&#45;&gt;Node1 -->
<g id="edge1" class="edge">
<title>Node2&#45;&gt;Node1</title>
<path fill="none" stroke="#63b8ff" d="M63.46,-58.89C80.55,-46.46 103.86,-29.51 117.87,-19.32"/>
<polygon fill="#63b8ff" stroke="#63b8ff" points="61.49,-56 55.46,-64.71 65.61,-61.66 61.49,-56"/>
</g>
<!-- Node3 -->
<g id="node3" class="node">
<title>Node3</title>
<g id="a_node3"><a xlink:title=" ">
<polygon fill="white" stroke="#666666" points="158,-85 102,-85 102,-66 158,-66 158,-85"/>
<text text-anchor="middle" x="130" y="-73" font-family="Helvetica,sans-Serif" font-size="10.00">Renderer</text>
</a>
</g>
</g>
<!-- Node3&#45;&gt;Node1 -->
<g id="edge2" class="edge">
<title>Node3&#45;&gt;Node1</title>
<path fill="none" stroke="#9a32cd" stroke-dasharray="5,2" d="M130,-54.18C130,-42.44 130,-28.27 130,-19.32"/>
<polygon fill="#9a32cd" stroke="#9a32cd" points="126.5,-54.09 130,-64.09 133.5,-54.09 126.5,-54.09"/>
<text text-anchor="middle" x="151.5" y="-40" font-family="Helvetica,sans-Serif" font-size="10.00"> _renderer</text>
</g>
<!-- Node4 -->
<g id="node4" class="node">
<title>Node4</title>
<g id="a_node4"><a xlink:title=" ">
<polygon fill="white" stroke="#666666" points="280,-85 176,-85 176,-66 280,-66 280,-85"/>
<text text-anchor="middle" x="228" y="-73" font-family="Helvetica,sans-Serif" font-size="10.00">List&lt; GameObject &gt;</text>
</a>
</g>
</g>
<!-- Node4&#45;&gt;Node1 -->
<g id="edge3" class="edge">
<title>Node4&#45;&gt;Node1</title>
<path fill="none" stroke="#9a32cd" stroke-dasharray="5,2" d="M207.82,-58.8C198.61,-51.85 187.44,-43.75 177,-37 167.24,-30.7 155.91,-24.28 146.82,-19.34"/>
<polygon fill="#9a32cd" stroke="#9a32cd" points="205.66,-61.55 215.73,-64.84 209.91,-55.99 205.66,-61.55"/>
<text text-anchor="middle" x="224" y="-40" font-family="Helvetica,sans-Serif" font-size="10.00"> _deferredGOs</text>
</g>
</g>
</svg>
