<?xml version="1.0" encoding="UTF-8" standalone="no"?>
<!DOCTYPE svg PUBLIC "-//W3C//DTD SVG 1.1//EN"
 "http://www.w3.org/Graphics/SVG/1.1/DTD/svg11.dtd">
<!-- Generated by graphviz version 7.0.5 (20221223.1930)
 -->
<!-- Title: EVA.Interaction.DistanceSelectInteractable Pages: 1 -->
<svg width="371pt" height="234pt"
 viewBox="0.00 0.00 371.00 234.00" xmlns="http://www.w3.org/2000/svg" xmlns:xlink="http://www.w3.org/1999/xlink">
<g id="graph0" class="graph" transform="scale(1 1) rotate(0) translate(4 230)">
<title>EVA.Interaction.DistanceSelectInteractable</title>
<!-- Node1 -->
<g id="node1" class="node">
<title>Node1</title>
<g id="a_node1"><a xlink:title=" ">
<polygon fill="#999999" stroke="#666666" points="363,-116.5 238,-116.5 238,-86.5 363,-86.5 363,-116.5"/>
<text text-anchor="start" x="246" y="-104.5" font-family="Helvetica,sans-Serif" font-size="10.00">EVA.Interaction.Distance</text>
<text text-anchor="middle" x="300.5" y="-93.5" font-family="Helvetica,sans-Serif" font-size="10.00">SelectInteractable</text>
</a>
</g>
</g>
<!-- Node2 -->
<g id="node2" class="node">
<title>Node2</title>
<g id="a_node2"><a xlink:href="class_pointer_interactable.html" target="_top" xlink:title=" ">
<polygon fill="white" stroke="#666666" points="144,-226 0,-226 0,-185 144,-185 144,-226"/>
<text text-anchor="start" x="8" y="-214" font-family="Helvetica,sans-Serif" font-size="10.00">PointerInteractable</text>
<text text-anchor="start" x="8" y="-203" font-family="Helvetica,sans-Serif" font-size="10.00">&lt; DistanceSelectInteractor,</text>
<text text-anchor="middle" x="72" y="-192" font-family="Helvetica,sans-Serif" font-size="10.00"> DistanceSelectInteractable &gt;</text>
</a>
</g>
</g>
<!-- Node2&#45;&gt;Node1 -->
<g id="edge1" class="edge">
<title>Node2&#45;&gt;Node1</title>
<path fill="none" stroke="#63b8ff" d="M135.02,-180.26C138.06,-178.99 141.07,-177.74 144,-176.5 177.94,-162.2 186.81,-159.45 220,-143.5 237.31,-135.19 256.34,-125.17 271.44,-117"/>
<polygon fill="#63b8ff" stroke="#63b8ff" points="133.93,-176.92 126.03,-183.99 136.61,-183.39 133.93,-176.92"/>
</g>
<!-- Node3 -->
<g id="node3" class="node">
<title>Node3</title>
<g id="a_node3"><a xlink:href="class_i_rigidbody_ref.html" target="_top" xlink:title=" ">
<polygon fill="white" stroke="#666666" points="110.5,-167 33.5,-167 33.5,-148 110.5,-148 110.5,-167"/>
<text text-anchor="middle" x="72" y="-155" font-family="Helvetica,sans-Serif" font-size="10.00">IRigidbodyRef</text>
</a>
</g>
</g>
<!-- Node3&#45;&gt;Node1 -->
<g id="edge2" class="edge">
<title>Node3&#45;&gt;Node1</title>
<path fill="none" stroke="#63b8ff" d="M121.83,-146.76C150.49,-140.31 187.39,-131.78 220,-123.5 228.05,-121.46 236.53,-119.21 244.84,-116.96"/>
<polygon fill="#63b8ff" stroke="#63b8ff" points="121.34,-143.28 112.35,-148.88 122.87,-150.11 121.34,-143.28"/>
</g>
<!-- Node4 -->
<g id="node4" class="node">
<title>Node4</title>
<g id="a_node4"><a xlink:href="class_i_relative_to_ref.html" target="_top" xlink:title=" ">
<polygon fill="white" stroke="#666666" points="112.5,-130 31.5,-130 31.5,-111 112.5,-111 112.5,-130"/>
<text text-anchor="middle" x="72" y="-118" font-family="Helvetica,sans-Serif" font-size="10.00">IRelativeToRef</text>
</a>
</g>
</g>
<!-- Node4&#45;&gt;Node1 -->
<g id="edge3" class="edge">
<title>Node4&#45;&gt;Node1</title>
<path fill="none" stroke="#63b8ff" d="M124.4,-116.19C158.05,-113.37 202.19,-109.66 237.74,-106.68"/>
<polygon fill="#63b8ff" stroke="#63b8ff" points="124.15,-112.7 114.48,-117.02 124.74,-119.67 124.15,-112.7"/>
</g>
<!-- Node5 -->
<g id="node5" class="node">
<title>Node5</title>
<g id="a_node5"><a xlink:href="class_i_colliders_ref.html" target="_top" xlink:title=" ">
<polygon fill="white" stroke="#666666" points="108,-93 36,-93 36,-74 108,-74 108,-93"/>
<text text-anchor="middle" x="72" y="-81" font-family="Helvetica,sans-Serif" font-size="10.00">ICollidersRef</text>
</a>
</g>
</g>
<!-- Node5&#45;&gt;Node1 -->
<g id="edge4" class="edge">
<title>Node5&#45;&gt;Node1</title>
<path fill="none" stroke="#63b8ff" d="M119.48,-87.19C153.7,-89.91 200.57,-93.64 237.91,-96.61"/>
<polygon fill="#63b8ff" stroke="#63b8ff" points="120.15,-83.74 109.9,-86.43 119.59,-90.71 120.15,-83.74"/>
</g>
<!-- Node6 -->
<g id="node6" class="node">
<title>Node6</title>
<g id="a_node6"><a xlink:title=" ">
<polygon fill="white" stroke="#666666" points="101.5,-56 42.5,-56 42.5,-37 101.5,-37 101.5,-56"/>
<text text-anchor="middle" x="72" y="-44" font-family="Helvetica,sans-Serif" font-size="10.00">Rigidbody</text>
</a>
</g>
</g>
<!-- Node6&#45;&gt;Node1 -->
<g id="edge5" class="edge">
<title>Node6&#45;&gt;Node1</title>
<path fill="none" stroke="#9a32cd" stroke-dasharray="5,2" d="M113.14,-53.06C142.86,-58.25 184.23,-66.16 220,-75.5 231.66,-78.55 244.12,-82.35 255.63,-86.1"/>
<polygon fill="#9a32cd" stroke="#9a32cd" points="113.9,-49.64 103.46,-51.4 112.72,-56.54 113.9,-49.64"/>
<text text-anchor="middle" x="191" y="-78.5" font-family="Helvetica,sans-Serif" font-size="10.00"> _rigidbody</text>
</g>
<!-- Node7 -->
<g id="node7" class="node">
<title>Node7</title>
<g id="a_node7"><a xlink:title=" ">
<polygon fill="white" stroke="#666666" points="102.5,-19 41.5,-19 41.5,0 102.5,0 102.5,-19"/>
<text text-anchor="middle" x="72" y="-7" font-family="Helvetica,sans-Serif" font-size="10.00">Transform</text>
</a>
</g>
</g>
<!-- Node7&#45;&gt;Node1 -->
<g id="edge6" class="edge">
<title>Node7&#45;&gt;Node1</title>
<path fill="none" stroke="#9a32cd" stroke-dasharray="5,2" d="M113.72,-16.12C143.95,-21.96 185.71,-31.99 220,-47.5 242.5,-57.68 265.55,-74.14 281,-86.21"/>
<polygon fill="#9a32cd" stroke="#9a32cd" points="114.69,-12.74 104.22,-14.36 113.41,-19.63 114.69,-12.74"/>
<text text-anchor="middle" x="191" y="-50.5" font-family="Helvetica,sans-Serif" font-size="10.00"> _grabSource</text>
</g>
</g>
</svg>
