<?xml version="1.0" encoding="UTF-8" standalone="no"?>
<!DOCTYPE svg PUBLIC "-//W3C//DTD SVG 1.1//EN"
 "http://www.w3.org/Graphics/SVG/1.1/DTD/svg11.dtd">
<!-- Generated by graphviz version 7.0.5 (20221223.1930)
 -->
<!-- Title: Veery.Import.Triggers.AreaTrigger Pages: 1 -->
<!--zoomable 237 -->
<svg id="main" version="1.1" xmlns="http://www.w3.org/2000/svg" xmlns:xlink="http://www.w3.org/1999/xlink" xml:space="preserve" onload="init(evt)">
<style type="text/css"><![CDATA[
.edge:hover path { stroke: red; }
.edge:hover polygon { stroke: red; fill: red; }
]]></style>
<script type="text/javascript"><![CDATA[
var edges = document.getElementsByTagName('g');
if (edges && edges.length) {
  for (var i=0;i<edges.length;i++) {
    if (edges[i].id.substr(0,4)=='edge') {
      edges[i].setAttribute('class','edge');
    }
  }
}
]]></script>
        <defs>
                <circle id="rim" cx="0" cy="0" r="7"/>
                <circle id="rim2" cx="0" cy="0" r="3.5"/>
                <g id="zoomPlus">
                        <use xlink:href="#rim" fill="#404040">
                                <set attributeName="fill" to="#808080" begin="zoomplus.mouseover" end="zoomplus.mouseout"/>
                        </use>
                        <path d="M-4,0h8M0,-4v8" fill="none" stroke="white" stroke-width="1.5" pointer-events="none"/>
                </g>
                <g id="zoomMin">
                        <use xlink:href="#rim" fill="#404040">
                                <set attributeName="fill" to="#808080" begin="zoomminus.mouseover" end="zoomminus.mouseout"/>
                        </use>
                        <path d="M-4,0h8" fill="none" stroke="white" stroke-width="1.5" pointer-events="none"/>
                </g>
                <g id="dirArrow">
                        <path fill="none" stroke="white" stroke-width="1.5" d="M0,-3.0v7 M-2.5,-0.5L0,-3.0L2.5,-0.5"/>
                </g>
               <g id="resetDef">
                       <use xlink:href="#rim2" fill="#404040">
                               <set attributeName="fill" to="#808080" begin="reset.mouseover" end="reset.mouseout"/>
                       </use>
               </g>
        </defs>

<script type="text/javascript">
var viewWidth = 838;
var viewHeight = 237;
var sectionId = 'dynsection-0';
</script>
<script xlink:href="svgpan.js"/>
<svg id="graph" class="graph">
<g id="viewport">
<title>Veery.Import.Triggers.AreaTrigger</title>
<!-- Node1 -->
<g id="node1" class="node">
<title>Node1</title>
<g id="a_node1"><a xlink:title="Represents a trigger that is activated when the player enters or exits a specified area.">
<polygon fill="#999999" stroke="#666666" points="830,-96.5 699,-96.5 699,-66.5 830,-66.5 830,-96.5"/>
<text text-anchor="start" x="707" y="-84.5" font-family="Helvetica,sans-Serif" font-size="10.00">Veery.Import.Triggers.Area</text>
<text text-anchor="middle" x="764.5" y="-73.5" font-family="Helvetica,sans-Serif" font-size="10.00">Trigger</text>
</a>
</g>
</g>
<!-- Node2 -->
<g id="node2" class="node">
<title>Node2</title>
<g id="a_node2"><a xlink:href="class_veery_1_1_import_1_1_triggers_1_1_trigger.html" target="_top" xlink:title="Represents a trigger that can be enabled or disabled and can be linked to other objects.">
<polygon fill="white" stroke="#666666" points="643.5,-116 596.5,-116 596.5,-97 643.5,-97 643.5,-116"/>
<text text-anchor="middle" x="620" y="-104" font-family="Helvetica,sans-Serif" font-size="10.00">Trigger</text>
</a>
</g>
</g>
<!-- Node2&#45;&gt;Node1 -->
<g id="edge1" class="edge">
<title>Node2&#45;&gt;Node1</title>
<path fill="none" stroke="#63b8ff" d="M655.15,-100.51C668.19,-98.22 683.54,-95.53 698.51,-92.9"/>
<polygon fill="#63b8ff" stroke="#63b8ff" points="654.63,-97.05 645.39,-102.22 655.84,-103.94 654.63,-97.05"/>
</g>
<!-- Node3 -->
<g id="node3" class="node">
<title>Node3</title>
<g id="a_node3"><a xlink:href="class_veery_1_1_import_1_1_import_object.html" target="_top" xlink:title="Represents an object that can be imported into the scene.">
<polygon fill="white" stroke="#666666" points="541,-137 468,-137 468,-118 541,-118 541,-137"/>
<text text-anchor="middle" x="504.5" y="-125" font-family="Helvetica,sans-Serif" font-size="10.00">ImportObject</text>
</a>
</g>
</g>
<!-- Node3&#45;&gt;Node2 -->
<g id="edge2" class="edge">
<title>Node3&#45;&gt;Node2</title>
<path fill="none" stroke="#63b8ff" d="M552.66,-118.77C567.7,-115.99 583.67,-113.04 596.17,-110.72"/>
<polygon fill="#63b8ff" stroke="#63b8ff" points="552.1,-115.32 542.9,-120.58 553.37,-122.2 552.1,-115.32"/>
</g>
<!-- Node4 -->
<g id="node4" class="node">
<title>Node4</title>
<g id="a_node4"><a xlink:title=" ">
<polygon fill="white" stroke="#666666" points="345,-229 261,-229 261,-210 345,-210 345,-229"/>
<text text-anchor="middle" x="303" y="-217" font-family="Helvetica,sans-Serif" font-size="10.00">MonoBehaviour</text>
</a>
</g>
</g>
<!-- Node4&#45;&gt;Node3 -->
<g id="edge3" class="edge">
<title>Node4&#45;&gt;Node3</title>
<path fill="none" stroke="#63b8ff" d="M356.4,-209.27C385.28,-202.21 421.03,-191.06 450,-174.5 467.6,-164.44 484.61,-147.98 494.56,-137.45"/>
<polygon fill="#63b8ff" stroke="#63b8ff" points="355.71,-205.84 346.77,-211.53 357.31,-212.66 355.71,-205.84"/>
</g>
<!-- Node5 -->
<g id="node5" class="node">
<title>Node5</title>
<g id="a_node5"><a xlink:href="interface_veery_1_1_import_1_1_properties_1_1_i_enableable.html" target="_top" xlink:title="Interface for objects that can be enabled or disabled.">
<polygon fill="white" stroke="#666666" points="336.5,-192 269.5,-192 269.5,-173 336.5,-173 336.5,-192"/>
<text text-anchor="middle" x="303" y="-180" font-family="Helvetica,sans-Serif" font-size="10.00">IEnableable</text>
</a>
</g>
</g>
<!-- Node5&#45;&gt;Node3 -->
<g id="edge4" class="edge">
<title>Node5&#45;&gt;Node3</title>
<path fill="none" stroke="#63b8ff" d="M347.89,-176.24C377.25,-171.39 416.5,-163.6 450,-152.5 462.07,-148.5 475,-142.51 485.12,-137.4"/>
<polygon fill="#63b8ff" stroke="#63b8ff" points="347.57,-172.75 338.25,-177.78 348.68,-179.66 347.57,-172.75"/>
</g>
<!-- Node6 -->
<g id="node6" class="node">
<title>Node6</title>
<g id="a_node6"><a xlink:title=" ">
<polygon fill="white" stroke="#666666" points="355,-155 251,-155 251,-136 355,-136 355,-155"/>
<text text-anchor="middle" x="303" y="-143" font-family="Helvetica,sans-Serif" font-size="10.00">List&lt; GameObject &gt;</text>
</a>
</g>
</g>
<!-- Node6&#45;&gt;Node3 -->
<g id="edge5" class="edge">
<title>Node6&#45;&gt;Node3</title>
<path fill="none" stroke="#9a32cd" stroke-dasharray="5,2" d="M366.84,-139.83C400.09,-136.83 439.71,-133.26 467.71,-130.73"/>
<polygon fill="#9a32cd" stroke="#9a32cd" points="366.53,-136.34 356.88,-140.73 367.16,-143.32 366.53,-136.34"/>
<text text-anchor="middle" x="418" y="-140.5" font-family="Helvetica,sans-Serif" font-size="10.00"> _deferredGOs</text>
</g>
<!-- Node7 -->
<g id="node7" class="node">
<title>Node7</title>
<g id="a_node7"><a xlink:href="class_veery_1_1_interaction_1_1_distance_select_interactable.html" target="_top" xlink:title="Allows the user to select and interact with this object from a distance using the DistanceSelectInter...">
<polygon fill="white" stroke="#666666" points="368,-117.5 238,-117.5 238,-87.5 368,-87.5 368,-117.5"/>
<text text-anchor="start" x="246" y="-105.5" font-family="Helvetica,sans-Serif" font-size="10.00">Veery.Interaction.Distance</text>
<text text-anchor="middle" x="303" y="-94.5" font-family="Helvetica,sans-Serif" font-size="10.00">SelectInteractable</text>
</a>
</g>
</g>
<!-- Node7&#45;&gt;Node3 -->
<g id="edge6" class="edge">
<title>Node7&#45;&gt;Node3</title>
<path fill="none" stroke="#9a32cd" stroke-dasharray="5,2" d="M379.45,-108.18C402.19,-110.31 427.17,-113.07 450,-116.5 455.72,-117.36 461.75,-118.43 467.62,-119.57"/>
<polygon fill="#9a32cd" stroke="#9a32cd" points="379.93,-104.71 369.65,-107.29 379.29,-111.68 379.93,-104.71"/>
<text text-anchor="middle" x="418" y="-119.5" font-family="Helvetica,sans-Serif" font-size="10.00"> interactable</text>
</g>
<!-- Node8 -->
<g id="node8" class="node">
<title>Node8</title>
<g id="a_node8"><a xlink:href="class_pointer_interactable.html" target="_top" xlink:title=" ">
<polygon fill="white" stroke="#666666" points="144,-226 0,-226 0,-185 144,-185 144,-226"/>
<text text-anchor="start" x="8" y="-214" font-family="Helvetica,sans-Serif" font-size="10.00">PointerInteractable</text>
<text text-anchor="start" x="8" y="-203" font-family="Helvetica,sans-Serif" font-size="10.00">&lt; DistanceSelectInteractor,</text>
<text text-anchor="middle" x="72" y="-192" font-family="Helvetica,sans-Serif" font-size="10.00"> DistanceSelectInteractable &gt;</text>
</a>
</g>
</g>
<!-- Node8&#45;&gt;Node7 -->
<g id="edge7" class="edge">
<title>Node8&#45;&gt;Node7</title>
<path fill="none" stroke="#63b8ff" d="M134.83,-180.29C137.93,-179.01 141,-177.74 144,-176.5 177.85,-162.46 189.3,-164.51 220,-144.5 229.22,-138.49 228.7,-133.39 238,-127.5 243.64,-123.93 249.88,-120.72 256.18,-117.89"/>
<polygon fill="#63b8ff" stroke="#63b8ff" points="133.53,-177.04 125.62,-184.08 136.2,-183.51 133.53,-177.04"/>
</g>
<!-- Node9 -->
<g id="node9" class="node">
<title>Node9</title>
<g id="a_node9"><a xlink:href="class_i_rigidbody_ref.html" target="_top" xlink:title=" ">
<polygon fill="white" stroke="#666666" points="110.5,-167 33.5,-167 33.5,-148 110.5,-148 110.5,-167"/>
<text text-anchor="middle" x="72" y="-155" font-family="Helvetica,sans-Serif" font-size="10.00">IRigidbodyRef</text>
</a>
</g>
</g>
<!-- Node9&#45;&gt;Node7 -->
<g id="edge8" class="edge">
<title>Node9&#45;&gt;Node7</title>
<path fill="none" stroke="#63b8ff" d="M121.82,-147.07C150.48,-140.81 187.38,-132.53 220,-124.5 228.3,-122.46 237.05,-120.21 245.62,-117.96"/>
<polygon fill="#63b8ff" stroke="#63b8ff" points="121.37,-143.58 112.35,-149.13 122.86,-150.43 121.37,-143.58"/>
</g>
<!-- Node10 -->
<g id="node10" class="node">
<title>Node10</title>
<g id="a_node10"><a xlink:href="class_i_relative_to_ref.html" target="_top" xlink:title=" ">
<polygon fill="white" stroke="#666666" points="112.5,-130 31.5,-130 31.5,-111 112.5,-111 112.5,-130"/>
<text text-anchor="middle" x="72" y="-118" font-family="Helvetica,sans-Serif" font-size="10.00">IRelativeToRef</text>
</a>
</g>
</g>
<!-- Node10&#45;&gt;Node7 -->
<g id="edge9" class="edge">
<title>Node10&#45;&gt;Node7</title>
<path fill="none" stroke="#63b8ff" d="M124.3,-116.47C157.89,-113.83 202.04,-110.36 237.93,-107.54"/>
<polygon fill="#63b8ff" stroke="#63b8ff" points="124.09,-112.97 114.4,-117.25 124.64,-119.95 124.09,-112.97"/>
</g>
<!-- Node11 -->
<g id="node11" class="node">
<title>Node11</title>
<g id="a_node11"><a xlink:href="class_i_colliders_ref.html" target="_top" xlink:title=" ">
<polygon fill="white" stroke="#666666" points="108,-93 36,-93 36,-74 108,-74 108,-93"/>
<text text-anchor="middle" x="72" y="-81" font-family="Helvetica,sans-Serif" font-size="10.00">ICollidersRef</text>
</a>
</g>
</g>
<!-- Node11&#45;&gt;Node7 -->
<g id="edge10" class="edge">
<title>Node11&#45;&gt;Node7</title>
<path fill="none" stroke="#63b8ff" d="M119.74,-87.38C153.72,-90.2 200.14,-94.05 237.62,-97.16"/>
<polygon fill="#63b8ff" stroke="#63b8ff" points="120.04,-83.89 109.79,-86.55 119.46,-90.87 120.04,-83.89"/>
</g>
<!-- Node12 -->
<g id="node12" class="node">
<title>Node12</title>
<g id="a_node12"><a xlink:title=" ">
<polygon fill="white" stroke="#666666" points="101.5,-56 42.5,-56 42.5,-37 101.5,-37 101.5,-56"/>
<text text-anchor="middle" x="72" y="-44" font-family="Helvetica,sans-Serif" font-size="10.00">Rigidbody</text>
</a>
</g>
</g>
<!-- Node12&#45;&gt;Node7 -->
<g id="edge11" class="edge">
<title>Node12&#45;&gt;Node7</title>
<path fill="none" stroke="#9a32cd" stroke-dasharray="5,2" d="M113.15,-53.04C142.87,-58.22 184.24,-66.12 220,-75.5 232.61,-78.81 246.12,-82.98 258.47,-87.06"/>
<polygon fill="#9a32cd" stroke="#9a32cd" points="113.91,-49.62 103.46,-51.38 112.73,-56.52 113.91,-49.62"/>
<text text-anchor="middle" x="191" y="-78.5" font-family="Helvetica,sans-Serif" font-size="10.00"> _rigidbody</text>
</g>
<!-- Node13 -->
<g id="node13" class="node">
<title>Node13</title>
<g id="a_node13"><a xlink:title=" ">
<polygon fill="white" stroke="#666666" points="102.5,-19 41.5,-19 41.5,0 102.5,0 102.5,-19"/>
<text text-anchor="middle" x="72" y="-7" font-family="Helvetica,sans-Serif" font-size="10.00">Transform</text>
</a>
</g>
</g>
<!-- Node13&#45;&gt;Node7 -->
<g id="edge12" class="edge">
<title>Node13&#45;&gt;Node7</title>
<path fill="none" stroke="#9a32cd" stroke-dasharray="5,2" d="M113.62,-19.64C123.57,-22.17 134.18,-24.9 144,-27.5 177.88,-36.47 191.94,-27.5 220,-48.5 232.15,-57.59 226.34,-67.8 238,-77.5 242.4,-81.16 247.4,-84.33 252.62,-87.06"/>
<polygon fill="#9a32cd" stroke="#9a32cd" points="114.77,-16.32 104.21,-17.26 113.05,-23.11 114.77,-16.32"/>
<text text-anchor="middle" x="191" y="-51.5" font-family="Helvetica,sans-Serif" font-size="10.00"> _grabSource</text>
</g>
<!-- Node14 -->
<g id="node14" class="node">
<title>Node14</title>
<g id="a_node14"><a xlink:title=" ">
<polygon fill="white" stroke="#666666" points="338.5,-69 267.5,-69 267.5,-50 338.5,-50 338.5,-69"/>
<text text-anchor="middle" x="303" y="-57" font-family="Helvetica,sans-Serif" font-size="10.00">GameObject</text>
</a>
</g>
</g>
<!-- Node14&#45;&gt;Node3 -->
<g id="edge13" class="edge">
<title>Node14&#45;&gt;Node3</title>
<path fill="none" stroke="#9a32cd" stroke-dasharray="5,2" d="M350.06,-64.27C379.86,-68.77 418.78,-77.34 450,-93.5 459.51,-98.42 459.15,-103.47 468,-109.5 472.23,-112.38 476.98,-115.1 481.59,-117.51"/>
<polygon fill="#9a32cd" stroke="#9a32cd" points="350.6,-60.82 340.21,-62.9 349.63,-67.75 350.6,-60.82"/>
<text text-anchor="middle" x="418" y="-96.5" font-family="Helvetica,sans-Serif" font-size="10.00"> head</text>
</g>
<!-- Node15 -->
<g id="node15" class="node">
<title>Node15</title>
<g id="a_node15"><a xlink:title=" ">
<polygon fill="white" stroke="#666666" points="320.5,-32 285.5,-32 285.5,-13 320.5,-13 320.5,-32"/>
<text text-anchor="middle" x="303" y="-20" font-family="Helvetica,sans-Serif" font-size="10.00">bool</text>
</a>
</g>
</g>
<!-- Node15&#45;&gt;Node3 -->
<g id="edge14" class="edge">
<title>Node15&#45;&gt;Node3</title>
<path fill="none" stroke="#9a32cd" stroke-dasharray="5,2" d="M332.12,-21.63C364.52,-22.17 417.47,-28.01 450,-57.5 468.12,-73.93 451.92,-91.07 468,-109.5 470.82,-112.73 474.35,-115.45 478.09,-117.72"/>
<polygon fill="#9a32cd" stroke="#9a32cd" points="332.3,-18.13 322.31,-21.65 332.31,-25.13 332.3,-18.13"/>
<text text-anchor="middle" x="418" y="-60.5" font-family="Helvetica,sans-Serif" font-size="10.00"> selected</text>
</g>
<!-- Node16 -->
<g id="node16" class="node">
<title>Node16</title>
<g id="a_node16"><a xlink:href="interface_veery_1_1_import_1_1_properties_1_1_i_triggerable.html" target="_top" xlink:title="Interface for objects that can be triggered and linked to another object via a TriggerLink.">
<polygon fill="white" stroke="#666666" points="538.5,-100 470.5,-100 470.5,-81 538.5,-81 538.5,-100"/>
<text text-anchor="middle" x="504.5" y="-88" font-family="Helvetica,sans-Serif" font-size="10.00">ITriggerable</text>
</a>
</g>
</g>
<!-- Node16&#45;&gt;Node2 -->
<g id="edge15" class="edge">
<title>Node16&#45;&gt;Node2</title>
<path fill="none" stroke="#63b8ff" d="M550.13,-96.79C565.91,-99.02 583,-101.43 596.21,-103.29"/>
<polygon fill="#63b8ff" stroke="#63b8ff" points="550.83,-93.36 540.44,-95.43 549.85,-100.29 550.83,-93.36"/>
</g>
<!-- Node17 -->
<g id="node17" class="node">
<title>Node17</title>
<g id="a_node17"><a xlink:href="interface_veery_1_1_import_1_1_properties_1_1_i_trigger_endable.html" target="_top" xlink:title="Interface for objects that can be triggered on an end state.">
<polygon fill="white" stroke="#666666" points="662,-79 578,-79 578,-60 662,-60 662,-79"/>
<text text-anchor="middle" x="620" y="-67" font-family="Helvetica,sans-Serif" font-size="10.00">ITriggerEndable</text>
</a>
</g>
</g>
<!-- Node17&#45;&gt;Node1 -->
<g id="edge16" class="edge">
<title>Node17&#45;&gt;Node1</title>
<path fill="none" stroke="#63b8ff" d="M673.53,-73.92C681.74,-74.62 690.31,-75.34 698.75,-76.05"/>
<polygon fill="#63b8ff" stroke="#63b8ff" points="673.98,-70.45 663.73,-73.1 673.4,-77.42 673.98,-70.45"/>
</g>
</g>
</svg>
        <g id="navigator" transform="translate(0 0)" fill="#404254">
                <rect fill="#f2f5e9" fill-opacity="0.5" stroke="#606060" stroke-width=".5" x="0" y="0" width="60" height="60"/>
                <use id="zoomplus" xlink:href="#zoomPlus" x="17" y="9" onmousedown="handleZoom(evt,'in')"/>
                <use id="zoomminus" xlink:href="#zoomMin" x="42" y="9" onmousedown="handleZoom(evt,'out')"/>
                <use id="reset" xlink:href="#resetDef" x="30" y="36" onmousedown="handleReset()"/>
                <g id="arrowUp" xlink:href="#dirArrow" transform="translate(30 24)" onmousedown="handlePan(0,-1)">
                  <use xlink:href="#rim" fill="#404040">
                        <set attributeName="fill" to="#808080" begin="arrowUp.mouseover" end="arrowUp.mouseout"/>
                  </use>
                  <path fill="none" stroke="white" stroke-width="1.5" d="M0,-3.0v7 M-2.5,-0.5L0,-3.0L2.5,-0.5"/>
                </g>
                <g id="arrowRight" xlink:href="#dirArrow" transform="rotate(90) translate(36 -43)" onmousedown="handlePan(1,0)">
                  <use xlink:href="#rim" fill="#404040">
                        <set attributeName="fill" to="#808080" begin="arrowRight.mouseover" end="arrowRight.mouseout"/>
                  </use>
                  <path fill="none" stroke="white" stroke-width="1.5" d="M0,-3.0v7 M-2.5,-0.5L0,-3.0L2.5,-0.5"/>
                </g>
                <g id="arrowDown" xlink:href="#dirArrow" transform="rotate(180) translate(-30 -48)" onmousedown="handlePan(0,1)">
                  <use xlink:href="#rim" fill="#404040">
                        <set attributeName="fill" to="#808080" begin="arrowDown.mouseover" end="arrowDown.mouseout"/>
                  </use>
                  <path fill="none" stroke="white" stroke-width="1.5" d="M0,-3.0v7 M-2.5,-0.5L0,-3.0L2.5,-0.5"/>
                </g>
                <g id="arrowLeft" xlink:href="#dirArrow" transform="rotate(270) translate(-36 17)" onmousedown="handlePan(-1,0)">
                  <use xlink:href="#rim" fill="#404040">
                        <set attributeName="fill" to="#808080" begin="arrowLeft.mouseover" end="arrowLeft.mouseout"/>
                  </use>
                  <path fill="none" stroke="white" stroke-width="1.5" d="M0,-3.0v7 M-2.5,-0.5L0,-3.0L2.5,-0.5"/>
                </g>
        </g>
        <svg viewBox="0 0 15 15" width="100%" height="30px" preserveAspectRatio="xMaxYMin meet">
         <g id="arrow_out" transform="scale(0.3 0.3)">
          <a xlink:href="class_veery_1_1_import_1_1_triggers_1_1_area_trigger__coll__graph_org.svg" target="_base">
           <rect id="button" ry="5" rx="5" y="6" x="6" height="38" width="38"
                fill="#f2f5e9" fill-opacity="0.5" stroke="#606060" stroke-width="1.0"/>
           <path id="arrow"
             d="M 11.500037,31.436501 C 11.940474,20.09759 22.043105,11.32322 32.158766,21.979434 L 37.068811,17.246167 C 37.068811,17.246167 37.088388,32 37.088388,32 L 22.160133,31.978069 C 22.160133,31.978069 26.997745,27.140456 26.997745,27.140456 C 18.528582,18.264221 13.291696,25.230495 11.500037,31.436501 z"
             style="fill:#404040;"/>
          </a>
         </g>
        </svg>
</svg>
