<?xml version="1.0" encoding="UTF-8" standalone="no"?>
<!DOCTYPE svg PUBLIC "-//W3C//DTD SVG 1.1//EN"
 "http://www.w3.org/Graphics/SVG/1.1/DTD/svg11.dtd">
<!-- Generated by graphviz version 7.0.5 (20221223.1930)
 -->
<!-- Title: Veery.UI.FileExplorerManager Pages: 1 -->
<!--zoomable 251 -->
<svg id="main" version="1.1" xmlns="http://www.w3.org/2000/svg" xmlns:xlink="http://www.w3.org/1999/xlink" xml:space="preserve" onload="init(evt)">
<style type="text/css"><![CDATA[
.edge:hover path { stroke: red; }
.edge:hover polygon { stroke: red; fill: red; }
]]></style>
<script type="text/javascript"><![CDATA[
var edges = document.getElementsByTagName('g');
if (edges && edges.length) {
  for (var i=0;i<edges.length;i++) {
    if (edges[i].id.substr(0,4)=='edge') {
      edges[i].setAttribute('class','edge');
    }
  }
}
]]></script>
        <defs>
                <circle id="rim" cx="0" cy="0" r="7"/>
                <circle id="rim2" cx="0" cy="0" r="3.5"/>
                <g id="zoomPlus">
                        <use xlink:href="#rim" fill="#404040">
                                <set attributeName="fill" to="#808080" begin="zoomplus.mouseover" end="zoomplus.mouseout"/>
                        </use>
                        <path d="M-4,0h8M0,-4v8" fill="none" stroke="white" stroke-width="1.5" pointer-events="none"/>
                </g>
                <g id="zoomMin">
                        <use xlink:href="#rim" fill="#404040">
                                <set attributeName="fill" to="#808080" begin="zoomminus.mouseover" end="zoomminus.mouseout"/>
                        </use>
                        <path d="M-4,0h8" fill="none" stroke="white" stroke-width="1.5" pointer-events="none"/>
                </g>
                <g id="dirArrow">
                        <path fill="none" stroke="white" stroke-width="1.5" d="M0,-3.0v7 M-2.5,-0.5L0,-3.0L2.5,-0.5"/>
                </g>
               <g id="resetDef">
                       <use xlink:href="#rim2" fill="#404040">
                               <set attributeName="fill" to="#808080" begin="reset.mouseover" end="reset.mouseout"/>
                       </use>
               </g>
        </defs>

<script type="text/javascript">
var viewWidth = 605;
var viewHeight = 251;
var sectionId = 'dynsection-0';
</script>
<script xlink:href="svgpan.js"/>
<svg id="graph" class="graph">
<g id="viewport">
<title>Veery.UI.FileExplorerManager</title>
<!-- Node1 -->
<g id="node1" class="node">
<title>Node1</title>
<g id="a_node1"><a xlink:title="The FileExplorerManager is responsible for managing ALL file explorers (FileExplorerController)....">
<polygon fill="#999999" stroke="#666666" points="597,-167 453,-167 453,-148 597,-148 597,-167"/>
<text text-anchor="middle" x="525" y="-155" font-family="Helvetica,sans-Serif" font-size="10.00">Veery.UI.FileExplorerManager</text>
</a>
</g>
</g>
<!-- Node2 -->
<g id="node2" class="node">
<title>Node2</title>
<g id="a_node2"><a xlink:title=" ">
<polygon fill="white" stroke="#666666" points="317,-243 233,-243 233,-224 317,-224 317,-243"/>
<text text-anchor="middle" x="275" y="-231" font-family="Helvetica,sans-Serif" font-size="10.00">MonoBehaviour</text>
</a>
</g>
</g>
<!-- Node2&#45;&gt;Node1 -->
<g id="edge1" class="edge">
<title>Node2&#45;&gt;Node1</title>
<path fill="none" stroke="#63b8ff" d="M328.53,-223.82C359.84,-217.42 400.15,-208.08 435,-196.5 459.49,-188.36 486.5,-176.02 504.27,-167.41"/>
<polygon fill="#63b8ff" stroke="#63b8ff" points="328.03,-220.35 318.91,-225.74 329.4,-227.21 328.03,-220.35"/>
</g>
<!-- Node3 -->
<g id="node3" class="node">
<title>Node3</title>
<g id="a_node3"><a xlink:title=" ">
<polygon fill="white" stroke="#666666" points="295.5,-206 254.5,-206 254.5,-187 295.5,-187 295.5,-206"/>
<text text-anchor="middle" x="275" y="-194" font-family="Helvetica,sans-Serif" font-size="10.00">static</text>
</a>
</g>
</g>
<!-- Node3&#45;&gt;Node1 -->
<g id="edge2" class="edge">
<title>Node3&#45;&gt;Node1</title>
<path fill="none" stroke="#9a32cd" stroke-dasharray="5,2" d="M306.8,-191.66C345.04,-185.64 411.25,-175.23 460.54,-167.48"/>
<polygon fill="#9a32cd" stroke="#9a32cd" points="306.71,-188.13 297.37,-193.14 307.79,-195.04 306.71,-188.13"/>
<text text-anchor="middle" x="400.5" y="-184.5" font-family="Helvetica,sans-Serif" font-size="10.00"> _instance</text>
</g>
<!-- Node4 -->
<g id="node4" class="node">
<title>Node4</title>
<g id="a_node4"><a xlink:title=" ">
<polygon fill="white" stroke="#666666" points="71,-132 0,-132 0,-113 71,-113 71,-132"/>
<text text-anchor="middle" x="35.5" y="-120" font-family="Helvetica,sans-Serif" font-size="10.00">GameObject</text>
</a>
</g>
</g>
<!-- Node4&#45;&gt;Node1 -->
<g id="edge3" class="edge">
<title>Node4&#45;&gt;Node1</title>
<path fill="none" stroke="#9a32cd" stroke-dasharray="5,2" d="M67,-136.77C74.08,-139.49 81.69,-141.97 89,-143.5 214.91,-169.86 365.74,-167.35 452.66,-162.71"/>
<polygon fill="#9a32cd" stroke="#9a32cd" points="68.41,-133.56 57.83,-132.96 65.72,-140.03 68.41,-133.56"/>
<text text-anchor="middle" x="275" y="-168.5" font-family="Helvetica,sans-Serif" font-size="10.00"> _elementContainerGO</text>
</g>
<!-- Node7 -->
<g id="node7" class="node">
<title>Node7</title>
<g id="a_node7"><a xlink:href="class_veery_1_1_u_i_1_1_file_explorer_manager_1_1_import_prefabs.html" target="_top" xlink:title=" ">
<polygon fill="white" stroke="#666666" points="348,-111.5 202,-111.5 202,-81.5 348,-81.5 348,-111.5"/>
<text text-anchor="start" x="210" y="-99.5" font-family="Helvetica,sans-Serif" font-size="10.00">Veery.UI.FileExplorerManager.</text>
<text text-anchor="middle" x="275" y="-88.5" font-family="Helvetica,sans-Serif" font-size="10.00">ImportPrefabs</text>
</a>
</g>
</g>
<!-- Node4&#45;&gt;Node7 -->
<g id="edge7" class="edge">
<title>Node4&#45;&gt;Node7</title>
<path fill="none" stroke="#9a32cd" stroke-dasharray="5,2" d="M56.67,-105.53C65.91,-98.84 77.38,-91.94 89,-88.5 125.07,-77.84 166.81,-78.59 201.51,-82.56"/>
<polygon fill="#9a32cd" stroke="#9a32cd" points="54.58,-102.73 48.81,-111.61 58.86,-108.26 54.58,-102.73"/>
<text text-anchor="middle" x="136.5" y="-135.5" font-family="Helvetica,sans-Serif" font-size="10.00"> imagePrefab</text>
<text text-anchor="middle" x="136.5" y="-124.5" font-family="Helvetica,sans-Serif" font-size="10.00">model3dPrefab</text>
<text text-anchor="middle" x="136.5" y="-113.5" font-family="Helvetica,sans-Serif" font-size="10.00">soundPrefab</text>
<text text-anchor="middle" x="136.5" y="-102.5" font-family="Helvetica,sans-Serif" font-size="10.00">video360Prefab</text>
<text text-anchor="middle" x="136.5" y="-91.5" font-family="Helvetica,sans-Serif" font-size="10.00">videoPrefab</text>
</g>
<!-- Node5 -->
<g id="node5" class="node">
<title>Node5</title>
<g id="a_node5"><a xlink:href="class_veery_1_1_u_i_1_1_file_explorer_manager_1_1_icon_definition.html" target="_top" xlink:title="Represents an icon definition used in the file explorer.">
<polygon fill="white" stroke="#666666" points="348,-48.5 202,-48.5 202,-18.5 348,-18.5 348,-48.5"/>
<text text-anchor="start" x="210" y="-36.5" font-family="Helvetica,sans-Serif" font-size="10.00">Veery.UI.FileExplorerManager.</text>
<text text-anchor="middle" x="275" y="-25.5" font-family="Helvetica,sans-Serif" font-size="10.00">IconDefinition</text>
</a>
</g>
</g>
<!-- Node5&#45;&gt;Node1 -->
<g id="edge4" class="edge">
<title>Node5&#45;&gt;Node1</title>
<path fill="none" stroke="#9a32cd" stroke-dasharray="5,2" d="M327.34,-53.06C358.96,-65.7 400,-83.15 435,-101.5 462.49,-115.91 492.71,-135.88 509.92,-147.67"/>
<polygon fill="#9a32cd" stroke="#9a32cd" points="329,-49.95 318.41,-49.53 326.42,-56.46 329,-49.95"/>
<text text-anchor="middle" x="400.5" y="-104.5" font-family="Helvetica,sans-Serif" font-size="10.00"> _iconDefinition</text>
</g>
<!-- Node6 -->
<g id="node6" class="node">
<title>Node6</title>
<g id="a_node6"><a xlink:title=" ">
<polygon fill="white" stroke="#666666" points="66,-19 5,-19 5,0 66,0 66,-19"/>
<text text-anchor="middle" x="35.5" y="-7" font-family="Helvetica,sans-Serif" font-size="10.00">TextAsset</text>
</a>
</g>
</g>
<!-- Node6&#45;&gt;Node5 -->
<g id="edge5" class="edge">
<title>Node6&#45;&gt;Node5</title>
<path fill="none" stroke="#9a32cd" stroke-dasharray="5,2" d="M77.5,-7.12C107.19,-6.04 148.24,-5.88 184,-10.5 196.64,-12.13 210.04,-14.95 222.54,-18.06"/>
<polygon fill="#9a32cd" stroke="#9a32cd" points="77.66,-3.61 67.82,-7.52 77.96,-10.6 77.66,-3.61"/>
<text text-anchor="middle" x="136.5" y="-57.5" font-family="Helvetica,sans-Serif" font-size="10.00"> iconAssociation</text>
<text text-anchor="middle" x="136.5" y="-46.5" font-family="Helvetica,sans-Serif" font-size="10.00">iconFileExt</text>
<text text-anchor="middle" x="136.5" y="-35.5" font-family="Helvetica,sans-Serif" font-size="10.00">iconFileName</text>
<text text-anchor="middle" x="136.5" y="-24.5" font-family="Helvetica,sans-Serif" font-size="10.00">iconFolderName</text>
<text text-anchor="middle" x="136.5" y="-13.5" font-family="Helvetica,sans-Serif" font-size="10.00">iconFolderNameOpen</text>
</g>
<!-- Node7&#45;&gt;Node1 -->
<g id="edge6" class="edge">
<title>Node7&#45;&gt;Node1</title>
<path fill="none" stroke="#9a32cd" stroke-dasharray="5,2" d="M358.92,-114.43C383.47,-119.97 410.38,-126.26 435,-132.5 453.36,-137.15 473.7,-142.83 490.3,-147.59"/>
<polygon fill="#9a32cd" stroke="#9a32cd" points="359.82,-111.05 349.29,-112.27 358.29,-117.88 359.82,-111.05"/>
<text text-anchor="middle" x="400.5" y="-135.5" font-family="Helvetica,sans-Serif" font-size="10.00"> _importPrefabs</text>
</g>
</g>
</svg>
        <g id="navigator" transform="translate(0 0)" fill="#404254">
                <rect fill="#f2f5e9" fill-opacity="0.5" stroke="#606060" stroke-width=".5" x="0" y="0" width="60" height="60"/>
                <use id="zoomplus" xlink:href="#zoomPlus" x="17" y="9" onmousedown="handleZoom(evt,'in')"/>
                <use id="zoomminus" xlink:href="#zoomMin" x="42" y="9" onmousedown="handleZoom(evt,'out')"/>
                <use id="reset" xlink:href="#resetDef" x="30" y="36" onmousedown="handleReset()"/>
                <g id="arrowUp" xlink:href="#dirArrow" transform="translate(30 24)" onmousedown="handlePan(0,-1)">
                  <use xlink:href="#rim" fill="#404040">
                        <set attributeName="fill" to="#808080" begin="arrowUp.mouseover" end="arrowUp.mouseout"/>
                  </use>
                  <path fill="none" stroke="white" stroke-width="1.5" d="M0,-3.0v7 M-2.5,-0.5L0,-3.0L2.5,-0.5"/>
                </g>
                <g id="arrowRight" xlink:href="#dirArrow" transform="rotate(90) translate(36 -43)" onmousedown="handlePan(1,0)">
                  <use xlink:href="#rim" fill="#404040">
                        <set attributeName="fill" to="#808080" begin="arrowRight.mouseover" end="arrowRight.mouseout"/>
                  </use>
                  <path fill="none" stroke="white" stroke-width="1.5" d="M0,-3.0v7 M-2.5,-0.5L0,-3.0L2.5,-0.5"/>
                </g>
                <g id="arrowDown" xlink:href="#dirArrow" transform="rotate(180) translate(-30 -48)" onmousedown="handlePan(0,1)">
                  <use xlink:href="#rim" fill="#404040">
                        <set attributeName="fill" to="#808080" begin="arrowDown.mouseover" end="arrowDown.mouseout"/>
                  </use>
                  <path fill="none" stroke="white" stroke-width="1.5" d="M0,-3.0v7 M-2.5,-0.5L0,-3.0L2.5,-0.5"/>
                </g>
                <g id="arrowLeft" xlink:href="#dirArrow" transform="rotate(270) translate(-36 17)" onmousedown="handlePan(-1,0)">
                  <use xlink:href="#rim" fill="#404040">
                        <set attributeName="fill" to="#808080" begin="arrowLeft.mouseover" end="arrowLeft.mouseout"/>
                  </use>
                  <path fill="none" stroke="white" stroke-width="1.5" d="M0,-3.0v7 M-2.5,-0.5L0,-3.0L2.5,-0.5"/>
                </g>
        </g>
        <svg viewBox="0 0 15 15" width="100%" height="30px" preserveAspectRatio="xMaxYMin meet">
         <g id="arrow_out" transform="scale(0.3 0.3)">
          <a xlink:href="class_veery_1_1_u_i_1_1_file_explorer_manager__coll__graph_org.svg" target="_base">
           <rect id="button" ry="5" rx="5" y="6" x="6" height="38" width="38"
                fill="#f2f5e9" fill-opacity="0.5" stroke="#606060" stroke-width="1.0"/>
           <path id="arrow"
             d="M 11.500037,31.436501 C 11.940474,20.09759 22.043105,11.32322 32.158766,21.979434 L 37.068811,17.246167 C 37.068811,17.246167 37.088388,32 37.088388,32 L 22.160133,31.978069 C 22.160133,31.978069 26.997745,27.140456 26.997745,27.140456 C 18.528582,18.264221 13.291696,25.230495 11.500037,31.436501 z"
             style="fill:#404040;"/>
          </a>
         </g>
        </svg>
</svg>
