<?xml version="1.0" encoding="UTF-8" standalone="no"?>
<!DOCTYPE svg PUBLIC "-//W3C//DTD SVG 1.1//EN"
 "http://www.w3.org/Graphics/SVG/1.1/DTD/svg11.dtd">
<!-- Generated by graphviz version 7.0.5 (20221223.1930)
 -->
<!-- Title: Veery.Gameplay.GameplayManager Pages: 1 -->
<svg width="469pt" height="104pt"
 viewBox="0.00 0.00 469.00 104.00" xmlns="http://www.w3.org/2000/svg" xmlns:xlink="http://www.w3.org/1999/xlink">
<g id="graph0" class="graph" transform="scale(1 1) rotate(0) translate(4 100)">
<title>Veery.Gameplay.GameplayManager</title>
<!-- Node1 -->
<g id="node1" class="node">
<title>Node1</title>
<g id="a_node1"><a xlink:title="Manages gameplay&#45;related functionality, such as controller input and interactor management.">
<polygon fill="#999999" stroke="#666666" points="294,-19 124,-19 124,0 294,0 294,-19"/>
<text text-anchor="middle" x="209" y="-7" font-family="Helvetica,sans-Serif" font-size="10.00">Veery.Gameplay.GameplayManager</text>
</a>
</g>
</g>
<!-- Node2 -->
<g id="node2" class="node">
<title>Node2</title>
<g id="a_node2"><a xlink:title=" ">
<polygon fill="white" stroke="#666666" points="84,-96 0,-96 0,-77 84,-77 84,-96"/>
<text text-anchor="middle" x="42" y="-84" font-family="Helvetica,sans-Serif" font-size="10.00">MonoBehaviour</text>
</a>
</g>
</g>
<!-- Node2&#45;&gt;Node1 -->
<g id="edge1" class="edge">
<title>Node2&#45;&gt;Node1</title>
<path fill="none" stroke="#63b8ff" d="M34.91,-66.04C32.68,-56.25 32.29,-44.84 39,-37 50.41,-23.67 87.16,-16.99 123.59,-13.67"/>
<polygon fill="#63b8ff" stroke="#63b8ff" points="31.49,-66.83 37.75,-75.37 38.19,-64.79 31.49,-66.83"/>
</g>
<!-- Node2&#45;&gt;Node1 -->
<g id="edge2" class="edge">
<title>Node2&#45;&gt;Node1</title>
<path fill="none" stroke="#9a32cd" stroke-dasharray="5,2" d="M51.15,-66.59C57.1,-56.28 65.84,-44.18 77,-37 90.95,-28.02 107.32,-21.98 123.69,-17.94"/>
<polygon fill="#9a32cd" stroke="#9a32cd" points="48.06,-64.95 46.5,-75.43 54.25,-68.21 48.06,-64.95"/>
<text text-anchor="middle" x="141" y="-51" font-family="Helvetica,sans-Serif" font-size="10.00"> _leftControllerGrabInteractor</text>
<text text-anchor="middle" x="141" y="-40" font-family="Helvetica,sans-Serif" font-size="10.00">_rightControllerGrabInteractor</text>
</g>
<!-- Node3 -->
<g id="node3" class="node">
<title>Node3</title>
<g id="a_node3"><a xlink:title=" ">
<polygon fill="white" stroke="#666666" points="229.5,-96 188.5,-96 188.5,-77 229.5,-77 229.5,-96"/>
<text text-anchor="middle" x="209" y="-84" font-family="Helvetica,sans-Serif" font-size="10.00">static</text>
</a>
</g>
</g>
<!-- Node3&#45;&gt;Node1 -->
<g id="edge3" class="edge">
<title>Node3&#45;&gt;Node1</title>
<path fill="none" stroke="#9a32cd" stroke-dasharray="5,2" d="M209,-65.42C209,-50.43 209,-30.66 209,-19.39"/>
<polygon fill="#9a32cd" stroke="#9a32cd" points="205.5,-65.09 209,-75.09 212.5,-65.09 205.5,-65.09"/>
<text text-anchor="middle" x="231.5" y="-45.5" font-family="Helvetica,sans-Serif" font-size="10.00"> _instance</text>
</g>
<!-- Node4 -->
<g id="node4" class="node">
<title>Node4</title>
<g id="a_node4"><a xlink:title=" ">
<polygon fill="white" stroke="#666666" points="306,-96 248,-96 248,-77 306,-77 306,-96"/>
<text text-anchor="middle" x="277" y="-84" font-family="Helvetica,sans-Serif" font-size="10.00">Controller</text>
</a>
</g>
</g>
<!-- Node4&#45;&gt;Node1 -->
<g id="edge4" class="edge">
<title>Node4&#45;&gt;Node1</title>
<path fill="none" stroke="#9a32cd" stroke-dasharray="5,2" d="M271.24,-65.82C267.72,-56.3 262.43,-45.18 255,-37 248.31,-29.63 239.08,-23.76 230.64,-19.44"/>
<polygon fill="#9a32cd" stroke="#9a32cd" points="267.89,-66.84 274.33,-75.26 274.55,-64.67 267.89,-66.84"/>
<text text-anchor="middle" x="306.5" y="-45.5" font-family="Helvetica,sans-Serif" font-size="10.00"> _currentController</text>
</g>
<!-- Node5 -->
<g id="node5" class="node">
<title>Node5</title>
<g id="a_node5"><a xlink:title=" ">
<polygon fill="white" stroke="#666666" points="414.5,-96 343.5,-96 343.5,-77 414.5,-77 414.5,-96"/>
<text text-anchor="middle" x="379" y="-84" font-family="Helvetica,sans-Serif" font-size="10.00">Handedness</text>
</a>
</g>
</g>
<!-- Node5&#45;&gt;Node1 -->
<g id="edge5" class="edge">
<title>Node5&#45;&gt;Node1</title>
<path fill="none" stroke="#9a32cd" stroke-dasharray="5,2" d="M372.05,-66.25C367.37,-56.01 360.17,-44.09 350,-37 339.27,-29.52 313.63,-23.72 287.1,-19.48"/>
<polygon fill="#9a32cd" stroke="#9a32cd" points="368.74,-67.4 375.72,-75.36 375.23,-64.78 368.74,-67.4"/>
<text text-anchor="middle" x="414.5" y="-45.5" font-family="Helvetica,sans-Serif" font-size="10.00"> _currentHandedness</text>
</g>
</g>
</svg>
