<?xml version="1.0" encoding="UTF-8" standalone="no"?>
<!DOCTYPE svg PUBLIC "-//W3C//DTD SVG 1.1//EN"
 "http://www.w3.org/Graphics/SVG/1.1/DTD/svg11.dtd">
<!-- Generated by graphviz version 7.0.5 (20221223.1930)
 -->
<!-- Title: Graphical Class Hierarchy Pages: 1 -->
<svg width="293pt" height="470pt"
 viewBox="0.00 0.00 293.00 469.50" xmlns="http://www.w3.org/2000/svg" xmlns:xlink="http://www.w3.org/1999/xlink">
<g id="graph0" class="graph" transform="scale(1 1) rotate(0) translate(4 465.5)">
<title>Graphical Class Hierarchy</title>
<!-- Node0 -->
<g id="node1" class="node">
<title>Node0</title>
<g id="a_node1"><a xlink:href="class_i_selector.html" target="_top" xlink:title=" ">
<polygon fill="white" stroke="#666666" points="70,-456 14,-456 14,-437 70,-437 70,-456"/>
<text text-anchor="middle" x="42" y="-444" font-family="Helvetica,sans-Serif" font-size="10.00">ISelector</text>
</a>
</g>
</g>
<!-- Node1 -->
<g id="node2" class="node">
<title>Node1</title>
<g id="a_node2"><a xlink:href="class_e_v_a_1_1_interaction_1_1_advanced_controller_selector.html" target="_top" xlink:title=" ">
<polygon fill="white" stroke="#666666" points="267.5,-461.5 137.5,-461.5 137.5,-431.5 267.5,-431.5 267.5,-461.5"/>
<text text-anchor="start" x="145.5" y="-449.5" font-family="Helvetica,sans-Serif" font-size="10.00">EVA.Interaction.Advanced</text>
<text text-anchor="middle" x="202.5" y="-438.5" font-family="Helvetica,sans-Serif" font-size="10.00">ControllerSelector</text>
</a>
</g>
</g>
<!-- Node0&#45;&gt;Node1 -->
<g id="edge1" class="edge">
<title>Node0&#45;&gt;Node1</title>
<path fill="none" stroke="#63b8ff" d="M81.74,-446.5C98.4,-446.5 118.33,-446.5 137.1,-446.5"/>
<polygon fill="#63b8ff" stroke="#63b8ff" points="81.76,-443 71.76,-446.5 81.76,-450 81.76,-443"/>
</g>
<!-- Node2 -->
<g id="node3" class="node">
<title>Node2</title>
<g id="a_node3"><a xlink:title=" ">
<polygon fill="#e0e0e0" stroke="#999999" points="84,-235 0,-235 0,-216 84,-216 84,-235"/>
<text text-anchor="middle" x="42" y="-223" font-family="Helvetica,sans-Serif" font-size="10.00">MonoBehaviour</text>
</a>
</g>
</g>
<!-- Node2&#45;&gt;Node1 -->
<g id="edge5" class="edge">
<title>Node2&#45;&gt;Node1</title>
<path fill="none" stroke="#63b8ff" d="M45.2,-246.65C50.51,-286.86 67.75,-374.57 120,-422.5 125,-427.09 130.83,-430.8 137.04,-433.81"/>
<polygon fill="#63b8ff" stroke="#63b8ff" points="48.69,-246.4 44.04,-236.88 41.74,-247.22 48.69,-246.4"/>
</g>
<!-- Node3 -->
<g id="node4" class="node">
<title>Node3</title>
<g id="a_node4"><a xlink:href="class_e_v_a_1_1_gameplay_1_1_gameplay_manager.html" target="_top" xlink:title=" ">
<polygon fill="white" stroke="#666666" points="285,-413 120,-413 120,-394 285,-394 285,-413"/>
<text text-anchor="middle" x="202.5" y="-401" font-family="Helvetica,sans-Serif" font-size="10.00">EVA.Gameplay.GameplayManager</text>
</a>
</g>
</g>
<!-- Node2&#45;&gt;Node3 -->
<g id="edge2" class="edge">
<title>Node2&#45;&gt;Node3</title>
<path fill="none" stroke="#63b8ff" d="M46.91,-246.29C54.55,-280.81 74.8,-349.7 120,-385.5 124.09,-388.74 128.64,-391.42 133.44,-393.64"/>
<polygon fill="#63b8ff" stroke="#63b8ff" points="50.39,-245.82 44.95,-236.73 43.53,-247.23 50.39,-245.82"/>
</g>
<!-- Node4 -->
<g id="node5" class="node">
<title>Node4</title>
<g id="a_node5"><a xlink:href="class_e_v_a_1_1_import_1_1_image.html" target="_top" xlink:title="Manipulate an image in the scene.">
<polygon fill="white" stroke="#666666" points="250,-376 155,-376 155,-357 250,-357 250,-376"/>
<text text-anchor="middle" x="202.5" y="-364" font-family="Helvetica,sans-Serif" font-size="10.00">EVA.Import.Image</text>
</a>
</g>
</g>
<!-- Node2&#45;&gt;Node4 -->
<g id="edge3" class="edge">
<title>Node2&#45;&gt;Node4</title>
<path fill="none" stroke="#63b8ff" d="M50.09,-246.15C60.75,-273.93 83.6,-322.82 120,-348.5 130.18,-355.68 142.72,-360.07 154.88,-362.73"/>
<polygon fill="#63b8ff" stroke="#63b8ff" points="53.39,-244.96 46.68,-236.76 46.81,-247.36 53.39,-244.96"/>
</g>
<!-- Node5 -->
<g id="node6" class="node">
<title>Node5</title>
<g id="a_node6"><a xlink:href="class_e_v_a_1_1_import_1_1_model3_d.html" target="_top" xlink:title="Manipulate a 3D model in the scene.">
<polygon fill="white" stroke="#666666" points="256,-339 149,-339 149,-320 256,-320 256,-339"/>
<text text-anchor="middle" x="202.5" y="-327" font-family="Helvetica,sans-Serif" font-size="10.00">EVA.Import.Model3D</text>
</a>
</g>
</g>
<!-- Node2&#45;&gt;Node5 -->
<g id="edge4" class="edge">
<title>Node2&#45;&gt;Node5</title>
<path fill="none" stroke="#63b8ff" d="M55.3,-244.88C68.78,-264.48 92.22,-294.15 120,-310.5 128.77,-315.66 138.83,-319.42 148.83,-322.15"/>
<polygon fill="#63b8ff" stroke="#63b8ff" points="58.31,-243.09 49.87,-236.69 52.48,-246.96 58.31,-243.09"/>
</g>
<!-- Node6 -->
<g id="node7" class="node">
<title>Node6</title>
<g id="a_node7"><a xlink:href="class_e_v_a_1_1_interaction_1_1_interactable_outline.html" target="_top" xlink:title=" ">
<polygon fill="white" stroke="#666666" points="271,-301.5 134,-301.5 134,-271.5 271,-271.5 271,-301.5"/>
<text text-anchor="start" x="142" y="-289.5" font-family="Helvetica,sans-Serif" font-size="10.00">EVA.Interaction.Interactable</text>
<text text-anchor="middle" x="202.5" y="-278.5" font-family="Helvetica,sans-Serif" font-size="10.00">Outline</text>
</a>
</g>
</g>
<!-- Node2&#45;&gt;Node6 -->
<g id="edge6" class="edge">
<title>Node2&#45;&gt;Node6</title>
<path fill="none" stroke="#63b8ff" d="M71.79,-240.7C86.05,-247.87 103.67,-256.22 120,-262.5 127.85,-265.52 136.24,-268.38 144.55,-271.01"/>
<polygon fill="#63b8ff" stroke="#63b8ff" points="73.46,-237.62 62.96,-236.18 70.27,-243.85 73.46,-237.62"/>
</g>
<!-- Node7 -->
<g id="node8" class="node">
<title>Node7</title>
<g id="a_node8"><a xlink:href="class_e_v_a_1_1_u_i_1_1_collapsable.html" target="_top" xlink:title=" ">
<polygon fill="white" stroke="#666666" points="253,-253 152,-253 152,-234 253,-234 253,-253"/>
<text text-anchor="middle" x="202.5" y="-241" font-family="Helvetica,sans-Serif" font-size="10.00">EVA.UI.Collapsable</text>
</a>
</g>
</g>
<!-- Node2&#45;&gt;Node7 -->
<g id="edge7" class="edge">
<title>Node2&#45;&gt;Node7</title>
<path fill="none" stroke="#63b8ff" d="M95.49,-231.46C113.6,-233.52 133.83,-235.82 151.72,-237.85"/>
<polygon fill="#63b8ff" stroke="#63b8ff" points="96.07,-228 85.73,-230.35 95.28,-234.96 96.07,-228"/>
</g>
<!-- Node8 -->
<g id="node9" class="node">
<title>Node8</title>
<g id="a_node9"><a xlink:href="class_e_v_a_1_1_u_i_1_1_collapse_button.html" target="_top" xlink:title=" ">
<polygon fill="white" stroke="#666666" points="261,-216 144,-216 144,-197 261,-197 261,-216"/>
<text text-anchor="middle" x="202.5" y="-204" font-family="Helvetica,sans-Serif" font-size="10.00">EVA.UI.CollapseButton</text>
</a>
</g>
</g>
<!-- Node2&#45;&gt;Node8 -->
<g id="edge8" class="edge">
<title>Node2&#45;&gt;Node8</title>
<path fill="none" stroke="#63b8ff" d="M95.23,-219.24C110.78,-217.38 127.9,-215.32 143.77,-213.42"/>
<polygon fill="#63b8ff" stroke="#63b8ff" points="95.25,-215.71 85.73,-220.38 96.08,-222.66 95.25,-215.71"/>
</g>
<!-- Node9 -->
<g id="node10" class="node">
<title>Node9</title>
<g id="a_node10"><a xlink:href="class_e_v_a_1_1_u_i_1_1_file_explorer_controller.html" target="_top" xlink:title="The FileExplorerController is used to control ONE file explorer and its elements (FileExplorerElement...">
<polygon fill="white" stroke="#666666" points="274,-179 131,-179 131,-160 274,-160 274,-179"/>
<text text-anchor="middle" x="202.5" y="-167" font-family="Helvetica,sans-Serif" font-size="10.00">EVA.UI.FileExplorerController</text>
</a>
</g>
</g>
<!-- Node2&#45;&gt;Node9 -->
<g id="edge9" class="edge">
<title>Node2&#45;&gt;Node9</title>
<path fill="none" stroke="#63b8ff" d="M71.06,-210.19C85.38,-202.84 103.28,-194.39 120,-188.5 129.87,-185.03 140.63,-182 151.01,-179.45"/>
<polygon fill="#63b8ff" stroke="#63b8ff" points="69.45,-207.08 62.22,-214.82 72.7,-213.28 69.45,-207.08"/>
</g>
<!-- Node10 -->
<g id="node11" class="node">
<title>Node10</title>
<g id="a_node11"><a xlink:href="class_e_v_a_1_1_u_i_1_1_file_explorer_element_controller.html" target="_top" xlink:title="The FileExplorerElementController is used to control ONE element (file / folder) of the file explorer...">
<polygon fill="white" stroke="#666666" points="271,-141.5 134,-141.5 134,-111.5 271,-111.5 271,-141.5"/>
<text text-anchor="start" x="142" y="-129.5" font-family="Helvetica,sans-Serif" font-size="10.00">EVA.UI.FileExplorerElement</text>
<text text-anchor="middle" x="202.5" y="-118.5" font-family="Helvetica,sans-Serif" font-size="10.00">Controller</text>
</a>
</g>
</g>
<!-- Node2&#45;&gt;Node10 -->
<g id="edge10" class="edge">
<title>Node2&#45;&gt;Node10</title>
<path fill="none" stroke="#63b8ff" d="M57.63,-207.19C71.9,-190.46 95.05,-166.17 120,-151.5 126.25,-147.82 133.1,-144.64 140.08,-141.89"/>
<polygon fill="#63b8ff" stroke="#63b8ff" points="55.32,-204.5 51.63,-214.43 60.7,-208.96 55.32,-204.5"/>
</g>
<!-- Node11 -->
<g id="node12" class="node">
<title>Node11</title>
<g id="a_node12"><a xlink:href="class_e_v_a_1_1_u_i_1_1_file_explorer_manager.html" target="_top" xlink:title="The FileExplorerManager is responsible for managing ALL file explorers (FileExplorerController)....">
<polygon fill="white" stroke="#666666" points="272,-93 133,-93 133,-74 272,-74 272,-93"/>
<text text-anchor="middle" x="202.5" y="-81" font-family="Helvetica,sans-Serif" font-size="10.00">EVA.UI.FileExplorerManager</text>
</a>
</g>
</g>
<!-- Node2&#45;&gt;Node11 -->
<g id="edge11" class="edge">
<title>Node2&#45;&gt;Node11</title>
<path fill="none" stroke="#63b8ff" d="M50.14,-204.92C60.84,-177.2 83.75,-128.39 120,-102.5 125.2,-98.78 131.02,-95.78 137.1,-93.36"/>
<polygon fill="#63b8ff" stroke="#63b8ff" points="46.86,-203.67 46.7,-214.27 53.44,-206.09 46.86,-203.67"/>
</g>
<!-- Node12 -->
<g id="node13" class="node">
<title>Node12</title>
<g id="a_node13"><a xlink:href="class_e_v_a_1_1_u_i_1_1_hand_menu_controller.html" target="_top" xlink:title=" ">
<polygon fill="white" stroke="#666666" points="272.5,-56 132.5,-56 132.5,-37 272.5,-37 272.5,-56"/>
<text text-anchor="middle" x="202.5" y="-44" font-family="Helvetica,sans-Serif" font-size="10.00">EVA.UI.HandMenuController</text>
</a>
</g>
</g>
<!-- Node2&#45;&gt;Node12 -->
<g id="edge12" class="edge">
<title>Node2&#45;&gt;Node12</title>
<path fill="none" stroke="#63b8ff" d="M46.96,-204.77C54.66,-170.33 75.01,-101.56 120,-65.5 124.53,-61.87 129.64,-58.9 135.03,-56.49"/>
<polygon fill="#63b8ff" stroke="#63b8ff" points="43.59,-203.8 44.98,-214.3 50.44,-205.22 43.59,-203.8"/>
</g>
<!-- Node13 -->
<g id="node14" class="node">
<title>Node13</title>
<g id="a_node14"><a xlink:href="class_e_v_a_1_1_u_i_1_1_main_menu_controller.html" target="_top" xlink:title=" ">
<polygon fill="white" stroke="#666666" points="271,-19 134,-19 134,0 271,0 271,-19"/>
<text text-anchor="middle" x="202.5" y="-7" font-family="Helvetica,sans-Serif" font-size="10.00">EVA.UI.MainMenuController</text>
</a>
</g>
</g>
<!-- Node2&#45;&gt;Node13 -->
<g id="edge13" class="edge">
<title>Node2&#45;&gt;Node13</title>
<path fill="none" stroke="#63b8ff" d="M44.8,-204.48C49.47,-163.77 65.67,-74.07 120,-27.5 124.07,-24.01 128.67,-21.15 133.55,-18.82"/>
<polygon fill="#63b8ff" stroke="#63b8ff" points="41.33,-204.06 43.81,-214.36 48.29,-204.76 41.33,-204.06"/>
</g>
</g>
</svg>
