<?xml version="1.0" encoding="UTF-8" standalone="no"?>
<!DOCTYPE svg PUBLIC "-//W3C//DTD SVG 1.1//EN"
 "http://www.w3.org/Graphics/SVG/1.1/DTD/svg11.dtd">
<!-- Generated by graphviz version 7.0.5 (20221223.1930)
 -->
<!-- Title: Graphical Class Hierarchy Pages: 1 -->
<svg width="272pt" height="64pt"
 viewBox="0.00 0.00 272.00 64.00" xmlns="http://www.w3.org/2000/svg" xmlns:xlink="http://www.w3.org/1999/xlink">
<g id="graph0" class="graph" transform="scale(1 1) rotate(0) translate(4 60)">
<title>Graphical Class Hierarchy</title>
<!-- Node0 -->
<g id="node1" class="node">
<title>Node0</title>
<g id="a_node1"><a xlink:href="class_i_grabbable.html" target="_top" xlink:title=" ">
<polygon fill="white" stroke="#666666" points="78,-56 14,-56 14,-37 78,-37 78,-56"/>
<text text-anchor="middle" x="46" y="-44" font-family="Helvetica,sans-Serif" font-size="10.00">IGrabbable</text>
</a>
</g>
</g>
<!-- Node1 -->
<g id="node2" class="node">
<title>Node1</title>
<g id="a_node2"><a xlink:href="class_veery_1_1_interaction_1_1_grabbable.html" target="_top" xlink:title=" ">
<polygon fill="white" stroke="#666666" points="264,-37 128,-37 128,-18 264,-18 264,-37"/>
<text text-anchor="middle" x="196" y="-25" font-family="Helvetica,sans-Serif" font-size="10.00">Veery.Interaction.Grabbable</text>
</a>
</g>
</g>
<!-- Node0&#45;&gt;Node1 -->
<g id="edge1" class="edge">
<title>Node0&#45;&gt;Node1</title>
<path fill="none" stroke="#63b8ff" d="M89.76,-41.01C101.63,-39.49 114.82,-37.79 127.73,-36.14"/>
<polygon fill="#63b8ff" stroke="#63b8ff" points="89.36,-37.53 79.89,-42.28 90.25,-44.48 89.36,-37.53"/>
</g>
<!-- Node2 -->
<g id="node3" class="node">
<title>Node2</title>
<g id="a_node3"><a xlink:href="class_pointable_element.html" target="_top" xlink:title=" ">
<polygon fill="white" stroke="#666666" points="92,-19 0,-19 0,0 92,0 92,-19"/>
<text text-anchor="middle" x="46" y="-7" font-family="Helvetica,sans-Serif" font-size="10.00">PointableElement</text>
</a>
</g>
</g>
<!-- Node2&#45;&gt;Node1 -->
<g id="edge2" class="edge">
<title>Node2&#45;&gt;Node1</title>
<path fill="none" stroke="#63b8ff" d="M103.55,-16.38C111.45,-17.34 119.64,-18.34 127.73,-19.32"/>
<polygon fill="#63b8ff" stroke="#63b8ff" points="104.06,-12.91 93.71,-15.18 103.22,-19.86 104.06,-12.91"/>
</g>
</g>
</svg>
