<?xml version="1.0" encoding="UTF-8" standalone="no"?>
<!DOCTYPE svg PUBLIC "-//W3C//DTD SVG 1.1//EN"
 "http://www.w3.org/Graphics/SVG/1.1/DTD/svg11.dtd">
<!-- Generated by graphviz version 7.0.5 (20221223.1930)
 -->
<!-- Title: Graphical Class Hierarchy Pages: 1 -->
<svg width="267pt" height="138pt"
 viewBox="0.00 0.00 267.00 138.00" xmlns="http://www.w3.org/2000/svg" xmlns:xlink="http://www.w3.org/1999/xlink">
<g id="graph0" class="graph" transform="scale(1 1) rotate(0) translate(4 134)">
<title>Graphical Class Hierarchy</title>
<!-- Node0 -->
<g id="node1" class="node">
<title>Node0</title>
<g id="a_node1"><a xlink:href="class_i_colliders_ref.html" target="_top" xlink:title=" ">
<polygon fill="white" stroke="#666666" points="85,-130 13,-130 13,-111 85,-111 85,-130"/>
<text text-anchor="middle" x="49" y="-118" font-family="Helvetica,sans-Serif" font-size="10.00">ICollidersRef</text>
</a>
</g>
</g>
<!-- Node1 -->
<g id="node2" class="node">
<title>Node1</title>
<g id="a_node2"><a xlink:href="class_e_v_a_1_1_interaction_1_1_distance_select_interactable.html" target="_top" xlink:title=" ">
<polygon fill="white" stroke="#666666" points="259,-79.5 134,-79.5 134,-49.5 259,-49.5 259,-79.5"/>
<text text-anchor="start" x="142" y="-67.5" font-family="Helvetica,sans-Serif" font-size="10.00">EVA.Interaction.Distance</text>
<text text-anchor="middle" x="196.5" y="-56.5" font-family="Helvetica,sans-Serif" font-size="10.00">SelectInteractable</text>
</a>
</g>
</g>
<!-- Node0&#45;&gt;Node1 -->
<g id="edge1" class="edge">
<title>Node0&#45;&gt;Node1</title>
<path fill="none" stroke="#63b8ff" d="M87.36,-106.54C90.96,-105.18 94.55,-103.82 98,-102.5 117.18,-95.17 138.42,-86.91 156.17,-79.96"/>
<polygon fill="#63b8ff" stroke="#63b8ff" points="86.22,-103.23 78.1,-110.03 88.69,-109.78 86.22,-103.23"/>
</g>
<!-- Node2 -->
<g id="node3" class="node">
<title>Node2</title>
<g id="a_node3"><a xlink:href="class_i_relative_to_ref.html" target="_top" xlink:title=" ">
<polygon fill="white" stroke="#666666" points="89.5,-93 8.5,-93 8.5,-74 89.5,-74 89.5,-93"/>
<text text-anchor="middle" x="49" y="-81" font-family="Helvetica,sans-Serif" font-size="10.00">IRelativeToRef</text>
</a>
</g>
</g>
<!-- Node2&#45;&gt;Node1 -->
<g id="edge2" class="edge">
<title>Node2&#45;&gt;Node1</title>
<path fill="none" stroke="#63b8ff" d="M100.92,-76.85C111.49,-75.47 122.74,-74 133.65,-72.58"/>
<polygon fill="#63b8ff" stroke="#63b8ff" points="100.72,-73.35 91.26,-78.11 101.63,-80.29 100.72,-73.35"/>
</g>
<!-- Node3 -->
<g id="node4" class="node">
<title>Node3</title>
<g id="a_node4"><a xlink:href="class_i_rigidbody_ref.html" target="_top" xlink:title=" ">
<polygon fill="white" stroke="#666666" points="87.5,-56 10.5,-56 10.5,-37 87.5,-37 87.5,-56"/>
<text text-anchor="middle" x="49" y="-44" font-family="Helvetica,sans-Serif" font-size="10.00">IRigidbodyRef</text>
</a>
</g>
</g>
<!-- Node3&#45;&gt;Node1 -->
<g id="edge3" class="edge">
<title>Node3&#45;&gt;Node1</title>
<path fill="none" stroke="#63b8ff" d="M99.06,-52.57C110.15,-53.94 122.07,-55.42 133.61,-56.84"/>
<polygon fill="#63b8ff" stroke="#63b8ff" points="99.7,-49.12 89.35,-51.37 98.85,-56.07 99.7,-49.12"/>
</g>
<!-- Node4 -->
<g id="node5" class="node">
<title>Node4</title>
<g id="a_node5"><a xlink:href="class_pointer_interactable.html" target="_top" xlink:title=" ">
<polygon fill="white" stroke="#666666" points="98,-19 0,-19 0,0 98,0 98,-19"/>
<text text-anchor="middle" x="49" y="-7" font-family="Helvetica,sans-Serif" font-size="10.00">PointerInteractable</text>
</a>
</g>
</g>
<!-- Node4&#45;&gt;Node1 -->
<g id="edge4" class="edge">
<title>Node4&#45;&gt;Node1</title>
<path fill="none" stroke="#63b8ff" d="M86.91,-23.45C107.53,-31.25 133.26,-40.97 154.5,-49"/>
<polygon fill="#63b8ff" stroke="#63b8ff" points="88.36,-20.26 77.76,-20 85.88,-26.81 88.36,-20.26"/>
</g>
</g>
</svg>
