<?xml version="1.0" encoding="UTF-8" standalone="no"?>
<!DOCTYPE svg PUBLIC "-//W3C//DTD SVG 1.1//EN"
 "http://www.w3.org/Graphics/SVG/1.1/DTD/svg11.dtd">
<!-- Generated by graphviz version 7.0.5 (20221223.1930)
 -->
<!-- Title: Graphical Class Hierarchy Pages: 1 -->
<svg width="272pt" height="138pt"
 viewBox="0.00 0.00 272.00 138.00" xmlns="http://www.w3.org/2000/svg" xmlns:xlink="http://www.w3.org/1999/xlink">
<g id="graph0" class="graph" transform="scale(1 1) rotate(0) translate(4 134)">
<title>Graphical Class Hierarchy</title>
<!-- Node0 -->
<g id="node1" class="node">
<title>Node0</title>
<g id="a_node1"><a xlink:href="class_i_colliders_ref.html" target="_top" xlink:title=" ">
<polygon fill="white" stroke="#666666" points="85,-130 13,-130 13,-111 85,-111 85,-130"/>
<text text-anchor="middle" x="49" y="-118" font-family="Helvetica,sans-Serif" font-size="10.00">ICollidersRef</text>
</a>
</g>
</g>
<!-- Node1 -->
<g id="node2" class="node">
<title>Node1</title>
<g id="a_node2"><a xlink:href="class_veery_1_1_interaction_1_1_distance_select_interactable.html" target="_top" xlink:title="Allows the user to select and interact with this object from a distance using the DistanceSelectInter...">
<polygon fill="white" stroke="#666666" points="264,-79.5 134,-79.5 134,-49.5 264,-49.5 264,-79.5"/>
<text text-anchor="start" x="142" y="-67.5" font-family="Helvetica,sans-Serif" font-size="10.00">Veery.Interaction.Distance</text>
<text text-anchor="middle" x="199" y="-56.5" font-family="Helvetica,sans-Serif" font-size="10.00">SelectInteractable</text>
</a>
</g>
</g>
<!-- Node0&#45;&gt;Node1 -->
<g id="edge1" class="edge">
<title>Node0&#45;&gt;Node1</title>
<path fill="none" stroke="#63b8ff" d="M87.35,-106.51C90.95,-105.16 94.54,-103.8 98,-102.5 117.63,-95.09 139.42,-86.82 157.63,-79.89"/>
<polygon fill="#63b8ff" stroke="#63b8ff" points="86.21,-103.2 78.08,-109.99 88.68,-109.75 86.21,-103.2"/>
</g>
<!-- Node2 -->
<g id="node3" class="node">
<title>Node2</title>
<g id="a_node3"><a xlink:href="class_i_relative_to_ref.html" target="_top" xlink:title=" ">
<polygon fill="white" stroke="#666666" points="89.5,-93 8.5,-93 8.5,-74 89.5,-74 89.5,-93"/>
<text text-anchor="middle" x="49" y="-81" font-family="Helvetica,sans-Serif" font-size="10.00">IRelativeToRef</text>
</a>
</g>
</g>
<!-- Node2&#45;&gt;Node1 -->
<g id="edge2" class="edge">
<title>Node2&#45;&gt;Node1</title>
<path fill="none" stroke="#63b8ff" d="M100.81,-76.98C111.38,-75.62 122.66,-74.17 133.65,-72.76"/>
<polygon fill="#63b8ff" stroke="#63b8ff" points="100.64,-73.47 91.16,-78.22 101.53,-80.41 100.64,-73.47"/>
</g>
<!-- Node3 -->
<g id="node4" class="node">
<title>Node3</title>
<g id="a_node4"><a xlink:href="class_i_rigidbody_ref.html" target="_top" xlink:title=" ">
<polygon fill="white" stroke="#666666" points="87.5,-56 10.5,-56 10.5,-37 87.5,-37 87.5,-56"/>
<text text-anchor="middle" x="49" y="-44" font-family="Helvetica,sans-Serif" font-size="10.00">IRigidbodyRef</text>
</a>
</g>
</g>
<!-- Node3&#45;&gt;Node1 -->
<g id="edge3" class="edge">
<title>Node3&#45;&gt;Node1</title>
<path fill="none" stroke="#63b8ff" d="M98.93,-52.45C110.03,-53.8 121.98,-55.25 133.6,-56.67"/>
<polygon fill="#63b8ff" stroke="#63b8ff" points="99.58,-49 89.23,-51.27 98.74,-55.95 99.58,-49"/>
</g>
<!-- Node4 -->
<g id="node5" class="node">
<title>Node4</title>
<g id="a_node5"><a xlink:href="class_pointer_interactable.html" target="_top" xlink:title=" ">
<polygon fill="white" stroke="#666666" points="98,-19 0,-19 0,0 98,0 98,-19"/>
<text text-anchor="middle" x="49" y="-7" font-family="Helvetica,sans-Serif" font-size="10.00">PointerInteractable</text>
</a>
</g>
</g>
<!-- Node4&#45;&gt;Node1 -->
<g id="edge4" class="edge">
<title>Node4&#45;&gt;Node1</title>
<path fill="none" stroke="#63b8ff" d="M87.55,-23.45C108.52,-31.25 134.69,-40.97 156.3,-49"/>
<polygon fill="#63b8ff" stroke="#63b8ff" points="88.81,-20.19 78.22,-19.99 86.37,-26.75 88.81,-20.19"/>
</g>
</g>
</svg>
