<?xml version="1.0" encoding="UTF-8" standalone="no"?>
<!DOCTYPE svg PUBLIC "-//W3C//DTD SVG 1.1//EN"
 "http://www.w3.org/Graphics/SVG/1.1/DTD/svg11.dtd">
<!-- Generated by graphviz version 7.0.5 (20221223.1930)
 -->
<!-- Title: Graphical Class Hierarchy Pages: 1 -->
<svg width="267pt" height="64pt"
 viewBox="0.00 0.00 267.00 64.00" xmlns="http://www.w3.org/2000/svg" xmlns:xlink="http://www.w3.org/1999/xlink">
<g id="graph0" class="graph" transform="scale(1 1) rotate(0) translate(4 60)">
<title>Graphical Class Hierarchy</title>
<!-- Node0 -->
<g id="node1" class="node">
<title>Node0</title>
<g id="a_node1"><a xlink:href="class_i_grabbable.html" target="_top" xlink:title=" ">
<polygon fill="white" stroke="#666666" points="78,-56 14,-56 14,-37 78,-37 78,-56"/>
<text text-anchor="middle" x="46" y="-44" font-family="Helvetica,sans-Serif" font-size="10.00">IGrabbable</text>
</a>
</g>
</g>
<!-- Node1 -->
<g id="node2" class="node">
<title>Node1</title>
<g id="a_node2"><a xlink:href="class_e_v_a_1_1_interaction_1_1_grabbable.html" target="_top" xlink:title=" ">
<polygon fill="white" stroke="#666666" points="259,-37 128,-37 128,-18 259,-18 259,-37"/>
<text text-anchor="middle" x="193.5" y="-25" font-family="Helvetica,sans-Serif" font-size="10.00">EVA.Interaction.Grabbable</text>
</a>
</g>
</g>
<!-- Node0&#45;&gt;Node1 -->
<g id="edge1" class="edge">
<title>Node0&#45;&gt;Node1</title>
<path fill="none" stroke="#63b8ff" d="M89.6,-40.94C101.49,-39.38 114.68,-37.66 127.54,-35.98"/>
<polygon fill="#63b8ff" stroke="#63b8ff" points="89.18,-37.46 79.71,-42.23 90.08,-44.4 89.18,-37.46"/>
</g>
<!-- Node2 -->
<g id="node3" class="node">
<title>Node2</title>
<g id="a_node3"><a xlink:href="class_pointable_element.html" target="_top" xlink:title=" ">
<polygon fill="white" stroke="#666666" points="92,-19 0,-19 0,0 92,0 92,-19"/>
<text text-anchor="middle" x="46" y="-7" font-family="Helvetica,sans-Serif" font-size="10.00">PointableElement</text>
</a>
</g>
</g>
<!-- Node2&#45;&gt;Node1 -->
<g id="edge2" class="edge">
<title>Node2&#45;&gt;Node1</title>
<path fill="none" stroke="#63b8ff" d="M103.53,-16.49C111.39,-17.47 119.52,-18.47 127.53,-19.46"/>
<polygon fill="#63b8ff" stroke="#63b8ff" points="104.1,-13.04 93.74,-15.28 103.24,-19.98 104.1,-13.04"/>
</g>
</g>
</svg>
