<?xml version="1.0" encoding="UTF-8" standalone="no"?>
<!DOCTYPE svg PUBLIC "-//W3C//DTD SVG 1.1//EN"
 "http://www.w3.org/Graphics/SVG/1.1/DTD/svg11.dtd">
<!-- Generated by graphviz version 7.0.5 (20221223.1930)
 -->
<!-- Title: Graphical Class Hierarchy Pages: 1 -->
<svg width="689pt" height="769pt"
 viewBox="0.00 0.00 689.00 768.50" xmlns="http://www.w3.org/2000/svg" xmlns:xlink="http://www.w3.org/1999/xlink">
<g id="graph0" class="graph" transform="scale(1 1) rotate(0) translate(4 764.5)">
<title>Graphical Class Hierarchy</title>
<!-- Node0 -->
<g id="node1" class="node">
<title>Node0</title>
<g id="a_node1"><a xlink:href="interface_veery_1_1_import_1_1_properties_1_1_i_enableable.html" target="_top" xlink:title="Interface for objects that can be enabled or disabled.">
<polygon fill="white" stroke="#666666" points="120,-718 0,-718 0,-688 120,-688 120,-718"/>
<text text-anchor="start" x="8" y="-706" font-family="Helvetica,sans-Serif" font-size="10.00">Veery.Import.Properties.</text>
<text text-anchor="middle" x="60" y="-695" font-family="Helvetica,sans-Serif" font-size="10.00">IEnableable</text>
</a>
</g>
</g>
<!-- Node1 -->
<g id="node2" class="node">
<title>Node1</title>
<g id="a_node2"><a xlink:href="class_veery_1_1_import_1_1_import_object.html" target="_top" xlink:title="Represents an object that can be imported into the scene.">
<polygon fill="white" stroke="#666666" points="306,-712.5 176,-712.5 176,-693.5 306,-693.5 306,-712.5"/>
<text text-anchor="middle" x="241" y="-700.5" font-family="Helvetica,sans-Serif" font-size="10.00">Veery.Import.ImportObject</text>
</a>
</g>
</g>
<!-- Node0&#45;&gt;Node1 -->
<g id="edge1" class="edge">
<title>Node0&#45;&gt;Node1</title>
<path fill="none" stroke="#63b8ff" d="M131.6,-703C146.15,-703 161.4,-703 175.71,-703"/>
<polygon fill="#63b8ff" stroke="#63b8ff" points="131.62,-699.5 121.62,-703 131.62,-706.5 131.62,-699.5"/>
</g>
<!-- Node2 -->
<g id="node3" class="node">
<title>Node2</title>
<g id="a_node3"><a xlink:href="class_veery_1_1_import_1_1_image.html" target="_top" xlink:title="Represents an image that can be imported into the game.">
<polygon fill="white" stroke="#666666" points="487,-723.5 386,-723.5 386,-704.5 487,-704.5 487,-723.5"/>
<text text-anchor="middle" x="436.5" y="-711.5" font-family="Helvetica,sans-Serif" font-size="10.00">Veery.Import.Image</text>
</a>
</g>
</g>
<!-- Node1&#45;&gt;Node2 -->
<g id="edge2" class="edge">
<title>Node1&#45;&gt;Node2</title>
<path fill="none" stroke="#63b8ff" d="M317.83,-707.31C340.63,-708.61 365.07,-710 385.73,-711.17"/>
<polygon fill="#63b8ff" stroke="#63b8ff" points="318.13,-703.82 307.94,-706.75 317.73,-710.81 318.13,-703.82"/>
</g>
<!-- Node3 -->
<g id="node4" class="node">
<title>Node3</title>
<g id="a_node4"><a xlink:href="class_veery_1_1_import_1_1_model3_d.html" target="_top" xlink:title="Represents a 3D model that can be imported into the scene.">
<polygon fill="white" stroke="#666666" points="492.5,-760.5 380.5,-760.5 380.5,-741.5 492.5,-741.5 492.5,-760.5"/>
<text text-anchor="middle" x="436.5" y="-748.5" font-family="Helvetica,sans-Serif" font-size="10.00">Veery.Import.Model3D</text>
</a>
</g>
</g>
<!-- Node1&#45;&gt;Node3 -->
<g id="edge3" class="edge">
<title>Node1&#45;&gt;Node3</title>
<path fill="none" stroke="#63b8ff" d="M292.83,-715.76C314.19,-721.11 339.29,-727.38 362,-733 372.58,-735.62 384.03,-738.43 394.67,-741.04"/>
<polygon fill="#63b8ff" stroke="#63b8ff" points="293.73,-712.38 283.18,-713.35 292.03,-719.17 293.73,-712.38"/>
</g>
<!-- Node4 -->
<g id="node5" class="node">
<title>Node4</title>
<g id="a_node5"><a xlink:href="class_veery_1_1_import_1_1_triggers_1_1_trigger.html" target="_top" xlink:title="Represents a trigger that can be enabled or disabled and can be linked to other objects.">
<polygon fill="white" stroke="#666666" points="507,-637.5 366,-637.5 366,-618.5 507,-618.5 507,-637.5"/>
<text text-anchor="middle" x="436.5" y="-625.5" font-family="Helvetica,sans-Serif" font-size="10.00">Veery.Import.Triggers.Trigger</text>
</a>
</g>
</g>
<!-- Node1&#45;&gt;Node4 -->
<g id="edge4" class="edge">
<title>Node1&#45;&gt;Node4</title>
<path fill="none" stroke="#63b8ff" d="M273.14,-688.11C305.63,-672.63 353.06,-650.21 362,-647 371.43,-643.61 381.73,-640.56 391.57,-637.95"/>
<polygon fill="#63b8ff" stroke="#63b8ff" points="271.66,-684.93 264.14,-692.4 274.67,-691.25 271.66,-684.93"/>
</g>
<!-- Node5 -->
<g id="node6" class="node">
<title>Node5</title>
<g id="a_node6"><a xlink:href="class_veery_1_1_import_1_1_triggers_1_1_area_trigger.html" target="_top" xlink:title="Represents a trigger that is activated when the player enters or exits a specified area.">
<polygon fill="white" stroke="#666666" points="679.5,-664 548.5,-664 548.5,-634 679.5,-634 679.5,-664"/>
<text text-anchor="start" x="556.5" y="-652" font-family="Helvetica,sans-Serif" font-size="10.00">Veery.Import.Triggers.Area</text>
<text text-anchor="middle" x="614" y="-641" font-family="Helvetica,sans-Serif" font-size="10.00">Trigger</text>
</a>
</g>
</g>
<!-- Node4&#45;&gt;Node5 -->
<g id="edge5" class="edge">
<title>Node4&#45;&gt;Node5</title>
<path fill="none" stroke="#63b8ff" d="M518.53,-637.7C528.48,-638.89 538.55,-640.09 548.22,-641.25"/>
<polygon fill="#63b8ff" stroke="#63b8ff" points="519.21,-634.25 508.87,-636.54 518.38,-641.2 519.21,-634.25"/>
</g>
<!-- Node14 -->
<g id="node7" class="node">
<title>Node14</title>
<g id="a_node7"><a xlink:href="class_i_selector.html" target="_top" xlink:title=" ">
<polygon fill="white" stroke="#666666" points="88,-600.5 32,-600.5 32,-581.5 88,-581.5 88,-600.5"/>
<text text-anchor="middle" x="60" y="-588.5" font-family="Helvetica,sans-Serif" font-size="10.00">ISelector</text>
</a>
</g>
</g>
<!-- Node13 -->
<g id="node8" class="node">
<title>Node13</title>
<g id="a_node8"><a xlink:href="class_veery_1_1_interaction_1_1_advanced_controller_selector.html" target="_top" xlink:title="A selector that allows for advanced selection logic based on controller input.">
<polygon fill="white" stroke="#666666" points="308.5,-606 173.5,-606 173.5,-576 308.5,-576 308.5,-606"/>
<text text-anchor="start" x="181.5" y="-594" font-family="Helvetica,sans-Serif" font-size="10.00">Veery.Interaction.Advanced</text>
<text text-anchor="middle" x="241" y="-583" font-family="Helvetica,sans-Serif" font-size="10.00">ControllerSelector</text>
</a>
</g>
</g>
<!-- Node14&#45;&gt;Node13 -->
<g id="edge6" class="edge">
<title>Node14&#45;&gt;Node13</title>
<path fill="none" stroke="#63b8ff" d="M99.44,-591C120.88,-591 148.2,-591 173.04,-591"/>
<polygon fill="#63b8ff" stroke="#63b8ff" points="99.7,-587.5 89.7,-591 99.7,-594.5 99.7,-587.5"/>
</g>
<!-- Node7 -->
<g id="node9" class="node">
<title>Node7</title>
<g id="a_node9"><a xlink:href="interface_veery_1_1_import_1_1_properties_1_1_i_triggerable.html" target="_top" xlink:title="Interface for objects that can be triggered and linked to another object via a TriggerLink.">
<polygon fill="white" stroke="#666666" points="301,-654 181,-654 181,-624 301,-624 301,-654"/>
<text text-anchor="start" x="189" y="-642" font-family="Helvetica,sans-Serif" font-size="10.00">Veery.Import.Properties.</text>
<text text-anchor="middle" x="241" y="-631" font-family="Helvetica,sans-Serif" font-size="10.00">ITriggerable</text>
</a>
</g>
</g>
<!-- Node7&#45;&gt;Node4 -->
<g id="edge7" class="edge">
<title>Node7&#45;&gt;Node4</title>
<path fill="none" stroke="#63b8ff" d="M312.56,-634.99C329.88,-634 348.42,-632.95 365.71,-631.97"/>
<polygon fill="#63b8ff" stroke="#63b8ff" points="312.67,-631.48 302.88,-635.54 313.07,-638.47 312.67,-631.48"/>
</g>
<!-- Node6 -->
<g id="node10" class="node">
<title>Node6</title>
<g id="a_node10"><a xlink:href="interface_veery_1_1_import_1_1_properties_1_1_i_trigger_endable.html" target="_top" xlink:title="Interface for objects that can be triggered on an end state.">
<polygon fill="white" stroke="#666666" points="496.5,-686 376.5,-686 376.5,-656 496.5,-656 496.5,-686"/>
<text text-anchor="start" x="384.5" y="-674" font-family="Helvetica,sans-Serif" font-size="10.00">Veery.Import.Properties.</text>
<text text-anchor="middle" x="436.5" y="-663" font-family="Helvetica,sans-Serif" font-size="10.00">ITriggerEndable</text>
</a>
</g>
</g>
<!-- Node6&#45;&gt;Node5 -->
<g id="edge8" class="edge">
<title>Node6&#45;&gt;Node5</title>
<path fill="none" stroke="#63b8ff" d="M508.34,-662.12C521.52,-660.47 535.23,-658.75 548.23,-657.12"/>
<polygon fill="#63b8ff" stroke="#63b8ff" points="507.91,-658.65 498.42,-663.36 508.78,-665.59 507.91,-658.65"/>
</g>
<!-- Node8 -->
<g id="node11" class="node">
<title>Node8</title>
<g id="a_node11"><a xlink:title=" ">
<polygon fill="#e0e0e0" stroke="#999999" points="102,-342.5 18,-342.5 18,-323.5 102,-323.5 102,-342.5"/>
<text text-anchor="middle" x="60" y="-330.5" font-family="Helvetica,sans-Serif" font-size="10.00">MonoBehaviour</text>
</a>
</g>
</g>
<!-- Node8&#45;&gt;Node1 -->
<g id="edge11" class="edge">
<title>Node8&#45;&gt;Node1</title>
<path fill="none" stroke="#63b8ff" d="M65.91,-353.7C82.3,-422.19 135.26,-638.55 156,-663 168.12,-677.29 186.5,-686.84 202.98,-693.02"/>
<polygon fill="#63b8ff" stroke="#63b8ff" points="69.36,-353.1 63.64,-344.18 62.56,-354.72 69.36,-353.1"/>
</g>
<!-- Node8&#45;&gt;Node13 -->
<g id="edge14" class="edge">
<title>Node8&#45;&gt;Node13</title>
<path fill="none" stroke="#63b8ff" d="M63.39,-354.08C69.72,-399.82 91.13,-508.75 156,-567 161.08,-571.56 166.97,-575.26 173.22,-578.26"/>
<polygon fill="#63b8ff" stroke="#63b8ff" points="66.87,-353.7 62.15,-344.22 59.93,-354.58 66.87,-353.7"/>
</g>
<!-- Node9 -->
<g id="node12" class="node">
<title>Node9</title>
<g id="a_node12"><a xlink:href="class_veery_1_1_anchors_1_1_anchors_manager.html" target="_top" xlink:title="Manages the creation, deletion, and loading of spatial anchors.">
<polygon fill="white" stroke="#666666" points="318.5,-189.5 163.5,-189.5 163.5,-170.5 318.5,-170.5 318.5,-189.5"/>
<text text-anchor="middle" x="241" y="-177.5" font-family="Helvetica,sans-Serif" font-size="10.00">Veery.Anchors.AnchorsManager</text>
</a>
</g>
</g>
<!-- Node8&#45;&gt;Node9 -->
<g id="edge9" class="edge">
<title>Node8&#45;&gt;Node9</title>
<path fill="none" stroke="#63b8ff" d="M69.63,-312.6C83.36,-282.75 113.07,-227.64 156,-199 161.47,-195.35 167.55,-192.39 173.85,-190"/>
<polygon fill="#63b8ff" stroke="#63b8ff" points="66.48,-311.08 65.63,-321.64 72.88,-313.91 66.48,-311.08"/>
</g>
<!-- Node10 -->
<g id="node13" class="node">
<title>Node10</title>
<g id="a_node13"><a xlink:href="class_veery_1_1_gameplay_1_1_gameplay_manager.html" target="_top" xlink:title="Manages gameplay&#45;related functionality, such as controller input and interactor management.">
<polygon fill="white" stroke="#666666" points="326,-152.5 156,-152.5 156,-133.5 326,-133.5 326,-152.5"/>
<text text-anchor="middle" x="241" y="-140.5" font-family="Helvetica,sans-Serif" font-size="10.00">Veery.Gameplay.GameplayManager</text>
</a>
</g>
</g>
<!-- Node8&#45;&gt;Node10 -->
<g id="edge10" class="edge">
<title>Node8&#45;&gt;Node10</title>
<path fill="none" stroke="#63b8ff" d="M66.31,-312.75C76.91,-276.52 104.23,-200.79 156,-162 160.91,-158.32 166.39,-155.34 172.15,-152.92"/>
<polygon fill="#63b8ff" stroke="#63b8ff" points="63.06,-311.38 63.75,-321.95 69.8,-313.25 63.06,-311.38"/>
</g>
<!-- Node11 -->
<g id="node14" class="node">
<title>Node11</title>
<g id="a_node14"><a xlink:href="class_veery_1_1_import_1_1_triggers_1_1_trigger_link.html" target="_top" xlink:title="Represents a link between two import objects that can trigger a delegate with parameters.">
<polygon fill="white" stroke="#666666" points="321,-115.5 161,-115.5 161,-96.5 321,-96.5 321,-115.5"/>
<text text-anchor="middle" x="241" y="-103.5" font-family="Helvetica,sans-Serif" font-size="10.00">Veery.Import.Triggers.TriggerLink</text>
</a>
</g>
</g>
<!-- Node8&#45;&gt;Node11 -->
<g id="edge12" class="edge">
<title>Node8&#45;&gt;Node11</title>
<path fill="none" stroke="#63b8ff" d="M64.29,-312C72.07,-269.68 95.69,-174.01 156,-125 160.53,-121.32 165.62,-118.32 171.01,-115.88"/>
<polygon fill="#63b8ff" stroke="#63b8ff" points="60.84,-311.38 62.61,-321.82 67.74,-312.55 60.84,-311.38"/>
</g>
<!-- Node12 -->
<g id="node15" class="node">
<title>Node12</title>
<g id="a_node15"><a xlink:href="class_veery_1_1_import_1_1_triggers_1_1_triggers_manager.html" target="_top" xlink:title="Manages all triggers in the scene.">
<polygon fill="white" stroke="#666666" points="314,-78 168,-78 168,-48 314,-48 314,-78"/>
<text text-anchor="start" x="176" y="-66" font-family="Helvetica,sans-Serif" font-size="10.00">Veery.Import.Triggers.Triggers</text>
<text text-anchor="middle" x="241" y="-55" font-family="Helvetica,sans-Serif" font-size="10.00">Manager</text>
</a>
</g>
</g>
<!-- Node8&#45;&gt;Node12 -->
<g id="edge13" class="edge">
<title>Node8&#45;&gt;Node12</title>
<path fill="none" stroke="#63b8ff" d="M62.93,-311.81C68.41,-264.34 88.35,-148.81 156,-87 159.58,-83.73 163.58,-80.9 167.84,-78.45"/>
<polygon fill="#63b8ff" stroke="#63b8ff" points="59.47,-311.24 61.92,-321.55 66.43,-311.96 59.47,-311.24"/>
</g>
<!-- Node15 -->
<g id="node16" class="node">
<title>Node15</title>
<g id="a_node16"><a xlink:href="class_veery_1_1_interaction_1_1_interactable_outline.html" target="_top" xlink:title="This class provides an outline effect for an interactable object. It listens to the state changes of ...">
<polygon fill="white" stroke="#666666" points="312.5,-30 169.5,-30 169.5,0 312.5,0 312.5,-30"/>
<text text-anchor="start" x="177.5" y="-18" font-family="Helvetica,sans-Serif" font-size="10.00">Veery.Interaction.Interactable</text>
<text text-anchor="middle" x="241" y="-7" font-family="Helvetica,sans-Serif" font-size="10.00">Outline</text>
</a>
</g>
</g>
<!-- Node8&#45;&gt;Node15 -->
<g id="edge15" class="edge">
<title>Node8&#45;&gt;Node15</title>
<path fill="none" stroke="#63b8ff" d="M61.39,-311.81C63.56,-258.1 76.89,-115.45 156,-39 159.93,-35.21 164.41,-32 169.22,-29.3"/>
<polygon fill="#63b8ff" stroke="#63b8ff" points="57.9,-311.59 61.1,-321.69 64.89,-311.79 57.9,-311.59"/>
</g>
<!-- Node16 -->
<g id="node17" class="node">
<title>Node16</title>
<g id="a_node17"><a xlink:href="class_veery_1_1_u_i_1_1_collapsable.html" target="_top" xlink:title="A component that allows a UI element to be collapsed and expanded.">
<polygon fill="white" stroke="#666666" points="294.5,-557.5 187.5,-557.5 187.5,-538.5 294.5,-538.5 294.5,-557.5"/>
<text text-anchor="middle" x="241" y="-545.5" font-family="Helvetica,sans-Serif" font-size="10.00">Veery.UI.Collapsable</text>
</a>
</g>
</g>
<!-- Node8&#45;&gt;Node16 -->
<g id="edge16" class="edge">
<title>Node8&#45;&gt;Node16</title>
<path fill="none" stroke="#63b8ff" d="M64.77,-353.79C73.29,-394.42 97.97,-484.37 156,-530 164.91,-537.01 175.93,-541.44 187.03,-544.21"/>
<polygon fill="#63b8ff" stroke="#63b8ff" points="68.24,-353.28 62.88,-344.14 61.37,-354.63 68.24,-353.28"/>
</g>
<!-- Node17 -->
<g id="node18" class="node">
<title>Node17</title>
<g id="a_node18"><a xlink:href="class_veery_1_1_u_i_1_1_collapse_button.html" target="_top" xlink:title="Represents a button that can collapse or open a list of Collapsable components.">
<polygon fill="white" stroke="#666666" points="302,-520.5 180,-520.5 180,-501.5 302,-501.5 302,-520.5"/>
<text text-anchor="middle" x="241" y="-508.5" font-family="Helvetica,sans-Serif" font-size="10.00">Veery.UI.CollapseButton</text>
</a>
</g>
</g>
<!-- Node8&#45;&gt;Node17 -->
<g id="edge17" class="edge">
<title>Node8&#45;&gt;Node17</title>
<path fill="none" stroke="#63b8ff" d="M67.13,-353.45C78.61,-387.99 106.72,-457.59 156,-493 163.03,-498.05 171.18,-501.73 179.59,-504.41"/>
<polygon fill="#63b8ff" stroke="#63b8ff" points="70.58,-352.73 64.22,-344.25 63.9,-354.84 70.58,-352.73"/>
</g>
<!-- Node18 -->
<g id="node19" class="node">
<title>Node18</title>
<g id="a_node19"><a xlink:href="class_veery_1_1_u_i_1_1_file_explorer_controller.html" target="_top" xlink:title="The FileExplorerController is used to control ONE file explorer and its elements (FileExplorerElement...">
<polygon fill="white" stroke="#666666" points="315,-483.5 167,-483.5 167,-464.5 315,-464.5 315,-483.5"/>
<text text-anchor="middle" x="241" y="-471.5" font-family="Helvetica,sans-Serif" font-size="10.00">Veery.UI.FileExplorerController</text>
</a>
</g>
</g>
<!-- Node8&#45;&gt;Node18 -->
<g id="edge18" class="edge">
<title>Node8&#45;&gt;Node18</title>
<path fill="none" stroke="#63b8ff" d="M70.75,-352.75C85.35,-380.18 115.57,-429.32 156,-455 161.81,-458.69 168.24,-461.66 174.88,-464.06"/>
<polygon fill="#63b8ff" stroke="#63b8ff" points="73.99,-351.4 66.31,-344.11 67.77,-354.61 73.99,-351.4"/>
</g>
<!-- Node19 -->
<g id="node20" class="node">
<title>Node19</title>
<g id="a_node20"><a xlink:href="class_veery_1_1_u_i_1_1_file_explorer_element_controller.html" target="_top" xlink:title="The FileExplorerElementController is used to control ONE element (file / folder) of the file explorer...">
<polygon fill="white" stroke="#666666" points="312,-446 170,-446 170,-416 312,-416 312,-446"/>
<text text-anchor="start" x="178" y="-434" font-family="Helvetica,sans-Serif" font-size="10.00">Veery.UI.FileExplorerElement</text>
<text text-anchor="middle" x="241" y="-423" font-family="Helvetica,sans-Serif" font-size="10.00">Controller</text>
</a>
</g>
</g>
<!-- Node8&#45;&gt;Node19 -->
<g id="edge19" class="edge">
<title>Node8&#45;&gt;Node19</title>
<path fill="none" stroke="#63b8ff" d="M78.82,-350.34C96.9,-367.05 126.37,-391.95 156,-407 162.36,-410.23 169.21,-413.08 176.16,-415.59"/>
<polygon fill="#63b8ff" stroke="#63b8ff" points="81.69,-348.23 72.01,-343.92 76.88,-353.32 81.69,-348.23"/>
</g>
<!-- Node20 -->
<g id="node21" class="node">
<title>Node20</title>
<g id="a_node21"><a xlink:href="class_veery_1_1_u_i_1_1_file_explorer_manager.html" target="_top" xlink:title="The FileExplorerManager is responsible for managing ALL file explorers (FileExplorerController)....">
<polygon fill="white" stroke="#666666" points="313,-397.5 169,-397.5 169,-378.5 313,-378.5 313,-397.5"/>
<text text-anchor="middle" x="241" y="-385.5" font-family="Helvetica,sans-Serif" font-size="10.00">Veery.UI.FileExplorerManager</text>
</a>
</g>
</g>
<!-- Node8&#45;&gt;Node20 -->
<g id="edge20" class="edge">
<title>Node8&#45;&gt;Node20</title>
<path fill="none" stroke="#63b8ff" d="M93.86,-347.3C111.95,-354.79 134.94,-363.69 156,-370 166,-373 176.81,-375.7 187.24,-378.05"/>
<polygon fill="#63b8ff" stroke="#63b8ff" points="95.26,-344.09 84.69,-343.44 92.55,-350.55 95.26,-344.09"/>
</g>
<!-- Node21 -->
<g id="node22" class="node">
<title>Node21</title>
<g id="a_node22"><a xlink:href="class_veery_1_1_u_i_1_1_hand_menu_controller.html" target="_top" xlink:title="Controls the positioning and parenting of a menu based on the active Controller and Handedness.">
<polygon fill="white" stroke="#666666" points="313.5,-360.5 168.5,-360.5 168.5,-341.5 313.5,-341.5 313.5,-360.5"/>
<text text-anchor="middle" x="241" y="-348.5" font-family="Helvetica,sans-Serif" font-size="10.00">Veery.UI.HandMenuController</text>
</a>
</g>
</g>
<!-- Node8&#45;&gt;Node21 -->
<g id="edge21" class="edge">
<title>Node8&#45;&gt;Node21</title>
<path fill="none" stroke="#63b8ff" d="M113.03,-338.23C130.27,-339.97 149.77,-341.93 168.22,-343.78"/>
<polygon fill="#63b8ff" stroke="#63b8ff" points="113.87,-334.8 103.57,-337.28 113.17,-341.76 113.87,-334.8"/>
</g>
<!-- Node22 -->
<g id="node23" class="node">
<title>Node22</title>
<g id="a_node23"><a xlink:href="class_veery_1_1_u_i_1_1_main_menu_controller.html" target="_top" xlink:title=" ">
<polygon fill="white" stroke="#666666" points="312.5,-323.5 169.5,-323.5 169.5,-304.5 312.5,-304.5 312.5,-323.5"/>
<text text-anchor="middle" x="241" y="-311.5" font-family="Helvetica,sans-Serif" font-size="10.00">Veery.UI.MainMenuController</text>
</a>
</g>
</g>
<!-- Node8&#45;&gt;Node22 -->
<g id="edge22" class="edge">
<title>Node8&#45;&gt;Node22</title>
<path fill="none" stroke="#63b8ff" d="M113.46,-327.43C130.93,-325.58 150.67,-323.48 169.29,-321.51"/>
<polygon fill="#63b8ff" stroke="#63b8ff" points="113.15,-323.95 103.57,-328.48 113.88,-330.91 113.15,-323.95"/>
</g>
<!-- Node23 -->
<g id="node24" class="node">
<title>Node23</title>
<g id="a_node24"><a xlink:href="class_veery_1_1_u_i_1_1_selection_1_1_selection_properties.html" target="_top" xlink:title=" ">
<polygon fill="white" stroke="#666666" points="311,-286 171,-286 171,-256 311,-256 311,-286"/>
<text text-anchor="start" x="179" y="-274" font-family="Helvetica,sans-Serif" font-size="10.00">Veery.UI.Selection.Selection</text>
<text text-anchor="middle" x="241" y="-263" font-family="Helvetica,sans-Serif" font-size="10.00">Properties</text>
</a>
</g>
</g>
<!-- Node8&#45;&gt;Node23 -->
<g id="edge23" class="edge">
<title>Node8&#45;&gt;Node23</title>
<path fill="none" stroke="#63b8ff" d="M95.53,-318.76C113.44,-311.58 135.76,-302.94 156,-296 165.5,-292.74 175.68,-289.5 185.57,-286.49"/>
<polygon fill="#63b8ff" stroke="#63b8ff" points="94.37,-315.46 86.41,-322.45 96.99,-321.95 94.37,-315.46"/>
</g>
<!-- Node24 -->
<g id="node25" class="node">
<title>Node24</title>
<g id="a_node25"><a xlink:href="class_veery_1_1_u_i_1_1_selection_1_1_selection_property.html" target="_top" xlink:title=" ">
<polygon fill="white" stroke="#666666" points="311,-238 171,-238 171,-208 311,-208 311,-238"/>
<text text-anchor="start" x="179" y="-226" font-family="Helvetica,sans-Serif" font-size="10.00">Veery.UI.Selection.Selection</text>
<text text-anchor="middle" x="241" y="-215" font-family="Helvetica,sans-Serif" font-size="10.00">Property</text>
</a>
</g>
</g>
<!-- Node8&#45;&gt;Node24 -->
<g id="edge24" class="edge">
<title>Node8&#45;&gt;Node24</title>
<path fill="none" stroke="#63b8ff" d="M76.59,-314.58C94.04,-295.08 124.08,-264.73 156,-247 161.83,-243.76 168.14,-240.92 174.59,-238.45"/>
<polygon fill="#63b8ff" stroke="#63b8ff" points="74.02,-312.2 70.07,-322.03 79.29,-316.8 74.02,-312.2"/>
</g>
<!-- Node25 -->
<g id="node26" class="node">
<title>Node25</title>
<g id="a_node26"><a xlink:href="class_veery_1_1_u_i_1_1_selection_1_1_enableable_property.html" target="_top" xlink:title=" ">
<polygon fill="white" stroke="#666666" points="509.5,-281 363.5,-281 363.5,-251 509.5,-251 509.5,-281"/>
<text text-anchor="start" x="371.5" y="-269" font-family="Helvetica,sans-Serif" font-size="10.00">Veery.UI.Selection.Enableable</text>
<text text-anchor="middle" x="436.5" y="-258" font-family="Helvetica,sans-Serif" font-size="10.00">Property</text>
</a>
</g>
</g>
<!-- Node24&#45;&gt;Node25 -->
<g id="edge25" class="edge">
<title>Node24&#45;&gt;Node25</title>
<path fill="none" stroke="#63b8ff" d="M322.29,-240.84C336.81,-244.07 351.84,-247.41 366.02,-250.56"/>
<polygon fill="#63b8ff" stroke="#63b8ff" points="323.31,-237.48 312.79,-238.73 321.79,-244.32 323.31,-237.48"/>
</g>
<!-- Node26 -->
<g id="node27" class="node">
<title>Node26</title>
<g id="a_node27"><a xlink:href="class_veery_1_1_u_i_1_1_selection_1_1_link.html" target="_top" xlink:title=" ">
<polygon fill="white" stroke="#666666" points="495.5,-232.5 377.5,-232.5 377.5,-213.5 495.5,-213.5 495.5,-232.5"/>
<text text-anchor="middle" x="436.5" y="-220.5" font-family="Helvetica,sans-Serif" font-size="10.00">Veery.UI.Selection.Link</text>
</a>
</g>
</g>
<!-- Node24&#45;&gt;Node26 -->
<g id="edge26" class="edge">
<title>Node24&#45;&gt;Node26</title>
<path fill="none" stroke="#63b8ff" d="M322.59,-223C340.91,-223 360.02,-223 377.2,-223"/>
<polygon fill="#63b8ff" stroke="#63b8ff" points="322.82,-219.5 312.82,-223 322.82,-226.5 322.82,-219.5"/>
</g>
<!-- Node27 -->
<g id="node28" class="node">
<title>Node27</title>
<g id="a_node28"><a xlink:href="class_veery_1_1_u_i_1_1_selection_1_1_links.html" target="_top" xlink:title=" ">
<polygon fill="white" stroke="#666666" points="498,-195.5 375,-195.5 375,-176.5 498,-176.5 498,-195.5"/>
<text text-anchor="middle" x="436.5" y="-183.5" font-family="Helvetica,sans-Serif" font-size="10.00">Veery.UI.Selection.Links</text>
</a>
</g>
</g>
<!-- Node24&#45;&gt;Node27 -->
<g id="edge27" class="edge">
<title>Node24&#45;&gt;Node27</title>
<path fill="none" stroke="#63b8ff" d="M322.6,-207.59C343.14,-203.66 364.68,-199.54 383.37,-195.97"/>
<polygon fill="#63b8ff" stroke="#63b8ff" points="321.96,-204.15 312.8,-209.46 323.28,-211.02 321.96,-204.15"/>
</g>
<!-- Node28 -->
<g id="node29" class="node">
<title>Node28</title>
<g id="a_node29"><a xlink:href="class_veery_1_1_u_i_1_1_selection_1_1_method.html" target="_top" xlink:title=" ">
<polygon fill="white" stroke="#666666" points="502,-158.5 371,-158.5 371,-139.5 502,-139.5 502,-158.5"/>
<text text-anchor="middle" x="436.5" y="-146.5" font-family="Helvetica,sans-Serif" font-size="10.00">Veery.UI.Selection.Method</text>
</a>
</g>
</g>
<!-- Node24&#45;&gt;Node28 -->
<g id="edge28" class="edge">
<title>Node24&#45;&gt;Node28</title>
<path fill="none" stroke="#63b8ff" d="M317.27,-203.3C320.26,-201.95 323.18,-200.52 326,-199 344.58,-188.98 343.29,-177.79 362,-168 369.01,-164.33 376.77,-161.34 384.54,-158.91"/>
<polygon fill="#63b8ff" stroke="#63b8ff" points="316.2,-199.95 308.28,-206.99 318.86,-206.43 316.2,-199.95"/>
</g>
<!-- Node29 -->
<g id="node30" class="node">
<title>Node29</title>
<g id="a_node30"><a xlink:href="class_veery_1_1_u_i_1_1_selection_1_1_methods.html" target="_top" xlink:title=" ">
<polygon fill="white" stroke="#666666" points="505,-121.5 368,-121.5 368,-102.5 505,-102.5 505,-121.5"/>
<text text-anchor="middle" x="436.5" y="-109.5" font-family="Helvetica,sans-Serif" font-size="10.00">Veery.UI.Selection.Methods</text>
</a>
</g>
</g>
<!-- Node24&#45;&gt;Node29 -->
<g id="edge29" class="edge">
<title>Node24&#45;&gt;Node29</title>
<path fill="none" stroke="#63b8ff" d="M321.21,-202.55C322.86,-201.43 324.46,-200.25 326,-199 352.57,-177.47 335.16,-152.19 362,-131 366.65,-127.32 371.94,-124.35 377.5,-121.95"/>
<polygon fill="#63b8ff" stroke="#63b8ff" points="319.46,-199.52 312.57,-207.56 322.97,-205.57 319.46,-199.52"/>
</g>
<!-- Node30 -->
<g id="node31" class="node">
<title>Node30</title>
<g id="a_node31"><a xlink:href="class_veery_1_1_u_i_1_1_selection_1_1_parameter.html" target="_top" xlink:title=" ">
<polygon fill="white" stroke="#666666" points="508.5,-84.5 364.5,-84.5 364.5,-65.5 508.5,-65.5 508.5,-84.5"/>
<text text-anchor="middle" x="436.5" y="-72.5" font-family="Helvetica,sans-Serif" font-size="10.00">Veery.UI.Selection.Parameter</text>
</a>
</g>
</g>
<!-- Node24&#45;&gt;Node30 -->
<g id="edge30" class="edge">
<title>Node24&#45;&gt;Node30</title>
<path fill="none" stroke="#63b8ff" d="M320.79,-203.41C322.61,-202.04 324.35,-200.57 326,-199 362.03,-164.69 325.32,-126.61 362,-93 365.49,-89.8 369.45,-87.15 373.68,-84.95"/>
<polygon fill="#63b8ff" stroke="#63b8ff" points="318.98,-200.41 312.38,-208.7 322.71,-206.33 318.98,-200.41"/>
</g>
<!-- Node32 -->
<g id="node33" class="node">
<title>Node32</title>
<g id="a_node33"><a xlink:href="class_veery_1_1_u_i_1_1_selection_1_1_parameters.html" target="_top" xlink:title=" ">
<polygon fill="white" stroke="#666666" points="511,-414.5 362,-414.5 362,-395.5 511,-395.5 511,-414.5"/>
<text text-anchor="middle" x="436.5" y="-402.5" font-family="Helvetica,sans-Serif" font-size="10.00">Veery.UI.Selection.Parameters</text>
</a>
</g>
</g>
<!-- Node24&#45;&gt;Node32 -->
<g id="edge32" class="edge">
<title>Node24&#45;&gt;Node32</title>
<path fill="none" stroke="#63b8ff" d="M320.95,-242.43C322.72,-243.85 324.41,-245.37 326,-247 370.56,-292.68 316.86,-340.89 362,-386 365.64,-389.63 369.87,-392.6 374.43,-395.02"/>
<polygon fill="#63b8ff" stroke="#63b8ff" points="322.98,-239.58 312.7,-236.98 319.12,-245.42 322.98,-239.58"/>
</g>
<!-- Node33 -->
<g id="node34" class="node">
<title>Node33</title>
<g id="a_node34"><a xlink:href="class_veery_1_1_u_i_1_1_selection_1_1_trigger_endable_property.html" target="_top" xlink:title=" ">
<polygon fill="white" stroke="#666666" points="501,-377 372,-377 372,-347 501,-347 501,-377"/>
<text text-anchor="start" x="380" y="-365" font-family="Helvetica,sans-Serif" font-size="10.00">Veery.UI.Selection.Trigger</text>
<text text-anchor="middle" x="436.5" y="-354" font-family="Helvetica,sans-Serif" font-size="10.00">EndableProperty</text>
</a>
</g>
</g>
<!-- Node24&#45;&gt;Node33 -->
<g id="edge33" class="edge">
<title>Node24&#45;&gt;Node33</title>
<path fill="none" stroke="#63b8ff" d="M320.83,-242.8C322.63,-244.11 324.36,-245.51 326,-247 358.23,-276.21 330.32,-308.2 362,-338 365.52,-341.31 369.5,-344.17 373.75,-346.63"/>
<polygon fill="#63b8ff" stroke="#63b8ff" points="322.94,-239.99 312.59,-237.73 319.27,-245.95 322.94,-239.99"/>
</g>
<!-- Node34 -->
<g id="node35" class="node">
<title>Node34</title>
<g id="a_node35"><a xlink:href="class_veery_1_1_u_i_1_1_selection_1_1_triggerable_property.html" target="_top" xlink:title=" ">
<polygon fill="white" stroke="#666666" points="510,-329 363,-329 363,-299 510,-299 510,-329"/>
<text text-anchor="start" x="371" y="-317" font-family="Helvetica,sans-Serif" font-size="10.00">Veery.UI.Selection.Triggerable</text>
<text text-anchor="middle" x="436.5" y="-306" font-family="Helvetica,sans-Serif" font-size="10.00">Property</text>
</a>
</g>
</g>
<!-- Node24&#45;&gt;Node34 -->
<g id="edge34" class="edge">
<title>Node24&#45;&gt;Node34</title>
<path fill="none" stroke="#63b8ff" d="M319.84,-243.33C321.95,-244.49 324.01,-245.71 326,-247 346.9,-260.58 341.35,-276.04 362,-290 366.78,-293.23 372.03,-296.06 377.45,-298.52"/>
<polygon fill="#63b8ff" stroke="#63b8ff" points="321.51,-240.25 310.98,-239.03 318.45,-246.54 321.51,-240.25"/>
</g>
<!-- Node31 -->
<g id="node32" class="node">
<title>Node31</title>
<g id="a_node32"><a xlink:href="class_veery_1_1_u_i_1_1_selection_1_1_boolean_parameter.html" target="_top" xlink:title=" ">
<polygon fill="white" stroke="#666666" points="681,-90 547,-90 547,-60 681,-60 681,-90"/>
<text text-anchor="start" x="555" y="-78" font-family="Helvetica,sans-Serif" font-size="10.00">Veery.UI.Selection.Boolean</text>
<text text-anchor="middle" x="614" y="-67" font-family="Helvetica,sans-Serif" font-size="10.00">Parameter</text>
</a>
</g>
</g>
<!-- Node30&#45;&gt;Node31 -->
<g id="edge31" class="edge">
<title>Node30&#45;&gt;Node31</title>
<path fill="none" stroke="#63b8ff" d="M520.13,-75C529.07,-75 538.07,-75 546.78,-75"/>
<polygon fill="#63b8ff" stroke="#63b8ff" points="520.4,-71.5 510.4,-75 520.4,-78.5 520.4,-71.5"/>
</g>
</g>
</svg>
