<?xml version="1.0" encoding="UTF-8" standalone="no"?>
<!DOCTYPE svg PUBLIC "-//W3C//DTD SVG 1.1//EN"
 "http://www.w3.org/Graphics/SVG/1.1/DTD/svg11.dtd">
<!-- Generated by graphviz version 7.0.5 (20221223.1930)
 -->
<!-- Title: Graphical Class Hierarchy Pages: 1 -->
<svg width="273pt" height="64pt"
 viewBox="0.00 0.00 273.00 64.00" xmlns="http://www.w3.org/2000/svg" xmlns:xlink="http://www.w3.org/1999/xlink">
<g id="graph0" class="graph" transform="scale(1 1) rotate(0) translate(4 60)">
<title>Graphical Class Hierarchy</title>
<!-- Node0 -->
<g id="node1" class="node">
<title>Node0</title>
<g id="a_node1"><a xlink:href="class_i_distance_interactor.html" target="_top" xlink:title=" ">
<polygon fill="white" stroke="#666666" points="99,-56 0,-56 0,-37 99,-37 99,-56"/>
<text text-anchor="middle" x="49.5" y="-44" font-family="Helvetica,sans-Serif" font-size="10.00">IDistanceInteractor</text>
</a>
</g>
</g>
<!-- Node1 -->
<g id="node2" class="node">
<title>Node1</title>
<g id="a_node2"><a xlink:href="class_veery_1_1_interaction_1_1_distance_select_interactor.html" target="_top" xlink:title="An interactor that selects interactables based on their distance from the interactor&#39;s pointer.">
<polygon fill="white" stroke="#666666" points="265,-42.5 135,-42.5 135,-12.5 265,-12.5 265,-42.5"/>
<text text-anchor="start" x="143" y="-30.5" font-family="Helvetica,sans-Serif" font-size="10.00">Veery.Interaction.Distance</text>
<text text-anchor="middle" x="200" y="-19.5" font-family="Helvetica,sans-Serif" font-size="10.00">SelectInteractor</text>
</a>
</g>
</g>
<!-- Node0&#45;&gt;Node1 -->
<g id="edge1" class="edge">
<title>Node0&#45;&gt;Node1</title>
<path fill="none" stroke="#63b8ff" d="M110.53,-38.82C118.46,-37.81 126.61,-36.76 134.6,-35.74"/>
<polygon fill="#63b8ff" stroke="#63b8ff" points="110.1,-35.35 100.63,-40.09 110.99,-42.29 110.1,-35.35"/>
</g>
<!-- Node2 -->
<g id="node3" class="node">
<title>Node2</title>
<g id="a_node3"><a xlink:href="class_pointer_interactor.html" target="_top" xlink:title=" ">
<polygon fill="white" stroke="#666666" points="94,-19 5,-19 5,0 94,0 94,-19"/>
<text text-anchor="middle" x="49.5" y="-7" font-family="Helvetica,sans-Serif" font-size="10.00">PointerInteractor</text>
</a>
</g>
</g>
<!-- Node2&#45;&gt;Node1 -->
<g id="edge2" class="edge">
<title>Node2&#45;&gt;Node1</title>
<path fill="none" stroke="#63b8ff" d="M105.55,-16.17C115.02,-17.32 124.95,-18.52 134.65,-19.7"/>
<polygon fill="#63b8ff" stroke="#63b8ff" points="106.1,-12.71 95.75,-14.99 105.26,-19.66 106.1,-12.71"/>
</g>
</g>
</svg>
