<?xml version="1.0" encoding="UTF-8" standalone="no"?>
<!DOCTYPE svg PUBLIC "-//W3C//DTD SVG 1.1//EN"
 "http://www.w3.org/Graphics/SVG/1.1/DTD/svg11.dtd">
<!-- Generated by graphviz version 7.0.5 (20221223.1930)
 -->
<!-- Title: Graphical Class Hierarchy Pages: 1 -->
<svg width="268pt" height="64pt"
 viewBox="0.00 0.00 268.00 64.00" xmlns="http://www.w3.org/2000/svg" xmlns:xlink="http://www.w3.org/1999/xlink">
<g id="graph0" class="graph" transform="scale(1 1) rotate(0) translate(4 60)">
<title>Graphical Class Hierarchy</title>
<!-- Node0 -->
<g id="node1" class="node">
<title>Node0</title>
<g id="a_node1"><a xlink:href="class_i_distance_interactor.html" target="_top" xlink:title=" ">
<polygon fill="white" stroke="#666666" points="99,-56 0,-56 0,-37 99,-37 99,-56"/>
<text text-anchor="middle" x="49.5" y="-44" font-family="Helvetica,sans-Serif" font-size="10.00">IDistanceInteractor</text>
</a>
</g>
</g>
<!-- Node1 -->
<g id="node2" class="node">
<title>Node1</title>
<g id="a_node2"><a xlink:href="class_e_v_a_1_1_interaction_1_1_distance_select_interactor.html" target="_top" xlink:title=" ">
<polygon fill="white" stroke="#666666" points="260,-42.5 135,-42.5 135,-12.5 260,-12.5 260,-42.5"/>
<text text-anchor="start" x="143" y="-30.5" font-family="Helvetica,sans-Serif" font-size="10.00">EVA.Interaction.Distance</text>
<text text-anchor="middle" x="197.5" y="-19.5" font-family="Helvetica,sans-Serif" font-size="10.00">SelectInteractor</text>
</a>
</g>
</g>
<!-- Node0&#45;&gt;Node1 -->
<g id="edge1" class="edge">
<title>Node0&#45;&gt;Node1</title>
<path fill="none" stroke="#63b8ff" d="M110.27,-38.72C118.29,-37.68 126.53,-36.61 134.59,-35.56"/>
<polygon fill="#63b8ff" stroke="#63b8ff" points="110.08,-35.22 100.62,-39.98 110.98,-42.16 110.08,-35.22"/>
</g>
<!-- Node2 -->
<g id="node3" class="node">
<title>Node2</title>
<g id="a_node3"><a xlink:href="class_pointer_interactor.html" target="_top" xlink:title=" ">
<polygon fill="white" stroke="#666666" points="94,-19 5,-19 5,0 94,0 94,-19"/>
<text text-anchor="middle" x="49.5" y="-7" font-family="Helvetica,sans-Serif" font-size="10.00">PointerInteractor</text>
</a>
</g>
</g>
<!-- Node2&#45;&gt;Node1 -->
<g id="edge2" class="edge">
<title>Node2&#45;&gt;Node1</title>
<path fill="none" stroke="#63b8ff" d="M105.61,-16.29C115.09,-17.46 125,-18.68 134.64,-19.87"/>
<polygon fill="#63b8ff" stroke="#63b8ff" points="106.16,-12.84 95.81,-15.09 105.3,-19.78 106.16,-12.84"/>
</g>
</g>
</svg>
