<?xml version="1.0" encoding="UTF-8" standalone="no"?>
<!DOCTYPE svg PUBLIC "-//W3C//DTD SVG 1.1//EN"
 "http://www.w3.org/Graphics/SVG/1.1/DTD/svg11.dtd">
<!-- Generated by graphviz version 7.0.5 (20221223.1930)
 -->
<!-- Title: Graphical Class Hierarchy Pages: 1 -->
<svg width="293pt" height="372pt"
 viewBox="0.00 0.00 293.00 372.00" xmlns="http://www.w3.org/2000/svg" xmlns:xlink="http://www.w3.org/1999/xlink">
<g id="graph0" class="graph" transform="scale(1 1) rotate(0) translate(4 368)">
<title>Graphical Class Hierarchy</title>
<!-- Node0 -->
<g id="node1" class="node">
<title>Node0</title>
<g id="a_node1"><a xlink:href="class_mono_behaviour.html" target="_top" xlink:title=" ">
<polygon fill="white" stroke="#666666" points="84,-197 0,-197 0,-178 84,-178 84,-197"/>
<text text-anchor="middle" x="42" y="-185" font-family="Helvetica,sans-Serif" font-size="10.00">MonoBehaviour</text>
</a>
</g>
</g>
<!-- Node1 -->
<g id="node2" class="node">
<title>Node1</title>
<g id="a_node2"><a xlink:href="class_e_v_a_1_1_gameplay_1_1_gameplay_manager.html" target="_top" xlink:title=" ">
<polygon fill="white" stroke="#666666" points="285,-364 120,-364 120,-345 285,-345 285,-364"/>
<text text-anchor="middle" x="202.5" y="-352" font-family="Helvetica,sans-Serif" font-size="10.00">EVA.Gameplay.GameplayManager</text>
</a>
</g>
</g>
<!-- Node0&#45;&gt;Node1 -->
<g id="edge1" class="edge">
<title>Node0&#45;&gt;Node1</title>
<path fill="none" stroke="#63b8ff" d="M47.71,-208.25C56.23,-240.86 77.43,-303.76 120,-336.5 124.14,-339.68 128.72,-342.32 133.54,-344.51"/>
<polygon fill="#63b8ff" stroke="#63b8ff" points="51.18,-207.71 45.4,-198.83 44.38,-209.37 51.18,-207.71"/>
</g>
<!-- Node2 -->
<g id="node3" class="node">
<title>Node2</title>
<g id="a_node3"><a xlink:href="class_e_v_a_1_1_import_1_1_image.html" target="_top" xlink:title="Manipulate an image in the scene.">
<polygon fill="white" stroke="#666666" points="250,-327 155,-327 155,-308 250,-308 250,-327"/>
<text text-anchor="middle" x="202.5" y="-315" font-family="Helvetica,sans-Serif" font-size="10.00">EVA.Import.Image</text>
</a>
</g>
</g>
<!-- Node0&#45;&gt;Node2 -->
<g id="edge2" class="edge">
<title>Node0&#45;&gt;Node2</title>
<path fill="none" stroke="#63b8ff" d="M51.27,-207.8C62.77,-233.34 86.06,-276.63 120,-299.5 130.21,-306.38 142.63,-310.68 154.66,-313.35"/>
<polygon fill="#63b8ff" stroke="#63b8ff" points="54.58,-206.64 47.42,-198.84 48.15,-209.41 54.58,-206.64"/>
</g>
<!-- Node3 -->
<g id="node4" class="node">
<title>Node3</title>
<g id="a_node4"><a xlink:href="class_e_v_a_1_1_import_1_1_model3_d.html" target="_top" xlink:title="Manipulate a 3D model in the scene.">
<polygon fill="white" stroke="#666666" points="256,-290 149,-290 149,-271 256,-271 256,-290"/>
<text text-anchor="middle" x="202.5" y="-278" font-family="Helvetica,sans-Serif" font-size="10.00">EVA.Import.Model3D</text>
</a>
</g>
</g>
<!-- Node0&#45;&gt;Node3 -->
<g id="edge3" class="edge">
<title>Node0&#45;&gt;Node3</title>
<path fill="none" stroke="#63b8ff" d="M56.86,-205.97C70.87,-223.28 94.09,-248.52 120,-262.5 128.8,-267.25 138.78,-270.74 148.66,-273.32"/>
<polygon fill="#63b8ff" stroke="#63b8ff" points="59.92,-204.21 51.01,-198.49 54.41,-208.52 59.92,-204.21"/>
</g>
<!-- Node4 -->
<g id="node5" class="node">
<title>Node4</title>
<g id="a_node5"><a xlink:href="class_e_v_a_1_1_u_i_1_1_collapsable.html" target="_top" xlink:title=" ">
<polygon fill="white" stroke="#666666" points="253,-253 152,-253 152,-234 253,-234 253,-253"/>
<text text-anchor="middle" x="202.5" y="-241" font-family="Helvetica,sans-Serif" font-size="10.00">EVA.UI.Collapsable</text>
</a>
</g>
</g>
<!-- Node0&#45;&gt;Node4 -->
<g id="edge4" class="edge">
<title>Node0&#45;&gt;Node4</title>
<path fill="none" stroke="#63b8ff" d="M69.99,-202.82C84.46,-210.51 102.8,-219.46 120,-225.5 130.12,-229.05 141.19,-232.06 151.83,-234.53"/>
<polygon fill="#63b8ff" stroke="#63b8ff" points="72,-199.93 61.54,-198.22 68.65,-206.08 72,-199.93"/>
</g>
<!-- Node5 -->
<g id="node6" class="node">
<title>Node5</title>
<g id="a_node6"><a xlink:href="class_e_v_a_1_1_u_i_1_1_collapse_button.html" target="_top" xlink:title=" ">
<polygon fill="white" stroke="#666666" points="261,-216 144,-216 144,-197 261,-197 261,-216"/>
<text text-anchor="middle" x="202.5" y="-204" font-family="Helvetica,sans-Serif" font-size="10.00">EVA.UI.CollapseButton</text>
</a>
</g>
</g>
<!-- Node0&#45;&gt;Node5 -->
<g id="edge5" class="edge">
<title>Node0&#45;&gt;Node5</title>
<path fill="none" stroke="#63b8ff" d="M95.23,-193.76C110.78,-195.62 127.9,-197.68 143.77,-199.58"/>
<polygon fill="#63b8ff" stroke="#63b8ff" points="96.08,-190.34 85.73,-192.62 95.25,-197.29 96.08,-190.34"/>
</g>
<!-- Node6 -->
<g id="node7" class="node">
<title>Node6</title>
<g id="a_node7"><a xlink:href="class_e_v_a_1_1_u_i_1_1_file_explorer_controller.html" target="_top" xlink:title="The FileExplorerController is used to control ONE file explorer and its elements (FileExplorerElement...">
<polygon fill="white" stroke="#666666" points="274,-179 131,-179 131,-160 274,-160 274,-179"/>
<text text-anchor="middle" x="202.5" y="-167" font-family="Helvetica,sans-Serif" font-size="10.00">EVA.UI.FileExplorerController</text>
</a>
</g>
</g>
<!-- Node0&#45;&gt;Node6 -->
<g id="edge6" class="edge">
<title>Node0&#45;&gt;Node6</title>
<path fill="none" stroke="#63b8ff" d="M95.61,-181.53C106.85,-180.25 118.9,-178.88 130.7,-177.54"/>
<polygon fill="#63b8ff" stroke="#63b8ff" points="95.28,-178.04 85.73,-182.65 96.07,-185 95.28,-178.04"/>
</g>
<!-- Node7 -->
<g id="node8" class="node">
<title>Node7</title>
<g id="a_node8"><a xlink:href="class_e_v_a_1_1_u_i_1_1_file_explorer_element_controller.html" target="_top" xlink:title="The FileExplorerElementController is used to control ONE element (file / folder) of the file explorer...">
<polygon fill="white" stroke="#666666" points="271,-141.5 134,-141.5 134,-111.5 271,-111.5 271,-141.5"/>
<text text-anchor="start" x="142" y="-129.5" font-family="Helvetica,sans-Serif" font-size="10.00">EVA.UI.FileExplorerElement</text>
<text text-anchor="middle" x="202.5" y="-118.5" font-family="Helvetica,sans-Serif" font-size="10.00">Controller</text>
</a>
</g>
</g>
<!-- Node0&#45;&gt;Node7 -->
<g id="edge7" class="edge">
<title>Node0&#45;&gt;Node7</title>
<path fill="none" stroke="#63b8ff" d="M72.44,-172.56C86.61,-165.67 103.98,-157.67 120,-151.5 128.7,-148.15 138.06,-144.93 147.22,-141.99"/>
<polygon fill="#63b8ff" stroke="#63b8ff" points="71.07,-169.33 63.65,-176.89 74.17,-175.6 71.07,-169.33"/>
</g>
<!-- Node8 -->
<g id="node9" class="node">
<title>Node8</title>
<g id="a_node9"><a xlink:href="class_e_v_a_1_1_u_i_1_1_file_explorer_manager.html" target="_top" xlink:title="The FileExplorerManager is responsible for managing ALL file explorers (FileExplorerController)....">
<polygon fill="white" stroke="#666666" points="272,-93 133,-93 133,-74 272,-74 272,-93"/>
<text text-anchor="middle" x="202.5" y="-81" font-family="Helvetica,sans-Serif" font-size="10.00">EVA.UI.FileExplorerManager</text>
</a>
</g>
</g>
<!-- Node0&#45;&gt;Node8 -->
<g id="edge8" class="edge">
<title>Node0&#45;&gt;Node8</title>
<path fill="none" stroke="#63b8ff" d="M55.3,-168.12C68.78,-148.52 92.22,-118.85 120,-102.5 126.26,-98.82 133.18,-95.85 140.27,-93.45"/>
<polygon fill="#63b8ff" stroke="#63b8ff" points="52.48,-166.04 49.87,-176.31 58.31,-169.91 52.48,-166.04"/>
</g>
<!-- Node9 -->
<g id="node10" class="node">
<title>Node9</title>
<g id="a_node10"><a xlink:href="class_e_v_a_1_1_u_i_1_1_hand_menu_controller.html" target="_top" xlink:title=" ">
<polygon fill="white" stroke="#666666" points="272.5,-56 132.5,-56 132.5,-37 272.5,-37 272.5,-56"/>
<text text-anchor="middle" x="202.5" y="-44" font-family="Helvetica,sans-Serif" font-size="10.00">EVA.UI.HandMenuController</text>
</a>
</g>
</g>
<!-- Node0&#45;&gt;Node9 -->
<g id="edge9" class="edge">
<title>Node0&#45;&gt;Node9</title>
<path fill="none" stroke="#63b8ff" d="M50.18,-167.08C60.94,-139.59 83.91,-91.18 120,-65.5 125.21,-61.79 131.03,-58.8 137.11,-56.38"/>
<polygon fill="#63b8ff" stroke="#63b8ff" points="46.94,-165.76 46.74,-176.35 53.5,-168.2 46.94,-165.76"/>
</g>
<!-- Node10 -->
<g id="node11" class="node">
<title>Node10</title>
<g id="a_node11"><a xlink:href="class_e_v_a_1_1_u_i_1_1_main_menu_controller.html" target="_top" xlink:title=" ">
<polygon fill="white" stroke="#666666" points="271,-19 134,-19 134,0 271,0 271,-19"/>
<text text-anchor="middle" x="202.5" y="-7" font-family="Helvetica,sans-Serif" font-size="10.00">EVA.UI.MainMenuController</text>
</a>
</g>
</g>
<!-- Node0&#45;&gt;Node10 -->
<g id="edge10" class="edge">
<title>Node0&#45;&gt;Node10</title>
<path fill="none" stroke="#63b8ff" d="M47,-166.9C54.76,-132.67 75.19,-64.32 120,-28.5 124.65,-24.78 129.91,-21.76 135.45,-19.32"/>
<polygon fill="#63b8ff" stroke="#63b8ff" points="43.64,-165.85 45,-176.36 50.49,-167.3 43.64,-165.85"/>
</g>
</g>
</svg>
