<?xml version="1.0" encoding="UTF-8" standalone="no"?>
<!DOCTYPE svg PUBLIC "-//W3C//DTD SVG 1.1//EN"
 "http://www.w3.org/Graphics/SVG/1.1/DTD/svg11.dtd">
<!-- Generated by graphviz version 7.0.5 (20221223.1930)
 -->
<!-- Title: Veery.UI.Selection.SelectionProperties.ParameterPrefab Pages: 1 -->
<svg width="152pt" height="104pt"
 viewBox="0.00 0.00 151.50 104.00" xmlns="http://www.w3.org/2000/svg" xmlns:xlink="http://www.w3.org/1999/xlink">
<g id="graph0" class="graph" transform="scale(1 1) rotate(0) translate(4 100)">
<title>Veery.UI.Selection.SelectionProperties.ParameterPrefab</title>
<!-- Node1 -->
<g id="node1" class="node">
<title>Node1</title>
<g id="a_node1"><a xlink:title=" ">
<polygon fill="#999999" stroke="#666666" points="140,-30 0,-30 0,0 140,0 140,-30"/>
<text text-anchor="start" x="8" y="-18" font-family="Helvetica,sans-Serif" font-size="10.00">Veery.UI.Selection.Selection</text>
<text text-anchor="middle" x="70" y="-7" font-family="Helvetica,sans-Serif" font-size="10.00">Properties.ParameterPrefab</text>
</a>
</g>
</g>
<!-- Node2 -->
<g id="node2" class="node">
<title>Node2</title>
<g id="a_node2"><a xlink:title=" ">
<polygon fill="white" stroke="#666666" points="53.5,-96 12.5,-96 12.5,-77 53.5,-77 53.5,-96"/>
<text text-anchor="middle" x="33" y="-84" font-family="Helvetica,sans-Serif" font-size="10.00">string</text>
</a>
</g>
</g>
<!-- Node2&#45;&gt;Node1 -->
<g id="edge1" class="edge">
<title>Node2&#45;&gt;Node1</title>
<path fill="none" stroke="#9a32cd" stroke-dasharray="5,2" d="M30.59,-65.63C30.64,-59.73 31.49,-53.4 34,-48 37.17,-41.18 42.57,-35.2 48.22,-30.31"/>
<polygon fill="#9a32cd" stroke="#9a32cd" points="27.08,-65.46 31.23,-75.21 34.06,-64.99 27.08,-65.46"/>
<text text-anchor="middle" x="60" y="-51" font-family="Helvetica,sans-Serif" font-size="10.00"> _typeName</text>
</g>
<!-- Node3 -->
<g id="node3" class="node">
<title>Node3</title>
<g id="a_node3"><a xlink:title=" ">
<polygon fill="white" stroke="#666666" points="143.5,-96 72.5,-96 72.5,-77 143.5,-77 143.5,-96"/>
<text text-anchor="middle" x="108" y="-84" font-family="Helvetica,sans-Serif" font-size="10.00">GameObject</text>
</a>
</g>
</g>
<!-- Node3&#45;&gt;Node1 -->
<g id="edge2" class="edge">
<title>Node3&#45;&gt;Node1</title>
<path fill="none" stroke="#9a32cd" stroke-dasharray="5,2" d="M97.79,-66.83C91.51,-55.34 83.58,-40.84 77.8,-30.27"/>
<polygon fill="#9a32cd" stroke="#9a32cd" points="94.59,-68.27 102.46,-75.37 100.73,-64.92 94.59,-68.27"/>
<text text-anchor="middle" x="109.5" y="-51" font-family="Helvetica,sans-Serif" font-size="10.00"> _prefab</text>
</g>
</g>
</svg>
