<?xml version="1.0" encoding="UTF-8" standalone="no"?>
<!DOCTYPE svg PUBLIC "-//W3C//DTD SVG 1.1//EN"
 "http://www.w3.org/Graphics/SVG/1.1/DTD/svg11.dtd">
<!-- Generated by graphviz version 7.0.5 (20221223.1930)
 -->
<!-- Title: Veery.UI.Selection.SelectionProperties.SelectionPrefab Pages: 1 -->
<svg width="162pt" height="104pt"
 viewBox="0.00 0.00 161.50 104.00" xmlns="http://www.w3.org/2000/svg" xmlns:xlink="http://www.w3.org/1999/xlink">
<g id="graph0" class="graph" transform="scale(1 1) rotate(0) translate(4 100)">
<title>Veery.UI.Selection.SelectionProperties.SelectionPrefab</title>
<!-- Node1 -->
<g id="node1" class="node">
<title>Node1</title>
<g id="a_node1"><a xlink:title=" ">
<polygon fill="#999999" stroke="#666666" points="140,-30 0,-30 0,0 140,0 140,-30"/>
<text text-anchor="start" x="8" y="-18" font-family="Helvetica,sans-Serif" font-size="10.00">Veery.UI.Selection.Selection</text>
<text text-anchor="middle" x="70" y="-7" font-family="Helvetica,sans-Serif" font-size="10.00">Properties.SelectionPrefab</text>
</a>
</g>
</g>
<!-- Node2 -->
<g id="node2" class="node">
<title>Node2</title>
<g id="a_node2"><a xlink:title=" ">
<polygon fill="white" stroke="#666666" points="43.5,-96 2.5,-96 2.5,-77 43.5,-77 43.5,-96"/>
<text text-anchor="middle" x="23" y="-84" font-family="Helvetica,sans-Serif" font-size="10.00">string</text>
</a>
</g>
</g>
<!-- Node2&#45;&gt;Node1 -->
<g id="edge1" class="edge">
<title>Node2&#45;&gt;Node1</title>
<path fill="none" stroke="#9a32cd" stroke-dasharray="5,2" d="M20.2,-65.43C20.24,-59.52 21.17,-53.24 24,-48 27.88,-40.81 34.17,-34.89 40.86,-30.19"/>
<polygon fill="#9a32cd" stroke="#9a32cd" points="16.69,-65.38 20.96,-75.08 23.67,-64.84 16.69,-65.38"/>
<text text-anchor="middle" x="60" y="-51" font-family="Helvetica,sans-Serif" font-size="10.00"> _interfaceName</text>
</g>
<!-- Node3 -->
<g id="node3" class="node">
<title>Node3</title>
<g id="a_node3"><a xlink:title=" ">
<polygon fill="white" stroke="#666666" points="153.5,-96 82.5,-96 82.5,-77 153.5,-77 153.5,-96"/>
<text text-anchor="middle" x="118" y="-84" font-family="Helvetica,sans-Serif" font-size="10.00">GameObject</text>
</a>
</g>
</g>
<!-- Node3&#45;&gt;Node1 -->
<g id="edge2" class="edge">
<title>Node3&#45;&gt;Node1</title>
<path fill="none" stroke="#9a32cd" stroke-dasharray="5,2" d="M107.69,-66.65C104.17,-60.58 100.09,-53.89 96,-48 91.84,-42 86.87,-35.7 82.39,-30.29"/>
<polygon fill="#9a32cd" stroke="#9a32cd" points="104.6,-68.31 112.55,-75.31 110.71,-64.88 104.6,-68.31"/>
<text text-anchor="middle" x="119.5" y="-51" font-family="Helvetica,sans-Serif" font-size="10.00"> _prefab</text>
</g>
</g>
</svg>
