<?xml version="1.0" encoding="UTF-8"?>
<!DOCTYPE svg PUBLIC "-//W3C//DTD SVG 1.1//EN" "http://www.w3.org/Graphics/SVG/1.1/DTD/svg11.dtd">
<svg xmlns="http://www.w3.org/2000/svg" version="1.1" width="512px" height="512px" style="shape-rendering:geometricPrecision; text-rendering:geometricPrecision; image-rendering:optimizeQuality; fill-rule:evenodd; clip-rule:evenodd" xmlns:xlink="http://www.w3.org/1999/xlink">
<g><path style="opacity:0.996" fill="#c4c4fd" d="M 133.5,-0.5 C 142.833,-0.5 152.167,-0.5 161.5,-0.5C 191.479,5.66562 219.813,16.499 246.5,32C 255.528,37.5111 264.528,43.0111 273.5,48.5C 292.119,61.1547 310.452,74.3213 328.5,88C 344.416,102.012 356.25,118.845 364,138.5C 370.897,162.955 365.731,184.288 348.5,202.5C 334.641,196.07 320.975,189.403 307.5,182.5C 298.032,160.203 281.699,145.37 258.5,138C 242.38,131.793 226.047,126.293 209.5,121.5C 191.881,116.316 173.881,113.65 155.5,113.5C 135.841,114.775 117.841,120.942 101.5,132C 91.2846,139.056 80.9512,145.889 70.5,152.5C 67.2151,123.726 68.0485,95.0592 73,66.5C 77.2534,45.4852 87.0868,27.6518 102.5,13C 111.932,6.28034 122.266,1.78034 133.5,-0.5 Z"/></g>
<g><path style="opacity:1" fill="#a3a3f5" d="M 273.5,48.5 C 341.219,51.6091 396.385,79.2757 439,131.5C 467.338,168.782 486.671,210.449 497,256.5C 508.365,308.907 512.698,361.907 510,415.5C 508.554,447.63 505.72,479.63 501.5,511.5C 475.5,511.5 449.5,511.5 423.5,511.5C 429.626,490.998 435.126,470.331 440,449.5C 447.639,412.918 448.306,376.252 442,339.5C 441.178,334.815 439.678,330.481 437.5,326.5C 441.224,321.718 443.891,316.385 445.5,310.5C 454.216,288.404 450.216,268.904 433.5,252C 406.415,233.454 378.082,216.954 348.5,202.5C 365.731,184.288 370.897,162.955 364,138.5C 356.25,118.845 344.416,102.012 328.5,88C 310.452,74.3213 292.119,61.1547 273.5,48.5 Z"/></g>
<g><path style="opacity:1" fill="#404077" d="M 155.5,113.5 C 173.881,113.65 191.881,116.316 209.5,121.5C 219.727,129.268 225.893,139.601 228,152.5C 229.757,171.217 229.257,189.884 226.5,208.5C 224.077,223.923 218.577,238.256 210,251.5C 204.332,258.246 197.499,263.413 189.5,267C 172.56,270.735 155.894,275.401 139.5,281C 125.536,286.643 112.869,294.31 101.5,304C 91.2831,317.224 78.9497,327.891 64.5,336C 62.26,336.977 59.9267,337.477 57.5,337.5C 47.8734,335.185 38.8734,331.518 30.5,326.5C 35.0328,322.883 40.0328,319.716 45.5,317C 62.3842,304.385 78.7176,291.051 94.5,277C 109.337,266.082 125.671,258.082 143.5,253C 162.624,246.875 175.458,234.375 182,215.5C 184.879,191.868 185.213,168.201 183,144.5C 179.688,127.521 169.521,117.687 152.5,115C 153.737,114.768 154.737,114.268 155.5,113.5 Z"/></g>
<g><path style="opacity:1" fill="#52528c" d="M 155.5,113.5 C 154.737,114.268 153.737,114.768 152.5,115C 169.521,117.687 179.688,127.521 183,144.5C 185.213,168.201 184.879,191.868 182,215.5C 175.458,234.375 162.624,246.875 143.5,253C 125.671,258.082 109.337,266.082 94.5,277C 78.7176,291.051 62.3842,304.385 45.5,317C 40.0328,319.716 35.0328,322.883 30.5,326.5C 20.2744,320.785 12.7744,312.452 8,301.5C -2.36356,267.349 -1.69689,233.349 10,199.5C 11.3726,196.588 12.8726,193.754 14.5,191C 32.7029,177.406 51.3696,164.573 70.5,152.5C 80.9512,145.889 91.2846,139.056 101.5,132C 117.841,120.942 135.841,114.775 155.5,113.5 Z"/></g>
<g><path style="opacity:1" fill="#faf4f6" d="M 209.5,121.5 C 226.047,126.293 242.38,131.793 258.5,138C 281.699,145.37 298.032,160.203 307.5,182.5C 300.952,180.228 294.619,177.394 288.5,174C 287.167,173.333 285.833,173.333 284.5,174C 276.471,181.89 271.471,191.39 269.5,202.5C 268.527,204.948 268.194,207.615 268.5,210.5C 254.502,209.802 240.502,209.135 226.5,208.5C 229.257,189.884 229.757,171.217 228,152.5C 225.893,139.601 219.727,129.268 209.5,121.5 Z"/></g>
<g><path style="opacity:1" fill="#52528c" d="M 307.5,182.5 C 320.975,189.403 334.641,196.07 348.5,202.5C 378.082,216.954 406.415,233.454 433.5,252C 450.216,268.904 454.216,288.404 445.5,310.5C 428.293,303.648 411.127,296.648 394,289.5C 393.51,290.793 393.343,292.127 393.5,293.5C 392.71,292.391 392.21,291.058 392,289.5C 365.995,278.747 339.829,268.414 313.5,258.5C 307.57,255.91 301.57,253.41 295.5,251C 282.976,242.444 274.476,230.944 270,216.5C 269.501,211.845 269.334,207.179 269.5,202.5C 271.471,191.39 276.471,181.89 284.5,174C 285.833,173.333 287.167,173.333 288.5,174C 294.619,177.394 300.952,180.228 307.5,182.5 Z"/></g>
<g><path style="opacity:1" fill="#ece2e6" d="M 269.5,202.5 C 269.334,207.179 269.501,211.845 270,216.5C 274.476,230.944 282.976,242.444 295.5,251C 301.57,253.41 307.57,255.91 313.5,258.5C 306.618,278.212 292.951,290.378 272.5,295C 257.599,297.448 242.599,298.115 227.5,297C 210.052,294.11 192.552,291.61 175,289.5C 151.143,289.081 136.477,300.414 131,323.5C 129.783,329.101 129.283,334.768 129.5,340.5C 109.866,344.174 90.1996,344.341 70.5,341C 65.9232,340.275 61.5899,339.108 57.5,337.5C 59.9267,337.477 62.26,336.977 64.5,336C 78.9497,327.891 91.2831,317.224 101.5,304C 112.869,294.31 125.536,286.643 139.5,281C 155.894,275.401 172.56,270.735 189.5,267C 197.499,263.413 204.332,258.246 210,251.5C 218.577,238.256 224.077,223.923 226.5,208.5C 240.502,209.135 254.502,209.802 268.5,210.5C 268.194,207.615 268.527,204.948 269.5,202.5 Z"/></g>
<g><path style="opacity:0.999" fill="#feead3" d="M 313.5,258.5 C 339.829,268.414 365.995,278.747 392,289.5C 392.21,291.058 392.71,292.391 393.5,293.5C 394.71,312.17 394.71,330.837 393.5,349.5C 392.194,402.062 379.027,451.395 354,497.5C 350.612,502.048 347.445,506.714 344.5,511.5C 327.5,511.5 310.5,511.5 293.5,511.5C 307.139,481.278 314.639,449.611 316,416.5C 293.451,432.128 268.451,440.795 241,442.5C 235.086,442.43 229.252,441.764 223.5,440.5C 223.737,441.791 223.404,442.791 222.5,443.5C 222.5,442.167 222.5,440.833 222.5,439.5C 210.891,437.241 200.225,432.741 190.5,426C 182.65,419.977 175.317,413.477 168.5,406.5C 150.939,387.407 137.939,365.407 129.5,340.5C 129.283,334.768 129.783,329.101 131,323.5C 136.477,300.414 151.143,289.081 175,289.5C 192.552,291.61 210.052,294.11 227.5,297C 242.599,298.115 257.599,297.448 272.5,295C 292.951,290.378 306.618,278.212 313.5,258.5 Z"/></g>
<g><path style="opacity:1" fill="#414178" d="M 445.5,310.5 C 443.891,316.385 441.224,321.718 437.5,326.5C 426.276,340.448 411.609,348.115 393.5,349.5C 394.71,330.837 394.71,312.17 393.5,293.5C 393.343,292.127 393.51,290.793 394,289.5C 411.127,296.648 428.293,303.648 445.5,310.5 Z"/></g>
<g><path style="opacity:1" fill="#c5c4fd" d="M 437.5,326.5 C 439.678,330.481 441.178,334.815 442,339.5C 448.306,376.252 447.639,412.918 440,449.5C 435.126,470.331 429.626,490.998 423.5,511.5C 397.167,511.5 370.833,511.5 344.5,511.5C 347.445,506.714 350.612,502.048 354,497.5C 379.027,451.395 392.194,402.062 393.5,349.5C 411.609,348.115 426.276,340.448 437.5,326.5 Z"/></g>
<g><path style="opacity:0.991" fill="#c5c5fd" d="M 168.5,406.5 C 175.317,413.477 182.65,419.977 190.5,426C 200.225,432.741 210.891,437.241 222.5,439.5C 222.5,440.833 222.5,442.167 222.5,443.5C 220.261,466.698 215.594,489.364 208.5,511.5C 188.167,511.5 167.833,511.5 147.5,511.5C 157.55,490.305 163.717,467.971 166,444.5C 167.205,431.855 168.038,419.188 168.5,406.5 Z"/></g>
<g><path style="opacity:1" fill="#fed5b8" d="M 293.5,511.5 C 265.167,511.5 236.833,511.5 208.5,511.5C 215.594,489.364 220.261,466.698 222.5,443.5C 223.404,442.791 223.737,441.791 223.5,440.5C 229.252,441.764 235.086,442.43 241,442.5C 268.451,440.795 293.451,432.128 316,416.5C 314.639,449.611 307.139,481.278 293.5,511.5 Z"/></g>
</svg>
